/* XPM */
static char *out[] = {
/* columns rows colors chars-per-pixel */
"50 50 238 2 ",
"   c #561F00",
".  c #721C0A",
"X  c #621F17",
"o  c #4C2B00",
"O  c #5C2602",
"+  c #552D01",
"@  c #5D2D04",
"#  c #592D0C",
"$  c #4E3A00",
"%  c #563402",
"&  c #5D3105",
"*  c #5B3B05",
"=  c #5D3309",
"-  c #58360C",
";  c #5D2B13",
":  c #5C3512",
">  c #573B13",
",  c #6D2402",
"<  c #622E05",
"1  c #692E03",
"2  c #63270A",
"3  c #632E09",
"4  c #6B2D0B",
"5  c #792500",
"6  c #752C03",
"7  c #73240E",
"8  c #712E09",
"9  c #7D2C0C",
"0  c #633206",
"q  c #6B3305",
"w  c #643906",
"e  c #6C3C04",
"r  c #64330A",
"t  c #69350C",
"y  c #653A0C",
"u  c #6B390D",
"i  c #703106",
"p  c #7C3206",
"a  c #703807",
"s  c #73330C",
"d  c #733B0D",
"f  c #692A15",
"g  c #772417",
"h  c #722E13",
"j  c #643413",
"k  c #6C3612",
"l  c #663B13",
"z  c #6C3A11",
"x  c #66351D",
"c  c #6B341A",
"v  c #6A3A1B",
"b  c #713215",
"n  c #713D13",
"m  c #783D15",
"M  c #733D1A",
"N  c #6E2E25",
"B  c #78262C",
"V  c #743B24",
"C  c #5F4009",
"Z  c #674208",
"A  c #76430C",
"S  c #654017",
"D  c #6F4214",
"F  c #734116",
"G  c #7C471D",
"H  c #892804",
"J  c #912C0E",
"K  c #8A3106",
"L  c #973606",
"P  c #8B2D14",
"I  c #862A1D",
"U  c #893B16",
"Y  c #993711",
"T  c #A52F0D",
"R  c #B33906",
"E  c #BE2B1B",
"W  c #B51E23",
"Q  c #D23200",
"!  c #C23E12",
"~  c #884E04",
"^  c #964D04",
"/  c #8A5704",
"(  c #804115",
")  c #8F5118",
"_  c #99591D",
"`  c #AE4109",
"'  c #A55703",
"]  c #B64713",
"[  c #A25E1F",
"{  c #B5750B",
"}  c #9C4D22",
"|  c #94552A",
" . c #9E6C25",
".. c #AE6722",
"X. c #B9712D",
"o. c #C74908",
"O. c #D5450A",
"+. c #C65006",
"@. c #CC5D00",
"#. c #D55907",
"$. c #D25A0B",
"%. c #C44419",
"&. c #D34D1C",
"*. c #CA5216",
"=. c #D55B13",
"-. c #E85A10",
";. c #CE6501",
":. c #C66A00",
">. c #D66806",
",. c #CE7602",
"<. c #DD7207",
"1. c #DC7012",
"2. c #E47E05",
"3. c #E77711",
"4. c #BEAB2A",
"5. c #D79805",
"6. c #C98210",
"7. c #DD9010",
"8. c #E78A0C",
"9. c #F4870D",
"0. c #EB9507",
"q. c #ED9C02",
"w. c #E98918",
"e. c #EE961B",
"r. c #ECAF00",
"t. c #EAA807",
"y. c #F3A302",
"u. c #FCA403",
"i. c #F5AC02",
"p. c #FBAA02",
"a. c #F6A90B",
"s. c #FEAB0B",
"d. c #EAB705",
"f. c #EBB20C",
"g. c #F4B503",
"h. c #FEB401",
"j. c #F4BB01",
"k. c #FDBC03",
"l. c #FDB30C",
"z. c #F5BD0E",
"x. c #FBBB0A",
"c. c #EAAD15",
"v. c #E7BA18",
"b. c #F7B916",
"n. c #FDBE15",
"m. c #D39B2C",
"M. c #CF9334",
"N. c #EABA26",
"B. c #F4AD31",
"V. c #EDC704",
"C. c #F5C502",
"Z. c #FEC203",
"A. c #F4CC02",
"S. c #FDCB02",
"D. c #F5C509",
"F. c #FDC20A",
"G. c #FECE0B",
"H. c #EBD900",
"J. c #F2D300",
"K. c #FDD302",
"L. c #F4DA00",
"P. c #FEDA01",
"I. c #F6D30A",
"U. c #FED40B",
"Y. c #FFDD0C",
"T. c #EAC612",
"R. c #FCC817",
"E. c #FCC41B",
"W. c #FED515",
"Q. c #FED812",
"!. c #F4D61C",
"~. c #FFD31C",
"^. c #FFDC1D",
"/. c #ECEA00",
"(. c #F4E302",
"). c #FEE403",
"_. c #F6EC01",
"`. c #FCEA02",
"'. c #FEE50B",
"]. c #F1EA08",
"[. c #FEEB0B",
"{. c #EAF707",
"}. c #F5F200",
"|. c #FDF401",
" X c #F5FB02",
".X c #FDFC02",
"XX c #F6F209",
"oX c #FFF30B",
"OX c #FCFB09",
"+X c #F8E615",
"@X c #FFE31D",
"#X c #FDF215",
"$X c #FFF81B",
"%X c #FFCA2A",
"&X c #FDD625",
"*X c #EEC73B",
"=X c #FFC736",
"-X c #F0CC3D",
";X c #FCDA32",
":X c #F9D93A",
">X c #FCE725",
",X c #FAF625",
"<X c #E7E633",
"1X c #FBE83B",
"2X c #FCF534",
"3X c #FFFA30",
"4X c #F5F53B",
"5X c #FEF43D",
"6X c #FFFC3E",
"7X c #EBBB4F",
"8X c #F4CB48",
"9X c #E9DA4D",
"0X c #FFDE45",
"qX c #FFDB58",
"wX c #EFED4A",
"eX c #F5ED43",
"rX c #F9EB47",
"tX c #FEE54A",
"yX c #E5F442",
"uX c #FEF645",
"iX c #FFFB44",
"pX c #F4F54A",
"aX c #FEF54C",
"sX c #F6FF4A",
"dX c #FEFD4B",
"fX c #FEEE51",
"gX c #FFEE5F",
"hX c #EAFA56",
"jX c #F3F554",
"kX c #F9F555",
"lX c #FEFD54",
"zX c #FEF45C",
"xX c #FFFE5C",
"cX c #FFEE64",
"vX c #EBFA63",
"bX c #FFF162",
"nX c #FEFE64",
"mX c #FFFB73",
/* pixels */
"r r r r @ < < < 3 3 2 1 3 r 3 3 1 < < 0 t u t r r < < 0 t u u y t r r @ O = u n r r r 3 < < < r r r ",
"@ = r r r r r 1 4 t r t t 3 3 @ < < 1 0 t u s u u t w r r u r 0 = r r 0 < < r r 3 < < 2 3 3 r 1 r @ ",
"@ & r j u k r r r t k z k r # r r 1 r r u u u n n u t r t r 0 @ @ < 3 r r @ @ @ < < @ < t k r 0 r r ",
"= r y y t r 3 1 3 u k k t r t r r r w t u n n z z u u r u t r 0 3 3 3 < < < @ @ r 3 < 0 t u r 2 @ r ",
"y y = r r 3 r r r r 3 r r y j t q 0 0 q w u u u u u t t u w t q t 3 1 < 3 3 r < r 3 < < < < 1 @ r r ",
"l l y r = y y r j r 3 = r r y = < 0 0 0 0 w q w u a u u u u u q r r r r u t r 1 r r r < @ < 3 r z l ",
": = y = j r r y r r r r = r = r @ & 0 0 0 0 q w u q a u u u t q t 4 t t t t r 4 1 r r 3 3 r t z = 0 ",
"* = = = y y = @ = r t j r : = y @ @ @ 0 0 0 0 w q q t q u u q t t t t r r 3 r r 3 1 3 < < r t k < = ",
"w w * 0 r r w u l j = @ r r y r 6 a y C * Z u u w w u c b s q i c u u 0 4 k j r 0 3 r t t y r = r @ ",
"y y y y y r y r y y 3 r z t = y : : n m a d F S m A A e e D S : q q < < k u r z k k r u j t r r @ @ ",
"y Z Z z u w 0 0 r r r r t = # y l w & r V N f ( ; # 2 k M m s 2 3 t d 0 O r m k u 3 r r r t y t @ 3 ",
"w y y y r r r r w t 0 < r r = j w q r r 3 G _ / X...[ ) d < r v M k 3 t t w k r r < @ = r r t j = = ",
"r w w w r t u u 1 u w < t z u r ; c i ^ m.-XeXnXuXuXiXrX-XM._ 5 3 c c 2 u q 1 r t r r y y = @ @ = @ ",
"0 = * 0 r u z n 1 u r r t u r < f ~ 5.&XiXdXuX4XiX5X2X4XdXnX9X4.~ q k V O @ a 3 r r y t t y = @ @ = ",
"& & 0 w r t d n r u r t t < 1 d ' ~.OX X,XkXfXkXkXnXxXjXwXaXiX6X8X/ q V k 0 u 3 @ @ @ y r r = r = r ",
"& & 0 0 w t u u z r r z u 0 d | [.oX_.].,XiXuXpX;X;X1XiXdXuXrXfXkXqX .  k m @ M r = @ r y 0 = @ j = ",
"0 3 r 0 r t y t x % y & = B ' XX`.[. X}.^.B.0.0.7.9.9.e.N.uXaXkX1XnX<X^ g x h w u t r t r r 0 3 = r ",
"r r < < = < = < = & r & j U f.oX/..X[.G.t.t.R.8XcXcX:Xx.0.e.*XsX5XfXuX7X9 3 u u r r 1 t t t t t = = ",
"r = @ @ @ = = = & 2 @ % 4 { |.oX{..Xj.0.k.W.tXiX6XyXvXmXqXc.i.%XuX1XkXnX..8 * 4 r t t t u t t r < & ",
"3 @ @ @ = r r t % 2 = % p b.|.`.|.I.a.x.I.>XdX5XtX1XdXjXzX;Xz.q.1X5XfXxX7XU * h k t r t t r 3 < < < ",
"r r r r r t y r w < y ; ' @X_.'.).f.E.K.H.+X3X1Xy.v.rXdXlX0X%Xj.N.iXgXeXbX} 2 V t r t r t r 3 3 0 & ",
"z z y t j y = @ r 0 - X 6.`.[.[.~.j.Z.k.S.#X,XeXY.b.N.-X;XT.D.W.f.uXbXpXxXX.7 j 3 3 3 3 t k k u t u ",
"D z k t t y = @ f $ @ 7 7.`.'._.W.d.S.S.g.G.$X2XhX2XG.i.f.~.W.z.z.:XkXpXlXM.g & 3 1 3 3 3 r u k n n ",
"z t r = y y t r b > = K 5.|.L.}.Z.S.d.x.Z.r.T.|.2XiXsXiX&XE.x.A.C.=XxXyXdXm.g & r 3 @ @ < 2 @ @ n u ",
"@ @ < r u r r r l 1 l 6 5.[.P._.S.k.k.Z.k.x.i.q.f.!.5XlX1X%XE.F.n.&XhXfX6XB.k & 3 < < @ 3 3 r r q q ",
"< < 0 t u u r r = 1 - , 7.).P.[.K.k.h.k.S.'.Y.U.u.t.V.,X6X>XS.F.x.>XiX>X,Xw.g w r 3 3 3 r t k k r r ",
"t q 0 u u r r r & q # 2 1.Y.L.^.(.C.h.h.J.XX}._.n.Z.L.#XoXJ.g.k.h.#X>X).XX1.. 0 < 3 @ 3 r k z z t u ",
"a t 0 q u r 0 @ = w # f $.K./.G.L.C.l.k.S.[.OX.X(._..X.XY.j.h.l.Z.].P._.(.#.7 @ r @ 3 r r z z z a a ",
"u q w q q 0 0 r # 0 - 2 R s.(.S.P.S.F.i.i.Z.Y.+X XOX`.C.l.s.x.x.P.(.P._.j.R x k t r r t y z z z u u ",
"e t a u u 0 r r r 2 j @ H 9.K.K.P.G.~.z.y.u.i.d.@XK.x.a.y.p.k.K.).).'.+X8.K S k y r = r r t z z e u ",
"a u u u u u w w 0 j t % 7 &.q.K.K.A.W.~.F.l.a.s.q.q.p.h.n.k.K.P.P._.Y.c.&.6 % 0 0 0 @ @ r r r r w w ",
"u u e u u u r 0 1 c 4 $ f W ;.C.K.C.S.Q.I.D.h.s.s.h.g.j.C.G.Q.Y.P._.A.:.E 3 0 < = = @ @ @ 0 w 0 w w ",
"q q w q u u t r y q 0 t j s ` -.v.C.S.S.S.G.U.Z.S.S.G.K.P.K.P.K.).j.3.! P : - u = @ & = 0 0 0 0 w 0 ",
"u u u u u t q r u 0 0 r j i L o.<.0.Z.S.Z.Z.C.J.S.K.K.K.K.U.Q.W.t.2.+.L r y y w w r r r r u u y y y ",
"u F n n z t r r l 0 1 q k k p K Q #.5.f.R.W.G.S.G.D.C.S.U.F.r.5.1.o.L r - t q q y y u t u z z F y u ",
"u u u d a t t r k t q 1 k v b 6 T ] $.;.,.5.y.s.j.j.k.i.0.2.1.=.! Y t r w = * r t u u t u u n F u u ",
"0 0 0 0 q u t 3 k t q 1 r z x j o p R O.O.#.;.:.>.;.@.@.#.$.+.R P r % r t 0 0 t r w t t r t d n r r ",
"< < < 0 t u u u k u r < < t j j l r 4 H T ] %.] O.=.=.*.] Y P I w 0 r : w a r - r t 0 0 0 r t t 0 0 ",
"0 1 0 q t u d u a u r 3 r t r r , u l l 4 5 H J J H H 5 6 s u y Z z k r 0 q r = t q 0 4 q r 1 1 < 0 ",
"0 0 0 0 w 0 u u a u y j s a i 1 % r f k r * - + + + @ = y j y y z z k 4 w Z y 8 r 0 0 3 1 3 3 1 0 < ",
"t 0 0 0 q r r t t 4 k k k k t t 3 1 3 3 r r r r r r r 0 0 r y t j t r u k k t t 1 r 1 3 1 r t 8 3 4 ",
"q 0 0 1 r r t t k k t k u k k k t t r u r r r @ = r = = = r j t r r 3 r r t t 3 1 r 4 t u k b t t t ",
"w 0 0 < 1 r r u k k t 4 4 t k k 3 r 4 k j t y y = 0 r @ @ < r r 0 0 @ r r t u t 3 t t t u z u t t t ",
"r q 0 < 3 r 4 r u 3 3 3 3 t t t 1 r r r t t y r @ r r @ @ @ < @ r r r < r 3 r t r u k t t s r 4 t t ",
"t t 0 0 r 3 r r r r < 3 t t 3 4 k u t t r < & @ 0 r 0 @ # @ r = r = r @ @ @ 3 < 3 t r t t u t 4 t k ",
"u t r 1 3 r 3 r 2 < 2 1 k k k t t u t t r r = r = r y r r r t t r y r r 0 @ @ r 3 r k 3 4 k k k t u ",
"t r 3 3 3 r r r 0 2 < 2 t u r 3 r 3 3 r t t l z l z l t y t t t 0 r = r 3 @ @ r r r r u k k k u t k ",
"r r < < 1 4 r r r < @ 2 3 4 3 3 1 3 r r r y z z z D D z t t = r @ @ < = = @ 3 @ r k k k u u 4 3 r r ",
"y # + + @ r 3 @ # O 2 3 3 4 k < 3 < < 2 < < 3 u z r 3 r k k r q = 0 0 r w 0 0 r y t r r 3 3 1 3 r r ",
"y = O + @ 3 3 < 3 O @ 3 3 r k 3 3 # < 3 < < 3 t u 3 O 3 t r u t w 0 0 w r 0 0 r r t r u 1 3 3 3 r r "
};
