/* XPM */
static char *out[] = {
/* columns rows colors chars-per-pixel */
"50 50 199 2 ",
"   c None",
".  c #B59102",
"X  c #B69203",
"o  c #B79303",
"O  c #B69304",
"+  c #BB9603",
"@  c #B89404",
"#  c #BE9801",
"$  c #B99608",
"%  c #BC980A",
"&  c #C19B01",
"*  c #C39C00",
"=  c #C49D01",
"-  c #C09C0C",
";  c #C7A000",
":  c #C9A100",
">  c #CBA200",
",  c #CCA300",
"<  c #CEA500",
"1  c #CDA607",
"2  c #C4A00D",
"3  c #C7A20D",
"4  c #CFA80F",
"5  c #D0A600",
"6  c #D1A700",
"7  c #D2A800",
"8  c #D3A900",
"9  c #D3AA00",
"0  c #D4A900",
"q  c #D4AA00",
"w  c #D5AA00",
"e  c #D5AB00",
"r  c #D5AB01",
"t  c #D4AB02",
"y  c #D5AC01",
"u  c #D6AC02",
"i  c #D7AD02",
"p  c #D6AC03",
"a  c #D2AA06",
"s  c #D9AE04",
"d  c #D9AF04",
"f  c #DAAE05",
"g  c #DAAF05",
"h  c #D6AD08",
"j  c #D4AC0C",
"k  c #D8AF0B",
"l  c #DBB006",
"z  c #DCB107",
"x  c #DCB208",
"c  c #DDB208",
"v  c #DEB40A",
"b  c #D9B10E",
"n  c #C9A410",
"m  c #CDA710",
"M  c #D0AA13",
"N  c #D3AD17",
"B  c #D7B012",
"V  c #DBB314",
"C  c #DCB517",
"Z  c #D8B218",
"A  c #DFB71A",
"S  c #D9B31D",
"D  c #DAB41C",
"F  c #DDB61C",
"G  c #DFB91E",
"H  c #E0B60B",
"J  c #E1B70F",
"K  c #E2B80D",
"L  c #E5BA0F",
"P  c #E5BA10",
"I  c #E7BC12",
"U  c #E8BD13",
"Y  c #EABF15",
"T  c #E3BB1A",
"R  c #E2BA1D",
"E  c #E5BD1D",
"W  c #E6BF1F",
"Q  c #DAB72E",
"!  c #DBB829",
"~  c #DCBA31",
"^  c #E2BC24",
"/  c #EBC015",
"(  c #EAC016",
")  c #EBC016",
"_  c #ECC217",
"`  c #EEC41A",
"'  c #EFC41A",
"]  c #F2C71D",
"[  c #EAC121",
"{  c #EDC422",
"}  c #E5C02B",
"|  c #E5C12F",
" . c #E8C228",
".. c #F1C722",
"X. c #F4C920",
"o. c #F5CA20",
"O. c #F6CA21",
"+. c #F6CB21",
"@. c #F7CB21",
"#. c #F2C925",
"$. c #F6CC26",
"%. c #F8CD23",
"&. c #FACE24",
"*. c #F9CF27",
"=. c #FBD026",
"-. c #FFD326",
";. c #FED227",
":. c #FFD327",
">. c #FBD028",
",. c #FCD128",
"<. c #FDD128",
"1. c #FDD229",
"2. c #FED329",
"3. c #FFD428",
"4. c #FFD429",
"5. c #FFD42A",
"6. c #FFD52A",
"7. c #FFD42B",
"8. c #FFD52B",
"9. c #FFD62B",
"0. c #FFD42C",
"q. c #FFD52D",
"w. c #E6C332",
"e. c #E3C23C",
"r. c #EAC738",
"t. c #EDCA3C",
"y. c #F0CB38",
"u. c #F8D133",
"i. c #FFD530",
"p. c #FFD631",
"a. c #FFD633",
"s. c #FFD635",
"d. c #FFD735",
"f. c #F4D03D",
"g. c #FFD739",
"h. c #FFD73A",
"j. c #FBD53E",
"k. c #FFD83B",
"l. c #FFD83C",
"z. c #FFD83F",
"x. c #D6BE5D",
"c. c #E9CA4E",
"v. c #F1CE43",
"b. c #F4D145",
"n. c #F7D447",
"m. c #FFD942",
"M. c #FFD943",
"N. c #FDD844",
"B. c #FFD944",
"V. c #FFDA45",
"C. c #FAD74B",
"Z. c #FCD849",
"A. c #FFDB49",
"S. c #FFDB4A",
"D. c #FFDB4B",
"F. c #FFDC4D",
"G. c #E2C551",
"H. c #F0D157",
"J. c #FFDC51",
"K. c #FFDD53",
"L. c #FFDD54",
"P. c #FFDD55",
"I. c #FFDE55",
"U. c #FFDD56",
"Y. c #FFDD57",
"T. c #FFDE56",
"R. c #FFDE57",
"E. c #FFDE5C",
"W. c #D8C168",
"Q. c #FBDC62",
"!. c #E7D072",
"~. c #E8D379",
"^. c #FFE066",
"/. c #FFE370",
"(. c #FFE57B",
"). c #E7D485",
"_. c #ECD98D",
"`. c #EEDF9E",
"'. c #F8E28B",
"]. c #FFE889",
"[. c #F1E3AC",
"{. c #FFEEA8",
"}. c #F3E7B6",
"|. c #FFF1B8",
" X c #FFF2BF",
".X c #F7EECB",
"XX c #FFF5CB",
"oX c #FEF5D1",
"OX c #FFF6D1",
"+X c #FFF8D9",
"@X c #FFF9DF",
"#X c #F9F4E0",
"$X c #FCF8E8",
"%X c #FFFCEE",
"&X c #FCFAF1",
"*X c #FFFEF5",
"=X c #FFFEFA",
"-X c #FFFFFE",
";X c white",
/* pixels */
"                                        U.U.L.P.I.I.R.L.U.U.                                        ",
"                                U.U.U.Y.L.L.J.J.J.J.J.J.L.L.Y.U.U.U.                                ",
"                            U.R.L.J.S.m.g.s.p.i.i.i.i.p.s.g.m.S.J.L.R.U.                            ",
"                        I.I.J.V.k.i.0.5.4.4.5.5.5.5.5.5.4.4.5.0.i.k.V.J.I.I.                        ",
"                    U.R.J.M.a.7.4.5.5.5.5.5.5.5.5.5.5.5.5.5.5.5.5.4.7.a.M.J.R.P.                    ",
"                  R.L.V.a.5.4.5.5.5.5.5.5.5.5.6.6.6.6.5.5.5.5.5.5.5.5.4.5.a.V.L.R.                  ",
"                L.J.g.7.4.5.5.5.5.5.6.8.5.,.%.#.....#.%.1.6.8.6.5.5.5.5.5.4.7.g.J.L.                ",
"              I.S.p.4.5.5.5.5.5.8.2.#.A m - @ X . . O $ - M T $.5.8.5.5.5.5.5.4.p.S.I.              ",
"            T.V.q.4.5.5.5.5.8.1.W n O . + * : , < < , : * + X $ 4 { 2.6.5.5.5.5.4.q.V.T.            ",
"          P.M.0.5.5.5.5.5.5.{ 3 . # > 7 q r w q q q q w r q 7 > # o 4 #.6.5.5.5.5.5.0.M.P.          ",
"        T.V.8.5.5.p.q.3.,.Z o # 5 q w q q q q q q q q q q q q w q 5 # % R 2.5.5.5.5.5.8.V.T.        ",
"      R.S.q.5.4.g.|.|.Q.m o , q q q q q q 0 8 q t r r q 8 8 q q q q q > + B 1.5.5.5.5.5.q.S.R.      ",
"      L.a.4.5.3.q.{.;X&XW.6 w q q q q 8 p C | t.v.b.b.v.r.^ b q q q q w 6 # N 1.5.5.5.5.4.a.L.      ",
"    P.z.5.5.5.M.z.u.).#X.XB q q q q r ^ v.Z.z.g.p.p.p.a.k.M.n.r.b 0 q q q 8 & Z 5.5.5.5.5.5.z.P.    ",
"    D.q.5.3.^.@XXXQ # S ! r q q 0 k t.N.p.5.4.4.5.5.5.5.4.4.8.k.n.G q q q q 8 * E 8.5.5.5.5.q.D.    ",
"  K.g.4.4.s.XX;X;Xx.5 q 0 q q 0 b f.g.4.5.5.5.5.6.6.6.5.5.5.5.4.q.j.G 0 q q q 6 3 $.6.5.5.5.4.g.K.  ",
"  A.q.5.:.E.*X;X;X~.8 q q q q h y.a.4.5.5.5.8.,.#.{ #.>.8.5.5.5.5.8.f.b q q q q , V 5.5.5.5.5.q.A.  ",
"  l.5.5.-.(.;X;X;X!.8 q q q q  .s.4.5.5.6.>.Z % @ + # 2 F >.5.5.5.5.p. .q q q q 8 1 $.6.5.5.5.5.l.  ",
"F.p.5.5.-.].;X;X=XG.8 q q q b u.5.5.5.6.$.- @ , 8 q q 6 > B >.5.5.5.6.u.k q q q q 5 T 8.5.5.5.5.p.F.",
"B.0.5.5.:./.-X;X.XZ q q q 8 W i.5.5.5.1.n & r q q q q q q 7 Y 8.9.6.>.{ j q q q q 8 k 1.5.5.5.5.0.B.",
"h.5.5.5.3.m.oX$XG.0 q q q r #.8.5.5.6.[ # q q q q q q q q q z [ Z n % o : w q q q q t $.5.5.5.5.5.h.",
"d.5.5.5.5.6.r.Q r q q q q k *.5.5.5.8.N > w q q q q q q q q 9 & # ; 5 8 q q q q q q q ..8.5.5.5.5.d.",
"i.5.5.5.5.7.J 6 q q q q 0 v 1.5.5.5.1.n 7 q q q q q q q q q q w r r q q q q q q q q q ' 8.5.5.5.5.i.",
"0.5.5.5.5.5.J 8 q q q q 8 H 2.5.5.5.*.n 8 q q q q q q q q q q q q q q q q q q q q q q _ 8.5.5.5.5.0.",
"5.5.5.5.5.5.J 8 q q q q 8 J 2.5.5.5.$.1 q q q q q q q q q q q q q q q q q q q q q q 8 ( 8.5.5.5.5.7.",
"5.5.5.5.5.5.P 8 q q q q 8 J 2.5.5.5.*.4 q q q q q q q q q q q q q q q q q q q q q q 8 Y 8.5.5.5.5.5.",
"2.5.5.5.5.8.( 8 q q q q 8 H 2.5.5.5.,.j 0 q q q q q q q q q q q q q q q q q q q q q q ) 8.5.5.5.5.2.",
"<.5.5.5.5.8.' q q q q q 8 v 1.5.5.5.2.C 8 q q q q q q q q q t k p 8 8 q q q q q q q q ' 8.5.5.5.5.<.",
"&.5.5.5.5.8.o.p q q q q q d *.5.5.5.8.[ q q q q q q q q q q k b.v.w.F h q q q q q 0 r o.8.5.5.5.5.&.",
"+.5.5.5.5.5.=.z q q q q q r ] 8.5.5.5.u.k q q q q q q q q 8 E i.p.k.Z.b.V 0 q q q Z e.,.5.5.5.5.5.+.",
"` 2.5.5.5.5.5.P 8 q q q q 8 U 5.5.5.5.i. .q q q q q q q 0 k u.8.5.4.6.$.1 q q q p `.$XS.3.5.5.5.2.` ",
"K =.5.5.5.5.8.] r q q q q q z *.5.5.5.5.j.} p 8 0 q 0 8 k y.p.5.5.5.8.D = r q 0 ! $X*XY.:.5.5.5.=.K ",
"  O.8.5.5.5.5.1.H 8 q q q q q U 5.5.5.5.7.z.v.^ V b C } b.s.4.5.5.5.*.- 5 q q 8 ~ &X+Xk.4.5.5.8.O.  ",
"  / 2.5.5.5.5.8.] p q q q q q t { 8.5.5.5.5.a.M.Z.C.Z.z.i.4.5.5.5.6.N & r q q 8 k '.^.4.5.5.5.2./   ",
"  K %.5.5.5.5.5.2.P q q q q q q a [ 5.5.5.5.5.4.5.5.5.4.5.5.5.5.8.G @ 8 0 0 B ~ c.Y.a.4.5.5.5.%.K   ",
"    ( 5.5.5.5.5.5.*.v 8 q q q q 8 1 A >.8.5.5.5.5.5.5.5.5.5.8.1.Z X < q ! )..X&X=X*X|.k.4.5.5.(     ",
"    x @.8.5.5.5.5.5.@.z 8 q q q q q , m R $.5.8.9.9.9.9.5.*.^ - @ 5 B ~.#X;X;X;X;X;X=X^.:.8.@.x     ",
"      L 1.5.5.5.5.5.5.o.z 8 q q q q q 6 ; - n N D F S N 3 $ o ; 0 D [.-X;X;X;X;X;X;X*XY.3.1.L       ",
"      u _ 5.5.5.5.5.5.5.%.H q q q q q q r 8 < ; * & & * : 5 w q Z }.;X;X;X;X;X;X;X;X|.p.5._ u       ",
"        f ] 8.5.5.5.5.5.5.,.( d 8 q q q q q q r r r r r w q q t _.;X;X;X;X;X;X;X;X+XJ.3.] f         ",
"          x o.8.5.5.5.5.5.5.5.@.I d q 8 q q q q q q q q q q 8 ! $X;X;X;X;X;X;X;X+XE.4.o.x           ",
"            c o.8.5.5.5.5.5.5.5.5.%._ H d r q 9 8 8 9 q r d H H.=X;X;X;X;X;X=X|.S.3.o.c             ",
"              l ] 5.5.5.5.5.5.5.5.5.8.2.*.X.' ) U U ) ' X.%.;.V.OX;X;X-X%X X/.p.3.] l               ",
"                y ) 1.8.5.5.5.5.5.5.5.5.5.8.8.8.8.8.8.8.8.5.5.4.V.(.].(.J.i.3.;.) y                 ",
"                  r J @.5.5.5.5.5.5.5.5.5.5.5.5.5.5.5.5.5.5.5.5.3.-.:.-.3.5.@.J r                   ",
"                    8 s U %.5.8.5.5.5.5.5.5.5.5.5.5.5.5.5.5.5.5.5.5.8.5.%.U s 8                     ",
"                        w g I o.1.8.8.5.5.5.5.5.5.5.5.5.5.5.5.8.8.1.o.I g w                         ",
"                            0 i v Y X.*.1.5.5.8.8.8.8.5.5.1.*.X.Y v i 0                             ",
"                                w 8 i d v P U ) _ _ ) U P v d i 8 w                                 ",
"                                        8 8 y 0 e e 0 y 8 8                                         "
};
