/* XPM */
static char *out[] = {
/* columns rows colors chars-per-pixel */
"50 50 187 2 ",
"   c #B97222",
".  c #CB5F00",
"X  c #C65F12",
"o  c #C66200",
"O  c #CC6400",
"+  c #D26600",
"@  c #D36800",
"#  c #C97307",
"$  c #C97807",
"%  c #D27E01",
"&  c #BB8529",
"*  c #D4840E",
"=  c #CA9507",
"-  c #D89603",
";  c #DF9B08",
":  c #D29B13",
">  c #E99D0B",
",  c #E78D13",
"<  c #E49614",
"1  c #D1A003",
"2  c #DAAD01",
"3  c #D9AA0A",
"4  c #DAB905",
"5  c #DFB315",
"6  c #EDA401",
"7  c #EBAB00",
"8  c #F3AE02",
"9  c #FBAA01",
"0  c #E4B402",
"q  c #EDB100",
"w  c #E5BC02",
"e  c #EDBC01",
"r  c #E3B20F",
"t  c #F3B401",
"y  c #FCB401",
"u  c #F4BB02",
"i  c #FCBC01",
"p  c #F5BD09",
"a  c #FCBD0C",
"s  c #E9A617",
"d  c #F3A916",
"f  c #F1AC19",
"g  c #EDBF11",
"h  c #EDBE18",
"j  c #F8B718",
"k  c #FDB91F",
"l  c #DC9320",
"z  c #FAA820",
"x  c #ECB922",
"c  c #FFB420",
"v  c #F1BC20",
"b  c #FFBC20",
"n  c #EEC200",
"m  c #ECCA00",
"M  c #E8C40C",
"N  c #F6C402",
"B  c #FCC504",
"V  c #F7CC01",
"C  c #FCCC05",
"Z  c #F6C10B",
"A  c #FDC40B",
"S  c #FDCC0B",
"D  c #EBD204",
"F  c #F4D203",
"G  c #FDD204",
"H  c #F4DB02",
"J  c #FBDA05",
"K  c #FED30B",
"L  c #FDDB0A",
"P  c #EBC216",
"I  c #F5C513",
"U  c #FEC412",
"Y  c #FECC13",
"T  c #F2C31B",
"R  c #FEC41E",
"E  c #E4D11D",
"W  c #F2D112",
"Q  c #FDD413",
"!  c #F6D518",
"~  c #FED41C",
"^  c #FEDD1A",
"/  c #FCE306",
"(  c #FFEE06",
")  c #F6E509",
"_  c #FEE40C",
"`  c #FDE90B",
"'  c #FFF40F",
"]  c #FCE511",
"[  c #FDEB14",
"{  c #F4E118",
"}  c #FFE51B",
"|  c #FFEE19",
" . c #FFF111",
".. c #FFF21E",
"X. c #EECD28",
"o. c #FFC921",
"O. c #F7C628",
"+. c #EAD729",
"@. c #F3D424",
"#. c #FDD222",
"$. c #FEDC23",
"%. c #FFD62E",
"&. c #FEDD2D",
"*. c #FFC738",
"=. c #FDDD34",
"-. c #FCD739",
";. c #FFE422",
":. c #FDEB22",
">. c #FDE92A",
",. c #FFF327",
"<. c #FFF12E",
"1. c #F4E334",
"2. c #FFE435",
"3. c #FFE933",
"4. c #F7E73C",
"5. c #FDE53B",
"6. c #F4EE38",
"7. c #FFEC3D",
"8. c #F7F433",
"9. c #FFF535",
"0. c #FFF33B",
"q. c #FEF93C",
"w. c #C99343",
"e. c #CE8F56",
"r. c #CFA449",
"t. c #D59A65",
"y. c #DE9D71",
"u. c #E2A078",
"i. c #F6D845",
"p. c #FFDE45",
"a. c #FDD95C",
"s. c #FFE342",
"d. c #FEED44",
"f. c #F7ED4B",
"g. c #FEEC4B",
"h. c #FEF443",
"j. c #FFFE43",
"k. c #FEF34B",
"l. c #FFFD4D",
"z. c #FFE857",
"x. c #FDEE5D",
"c. c #F6F052",
"v. c #FEF352",
"b. c #FFFA52",
"n. c #F5F058",
"m. c #FEF45C",
"M. c #FFFB5B",
"N. c #F6EF60",
"B. c #FFEE68",
"V. c #FCF161",
"C. c #FFF572",
"Z. c #FFF976",
"A. c #FFF47D",
"S. c #DFB79B",
"D. c #E8BEA2",
"F. c #E2C889",
"G. c #FCE888",
"H. c #FDF284",
"J. c #FEF58A",
"K. c #FDEC9D",
"L. c #EBD9A9",
"P. c #E7CBB7",
"I. c #EADDB8",
"U. c #F4DCB1",
"Y. c #F5EBAA",
"T. c #F6E8BA",
"R. c #F1E4C3",
"E. c #F8F5CA",
"W. c #EFE8D7",
"Q. c #F0E7DD",
"!. c #F9F2D7",
"~. c #F7F5D8",
"^. c #E5E6E1",
"/. c #E7EAE3",
"(. c #EAEBE6",
"). c #EEEEE9",
"_. c #F3ECE5",
"`. c #F0EFEB",
"'. c #EFF0EB",
"]. c #F5F4E4",
"[. c #F8F5E0",
"{. c #F3F3EE",
"}. c #F5F6F1",
"|. c #F8F7F3",
" X c #F7F8F3",
".X c #F9FAF5",
"XX c #FBFBF9",
/* pixels */
"^.^.^././.(.(.(./.'./.'.'.'.'.'.'.'.'.'.'.'.'.}.'.'.'.'.'.'.'.'.{.'.{.{.'.{.{.'.{.{.'.{.{.{.{.{.'.{.",
"(.(.).).).).).).'.'.'.'.'.'.'.'.'.'.'.'.'.}.}.}.'.'.'.}.}.}.}.}.}.{. X{.}. X X X X}.}. X}. X}.}. X X",
").).).'.).{.}.{.'. X{.'.'.'. X X}.{.}.}.}.}.}.}.}.}.}.}.}.}.}.}. X X X X X X X X.X X X X X X X.X X}.",
").).'.'.{.'.{.{.{.'. X X X X X'.}.{.{.}.}.}.}.}.'.}.}.}.}.}.}.}. X X X X X X X X X.X X X.X X.X X X X",
"'.'.'.'.'.{.'.{.{. X'.'.'. X X X}.}.}.'.}.}.}.}. X'. X X}.}.}.}. X X X X X X.X X.X X X.X X.X X.X.X.X",
"'.'.{.{.{.{.{.{.{. X X X X{. X X}.}.}.}.}.}.}.}. X X X X}.}. X X.X.X.X.X.X.X.X.X.X.X.X.X.X.X.X.X.X.X",
"{.{.{.}.{.}.{.{. X{. X X X X X'.}.}.}.}.}.}.}.}. X X X X X X X X.X.X.X.X.X.X.X.XXX.X.X.XXX.XXX.X.X.X",
"'.{.{.{.}.{.{.{.'. X'.'. X{. X X}.}.}.}.}.}.}.}. X X X X X X X X.X X X.X X.X.X X.X.X.X.X X.X.X.X.X X",
"{.'.{.{.'. X}.'. X}.}.}.{. X X{. X|.}.|. X X|.}. X X}.}.}.XXXX X X.X.X.X.X.X X.X.X.X.X.X.XXX.XXX.X.X",
"}.{.'.}.}.}.}.'.}.'. X'. X X X X}.}.}.}. X X|.|. X X}.{.}.XXXX X}..X X.X.X.X.X.X.X.X.X.X.X.X.X.X.X.X",
"}.{.}.{.}.}.}.'.}. X}. X'. X X X}.}.}.|.}.|.}.|. X X}.}. X X X X X.X X.X.X.X.X.X.X.X.X.X.X.X.X.XXXXX",
"}.{.{.}.}.}.}.}.'.'.}.}. X X{. X|.}.}.|.}.}.|.|. X X}.}. X X X X X X.X.X.X.X.X.X.X.X.X.X.XXX.XXXXX.X",
"{.{.'.}.}.}.'.}. X X X X'. X{. X}.}.{.}.}.}.}.}.}.].~.[.XX X}. X X.X X.X.X.X.X.X.XXX.X.X.XXX.XXXXXXX",
"}.}.}.'.}.}.}.}. X'. X'.'. X X X{.}.}.}.{.E.C.f.b.k.k.n.Z.J.T.}..X|..X.X.X.X.X.X.X.XXX.X.XXXXX.XXXXX",
"}.{.}.}.}.}.'.'.}.}.'. X X'. X'.{.{._.g.<.0.k.M.m.M.l.h.0.b.C.Y.[..X.X.X.X.X.X.X.XXX.X.XXXXX.XXXXXXX",
" X}.}.}. X}.}.}.'. X X'.'. X'. X].{.` ` ,.j.g.c.i.i.s.h.h.h.g.x.K.!..X.X.X.X.X.X.X.X.XXXXXXXXX.XXXXX",
"}.{.{.}.}.}.}.}.|.{.{.{.`.}.}.G.Y.( ' [ ^ T - : = : - - 5 k.b.k.z.H.Y.|.|.|.|.|..X.X|..X.X.XXXXX.X.X",
"}.}.}.}.{.}.{.}.{.{.{.}.}.{.}.H.` ( ` D 4 r O.*.z.a.i.x 1 3 X.k.h.g.A.{.|.|.|.|.|..X|..XXX.X.XXX.X.X",
"{.{.{.}.{.}.{.{.{.{.{.{.`.}.c.|  . .e 2 M @.7.k.m.g.z.V.p.5 5 X.k.4.m.J.}.|.|.|.|.|.|..X.X.X.XXX.XXX",
"{.{.}.{.}.{.}.{.{.{.{.{.}.L.7.[ | V e Z W >.j.h.5.4.v.m.v.-.v 0 5.7.f.Z.R.|.{.|.|.|..X.X.XXX.XXXXX.X",
"{.}.{.{.{.{.|.{.{.{.{.{.`.a.} ] ^ 4 N K V :.0.=.2 h -.v.b.=.X.h P h.b.V.G.}.|.}.|.|.|..X.X.X.X.X.XXX",
"{.{.{.{.{.|.{.{.{.{.`.{.`.5.| ] Q n N N V } 3.3.@.P X.+.+.+.T R 2 d.c.N.H.}.}.}.|.|.|..X.X.X.XXXXX.X",
"{.{.{.{.{.{.{.{.{.`.{.`.I.2.] ] F n B B u S ,.8.q.6.E 4 4 ~ Y I g =.c.x.A.W.{.}.|.|.|.|..X.X.X.X.X.X",
"{.{.{.{.{.{.{.{.`.{.{.`.L.>.H [ m C u i a q m | 8.q.q.9.$.I p U I X.m.n.B.I.}.}.|.|.|.|.|..X.X.XXX.X",
"}.}.}.'.}.{.{.'.{.{.{.{.R.%.J ] C i i i a a 0 2 w ! <.q.3.#.U a U @.l.k.m.L.|.|.|.{.}.|..X.X.X.X.X.X",
"}.}.}.{.}.}.}.'.{.{.{.|.{.&.K ] G N y i U ~ ~ Q 0 0 D ,.9.$.U a N ;.9.1.d.F.}.|.|.|.|.|.|..X.X.XXX.X",
"}.}.{.{.{.{.}.'.{.{.{.{.{.-.K _ L N y i G [ | ] V n H  .' D p a e | [ { 2.r.}.}.|.|.|.|.|..X.X|..XXX",
"{.}.{.{.{. X}.'.`.`.{.`.`.a.Q G G N i u V [ ....H ` ..[ H m u t m ` H } %.& }.|.|.|.}.|..X.X.X.X.X.X",
"'.}.'.}.{.{.}.'.`.`.}.}.{.U.#.V K C Z q t A Q } ,.:.} Y e e p p L / H ;.f e.{.|.|.|.|.|..X.X.X|..X.X",
"}.}.}.{. X X X'.`.`.`.`.`.`.o.Q Q Q Y p 7 7 q e ^ W e 7 7 q p S ] H L %.l |.|.|.|.{.|.{.|..X.X|..X.X",
"'.}.}.'.{.}.}.'.`.}.{.`.{.`.; Y S S L K B u 8 9 6 6 8 t u B S L ) _ ~ s t.{.|.|.|.|.{.|.|..X.X.X.X.X",
"'.}.}.'.}.}. X{.`.{.`.{.{.{.w.b Y N K K S B t y 9 y y i N C K L K &.v # }.|.{.|.|.{.|.{.|.|..X.X.X.X",
" X}.{. X}.}.}.}.{.`.`.`.`.`.{.X f a U U A S A B C C C G K K G S #.c * _. X}. X X X X X X XXXXXXX.X.X",
"{.{.{.{.{.{.{.{.{.{.|.`.|.`.{.|.% > b b U A C C C G G G Y ~ Q o.d %   }.{. X X}. X X}. X X X X X X.X",
"{.{.{.{.{.{.{.{.{.{.|.`.{.{.{.{.Q.O , z k U S C C V Z U o.b d < $   }.}.{. X}. X X X X X{. X}. X.X X",
"{.{.{.{.{.{.{.{.|.{.{.|.|.{.{.|.{.{.X # * - 6 8 a a j d < % # o XX}.}.}. X}. X}. X X X X X X X X.X.X",
"{. X}.}.{.}.}.}.|.{.|.{.{.|.{.|.}.}.{.{.e.o O @ + . . . X X S.|. X X}.}. X}. X X X X X XXX.XXX.X.X.X",
"}.{.}.}.}.{.{.}.`.|.{.|.|.{.{.{.}.{.}.}.{.}.}.P.y.u.D._.|.|.{.|.}.}.}.}.}. X X X}.}. X X X.X.X.X.X X",
"{.{.{.}.{.{.{.{.|.`.|.`.|.`.|.{.}.}.{.}.}.}.}.}.}.}.}.}.{.{.|.|.}.}. X X X X X X}.}. X X X.X X X X.X",
"{.{.{.}.{.{.{.{.`.|.`.|.`.|.{.{.{.}.}.}.{.}.}.{.}.}.}.|.{.|.{.{.}.}. X}. X X X X X X.X X.X X X}..X.X",
"|.`.|.`.|.`.{.|.{.{.`.|.`.|.|.`.'.}.{.{.{.{.{.}.}.{.{.}.}.{.}.}.}. X}. X X X X X X}. X X}. X X X X X",
"`.`.`.|.`.|.{.`.`.|.|.|.|.`.|.|.{.}.}.}.}.}. X}. X}.}.}.}.}.}.}.}.}.}.}.}.}. X}. X X X X X X.X X X X",
"`.`.{.`.`.|.{.|.|.|.{.`.|.|.`.|.{.{.{.}.}.}.}.}.{. X}.}.}.}.}.}.}.}.}.}. X}.}. X X X X X X X X.X}. X",
"`.`.`.`.`.`.`.|.`.`.`.|.`.`.|.`.{.{.{.}.{.{.{.{.}.{.{.}.}.}.}.}.}.}. X X}. X X X}.}.}.}.}.}.}. X}.}.",
"`.`.`.|.`.|.`.`.`.`.`.`.`.`.|.`.'.}.}.'.{.{.}.}.}.}.}.}.}.}.}.}. X}. X X X X X X}.}.}.}.}.}.{.}.}.}.",
"`.`.`.`.{.`.`.|.|.|.|.|.|.|.|.|.}.}.}.}.}.}.}.}.}.}.}.}.}.}. X}.}.}. X}.}.}. X X X X}.}.}.}.}.}.{.{.",
"`.`.`.`.`.`.`.`.`.`.|.`.`.|.`.`.{.{.{.{.{.{.}.}.}.}.}.{.}.}.}. X{. X{.}.}.}.}.}.}. X}.}.}.}.}.{.{.{.",
"(.(._.`._.`.`.`.`.`.`.`.`.`.`.`.'.{.'.{.'.{.'.}.'.'.{.'.{.{.{.{.{.{.{.{.{.}.}.}.}.}.}.}.{.}.}.'.{.{.",
"^.(.(.^.).`.).^.`.(.`.`.(.`.).).`.`.).`.`.{.{.`.{.{.{.{.{.{.{.{.{.{.}.'.}.}.}.{.{.{.}.'.{.'.}.'.'.'.",
"^.^.(.(.(.(.(.(.(.(.(.(.).(.).).`._.(.`.).).`.).).).).'.'.{.'.{.'.'.'.'.'.'.'.'.{.{.{.'.'.'.'.'.'.'."
};
