/* XPM */
static char *out[] = {
/* columns rows colors chars-per-pixel */
"50 50 253 2 ",
"   c #191715",
".  c #241B18",
"X  c #26201B",
"o  c #1B1E20",
"O  c #1A2020",
"+  c #222829",
"@  c #26282C",
"#  c #282B2D",
"$  c #32302F",
"%  c #38312A",
"&  c #282E31",
"*  c #2D3235",
"=  c #2E3235",
"-  c #2F3235",
";  c #2E3335",
":  c #28363A",
">  c #2D3B3E",
",  c #313133",
"<  c #5A2F1D",
"1  c #682C15",
"2  c #60311F",
"3  c #723019",
"4  c #70341B",
"5  c #75341B",
"6  c #7C361C",
"7  c #4F3024",
"8  c #663724",
"9  c #6B3B28",
"0  c #7A4029",
"q  c #744A34",
"w  c #2A4546",
"e  c #354649",
"r  c #34484B",
"t  c #354B4F",
"y  c #304F4C",
"u  c #354D4F",
"i  c #36595B",
"p  c #3F5959",
"a  c #594F46",
"s  c #415D5B",
"d  c #425E5D",
"f  c #684C41",
"g  c #655547",
"h  c #71584A",
"j  c #6E5F56",
"k  c #416163",
"l  c #426C6A",
"z  c #516A6D",
"x  c #4C6E72",
"c  c #51797E",
"v  c #6A7068",
"b  c #647E7E",
"n  c #767371",
"m  c #747475",
"M  c #7A7A79",
"N  c #82391E",
"B  c #813C22",
"V  c #893C21",
"C  c #893E23",
"Z  c #8E3D22",
"A  c #8D3F24",
"S  c #8D4226",
"D  c #864228",
"F  c #88472E",
"G  c #914025",
"H  c #944327",
"J  c #964628",
"K  c #984B2C",
"L  c #9F4E2F",
"P  c #954F35",
"I  c #995338",
"U  c #96583F",
"Y  c #A85332",
"T  c #AE5634",
"R  c #A95A3C",
"E  c #B65D3A",
"W  c #BC603C",
"Q  c #C1633E",
"!  c #C4663F",
"~  c #CC683E",
"^  c #945F4D",
"/  c #857055",
"(  c #A16045",
")  c #AB6042",
"_  c #AE6544",
"`  c #BC6443",
"'  c #B96E46",
"]  c #B3674A",
"[  c #A56A52",
"{  c #B16E58",
"}  c #BB7650",
"|  c #BC7055",
" . c #887963",
".. c #9F7666",
"X. c #B67B62",
"o. c #C26947",
"O. c #CA6A43",
"+. c #CE6A40",
"@. c #CF6B43",
"#. c #C46B48",
"$. c #C66D49",
"%. c #C06C4D",
"&. c #CC6E48",
"*. c #CF6F4B",
"=. c #D16C42",
"-. c #D06F46",
";. c #D36E47",
":. c #C1714F",
">. c #C9714F",
",. c #D47049",
"<. c #D67048",
"1. c #D77149",
"2. c #D4724B",
"3. c #D9734C",
"4. c #C67655",
"5. c #E77A4B",
"6. c #C57C62",
"7. c #50827F",
"8. c #75817A",
"9. c #BA835B",
"0. c #A68070",
"q. c #AF8F7F",
"w. c #B78A78",
"e. c #B5907E",
"r. c #C68259",
"t. c #CC8458",
"y. c #CC885F",
"u. c #D2885B",
"i. c #D7885C",
"p. c #D98A5C",
"a. c #F18050",
"s. c #F78351",
"d. c #FA8754",
"f. c #FE8654",
"g. c #FA8954",
"h. c #F28E59",
"j. c #D69260",
"k. c #E49764",
"l. c #ECA26B",
"z. c #F6A067",
"x. c #F8AE71",
"c. c #F9AF74",
"v. c #F4B074",
"b. c #5A7C81",
"n. c #378484",
"m. c #398284",
"M. c #468182",
"N. c #4D8D8D",
"B. c #5D8083",
"V. c #5F8085",
"C. c #598587",
"Z. c #59878C",
"A. c #5E8E8C",
"S. c #51989A",
"D. c #648A8D",
"F. c #7B8383",
"G. c #7A8B8A",
"H. c #73908F",
"J. c #649697",
"K. c #6A9393",
"L. c #6F939B",
"P. c #6E949A",
"I. c #6B959C",
"U. c #6A979F",
"Y. c #589DA1",
"T. c #599FA3",
"R. c #6B9EA3",
"E. c #51A4A6",
"W. c #56ADAD",
"Q. c #5BA8AA",
"!. c #57B2B3",
"~. c #5FB7B9",
"^. c #6BA2A6",
"/. c #65A3A8",
"(. c #65A6AC",
"). c #6AA3AA",
"_. c #6BAAA9",
"`. c #64AEB4",
"'. c #64B1B5",
"]. c #67B3B9",
"[. c #63BBC0",
"{. c #6ABFC2",
"}. c #58C1C2",
"|. c #5DC7C6",
" X c #5DC8C8",
".X c #5DCACB",
"XX c #5BCFCF",
"oX c #64C0C3",
"OX c #63C3C5",
"+X c #68C1C5",
"@X c #67C4C9",
"#X c #63C8CB",
"$X c #64CCD0",
"%X c #63DCDE",
"&X c #808180",
"*X c #818381",
"=X c #828483",
"-X c #81908E",
";X c #82908E",
":X c #8E9694",
">X c #849E9B",
",X c #919D9B",
"<X c #B49083",
"1X c #B8998E",
"2X c #97A3A1",
"3X c #A8B1AE",
"4X c #AFB6B3",
"5X c #B5BDBA",
"6X c #C4A596",
"7X c #C1AA9F",
"8X c #CDB6A9",
"9X c #C7C4BE",
"0X c #D5C8BF",
"qX c #C9CEC9",
"wX c #D6CEC7",
"eX c #D5D7D2",
"rX c #D7D9D5",
"tX c #DDDDD8",
"yX c #E3DDD6",
"uX c #E4E2DD",
"iX c #E4E4E0",
"pX c #E9E9E5",
"aX c #ECEDE8",
"sX c #EEEEE9",
"dX c #EEEFEA",
"fX c #EFF0EB",
"gX c #F1F0EC",
"hX c #F0F1EC",
"jX c #F2F1ED",
"kX c #F1F2ED",
"lX c #F3F2EE",
"zX c #F2F3EE",
"xX c #F3F3EF",
"cX c #F4F3EF",
"vX c #F3F4EF",
"bX c #F4F4F0",
"nX c #F4F5F0",
"mX c #F5F5F0",
"MX c #F6F4F0",
"NX c #F7F5F1",
"BX c #F4F6F1",
"VX c #F5F6F1",
"CX c #F6F6F1",
"ZX c #F7F6F2",
"AX c #F6F7F2",
"SX c #F7F7F3",
"DX c #F8F7F3",
"FX c #F6F8F3",
"GX c #F7F8F3",
"HX c #F9F8F4",
"JX c #F8F9F4",
"KX c #F9FBF6",
"LX c #FBFCF7",
/* pixels */
"aXaXaXsXsXsXsXdXdXdXdXdXfXfXfXfXhXhXkXzXzXzXzXhXfXfXhXkXkXzXzXzXzXkXkXkXkXkXkXzXzXzXzXzXzXzXzXzXzXzX",
"fXfXfXfXhXhXhXkXkXkXkXkXkXkXzXzXzXvXvXnXnXBXnXvXkXzXzXvXnXnXBXBXBXnXvXvXvXnXnXnXVXVXVXVXVXVXVXVXVXVX",
"zXzXzXzXvXvXvXvXnXnXnXnXnXnXnXnXnXBXBXAXAXFXAXBXnXnXBXAXAXFXFXFXFXAXAXAXAXFXGXGXGXGXGXGXGXGXGXGXGXJX",
"vXvXvXvXnXnXnXnXnXnXnXnXnXnXnXnXnXBXBXBXFXJXJXFXAXFXFXJXJXJXJXJXJXFXFXAXFXGXGXGXGXGXGXGXGXGXGXGXJXJX",
"vXvXnXnXnXVXVXVXVXVXnXnXnXnXnXBXBXFXJXGXuXeXeXeXeXeXeXtXyXyXyXyXuXVXJXFXGXGXGXGXGXGXGXJXJXJXJXJXJXJX",
"nXVXVXVXAXAXAXAXAXAXAXAXAXGXJXhXpX5X,X,XJ.N.N.N.N.7.a ( } X.U ( [ 1XuXKXKXKXKXKXKXKXKXKXKXKXKXKXKXKX",
"nXVXVXVXVXAXAXAXAXAXGXSXmXrX5X>XC.S.E.E. X$X~._.K. .:.h.z.t.S -.O.B [ 8XgXLXKXKXKXKXKXKXKXKXKXKXKXKX",
"vXvXnXnXnXnXVXVXVXGXpX3XH.J.S.}.#X(.R.R.A.!.S.j ) 5.h.l.k.#.C -.,.Z &._ 0.wXGXKXJXJXJXJXJXJXJXJXJXKX",
"vXvXnXnXVXVXVXGXvX9XK.~.}.(.).).`.'.c p > & # 2 =.g.x._ -.$.C -.2.Z ,.#.0 v 2XiXKXKXKXKXKXKXKXKXKXKX",
"nXnXnXVXVXVXAXrX>XJ.Q.`.[.].C.z u w : + & $ 7 E a.g.v.( +.2.A -.,.Z ,.#.B g A.K.5XzXKXKXKXKXKXKXKXKX",
"nXnXVXVXVXKX3XA.!._.U.P.D.x > + & & , - * % 9 <.g.z.j.K @.1.G -.*.Z <.*.N 0 8.'.E.G.aXLXKXKXKXKXKXKX",
"nXVXVXVXSX9XB.E.#X[.R.x > # & - ; = = ; $ < Q s.g.v.r.A @.3.G -.$.V 1.2.G Q h _.OXM.2XgXKXKXKXKXKXKX",
"nXnXVXGXtXb S.].I.R.k + & * = = = = ; ; $ 2 ~ f.d.v.r.G @.3.G -.#.V 1.2.G O.F 8.R.~.l 4XAXKXKXKXKXKX",
"nXnXnXpX;XN.oX(.R.z & # - = = = = = * - 7 I 5.d.z.k.4.H @.2.A -.*.A 1.2.G &.R h I.'.[.l qXSXKXKXKXKX",
"vXvXCX:XM.[.].+XZ.: @ ; = = = = = = * , 2 @.f.d.x.t.%.H @.&.C ;.,.Z <.2.G 1.#.0 R.[.`.~.d tXLXKXKXKX",
"vXvXSX=Xm.+XP.L.e O ; ; ; = = = = = = , 2 +.f.d.x.t.%.H @.$.C ;.*.Z <.2.H 1.*.6 % V./. Xy rXLXKXKXKX",
"cXNX4XC.!.~.).x & # - ; = = = = = = * , 2 +.a.! ' R L N Q ` B *.$.V <.&.G ,.#.5 . Z._.oXS.-XsXHXHXHX",
"cXZX*Xn.%XOX+Xi O ; = = = = = = = = * , 2 O.Y Q 3.*.>.R T T V T Y N &.o.A 2.o.4 X T.@X.XXXs iXHXDXDX",
"cXZX=Xm.@XJ.I.e o ; = = = = = = = = * , 2 O.E W E R X.4.>.6.$.! ` L T Y N E R 3 . b.P./.|.d iXHXDXDX",
"lXNX=Xn.$X/.).u o ; = = = = = = = = * , 2 +.s.=.K N D F F [ ] _ X.4.>.4.` W E V 7 D.).`..Xd iXDXZXZX",
"lXNX=Xn.%XoX{.i O ; = = = = = = = = * , 2 +.f.d.l.} P 6 J V 6 N P I I { | %.6.%.q ^.OX#XXXd iXDXZXZX",
"jXbX*Xm.@XI.L.e O ; = = = = = = = = * , 2 +.f.d.x.u.%.H @.W N E J 5 D C B D ( U 8 b P.^.|.s uXZXNXZX",
"jXbX=Xn.$X/.^.u O ; = = = = = = = = * , 2 +.f.d.x.p.o.H @.$.A ,.#.C &.R 6 Y V 1 X Z.).`..Xs uXZXNXNX",
"jXMX*Xn.%XOX{.i O * = = = = = = = = * , 2 +.f.d.x.y.^ 0 &.$.C ,.&.C ,.$.A <.` 4 X T.+X#XXXd uXZXNXNX",
"lXZX=Xm.@XJ.I.r O * = = = = = = = = * , 2 +.f.d.v./ M h :.$.A ;.*.A ,.#.A ,.#.5 . b.I./. Xd uXDXZXZX",
"lXNX=Xn.$X/.).u o - = = = = = = = = * , 2 +.f.g.v./ &Xj :.$.C ;.,.A 2.$.A <.*.5 . Z.).'..Xd uXDXZXZX",
"lXNX=Xn.%XoX{.i O ; = = = = = = = = * , 2 +.f.g.x.9.g 9 &.2.G ;.,.A 2.,.G ,.*.5 X Y.oX#XXXs uXDXZXZX",
"jXbX*Xn.@XI.P.r O ; = = = = = = = = * , 2 +.f.g.x.y.f 8 =.3.G -.$.C 1.2.G <.&.5 . b.P./.|.s uXDXZXZX",
"jXbX=Xn.$X/.^.u o = = = = = = = = = * , 2 +.f.g.x.y.f 8 =.3.G -.$.C ,.*.G <.o.4 X Z.^.`. Xs uXDXZXZX",
"jXbX*Xn.%XoX{.i o - = = = = = = = = * , 2 +.f.g.x.9.f 8 @.3.G ;.,.A ,.$.A <.&.5 X Y.oX#XXXs iXDXZXZX",
"jXbX*Xm.@XI.P.e o - = = = = = = = = * , 2 +.f.g.v./ M h :.2.S ;.<.A 2.$.A <.*.5 . b.I./.|.s uXDXZXZX",
"jXbX*Xm.$X(.).t O ; = = = = = = = = * , 2 +.f.g.v./ &Xj :.$.C ;.;.A 2.2.H 1.&.5 . Z.).'..Xd iXDXZXZX",
"jXbX&Xm.%XOX{.i O ; = = = = = = = = * , 2 +.f.g.x.9.^ 0 &.$.A ;.$.C 2.*.G ,.#.4 X T.+X#XXXd iXGXAXSX",
"lXNX=Xn.@XI.L.e O ; = = = = = = = = * , 2 +.f.g.x.t.$.H @.2.G -.$.C 2.#.A ;.E 4 X b P.). Xd iXGXAXAX",
"cXZX=Xn.$X/.^.u O ; = = = = = = = = * , 2 +.f.g.x.i.o.S @.2.G -.` N ! T G T W E 0 h P.'..Xd iXGXAXAX",
"bXDX=Xn.%XOX{.i o ; = = = = = = = = * , 2 +.f.g.c.p.` A ! E V T E Y E $.>.>.6.| ) q _.$XXXs iXGXAXGX",
"bXDX=Xn.@XI.L.e O ; = = = = = = = = = , 2 +.d.5.j.' Y J Y ` o.o.4.>.:.X._ R ( D 9 v H./. Xd iXJXGXGX",
"bXDX=Xn.$X/.^.u O ; = = = = = = = = = , 2 O.Q W ! ` :.4.>.6.{ ] { P D F 6 N 6 1 X Z.).`..Xs uXJXGXGX",
"cXZX=Xn.%XOX+Xi O * = = = = = = = = = , 2 O.L ! 2.%.X.( P I B 6 6 3 K J N O.` 4 X T.@X$XXXp uXJXGXGX",
"cXZX*Xn.@XU.I.e o - , - - = = = = = - , 2 O.3.W J B B 5 V C 5 E E V 1.*.H 1.&.5 . B.I.(..Xp uXJXGXGX",
"cXZX:XM.Q.B.V.>   @ @ @ @ @ @ @ @ @ @ @ < +.f.a.t._ L V O.&.A ,.2.A <.2.H ,.o.3   z V.Z.W.z iXJXGXAX",
"cXbXpX4XG.F.F.M n m m m m m m m m m m n q +.f.d.c.u.$.H @.2.G -.$.C ,.*.Z O._ ..n M F.F.:XeXVXAXAXAX",
"cXcXbXMXMXNXNXNXZXCXVXmXmXmXVXVXCXCXAXxX..~ f.d.c.t.#.J @.1.G -.#.C -.` ( X.9XjXGXAXAXGXSXGXAXAXAXAX",
"lXlXlXlXcXcXcXcXcXcXxXzXzXzXzXvXvXvXvXhX..~ f.d.c.t.%.J @.*.A -.` F [ 6XuXgXAXAXAXAXAXAXAXAXAXAXGXAX",
"lXlXlXlXcXcXcXcXcXcXxXzXvXvXvXvXvXvXnXkX..~ f.d.c.t.] S @.o.D ) w.wXuXvXFXAXAXAXAXAXAXAXGXGXGXGXGXAX",
"cXcXcXcXcXbXbXbXbXbXbXvXnXnXnXnXnXnXnXkX..~ f.d.c.t.] S E X.8X0XsXJXGXAXVXVXVXVXAXAXAXAXAXAXAXGXGXAX",
"jXlXlXlXlXlXlXcXcXxXxXzXzXzXvXvXvXvXvXhX0.! 5.5.k.} ( <X7XyXAXFXBXnXVXVXnXnXnXnXnXVXVXVXVXVXVXVXVXVX",
"dXdXdXdXdXgXgXgXgXgXhXhXhXhXhXkXkXkXkXkXuX6Xw.w.e.q.0XfXBXvXzXzXzXvXvXvXvXvXvXvXvXvXvXnXnXnXnXnXnXnX",
"sXsXsXaXaXsXsXsXsXsXdXfXfXfXfXhXhXhXhXkXzXzXkXhXhXkXzXkXkXzXzXzXzXvXvXvXzXzXzXzXzXzXzXvXvXvXvXvXvXvX",
"aXaXaXaXaXaXaXaXaXaXsXsXsXdXdXdXdXdXfXfXfXfXfXfXfXfXfXfXhXhXhXkXkXkXkXkXkXhXhXhXhXkXkXkXkXkXkXkXkXzX"
};
