/* XPM */
static char *out[] = {
/* columns rows colors chars-per-pixel */
"50 50 207 2 ",
"   c #5D2D04",
".  c #562908",
"X  c #5E2D0A",
"o  c #573207",
"O  c #5D3106",
"+  c #5E3208",
"@  c #5F3110",
"#  c #622E05",
"$  c #642E0A",
"%  c #702A08",
"&  c #782F0E",
"*  c #633206",
"=  c #693505",
"-  c #663807",
";  c #6D3B03",
":  c #65330A",
">  c #69350C",
",  c #66390C",
"<  c #6B390C",
"1  c #733A09",
"2  c #723D0B",
"3  c #642D13",
"4  c #682F12",
"5  c #653411",
"6  c #6A3612",
"7  c #643912",
"8  c #6C3A11",
"9  c #6C3F18",
"0  c #763917",
"q  c #713D14",
"w  c #6F400A",
"e  c #724107",
"r  c #7D4702",
"t  c #75420C",
"y  c #79440D",
"u  c #75480F",
"i  c #7C4A0E",
"p  c #6D4410",
"a  c #7C4413",
"s  c #7C4A14",
"d  c #863B06",
"f  c #8C3E02",
"g  c #8A320A",
"h  c #91330F",
"j  c #943B0D",
"k  c #892F15",
"l  c #8C2C1C",
"z  c #8F3B12",
"x  c #8E331C",
"c  c #823918",
"v  c #953614",
"b  c #923C17",
"n  c #96361C",
"m  c #953C1A",
"M  c #993B1C",
"N  c #A63D19",
"B  c #AB3B1D",
"V  c #8F2F21",
"C  c #933D22",
"Z  c #AC3D23",
"A  c #B03627",
"S  c #B13E25",
"D  c #B43C2B",
"F  c #834604",
"G  c #844D04",
"H  c #8C4D05",
"J  c #8A430F",
"K  c #844D0C",
"L  c #8A4C0B",
"P  c #92480A",
"I  c #855106",
"U  c #8A5205",
"Y  c #87520B",
"T  c #8B520C",
"R  c #945506",
"E  c #935906",
"W  c #9A5B04",
"Q  c #95550D",
"!  c #955B0A",
"~  c #9A5D0C",
"^  c #804712",
"/  c #844D14",
"(  c #8D4B13",
")  c #874719",
"_  c #854B19",
"`  c #9B4413",
"'  c #944B12",
"]  c #9A4D15",
"[  c #964119",
"{  c #964719",
"}  c #9A421B",
"|  c #875213",
" . c #8B5414",
".. c #865419",
"X. c #955413",
"o. c #9B5414",
"O. c #955C13",
"+. c #9B5D12",
"@. c #9D531B",
"#. c #93591B",
"$. c #9C5B1D",
"%. c #AC450B",
"&. c #AE4808",
"*. c #A94616",
"=. c #AD431B",
"-. c #AE4A1C",
";. c #A45315",
":. c #A35B16",
">. c #A85914",
",. c #A3551C",
"<. c #AF5519",
"1. c #A35C1B",
"2. c #AC5B1D",
"3. c #B0571F",
"4. c #996104",
"5. c #9E640D",
"6. c #9D6411",
"7. c #95611A",
"8. c #9B6219",
"9. c #A1650C",
"0. c #A46A09",
"q. c #A36514",
"w. c #AA6416",
"e. c #A66B15",
"r. c #A96B14",
"t. c #AA651C",
"y. c #A46B1B",
"u. c #AA6E1C",
"i. c #AC731A",
"p. c #B3741B",
"a. c #B7781A",
"s. c #B57C1A",
"d. c #BA7B1D",
"f. c #9A4425",
"g. c #9D5622",
"h. c #9B5029",
"j. c #AF4324",
"k. c #B44422",
"l. c #B84729",
"z. c #A35B22",
"x. c #A65824",
"c. c #AC5D22",
"v. c #B35225",
"b. c #B45E24",
"n. c #BA5528",
"m. c #B25B29",
"M. c #B74E31",
"N. c #BE5435",
"B. c #9C6525",
"V. c #9F6828",
"C. c #A36224",
"Z. c #AC6026",
"A. c #A36C27",
"S. c #A5632A",
"D. c #A26A2A",
"F. c #AC6A2D",
"G. c #B26425",
"H. c #B76826",
"J. c #B66128",
"K. c #B96929",
"L. c #B37425",
"P. c #BA7723",
"I. c #B67C22",
"U. c #BC7D24",
"Y. c #B5722C",
"T. c #BA752A",
"R. c #B57D2C",
"E. c #BC7D2B",
"W. c #B86231",
"Q. c #BD7E32",
"!. c #C25131",
"~. c #C45B32",
"^. c #CB632C",
"/. c #C27E24",
"(. c #C27E2B",
"). c #CA7F29",
"_. c #CD6532",
"`. c #C37D33",
"'. c #C27F39",
"]. c #B4801D",
"[. c #BB851C",
"{. c #BC8124",
"}. c #BC8822",
"|. c #B78129",
" X c #BE832B",
".X c #BD892D",
"XX c #BE8333",
"oX c #C68817",
"OX c #C38225",
"+X c #C98327",
"@X c #C38A26",
"#X c #C88926",
"$X c #C4842B",
"%X c #C9842C",
"&X c #C58A2C",
"*X c #CA892C",
"=X c #C6902E",
"-X c #C38432",
";X c #CA8532",
":X c #C48A32",
">X c #CB8B33",
",X c #C6823A",
"<X c #CB853B",
"1X c #C68939",
"2X c #CA8C39",
"3X c #D18A30",
"4X c #C69135",
/* pixels */
"# #   # # # $ $ $ $ 3 5 $ $ # = # # # = = > > = =     * - , , , 8 , * # : # X X : 8 8 > $ : # # # # ",
"= : : $ # $ % > > > : $ $ # #   # # = > q 8 < > 8 > # * - > 7 , o   * , > $ $   # : : $ # # # # $ > ",
"> > : : $ 6 > 8 2 > : +   + > > 3 $ $ 6 8 q q q 9 q 6 , > > @ + O O * # * # * * # # # # # # # $ < > ",
", : : : : : > > 8 > 5 5 : : : 5 > > > > , 2 < 1 < < > > < 8 5 : : +   $ # # # * #   # # # # # # > : ",
"+ : + : : : : $ $ : 7 6 5 * # * * ; y / |  . . .#.#. .| i s t ; > =   : 5 > $ $ # # # > : # # # # # ",
", : , , : : : : 5 X @ : > = t / O.O.7.O.! ! E E ! ! ! W ! 8.8.+./ y < : 3 3 5 6 # # # : > $ # # # # ",
"+ , 7 : : : > : 5 : * , y Y Q 8.U E ~ 9.e.p.d.U.p.s.p.r.9.~ ~ U r.Q K t > # : 6 : $ : $ # : # # $ $ ",
"+ , + + : : : 5 + - w ..7.6.W W e.p.OX;X>X*X%X%Xd.&X*X*X*X&XU.u.W ~ +.#.^ < * = > > : # # > > # > : ",
", + * , > , , : . p 7.E W ~ p.$X X{.#XOX;X$X*Xd.d.#X#XoX&X&X(.$X&XL.w.E R K * 7 : : $ + + : , , : : ",
", - * , : , : : 7 < I W d.(.>X&X&X/.#X).;X*X>X%XI.$X X X:X-XE. X3X%X$Xd.q. .1 3 < 6 > > : : > 7 < > ",
", , * * : : > : : 2 G 9.&X$X4X{.%Xd.#X/.%X).%X#XI.$XE.$X;X$XE.E.@X$X;X&Xr.H a $ 8 < > : : : * > > > ",
"- , , : = : : :   a U e.$Xp. XR.:Xp.*XOX;X;X&X*XP.%X%X/.*X*X(.$Xs.I.{.*Xr.G ^ $ > $ : : : + O + : : ",
"- - < < > , : $ + u F q.4X XXXR..Xs..X{.XX.X X}.a.&XOXa.OX@XOXd.:XU.$X2Xe.F a : $ : $ : : : : > : : ",
"* , < 8 < > > : + u G ~ ;X`.Q.Q. X X1X-X,X,X2X&X|.:X&X|.:X4X.X X;XT.`.;Xu.Y u * : : : : : : * 7 : : ",
"* , < 8 8 < > > + s T R K.J.m.W.2.G.t.b.m.x.^.2.z.Z.z.c.K.G.1.c.b.3.K.H.+. .a : > $ : # : O = , , : ",
"* - < 8 < > > > : y L f <.-.*.j.=.n.-.B j.N ^.-.S Z Z l.!.k.B k.=.=.n.*.P ' c 6 8 8 < :   $ : > : , ",
", 7 + : : * + + O u K d { f.C n [ } } b z m } b n C M v M M n n v } M z d ) a : < 8 < > > : : > : > ",
"O + + + + + + O O u K G $.@.] ' ' ' ' ] ' ] o.' J ( L ( X.' L ( ' ' ] @.' L y - < > > > : > : : > > ",
". O + + + + +     w Y ~ $X(.(.$XE.E. X-XXXE.Q.E.R. XXX.X:X X X|.-XR.E.E.y.I ; O > > > : > $ > : > > ",
"O O + , : + + +   w Y q.>X:X{.#X$X{.$X:X$XI. XU.U.OXOXOX+X@Xd.OX=X X-X-Xu.I ; * > 6 > > > : > > : : ",
", , + , + + * + O ; I 5.:X$XI.E.&X{.OX*X$XU.OX$X(.).).%X+X$X/.).{.d.$XE.w.L 1 $ > > > > > : > : : : ",
": + + +   O + +   ; I 5.2X;X-X-X@X/./.%X$X$X$X%XE. XXXE.-X X|.$X%X&X*X$Xy.L 1 3 : : > : : $ : $ < 6 ",
"+ : + + + + O + : e I 5.*X%XE.$XOX/.$X&X$X$X;X;XI. X-X X-X X|.OX$X{.$X{.w.K ; $ $ $ $ $ $ # $ # > $ ",
", + , 5 7 + * + @ e Y 0.*X*X/.#X$X/.$X$X$X$X;X&XU.%X;X%X*X+XOXOX&X|.$X&Xe.r -   : > : $ $ # # # # # ",
", : * , , , > : * t I 9.*X*XOX*X#Xa.@X#XU.$X$X$Xd.&XOX>X&X$Xd.&XY.h.h.-X9.r < X : : :   +       $ $ ",
", , : * : + : +   < I 9.>X*X+X*X&Xa.@X*XE.$X&X&XI.&X(.;X(.$XI.$XF.c 0 T.i.r < @ : : : : : $ O $ : > ",
"7 , - * + + + + X w Y 5.*X$XU.$X;Xd.#X%X(.`.$X$X/.%X(.;X;X;XU.%XS.& % Y.u.G < 5 X +   X   $ $ O > > ",
", , O O : : : * + w I 5.*X*X+X>X$Xd.OX@X(.(./.$Xd.$X/.$X$X&Xd.OXE.S.S.XXe.K q $ # : : :   * # : > 7 ",
"* : * + + : :   + ; I 4.&X*X/./.%X{.#X&X$X-XU.$X[.&X|.$X&X*X{.OX[.$X$X#X0.K q : > , > > : , : : 8 7 ",
"> : * * : : : :   e I 9.>X;X/.P.E.d.OX{.E.(.I.E.U.&XU.E.E.-XI.OXoXOX$X#X0./ < < 7 > , : , : : : > : ",
"8 , > * : : * > $ 2 T :.<X<X'.`.,X$X%X-X<X'.Q.;X(.<X`.`.'.<X`.`.3X;X(.$Xe./ , O : * : X *     # + : ",
"8 , * : : > , 5 5 q L H t.2.,.,.;.;.>.>.x.,.;.2.*.b.,.,.,.2.;.3.*.x.x.w.Q _ > O * # * O   *     * O ",
"- = , > > 1 > > > ; L f v.!.D A &.^.-.j.B =._.%.Z B k.=.~.=.Z Z Z M.N.} [ ) - o - + + + + O O O * * ",
"< < < = = > : # = 1 L f ` } h v g m n x k x f.g l l l g f.k k V g z j d J _ - o + - , + - * * - , > ",
", > = = > > > # # 2 ' H 1.$.$.g.8.X.C.z.g.C.#.C.g.g.$.$.C.$.g.z.1.1.>.+.#. .< o , - , * > < < < 8 8 ",
"< > * = : q < : $ 2  .+.-X1X1X.X@Xs.@X@X[.@X[.&X{.&X[.}.}.}.]..X.X X$XU.y.i - + - + - : > , > < < 1 ",
"> = : > < q 8 % 5 t Y q.>X3X;XOX;X(.$XOXOX+X;X;XI.&XU.&X$X$XI.:X X@X&X&Xy.F = > * * $ = * , : : > > ",
"< < > > < 8 < : X 2 G q.>X).)./.`.(.$X%X$X;X;X(.P.-X(.;X`.-XU.-X@X{.@X&Xu.K 2 > : : = = * > # = # : ",
"> > < < 8 & > $ X < G q.;X$X;X3X@XOX$X&X+X*X#XOXU.&XOX%X%X%XU.$X$X$XOX&Xy.r < * : : : > $ = : # % = ",
"* = < 8 8 8 8 $ < t F 6.2X(.&X$X&XI.$X-X-X&X{.@XU.$X$XE.&X$XU..X(.(.$X:Xy.r t : : = : : = - % > # # ",
": : > > > < > > < t I 5.:X$X/.+X$X$X-X&X$X-X>X&XU.-X$XU.;X$XP.&X:XU.&X*Xy.K < 5 > > > # > : # $ $ = ",
"= = = > 6 6 < 6 6 e K 5.-X&X(.$XOX{./.$XOX/.+X(.I.&X{.U.&X&X/.%XU.d.$X*Xu.K < : > > $ > > % > > 6 & ",
"# : : > > < < & 4 2 L 5.>X-X$X-X$XU.$X$X$X$X*X%XU.%X$X X;X$XOX%X>X%X#X*Xu.r : 5 > : : : > 8 > & 8 > ",
"# = > : > 4 > > $ 1 H 5.{.U.L.L.{.I.U.(.P.(.$X/.I. XU.U.$X/.I.(.(.d.d.{.y.r = 5 : : $ > > < 8 < > > ",
": : : % $ 4 $ $ $ ; O.u.XXXXXXXXXXXXXXXXQ.-X-X`.XX-XXXXXXX-XQ.XX`.Q. X:XR...> X * : $ : > > > > > > ",
"$ : : : $ $ # # # ;  .+.A.A.D.A.B.$.B.B.B.B.V.B.B.B.V.V.B.B.B.B.S.A.B.V.B.s : .   # # : $ > > > & > ",
"= $ : $ $ $ # # # # > = = # *   = # # - # - , - - = , - * # = #   *     : O .   $ O # : > > > > < > ",
"# # : : $ $ $ $ $   3 $ 3 3 5 * $ # : 5 : 5 7 7 9 9 9 9 6 : 6 6 O 5 X . + + O - #   $ : > > 6 > 4 > ",
"  : : $ X $     $ $ 3 $ 4 $ $ $ # # # $ # # $ 8 q 8 $ # < < < > - - * * - * * * : : * , , : : > # # ",
"  $ : $ # $ #   # $ $ $ 4 6 $ $ # # # # $ # $ 6 < $ # # $ $ : : , - * = - - - * * * , > > : > $ $ # "
};
