/* XPM */
static char *out[] = {
/* columns rows colors chars-per-pixel */
"50 50 253 2 ",
"   c #32170F",
".  c #2F1A13",
"X  c #2D1E17",
"o  c #321E13",
"O  c #3E1D11",
"+  c #3C2015",
"@  c #3C3028",
"#  c #3F3F3C",
"$  c #461F10",
"%  c #40241A",
"&  c #562917",
"*  c #6C2F17",
"=  c #64321B",
"-  c #78351C",
";  c #7D381E",
":  c #492E21",
">  c #413A34",
",  c #7F3E26",
"<  c #5F4134",
"1  c #3C4A48",
"2  c #3F504B",
"3  c #2D5354",
"4  c #315957",
"5  c #355B58",
"6  c #326D6C",
"7  c #316E6F",
"8  c #445256",
"9  c #485152",
"0  c #44595A",
"q  c #465E5E",
"w  c #525A5A",
"e  c #515C5F",
"r  c #734D40",
"t  c #7B5343",
"y  c #785A4C",
"u  c #746153",
"i  c #75675E",
"p  c #466364",
"a  c #466B68",
"s  c #596A6C",
"d  c #4C706E",
"f  c #457071",
"g  c #457675",
"h  c #407D7E",
"j  c #537074",
"k  c #5A777B",
"l  c #597B7E",
"z  c #6B7E77",
"x  c #7E7B78",
"c  c #81391E",
"v  c #883B20",
"b  c #8A3F24",
"n  c #874025",
"m  c #8C4125",
"M  c #89452B",
"N  c #8D482E",
"B  c #924527",
"V  c #904627",
"C  c #96462A",
"Z  c #92492E",
"A  c #954A2F",
"S  c #9B482A",
"D  c #9F4A2B",
"F  c #9A4B2C",
"G  c #874E36",
"H  c #934B30",
"J  c #974B30",
"K  c #904C31",
"L  c #954C31",
"P  c #924F34",
"I  c #944E34",
"U  c #984D32",
"Y  c #9D4D33",
"T  c #9B5236",
"R  c #96543B",
"E  c #A24E2F",
"W  c #A64F30",
"Q  c #A35235",
"!  c #A45337",
"~  c #A85130",
"^  c #AD5330",
"/  c #AF5331",
"(  c #AB5432",
")  c #A85334",
"_  c #A95637",
"`  c #AE5736",
"'  c #A05438",
"]  c #AE593B",
"[  c #A85B3E",
"{  c #B35A37",
"}  c #BA5C38",
"|  c #875947",
" . c #AD5F42",
".. c #97604C",
"X. c #886151",
"o. c #A6644E",
"O. c #B26246",
"+. c #B46447",
"@. c #B26349",
"#. c #B6674A",
"$. c #B86548",
"%. c #BB6749",
"&. c #B8674D",
"*. c #B8684B",
"=. c #BB694B",
"-. c #BC684B",
";. c #BD6A4B",
":. c #B8694C",
">. c #BB6A4D",
",. c #BD734F",
"<. c #A06653",
"1. c #A16853",
"2. c #A56A53",
"3. c #AD6E55",
"4. c #C06747",
"5. c #C06A4B",
"6. c #C4694A",
"7. c #C26B4D",
"8. c #C56B4C",
"9. c #C26C4C",
"0. c #C66C4D",
"q. c #C46C4E",
"w. c #C96D4A",
"e. c #C96C4D",
"r. c #C86F4E",
"t. c #C96E4F",
"y. c #CD6E4D",
"u. c #D06F4E",
"i. c #CA714E",
"p. c #CC724D",
"a. c #CC714F",
"s. c #D4754D",
"d. c #D9774F",
"f. c #CB7250",
"g. c #CF7150",
"h. c #CC7450",
"j. c #CA7B5A",
"k. c #D57951",
"l. c #DC7951",
"z. c #DE7A52",
"x. c #DE7B53",
"c. c #E27950",
"v. c #E07C51",
"b. c #E67C52",
"n. c #CA7F60",
"m. c #CB8363",
"M. c #557C81",
"N. c #3F8081",
"B. c #448D8D",
"V. c #4C8A8B",
"C. c #5A8A89",
"Z. c #559495",
"A. c #559799",
"S. c #5F9E9F",
"D. c #628386",
"F. c #6F8484",
"G. c #6A898C",
"H. c #6F8D8F",
"J. c #6B8F97",
"K. c #6F9A96",
"L. c #649398",
"P. c #699499",
"I. c #6E979F",
"U. c #629A9F",
"Y. c #789391",
"T. c #7D9B9A",
"R. c #6799A0",
"E. c #659FA5",
"W. c #689DA4",
"Q. c #4FA5A6",
"!. c #56A0A1",
"~. c #5BA6AB",
"^. c #56ABAE",
"/. c #57B5B7",
"(. c #5BB0B4",
"). c #57B9BB",
"_. c #63A2A6",
"`. c #6CA0A6",
"'. c #64A5AA",
"]. c #67A6AB",
"[. c #69A2A9",
"{. c #68ABB0",
"}. c #67B2B7",
"|. c #66B6BA",
" X c #64BBBF",
".X c #62BFC2",
"XX c #5EC9CB",
"oX c #5ED5D4",
"OX c #65C3C7",
"+X c #63C6C9",
"@X c #6AC5C8",
"#X c #62C8CB",
"$X c #60CCCC",
"%X c #67CCCF",
"&X c #68C8CB",
"*X c #66CFD3",
"=X c #66D0D0",
"-X c #64DEDE",
";X c #899B98",
":X c #949E9B",
">X c #8CA3A0",
",X c #99A3A1",
"<X c #9AA9A6",
"1X c #A9A8A5",
"2X c #A8A9A6",
"3X c #A2AFAC",
"4X c #ADB4B1",
"5X c #B7BCB9",
"6X c #BFC1BE",
"7X c #C6C7C4",
"8X c #C8C9C7",
"9X c #C9CDCA",
"0X c #CFD2CF",
"qX c #D2D6D1",
"wX c #DCDDD8",
"eX c #E4E3DF",
"rX c #E5E5E0",
"tX c #E8E6E1",
"yX c #EAE7E2",
"uX c #E9E9E5",
"iX c #ECECE7",
"pX c #EEEEE8",
"aX c #EEEFEA",
"sX c #F0EFEB",
"dX c #EFF0EB",
"fX c #F1F0EC",
"gX c #F0F1EC",
"hX c #F2F1ED",
"jX c #F1F2EC",
"kX c #F1F2ED",
"lX c #F2F3ED",
"zX c #F1F3EE",
"xX c #F3F2EE",
"cX c #F2F3EE",
"vX c #F4F3EF",
"bX c #F3F4EF",
"nX c #F3F5F0",
"mX c #F5F4F0",
"MX c #F4F5F0",
"NX c #F6F5F1",
"BX c #F7F5F1",
"VX c #F4F6F1",
"CX c #F5F6F1",
"ZX c #F6F7F2",
"AX c #F8F6F2",
"SX c #F8F7F3",
"DX c #F7F8F3",
"FX c #F9F8F4",
"GX c #F9F9F5",
"HX c #F9FAF5",
"JX c #FBFAF6",
"KX c #FBFCF7",
"LX c #FEFEF9",
/* pixels */
"iXiXiXpXpXpXpXaXaXaXaXaXdXdXdXdXgXgXkXzXzXzXzXgXdXdXgXkXkXzXzXzXzXkXkXkXkXkXkXcXcXcXcXcXcXcXcXcXcXcX",
"dXdXdXdXgXgXgXkXkXkXkXkXkXkXzXzXzXbXbXnXnXVXnXbXkXzXzXbXnXnXVXVXVXnXbXbXbXMXMXMXCXCXCXCXCXCXCXCXCXCX",
"cXcXcXcXbXbXbXbXMXnXnXnXnXnXnXnXnXVXVXZXZXDXZXVXnXnXVXZXZXDXDXDXDXZXZXZXZXDXDXDXDXDXDXDXDXDXDXDXDXGX",
"bXbXbXbXMXMXMXMXMXMXnXnXnXnXnXnXnXVXVXVXZXZXZXVXVXVXZXZXZXZXDXDXDXDXDXZXDXDXDXDXDXDXDXDXDXDXDXDXGXGX",
"bXbXMXMXMXCXCXCXCXCXMXnXnXnXnXnXVXVXZXGXHXZXkXkXgXkXkXkXkXCXHXHXGXDXDXDXDXDXDXDXDXDXDXGXGXGXGXGXGXGX",
"MXCXCXCXZXZXZXZXZXZXZXZXZXZXZXDXDXGXuX8X8X4XG.G.G.G.G.G.G.<X8X8XeXKXJXHXHXHXHXHXHXHXHXHXHXHXHXHXHXHX",
"MXCXCXCXCXZXZXZXZXZXZXZXDXHXbXrX9X;XY.V.V.Q.XX/.(.(.(./.XX/.V.V.P.;X5XtXbXLXKXHXHXHXHXHXHXHXHXHXHXJX",
"bXbXMXMXMXMXCXCXCXCXZXDXeX4X,XC.!.).^.{.{.{.OX.XL.P.L.|.#X{.{.{.~./.~.C.>X4XqXHXHXGXGXGXGXGXGXGXGXHX",
"bXbXMXMXCXCXCXZXZXGXaX5XK.Q.!.{.}..X XR.l k d 2 # # # 1 a k l L.|.OX}.{.!.Q.S.3XuXKXHXHXHXHXHXHXHXHX",
"MXMXMXCXCXCXCXDXZX0XT.Z./.#X XR.G.l a 0 % % & * * * * * & % % 2 a j G.P.}.#X.XA.K.7XMXKXHXHXHXHXHXHX",
"MXMXCXCXCXZXGXuX<XA.~.[.I.R.S.d @ : & * M v D w. . . . .Z v S - & : @ q U.W.I.`.~.Z.;XwXKXHXHXHXHXHX",
"MXCXCXCXCXZXgX3X6 $XOX].J.s > = c m ' [ 9.] / x.-.:.:.>.U ^ b.4.] Z ; = : e G.`. XoXN.;XpXJXHXHXHXHX",
"MXMXCXCXCXMX5Xp  X_.]._.1 & * S c.8.-.5.r.] ^ z.%.&.*.:.U ^ x.0.y.e.e.Y * & > C.{.E. XN.:XMXHXHXHXHX",
"MXMXMXMXZX9Xa /.{.I.G.8 O , L D b.y.9.5.t.! ^ x.4.8.7.:.U ^ l.-.0.u.y.Y ( Q $ # D.I.[.).g 4XKXHXHXHX",
"bXbXbXCX0Xk Q. XOX}.p o - [ ' D v.0.t.q.r.' ^ l.6.u.8.:.U ^ l.#.5.y.0.A } y.n $ 2 '.@X.X^.l 6XKXHXHX",
"bXbXbXZX5X3 *XE.`.k X = T :.' D v.7.0.t.9.' ^ l.6.a.0.=.U ^ z.*.=.0.w.S } d.[ ; o p `.R.%X6 ,XLXHXHX",
"vXvXmXuX:Xh .XW.J.9 O , #.:.' D v.;.7.0.>.' ^ l.6.t.0.5.U ^ l.*.*.8.g.D } d.>.H $ # D.I. XB.Y.eXGXFX",
"vXvXBX8X5 oX$X&XA.X c 4.-.-.! D v.=.;.>.>.' ^ b.y.q.q.q.Y ^ z.=.*.0.g.E } d.:. ., . g @X+X-X7 2XKXSX",
"vXvXNX8X4 $X].`.l . m s.+.O.Y S s.O.O.O.@.Y W d.4.O.$.%.A W s.O.O.$.%.A ` y.O.@.M   q `._.=X7 1XKXSX",
"xXxXNX7X4 XXE.H.i N E ` ) _ E E ` ) ) ) ) W W ` ( ) _ _ E W ` ) _ ) ) E ~ ` ) ) E V y F.R.%X6 1XJXAX",
"xXxXmX7X4 oX&XK.G v.g.i.j.m.f.g.a.p.j.m.a.g.g.a.i.j.m.f.g.g.g.f.n.n.i.f.a.f.n.n.a.f.K z +X-X7 2XJXAX",
"hXhXmX7X4 $X'.H.u ' L H L P L L H H I P H L L H H I I H L L H H P I H H A A I I J K t F.[.*X7 2XGXAX",
"hXhXvX7X4 XXW.I.k + - C b b c ; C m n n n c c C m n n m c c V n n n n ; v B m m - O e I.R.%X6 1XGXNX",
"hXhXvX7X4 oX+XOXA.X B z.-.&.' D b.y.7.*.:.' ( b.e.-.#.8.W ^ l.#.*.*.:.A } d.8.0.N . f @XOX-X6 1XGXNX",
"xXvXNX7X4 $X'.`.M.. B x.o...R D v.0.e.-.>.' ^ b.e.q.;.t.Q / z.%.=.-.:.A } b.e.t.L   q [._.=X6 2XJXAX",
"xXxXNX7X4 XXE.I.k . V ,.u x < F v.6.e.q.>.' ^ z.7.t.e.t.Y ^ z.%.;.7.:.A } b.8.0.J   0 R.U.%X6 2XJXAX",
"xXxXmX7X4 oX#XOXZ.X B k.X.i r F v.%.5.r.q.' ^ z.-.e.u.0.U / z.:.9.q.*.A } b.0.w.F   f @XOX-X7 2XJXAX",
"hXhXmX7X4 $X].`.M.. B v...r R D v.%.&.8.t.! ^ x.%.7.u.0.U / l.=.q.q.:.J } c.y.r.Z   q `.E.*X7 2XJXAX",
"hXhXvX7X4 #XW.I.k . V v...r R D v.-.&.7.y._ ^ z.%.7.u.0.U / z.-.q.q.>.L } l.0.9.N   0 I.R.%X7 2XJXAX",
"hXhXvX7X4 oX+XOXZ.X V k.X.y G D v.-.&.=.0.] / z.%.7.u.0.U / z.5.t.t.9.J } d.8.t.A   f OXOX-X7 2XJXAX",
"hXhXmX7X4 $X'.`.M.. V ,.u x < F c.-.&.#.7.] / z.%.7.u.0.U / z.8.y.u.q.J } d.8.e.Z   q `._.*X7 2XJXAX",
"hXhXmX7X4 #XW.I.k . B k...X.G D v.-.&.&.7.] / z.%.=.;.;.U ^ v.e.e.e.r.J } d.5.;.N   0 I.R.%X7 2XJXAX",
"hXhXmX7X4 oX#X@XA.X B v.;.:.' D v.=.&.&.7.] / z.%.*.:.:.U / b.w.;.0.t.J } d.%.*.N   f @XOX-X7 2XJXZX",
"xXxXmX7X4 $X'.`.l . m s.+.+.T S s.+.@.+.-.Q W s.+.+.+.+.A W c.6.$.$.5.F { p.O.@.M   q `.E.=X7 2XJXZX",
"vXvXBX7X4 XXW.H.i M E { ` ` ~ W { ` ` ` ` W W { _ ` _ _ W ~ { ` ] _ ` ~ ( { _ _ E M y F.U.%X7 2XJXZX",
"mXmXAX8X4 oX&XK.G v.a.y.j.m.i.a.i.i.j.m.i.a.a.i.i.n.n.i.a.f.i.i.n.n.p.p.p.i.n.n.f.h.H z +X-X7 2XJXDX",
"mXmXSX8X4 $X].H.u ' I H I P L L L L I P L L L J L I P L J U L L I I L U J H P P L K t z _.*X7 2XKXDX",
"mXmXAX8X4 XXW.I.k + - C m m c c C b n m n ; c B b m m n ; c B b m m m ; v B n n - O w I.U.%X7 2XKXDX",
"vXvXAX8X4 oX$X&XA.X B x.e.0.' D x.*.5.q.:.' ) l.5.t.t.9.U ( l.7.7.0.0.J } k.&.#.N   f @X+X-X7 2XKXDX",
"vXvXBX7X4 $X].[.M.. B c.8.r._ D v.5.q.7.=.' ( z.8.r.0.r.U ( x.%.8.e.7.J } d.*.&.N   q `._.*X7 2XKXDX",
"vXvXAX8X5 OXP.J.j   m l.%.5._ S c.5.5.$.#.T ~ c.e.5.-.w.Y ~ d.$.%.$.#.Z { s.$.#.M   8 J.L.OX6 2XKXZX",
"vXmXmXuX3XD.s s e > r 3.1.1.| t 3.2.1.1.1.| | 3.2.1.1.2.| | 3.<.<.<.1.t | 3.1.1.t > 9 s s l >XeXDXZX",
"vXvXvXmXvXrXeXeXeXeXeXrXtXtXrXeXtXtXtXtXtXrXrXtXyXyXyXyXtXrXyXyXyXyXyXtXtXyXyXyXtXrXrXrXrXeXcXGXZXZX",
"xXxXxXxXvXmXmXmXmXmXbXbXbXbXbXMXMXMXMXMXMXMXMXVXCXCXCXCXCXCXCXCXCXCXCXCXZXZXZXZXDXDXDXDXDXDXZXZXDXZX",
"xXxXxXxXvXvXvXvXvXvXvXcXbXbXbXbXbXbXMXMXMXMXMXMXMXMXMXMXMXMXMXCXCXCXCXCXCXZXZXZXZXZXZXZXDXDXDXDXDXZX",
"vXvXvXvXvXmXmXmXmXmXmXbXMXMXMXMXMXMXMXCXCXCXCXCXCXCXCXCXCXCXCXCXZXZXZXZXCXCXCXCXZXZXZXZXZXZXZXDXDXZX",
"hXxXxXxXxXxXxXvXvXvXcXcXcXcXbXbXbXbXbXbXMXMXMXMXMXMXMXMXMXMXMXMXMXMXCXCXMXMXMXMXMXCXCXCXCXCXCXCXCXCX",
"sXsXsXsXsXfXfXfXfXfXgXgXgXgXgXjXjXjXkXkXkXlXlXkXkXlXlXlXcXcXcXcXcXbXbXbXbXbXbXbXbXbXbXMXMXMXMXMXMXMX",
"pXpXpXpXpXpXpXpXpXpXaXdXdXdXdXgXgXgXgXjXjXjXjXgXgXjXjXjXjXlXlXlXcXbXbXbXlXlXlXlXlXlXlXbXbXbXbXbXbXbX",
"iXiXiXiXiXiXpXpXpXpXpXpXpXaXaXaXaXaXdXdXdXdXdXdXdXdXdXdXgXgXgXjXjXjXjXjXjXgXgXgXgXjXjXjXjXjXjXjXjXlX"
};
