/* XPM */
static char *out[] = {
/* columns rows colors chars-per-pixel */
"50 50 252 2 ",
"   c #010301",
".  c #030E02",
"X  c #041702",
"o  c #051702",
"O  c #081F06",
"+  c #0C1114",
"@  c #052402",
"#  c #072C02",
"$  c #063400",
"%  c #0A3D06",
"&  c #25240F",
"*  c #252410",
"=  c #262611",
"-  c #262713",
";  c #2B301E",
":  c #101B20",
">  c #182125",
",  c #172832",
"<  c #192C33",
"1  c #1B2F37",
"2  c #1C2F38",
"3  c #1C323B",
"4  c #212B2E",
"5  c #232E33",
"6  c #243338",
"7  c #253439",
"8  c #084101",
"9  c #0A4903",
"0  c #0B5203",
"q  c #0A5701",
"w  c #0C5D04",
"e  c #0C6202",
"r  c #0E7603",
"t  c #0E7A02",
"y  c #1C4C23",
"u  c #24582E",
"i  c #295A37",
"p  c #213741",
"a  c #213842",
"s  c #213943",
"d  c #253C45",
"f  c #26424E",
"g  c #38494F",
"h  c #2F5C41",
"j  c #315E44",
"k  c #274450",
"l  c #2E4753",
"z  c #2A4956",
"x  c #374B53",
"c  c #2E505E",
"v  c #3F5259",
"b  c #345B6B",
"n  c #365F70",
"m  c #376172",
"M  c #3A687C",
"N  c #3C6A7D",
"B  c #404F54",
"V  c #405156",
"C  c #415157",
"Z  c #41545A",
"A  c #41555B",
"S  c #40575F",
"D  c #425C64",
"F  c #4F5D60",
"G  c #49666E",
"H  c #4C6870",
"J  c #566D75",
"K  c #527F78",
"L  c #636361",
"P  c #666664",
"I  c #616A6D",
"U  c #666E6F",
"Y  c #6D6B69",
"T  c #6F6E6C",
"R  c #6C797C",
"E  c #7A7877",
"W  c #747879",
"Q  c #787C7C",
"!  c #108B02",
"~  c #119102",
"^  c #109601",
"/  c #538079",
"(  c #7C807F",
")  c #DCC648",
"_  c #3D6D81",
"`  c #3F6F83",
"'  c #407185",
"]  c #407286",
"[  c #587A85",
"{  c #637C85",
"}  c #617E88",
"|  c #647F88",
" . c #3895B7",
".. c #3896B7",
"X. c #3897B9",
"o. c #3898BA",
"O. c #5D8C9C",
"+. c #61818B",
"@. c #63808A",
"#. c #61828D",
"$. c #768183",
"%. c #608590",
"&. c #618994",
"*. c #608997",
"=. c #67909E",
"-. c #5C93A6",
";. c #5995AA",
":. c #5996AB",
">. c #599BB2",
",. c #55A1BB",
"<. c #76A7B2",
"1. c #75A4B4",
"2. c #77A7B6",
"3. c #7AACBB",
"4. c #7CADBD",
"5. c #7CB0BE",
"6. c #56A4C0",
"7. c #56A5C0",
"8. c #51ACCB",
"9. c #53ADCD",
"0. c #4EB0D3",
"q. c #4EB4D8",
"w. c #50B6D9",
"e. c #7FB2C2",
"r. c #4EBBE2",
"t. c #4DBDE5",
"y. c #4AC0E9",
"u. c #49C1EA",
"i. c #47C6F2",
"p. c #46CAF8",
"a. c #42CCFC",
"s. c #43CFFF",
"d. c #44CEFE",
"f. c #868786",
"g. c #8A8B87",
"h. c #92918C",
"j. c #959491",
"k. c #999896",
"l. c #9D9B99",
"z. c #9F9E9C",
"x. c #A1A09D",
"c. c #A0A19F",
"v. c #A6A6A3",
"b. c #ADACA9",
"n. c #B1B0AC",
"m. c #BBB8B6",
"M. c #BCBBB8",
"N. c #C0BEBB",
"B. c #EDE3B2",
"V. c #EDE4B6",
"C. c #81B5C4",
"Z. c #84BAC9",
"A. c #85BBCA",
"S. c #8DC5D7",
"D. c #90C9DA",
"F. c #91CBDB",
"G. c #94CFE2",
"H. c #9BDAED",
"J. c #A5E9FD",
"K. c #A6EAFE",
"L. c #A6EBFE",
"P. c #A8EEFF",
"I. c #A9EFFF",
"U. c #A9F0FF",
"Y. c #AAF0FF",
"T. c #C5C4C0",
"R. c #C9C7C4",
"E. c #CCC9C6",
"W. c #CDCDC9",
"Q. c #D4D3D0",
"!. c #D7D6D3",
"~. c #D8D7D3",
"^. c #DCDBD8",
"/. c #DCDCD8",
"(. c #DEDDD9",
"). c #E1E0DC",
"_. c #E2E1DE",
"`. c #E3E2DE",
"'. c #DBE7E7",
"]. c #E6E5E1",
"[. c #E8E8E4",
"{. c #E9EBE5",
"}. c #EBEBE6",
"|. c #ECE8E5",
" X c #ECECE7",
".X c #E0ECED",
"XX c #EDECE8",
"oX c #EDEDE8",
"OX c #EEEEE9",
"+X c #EFEEEA",
"@X c #EEEFEA",
"#X c #F0EFEB",
"$X c #F1EFEC",
"%X c #EFF0EB",
"&X c #F8F4E3",
"*X c #F8F5E3",
"=X c #F0F1EB",
"-X c #F6F4EB",
";X c #F1F0EC",
":X c #F0F1EC",
">X c #F2F1ED",
",X c #F0F2ED",
"<X c #F1F2ED",
"1X c #F2F3ED",
"2X c #F1F3EE",
"3X c #F2F2EE",
"4X c #F3F2EE",
"5X c #F2F3EE",
"6X c #F3F3EF",
"7X c #F4F3EF",
"8X c #F3F4EE",
"9X c #F3F4EF",
"0X c #F7F5EC",
"qX c #F7F3F0",
"wX c #F3F5F0",
"eX c #F4F4F0",
"rX c #F5F4F0",
"tX c #F4F5F0",
"yX c #F5F4F1",
"uX c #F5F5F1",
"iX c #F6F5F1",
"pX c #F5F6F0",
"aX c #F4F6F1",
"sX c #F5F6F1",
"dX c #F6F6F1",
"fX c #F6F5F2",
"gX c #F5F7F2",
"hX c #F7F6F2",
"jX c #F6F7F2",
"kX c #F7F7F2",
"lX c #F9F6F2",
"zX c #F8F7F3",
"xX c #F9F7F4",
"cX c #FAF6F4",
"vX c #F6F8F3",
"bX c #F7F8F3",
"nX c #F7F9F4",
"mX c #F9F8F3",
"MX c #F9F8F4",
"NX c #F8F9F4",
"BX c #F9F9F4",
"VX c #FAF9F5",
"CX c #F8FAF5",
"ZX c #F9FAF5",
"AX c #FBFAF5",
"SX c #FBF8F7",
"DX c #FBFAF6",
"FX c #FAFBF6",
"GX c #FBFBF7",
"HX c #FCFBF7",
"JX c #FCFCF8",
"KX c #FFFEFA",
/* pixels */
"[.[.{.}. X X XoXoXoXoXOXOXOX@X@X%X%X%X:X,X2X2X2X%X%X:X,X2X2X,X,X,X2X5X5X5X5X5X9X9X9X9X9X9X9X9X9X9X5X",
" X XoXOX@X@X@X%X%X%X%X:X:X<X<X,X,X,X2X2X9XwXaXwX2X2X9XwXaXaXwX9X9XtXtXsXsXsXsXsXsXsXsXsXsXsXsXsXsXsX",
"@X@X%X:X<X<X<X5X5X5X5X9X9X9XtXwXwXwXwXwXaXgXvXgXwXwXaXgXvXvXgXgXgXbXbXbXbXbXbXbXbXNXNXNXNXNXNXNXNXbX",
"%X:X:X<X<X<X5X5X9X9X9XtXtXtXtXwXwXwXwXwXaXaXgXgXaXaXgXgXvXvXvXgXvXbXbXbXbXbXbXbXNXNXNXNXNXNXNXNXNXNX",
"%X:X:X<X<X<X5X9X9X9XtXtXsXsXsXaXwXwXwXaXaXaXgXgXaXaXgXgXvXvXvXvXbXbXbXbXbXNXNXNXNXNXNXNXNXNXNXNXNXNX",
"<X<X5X5X5X5X9XtXtXsXsXsXjXjXjXgXgXgXgXgXgXgXvXvXvXvXvXvXnXnXnXCXCXZXZXZXZXZXZXZXZXZXZXZXZXZXZXZXZXZX",
"5X9X9X9X9X9X9XtXtXsXsXsXjXjXjXjXjXjXjXjXjXjXjXbXbXbXbXbXbXNXNXZXZXZXZXZXZXZXZXZXZXFXFXFXFXFXFXFXFXFX",
"5X9X9X9X9X9X9X9X9X9XtXtXuXsXsXsXsXsXsXsXsXsXdXjXjXjXjXjXjXbXNXNXNXNXNXNXNXNXNXNXNXZXZXZXZXZXZXZXZXZX",
"<X5X9XtXtX9X9X9X9X9XtXsXsXjXjXjXjXjXjXjXbXbXbXjXjXjXjXtXsXNXFXNXbXbXNXNXZXZXZXZXZXZXZXZXZXZXZXFXFXFX",
"5X9XtXsXtX9X9X9X9XtXtXsXsXjXjXdXdXjXjXjXkXBXJXJXGXJXFXZXbXNXFXBXbXbXNXNXZXZXZXZXZXZXZXZXZXZXFXFXFXFX",
"9X9XtXsXsXtX9XtXtXtXsXsXjXjXjXdXiXiXdXzXJX!.z.z.z.x.x.z.!.KXGXMXbXbXNXNXZXZXZXZXZXZXZXZXZXFXFXFXFXFX",
"9X9XtXsXtX9X9XtXtXsXsXsXjXjXjXdXiXhXAXQ.h.$.G G H H G G $.j.~.JXMXbXNXNXZXZXZXZXZXZXZXZXFXFXFXFXFXGX",
"9X9XtXtXtX9X9XtXtXtXsXsXsXsXsXuXzXW.E R [ 3.P.5.J J e.P.3.[ R E Q.FXNXNXZXZXZXZXZXZXFXFXFXFXFXJXJXJX",
"9X9XtXtXtX5X5XtXtXtXtXtXtXtXtXdXR.R &.5.P.4.D i q q i D 5.I.5.&.R W.ZXNXZXZXZXZXZXFXFXFXFXFXJXJXJXJX",
"9XtXsXsXtX9X9XtXtX9X9X9X9X9XjXR.I C.P.L.<.u e t ^ ^ t e u <.L.P.C.I W.JXZXZXZXZXZXFXFXFXFXJXJXJXJXJX",
"tXtXsXsXtXtX9X9X9X9X9X9X9X9X5Xv.D J.P.2.y t ! ~ ^ ^ ~ ! t y 2.P.J.D b.bXZXBXZXZXZXZXFXFXFXJXJXJXJXJX",
"tXtXtXtXtXtXeX7X7X7X7X7X7XzXN.F F.K.P.=.% e X 9 ! ! 9 o e % =.P.K.D.F T.DXkXzXbXMXMXBXBXVXDXDXGXHXHX",
"tXtXtXtXtXtXeX7X7X7X7X7XrX}.z.H J.P.U.1.y 0 .   0 0   . 0 y 1.Y.P.J.H c.+XzXzXzXzXMXMXMXVXVXDXDXHXHX",
"9X9X9X9X9X9X9X7X7X7X7X4XiXm.B H.H.4.S.L.#.8 e @ w w @ e 8 %.K.S.4.H.H.B N.VXhXzXzXzXMXMXVXVXDXDXHXHX",
"9X9X9X9X9X9X6X4X4X4X7XhXAXm.g G.K % j A.e.i r ~ t t ~ r i e.Z.h % / G.g M.KXDXzXhXzXzXMXMXVXDXDXDXGX",
"9X9X9X9X9X9X6X4X4XrX_.k.h.Y 4 D O 0 $ 7 &.x @ q # # q @ x &.6 $ 0 O D 4 T j.l.[.MXzXzXxXMXVXVXDXDXDX",
"9X9X9X9X9X9X6X>X7X).W d p a a p a a a a p a a a a a a a a p a a a a p a a p d Q ].MXzXzXMXMXVXVXDXDX",
"5X5X5X5X5X5X3X4X^.L + < 2 2 1 1 2 2 2 2 2 1 1 2 2 2 2 1 1 1 2 2 2 2 1 1 1 2 < + P ).MXzXMXMXVXVXDXDX",
"5X5X5X5X5X5X3X!.I v v C C v Z v C C C C v A v C C C C v A v C C C V Z Z v C C v v U (.zXzXMXVXVXDXDX",
"tX9X5X9X9X9X/.J X.0.*.| @.-.r.8.%.| | @.>.t.6.#.| | #.7.t.>.@.| | %.9.r.-.@.| *.0. .J `.MXMXVXDXDXZX",
"tX9X9XtX9X6X'.w.a.d.q.+.O.u.s.a.8.} { :.i.s.p.,.{ { ,.p.s.i.;.{ } 8.a.s.y.O.+.q.d.a.w..XxXzXVXDXDXVX",
"9X5X9XtXtX6X'.q.a.d.q.+.O.y.s.a.8.} { ;.i.s.p.,.{ { ,.p.s.i.;.{ } 8.a.s.y.O.+.q.d.a.w..XhXzXVXDXVXVX",
"9X5X9XtXtXeX/.J o.0.*.| @.-.r.8.%.| | @.>.t.6.#.| | #.6.t.>.@.| | %.9.r.-.@.| *.0...J _.zXzXVXVXVXVX",
"9X5X9XtXtX9X>X!.I Z A Z Z Z S S Z Z Z Z A S A Z Z Z Z A S A Z Z Z Z S S Z Z Z A Z I ^.iXhXzXMXVXVXBX",
"9X5X9XtXtX9X>X>X^.L + < 2 2 > + 1 1 2 : + 2 1 2 : : 2 1 2 + : 2 2 1 + > 2 3 < + P ).zXiXiXhXMXVXVXMX",
"9X5X9XtXtX9X3X;X4X_.Q d k _ m s z ` ' b p c ' ' a a ' ` c p b ' ` z s m _ k d ( [.mXiXrXiXhXMXVXMXMX",
"9X6X9XtXuX9X3X>X>X7X_.k.Q p k n s f _ ] f 2 ` ' a s ' ` 1 k ] _ f s n k a ( l.[.MXhXdXiXiXhXMXMXBXBX",
"rXeXrXrXrXrX7X>X>X>X4XhX].b.f.6 > + d N n s k ] a s ] k s n N d + > 7 g.n.{.FXkXjXbXbXkXkXbXNXZXFXFX",
"7X7X7X7X7X7X7X4X4X4X4X4X7XzX].m.m.f.> 5 l a , M 3 3 M , a l 5 > g.M.M.{.FXjXsXjXjXbXbXjXjXjXjXbXNXNX",
"4X4X4X4X4X4X4X7X7X7X7X7X7X7XrXlXcX|.R.E.g.- * ; = = ; & - h.E.E.}.BXNXjXsXsXjXjXjXbXbXbXjXsXsXjXjXbX",
"4X4X4X4X4X4X7XrXrXrXrXrXrXrXrX7XqXqXlXcXB.) ) ) ) ) ) ) ) V.SXxXdXtXtXsXsXjXjXjXjXbXNXNXbXbXbXbXNXNX",
"rXrXrXrXrXrXrXrXrXrXrXrXrXrXrXrXrXrXrXrX-X&X&X&X&X&X&X&X*X0XiXiXuXsXsXsXsXjXjXbXbXbXbXbXNXNXZXZXFXFX",
"rXrXrXrXrXrXrXrXrXrXrXrXrXrXrXrXrXrXrXrXrXyXyXyXfXfXfXfXfXiXiXiXiXsXsXsXjXjXjXbXbXjXsXjXbXNXNXZXZXZX",
"7X7X7X7X7X7X7X7X7X7X7X7X7X7X7XrXrXrXrXrXrXrXrXrXiXiXiXiXiXiXiXiXuXsXsXjXjXjXbXbXbXjXsXjXbXNXNXNXbXbX",
"4X4X4X4X4X4X7X7X7X7X7X7X7X7X7X7XrXrXrXrXrXrXrXrXiXiXiXiXrXrXrXrXuXsXsXjXjXjXbXbXbXbXjXbXNXNXbXbXbXbX",
"4X4X4X7X7XrX7X4X7X7X7X7X7XrXrX7X4X7X7X7X7X7XrXrXrXrXrXrXrXrXrXrXuXsXjXjXjXjXbXbXbXjXjXjXjXbXbXbXbXbX",
">X4X4X7X7X7X7X7X7XrXrXrXrXrXiXeX7X7XrXrXrXrXuXiXiXiXiXiXiXiXiXiXdXsXsXsXjXjXjXjXjXjXbXbXbXbXNXNXNXNX",
";X>X4X4X4X7X7X7X7X7X7XrXrXrXrXeX9X9XeXtXtXtXtXtXsXsXsXsXsXsXsXsXsXsXsXsXsXjXjXjXjXjXbXbXbXbXbXbXNXbX",
";X>X>X4X4X4X7X4X4X4X4X4X7X7X7X6X5X5X9X9X9X9X9X9XtXtXtXtXtXtXtXtXsXsXsXjXjXjXjXjXbXjXsXsXsXsXsXsXsXsX",
";X>X>X>X4X4X7X4X4X4X4X7X7X7X7X6X9X9X9X9X9XtXtXtXtXtXtXtXtXsXsXsXsXjXjXjXjXbXbXbXbXjXsXsXsXsXtXtXtXtX",
"#X;X;X>X>X>X4X7X7X7X7X7XrXrXrXeXtXtXtXtXtXsXsXsXsXsXsXsXsXjXjXjXsXsXsXjXjXjXjXbXbXjXjXjXjXsXsXsXsXpX",
"+X+X#X#X$X;X;X>X>X4X4X4X4X4X7X6X5X5X9X9X9X9XtXtXtXtXtXtXtXtXtXsXtXtXtXtXsXsXsXsXsXjXjXjXsXsXsXtXtXtX",
"XXXXoXOX+X+X+X@X#X#X#X#X;X;X;X:X:X:X:X:X<X<X<X<X<X<X<X1X5X5X8X8X9X9X9X9X9XtXtXtXtXtXtXtXtX9X9X9X9X5X",
"{.{.}.oXOXoX XoXoXOXOXoX+X+X+X@X%X%X%X=X=X<X<X:X=X<X<X<X1X1X8X8X1X1X1X1X1X8X8X8X8X8X8XtX1X<X1X<X1X=X",
"{.{.{. XoX X{. X X X XXXXXoXoXOXOX@X@X@X%X%X%X%X%X%X%X=X=X<X<X<X<X=X=X<X<X<X<X<X<X1X1X8X=X%X=X%X<X%X"
};
