/* XPM */
static char *out[] = {
/* columns rows colors chars-per-pixel */
"50 50 124 2 ",
"   c #161516",
".  c #191413",
"X  c #1A191A",
"o  c #211C1B",
"O  c #311F19",
"+  c #25201F",
"@  c #35231E",
"#  c #3E241C",
"$  c #242324",
"%  c #2F2422",
"&  c #282728",
"*  c #2C2B2C",
"=  c #3D2A24",
"-  c #322C2C",
";  c #3F2E2A",
":  c #343233",
">  c #3A3434",
",  c #3D3C3D",
"<  c #44261D",
"1  c #452A21",
"2  c #4B2E25",
"3  c #412E29",
"4  c #45322C",
"5  c #48352F",
"6  c #52352D",
"7  c #54382F",
"8  c #5C392E",
"9  c #413736",
"0  c #493630",
"q  c #403B3A",
"w  c #4F3E39",
"e  c #5C3B30",
"r  c #633F33",
"t  c #4D413E",
"y  c #694327",
"u  c #734B2F",
"i  c #634034",
"p  c #67453A",
"a  c #6A463A",
"s  c #6E493D",
"d  c #734C3E",
"f  c #403F40",
"g  c #444344",
"h  c #484648",
"j  c #4C4B4B",
"k  c #524C4B",
"l  c #5A524F",
"z  c #514F51",
"x  c #545354",
"c  c #595553",
"v  c #595658",
"b  c #5D5B5C",
"n  c #6F4C40",
"m  c #724D40",
"M  c #68544F",
"N  c #7B5346",
"B  c #7E564A",
"V  c #695653",
"C  c #615C5B",
"Z  c #7A5C53",
"A  c #79615B",
"S  c #615F61",
"D  c #636263",
"F  c #686768",
"G  c #6B6A6B",
"H  c #716F71",
"J  c #717171",
"K  c #787678",
"L  c #7C7B7C",
"P  c #845A2F",
"I  c #845A31",
"U  c #845A3D",
"Y  c #8F633C",
"T  c #845A45",
"R  c #835A4C",
"E  c #895F4A",
"W  c #825F55",
"Q  c #895F52",
"!  c #8E6347",
"~  c #9D6F43",
"^  c #93674A",
"/  c #9D6F48",
"(  c #8E6356",
")  c #906557",
"_  c #9A6E54",
"`  c #916558",
"'  c #946A5E",
"]  c #9A6D5F",
"[  c #886C62",
"{  c #9C6F61",
"}  c #8F7C69",
"|  c #9E7162",
" . c #90736A",
".. c #837572",
"X. c #A37363",
"o. c #AB7664",
"O. c #AE7865",
"+. c #807F80",
"@. c #858485",
"#. c #898689",
"$. c #8C8B8C",
"%. c #938F8E",
"&. c #95908E",
"*. c #908F90",
"=. c #949394",
"-. c #9A9391",
";. c #989698",
":. c #9D9C9D",
">. c #A08883",
",. c #A19793",
"<. c #B29A95",
"1. c #A09EA0",
"2. c #A5A3A5",
"3. c #ADACAD",
"4. c #B4B2B4",
"5. c #B8B5B8",
"6. c #BCBBBC",
"7. c #C3C3C3",
"8. c #D5D5D5",
"9. c #DDDDDD",
"0. c gray88",
"q. c #EBEBEB",
"w. c #F5F5F5",
"e. c #FFFFFF",
/* pixels */
"e.e.e.e.e.e.e.e.e.e.e.e.e.e.e.e.e.e.e.e.e.e.e.e.e.e.e.e.e.e.e.e.e.e.e.e.e.e.e.e.e.e.e.e.e.e.e.e.e.e.",
"e.e.e.e.e.e.e.e.e.e.e.e.e.e.e.e.e.e.e.e.e.e.e.e.e.e.e.e.e.e.e.e.e.e.e.e.e.e.e.e.e.e.e.e.e.e.e.e.e.e.",
"e.e.e.e.e.e.e.e.e.e.e.e.e.e.e.e.e.e.e.e.w.0.8.4.2.:.3.3.7.9.q.e.e.e.e.e.e.e.e.e.e.e.e.e.e.e.e.e.e.e.",
"e.e.e.e.e.e.e.e.e.e.e.e.e.e.e.e.e.e.e.e.K $.* #.b : :.@.J > @.6.e.e.e.e.e.e.e.e.e.e.e.e.e.e.e.e.e.e.",
"e.e.e.e.e.e.e.e.e.e.e.e.e.e.e.e.e.9.=.h 4.#.h - > X > - : : 1.g b 7.q.e.e.e.e.e.e.e.e.e.e.e.e.e.e.e.",
"e.e.e.e.e.e.e.e.e.e.e.e.e.e.e.e.7.$.=., S : = p p r d m 7 - g > h G J q.e.e.e.e.e.e.e.e.e.e.e.e.e.e.",
"e.e.e.e.e.e.e.e.e.e.e.e.e.e.e.7.h @.b o O e { { ` R | { ) a 6 . K D g G q.e.e.e.e.e.e.e.e.e.e.e.e.e.",
"e.e.e.e.e.e.e.e.e.e.e.e.e.e.7.;.x * = a R R { { ) R X.| ` R ' B 1 % & @.;.q.e.e.e.e.e.e.e.e.e.e.e.e.",
"e.e.e.e.e.e.e.e.e.e.e.e.e.7.b K q 1 ' { ( R E ) ` R o.{ ` R X.{ d R t v j G e.e.e.e.e.e.e.e.e.e.e.e.",
"e.e.e.e.e.e.e.e.e.e.e.e.q.L 3.G @ r { { ` R T ^ ) R X.| ` R O.{ m ] s . K G 4.e.e.e.e.e.e.e.e.e.e.e.",
"e.e.e.e.e.e.e.e.e.e.e.e.7.b , x 3 a { X.( R T ^ ( R X.X.` R o.{ m { m k K b b q.e.e.e.e.e.e.e.e.e.e.",
"e.e.e.e.e.e.e.e.e.e.e.e.L 2.F % R d X.X.` R ` _ ` R { { ` R { { d ] R 1 $ h D 5.e.e.e.e.e.e.e.e.e.e.",
"e.e.e.e.e.e.e.e.e.e.e.6.b D , 6 ' m X.o.` R ] | ` R { { ` R { { m { E N q J v D w.e.e.e.e.e.e.e.e.e.",
"e.e.e.e.e.e.e.e.e.e.e.J #.G q n { m | X.` R | ] ` R { R ( R { { m R R ` 3 G S : w.e.e.e.e.e.e.e.e.e.",
"e.e.e.e.e.e.e.e.e.e.e.G 5.$.> m | m ] { ` R { { ` R { s Y R { { d d P ) 4 $.$.* w.e.e.e.e.e.e.e.e.e.",
"e.e.e.e.e.e.e.e.e.e.e.G h : X d ] m ] { ` R { ] ` R ] s Y R { { d d P ` @ , :   w.e.e.e.e.e.e.e.e.e.",
"e.e.e.e.e.e.e.e.e.e.w.J 2.=.k n { m | | ) R X.| ` R { s Y R | ] d d I ` w 1.=., w.e.e.e.e.e.e.e.e.e.",
"e.e.e.e.e.e.e.e.e.e.e.J z f $ n ] m ] { ) R X.X.` R { s Y T | | m [ } ..h h f X w.e.e.e.e.e.e.e.e.e.",
"e.e.e.e.e.e.e.e.e.e.w.J 4.1.k n ] d { | ) R X.| ) R ] s Y R ] { p D v S h K F g w.e.e.e.e.e.e.e.e.e.",
"e.e.e.e.e.e.e.e.e.e.e.J 1.@.> n ( s { ] ) R o.| ) R ] s Y R | ] s C x v , g L * w.e.e.e.e.e.e.e.e.e.",
"e.e.e.e.e.e.e.e.e.e.e.G b j - m T r ] | ` R o.| ` R ] s ! R | ] m | R Z , v j $ w.e.e.e.e.e.e.e.e.e.",
"e.e.e.e.e.e.e.e.e.e.e.J 3.:., n U y | / ` R | | ` R | s ( R | ] d ] R ` 4 *.=.: w.e.e.e.e.e.e.e.e.e.",
"e.e.e.e.e.e.e.e.e.e.e.G F z - m E r ] ~ ) R ] | ` R | { ( R { { d | R ` 3 S b $ w.e.e.e.e.e.e.e.e.e.",
"e.e.e.e.e.e.e.e.e.e.e.J G K c n ] d { ~ ) R | ] ( R { | ` R { { d X.R ` 5 $.=.g w.e.e.e.e.e.e.e.e.e.",
"e.e.e.e.e.e.e.e.e.e.e.J J $.k n | m { / ` R { { ` R { { ` R | { m O.R ` 4 %.*.f w.e.e.e.e.e.e.e.e.e.",
"e.e.e.e.e.e.e.e.e.e.w.G j g + m ] m ] ] ` R { | ` R | { ` T { { d o.R ` = g : X w.e.e.e.e.e.e.e.e.e.",
"e.e.e.e.e.e.e.e.e.e.e.H 4.1.b n | d { { ` R { { ( R { { ` R { { m o.R ` 5 F @.f w.e.e.e.e.e.e.e.e.e.",
"e.e.e.e.e.e.e.e.e.e.e.H :.K q d ] m { { ( R { { ` R | X.` R { { m o.R ` 4 +.h & w.e.e.e.e.e.e.e.e.e.",
"e.e.e.e.e.e.e.e.e.e.e.H S f - n X.>...Z V V | | ` R X.o.` R { { m { R ` = S g $ w.e.e.e.e.e.e.e.e.e.",
"e.e.e.e.e.e.e.e.e.e.w.H 1.+.9 n { m <.{ [ W | | ( R | X.` R { { d { R ` 4 $.L : w.e.e.e.e.e.e.e.e.e.",
"e.e.e.e.e.e.e.e.e.e.e.H $.S ; n { m A [ W W { { ` R | X.` R { { m { R ` 4 J b & w.e.e.e.e.e.e.e.e.e.",
"e.e.e.e.e.e.e.e.e.e.w.K +.H f n { m { [ W R | | ( R X.X.` R { { m { R ` 4 J F : w.e.e.e.e.e.e.e.e.e.",
"e.e.e.e.e.e.e.e.e.e.e.G 5.:.j d X.m { { ) R { { ` R | o.` R ` T d ] R ` 4 @.=., w.e.e.e.e.e.e.e.e.e.",
"e.e.e.e.e.e.e.e.e.e.e.J :.K > s o.m { { ) R { { ) R | X.` R ` I d | R ` 4 @.+.* w.e.e.e.e.e.e.e.e.e.",
"e.e.e.e.e.e.e.e.e.e.e.G D , - m o.m { E ) R { | ` R | X.` R ` P d { R ` = S f $ w.e.e.e.e.e.e.e.e.e.",
"e.e.e.e.e.e.e.e.e.e.e.G G b c n o.m { s Y R { { ) R { { ` R ` P d ] R ` 0 #.$.f w.e.e.e.e.e.e.e.e.e.",
"e.e.e.e.e.e.e.e.e.e.e.G J L k m o.d ] s Y R E ) ) R { { ` R ] U d { R ` 0 *.=.f w.e.e.e.e.e.e.e.e.e.",
"e.e.e.e.e.e.e.e.e.e.e.J $.D > n o.m ] s Y R T ^ ) R { { ` R ' ` d { R  .l @.F * w.e.e.e.e.e.e.e.e.e.",
"e.e.e.e.e.e.e.e.e.e.e.J x h - n ] m ' s Y R ( ' ) R { { ` R { { m ..+.G , h g $ w.e.e.e.e.e.e.e.e.e.",
"e.e.e.e.e.e.e.e.e.e.w.J 4.:.D m | d ] s Y R { { ) R { { ` R { { s S C S f %.F : w.e.e.e.e.e.e.e.e.e.",
"e.e.e.e.e.e.e.e.e.e.e.J :.:.b s { d ] s Y R { { ` R | | ` R { { s A M l g v F , w.e.e.e.e.e.e.e.e.e.",
"e.e.e.e.e.e.e.e.e.e.w.J =.K q n { d { d Y R | { ` R | X.` B { { m ] R ( ; D v & w.e.e.e.e.e.e.e.e.e.",
"e.e.e.e.e.e.e.e.e.e.w.J G j - s T d { E ( R { | ( R X.X.` R { { m | R ` = S f $ w.e.e.e.e.e.e.e.e.e.",
"e.e.e.e.e.e.e.e.e.e.e.J 2.$.c m u d { ] ` R | ] ` R | X.` R { { d R U ` 4 $.$., w.e.e.e.e.e.e.e.e.e.",
"e.e.e.e.e.e.e.e.e.e.e.J :.#.j m T d ] | ( R | { ( R | X.` R | { m d I ` 4 @.K * w.e.e.e.e.e.e.e.e.e.",
"e.e.e.e.e.e.e.e.e.e.w.J ;.F > n | m { { ) R ] { ) R | o.` R | { m Q R ` 4 @.v * w.e.e.e.e.e.e.e.e.e.",
"e.e.e.e.e.e.e.e.e.e.w.J F h - 8 ] m ] | ) R { | ( R | | ` R { { m ' B ( = b g $ w.e.e.e.e.e.e.e.e.e.",
"e.e.e.e.e.e.e.e.e.e.e.J :.J , < m a { | ) R ] R a i R { ` B { | d T 8 a ; K @.: w.e.e.e.e.e.e.e.e.e.",
"e.e.e.e.e.e.e.e.e.e.e.J L j - # 2 6 m m n p n 2 1 1 2 s n p m m 8 2 1 1 3 K D & w.e.e.e.e.e.e.e.e.e.",
"e.e.e.e.e.e.e.e.e.e.e.6.:.;.=.%.&.&.&.&.-.-.&.&.&.&.&.&.-.-.&.%.,.&.&.&.%.:.=.-.w.e.e.e.e.e.e.e.e.e."
};
