/* XPM */
static char *out[] = {
/* columns rows colors chars-per-pixel */
"50 50 85 1 ",
"  c #E5E6E1",
". c #E6E7E2",
"X c #E6E9E2",
"o c #E7EAE3",
"O c #E8E9E3",
"+ c #E8E9E4",
"@ c #E9EAE4",
"# c #E8EBE4",
"$ c #E9EAE5",
"% c #EAEBE5",
"& c #EAEBE6",
"* c #ECEBE7",
"= c #E9ECE5",
"- c #EBECE6",
"; c #EBECE7",
": c #EDECE7",
"> c #ECEDE7",
", c #EDECE8",
"< c #ECEDE8",
"1 c #EEEDE8",
"2 c #EEEDE9",
"3 c #EDEEE8",
"4 c #EDEEE9",
"5 c #EFEEE9",
"6 c #EEEFE9",
"7 c #EDEFEA",
"8 c #EFEEEA",
"9 c #EEEFEA",
"0 c #F0EFEB",
"q c #F3EFEC",
"w c #EFF0EA",
"e c #EEF0EB",
"r c #EFF0EB",
"t c #EFF1EC",
"y c #F0F1EB",
"u c #F1F0EC",
"i c #F0F1EC",
"p c #F2F1ED",
"a c #F1F2EC",
"s c #F0F2ED",
"d c #F1F2ED",
"f c #F2F3ED",
"g c #F1F3EE",
"h c #F3F2EE",
"j c #F2F3EE",
"k c #F4F0ED",
"l c #F5F1EE",
"z c #F4F3EF",
"x c #F6F2EF",
"c c #F3F4EE",
"v c #F2F4EF",
"b c #F3F4EF",
"n c #F4F5EF",
"m c #F7F3F0",
"M c #F3F5F0",
"N c #F5F4F0",
"B c #F4F5F0",
"V c #F6F5F1",
"C c #F5F6F0",
"Z c #F4F6F1",
"A c #F5F6F1",
"S c #F6F7F1",
"D c #F5F7F2",
"F c #F7F6F2",
"G c #F6F7F2",
"H c #F8F4F1",
"J c #F8F7F3",
"K c #F7F8F2",
"L c #F6F8F3",
"P c #F7F8F3",
"I c #F7F9F4",
"U c #F8F9F3",
"Y c #F9F8F4",
"T c #F8F9F4",
"R c #FAF9F5",
"E c #F9FAF4",
"W c #F8FAF5",
"Q c #F9FAF5",
"! c #FAFBF5",
"~ c #FBFAF6",
"^ c #FAFBF6",
"/ c #FCFBF7",
"( c #FBFCF7",
") c #FAFAF8",
"_ c #FBFBF9",
/* pixels */
"  .+$&&&;;;<<<44777etssg7etsgsttdddddjjjjjjjjjjjaa",
"$&;<4999rrrriiddssggvMZZsgvMZZMvBBAAAAAAAAAAAAAASS",
"449riddjjjjbbbBBMMMMZDLLMZDLLLDDPPPPPPPTTTTTTTTTKK",
"99riidddjbbbBBBBMMMMZZDDMZDDLLLDPPPPPPPTTTTTTTTTKK",
"99riidddbbbBBAAAMMMMZZDDZZDDLLLLPPPPTTTTTTTTTTTTEE",
"iidjjjjjBBAAGGGGDDDDDDLLLLLLIIWWQQQQQQQQQQQQQQQQ!!",
"djjbbbbbBBAAAGGGGGGGGGGPPPPPTTQQQQQQQQQ^^^^^^^^^QQ",
"djjbbbbbbbbBBBAAAAAAAAAAGGGGGPTTTTTTTTTTQQQQQQQQQQ",
"jddjbBbjbbbBAAGGGGGGPPPPAPGbA^^PPTTQQQQQQQQQQ^^^^^",
"bjjbBABbbbBBAAGGAGGGGPPPGPGBG^^PPTTQQQQQQQQQ^^^^^^",
"BbbbAABbBBBAAGGGVVVFFFFFJJFVFRRJPTTQQQQQQQQQ^^^^))",
"BbbbAABbBBAAAGGGVVVVVFFFJJFFJRYJPTTQQQQQQQQ^^^^())",
"BbjbBBbjBBBAAAAANNNVVVVVFVVFYYJJPTTQQQQQQ^^^^(((__",
"BbbbBBbdBBBBBBBBNNNNNVVVVzzFYJFJPTTQQQQQ^^^^((((__",
"ABbBAAbjBBbbbbbbzzzNNNNVzupVYFFJPTTQQQQQ^^^^((((__",
"GABAGABbbbbbbbbbzzzzNNNNh0uVYFVJPTTQQQQQ^^^(((((__",
"BBBBBBBBzzzzzzzzhhhhzzzzz8pVzNFNVVVFFJJYYYYR~~//^^",
"BBBBBBBBzzzzzzzzhhhhhhhhz8uNhzFNVVVFFJJJYYYR~~//^^",
"bbbbbbbbzzzzhhhhpppppppph20zphVzNNVVFFJJJYYR~~//^^",
"bbbbbbbbhhhhhhhhpppuuu00p,8hupNhNNNVVFFFJJYRR~~/^^",
"bbbbbbbbhhhhppppuuuu0000u*8hupzpzzNNVVFFJJYYR~~~^^",
"bbbbbbbbppppppppuuuu0000u*8hupzpzzzNNVVVJJJYRR~~^^",
"jjjjjjjjppppuuuu000uuuuup*8hupzphhzzNNVVFJJYRR~~^^",
"jjjjjjjjpppuuuuu000uuuppp,8hupNphhzzNNVVFJJYYR~~^^",
"BABjbBbihhzzzhhpppppppppuuuuppphzzzNVVFFJFFJR~~R^^",
"BBBjbBbihhhzhhppuuuuuuuuuuuupphhzzzNVVFFJFFJY~~R^^",
"BBbjbBbipphhhppuuuuuuuuuuuuppphhzzzNVVFFJFVFY~RR^^",
"bBbjbAbdupppppu000000000uuppphhhzzzNVVFFJFVFYRRR^^",
"bBbjbABduupppuu000000000uupphhhhzzzNVVFFJFVFYRRY^^",
"bbbjbABduupppuu0uuuuuuuupppphhzzzzzNVVFFFVVFJRRYQQ",
"jbbjbABjupppppuuuuuuuuuuppphhhzzzzzNVVFFFVNVJRYYQQ",
"jbbjbABjppphhpuuppppppppppphhzzzzzzNVVFFFVNVJYYYQQ",
"NNNNNNNNppppppppkkkkkkkkqqkklxxzNBBAAAGGTPPPTQ((((",
"zzzzzzzzhhhhhhhhllllllllkkklxxmNNBBAAAGGPGGGGGPTTT",
"hhhhhhhhzzzzzzzzxxxxxxxxllxxmmmVNBAAAGGGPPGAAAAGTT",
"hhhhhhhhNNNNNNNNxxxxxxxxxxmmmHHVBBAAGGGGTTTPPPTTQQ",
"NNNNNNNNNNNNNNNNNNNNNNNNNNNVVVVVAAAAGGPPPPTTQQ^^^^",
"NNNNNNNNNNNNNNNNNNNNNNNNVVVVVVVVAAAGGGPPAAGPTQQQTT",
"zzzzzzzzzzzzzzzzNNNNNNNNVVVVVVVVAAGGGPPPAAGPTTPPTT",
"hhhhhhhhzzzzzzzzNNNNNNNNVVVVNNNNAAGGGPPPPPTTTPPGTT",
"pphhzzNNhhzzzzNNhhhzzzzNNNNNNNNNAGGGGPPPAAGGGPPPUU",
"upphhzzzzzNNNNVVzzNNNNVVVVVVVVVFAAAGGGGGPPPPTTTTUU",
"uuuphhhzzzzzNNNNbbbBBBBBAAAAAAAAAAAAGGGGGPPPPPTTKK",
"uuupphhzhhhhhzzzjjjbbbbbBBBBBBBBAAGGGGGPAAAAAAAASS",
"uuupphhzhhhhzzzzjbbbbBBBBBBBBAAAGGGGPPPPAAAABBBBCC",
"000uppphzzzzNNNNBBBBBAAAAAAAGGGGAAGGGGPPGGGGAAAAnn",
"228800uupphhhhzzjjbbbbBBBBBBBBAABBBAAAAAGGGAAABBcc",
",<,2288080000uuuiiiiidddddddjjjjbbbbBBBBBBBBbbbjcc",
"O=%@-63%>>331555wwwyyaaayaaffcccffffccccnfS6nwnyww",
"X##o@>>@----::1133666www6wwyyaaayyyaaaaafan>f3f6ww"
};
