/* XPM */
static char *out[] = {
/* columns rows colors chars-per-pixel */
"50 50 21 1 ",
"  c #5C2701",
". c #572B02",
"X c #5E2D03",
"o c #5E3106",
"O c #5F3208",
"+ c #622E06",
"@ c #642E09",
"# c #682E08",
"$ c #633106",
"% c #693307",
"& c #663807",
"* c #65330A",
"= c #69350C",
"- c #65390C",
"; c #6B390D",
": c #6C3710",
"> c #673A10",
", c #6C3A11",
"< c #713D13",
"1 c #724015",
"2 c #744018",
/* pixels */
"**-oX+++@@@@@@@O@++@==;=%$X$&;;-*=*oXo:<:**@++@**$",
"o*-**@@@@:@::@OO@@+@=;;=;%**-;*$o@@Oo@@=++++@**@X+",
".O->>=%@*:,,:OO@%$@%;;<;<;==&*$ooo$$@+ X++++=:=@$$",
"O*-***@@@::>**:@%$%=;;<<<;*&&**o*$o@+++ #@++==@X+$",
"1---*$$@*@OO*>>>*$&&*&&;<%%%;;=%:@@@*@@+*@++++@X**",
"O-OO---*>*@@****$$$$&&%%%%<<;;;=#***=**@@**+++@*>>",
"--OO*--***O*OOOOXXoo$&$$;%;%;;%&#**===*@**@$+$-:-$",
"OOOO--OX@*>*>*OOXXoo$$&&%%%;;;=%====@*#=@@+$+*-:Oo",
"O&O&O*&--=*OO-*>--;-;;;&;;%%;%%;=,:#*==@@#*>>*@@$O",
"-------*>**$*-**-&1;1;11;1<<1<;%@==@@=:=>-=-:***XX",
"--->;&*$**$****-&&;;;;<2%;<<<<;%%==#*;:::*****--oO",
"&---&****$-$--**;***&;,,%%%$%%;%:::=@=;=@oOO****OO",
"&&&&&&&&;*%*****=*@@@**@@  o%*;<::=#@@O@-**>=OooOO",
"OOO&&-;1==*==&*$=*$@@@@+@@oo$==;:==#**#@=**=--ooOX",
"OOOO&O11====;=**=%@@#=@@@@@O****:::=::==OXO*-*$OOO",
"OO&&O1&&;==&==**##@**:**:*@OO@-*:#=::===@*@**$OX@*",
"$@$@*---*$$$**$$=%==;;:=:=@+@%%==::=%;;===%=%*@@O&",
"**oooooOOoo$*=*==========#@@+@*=*==*#=;;=#%%==;%Oo",
"*@XXXoOOOoXo$**===;=%%%;=#%@@*=====#@====@==:*=#oo",
"@@XXo@*-Oo$oo$$@#=;==%=====%#@#===#@@%=:====:*@@$o",
"**@***>OOO$Ooo@*%==;;;;===%$++@*#*@@O:::=:*==@@@+o",
"<,:---OOOOooXo@#%==&;;==:==@++@@@@@O@@=:@@@@=:::==",
"2,**&**oooooXX@=====%$$==*$@+@$*@@@+O@@@@@+@#@:=<<",
",:$$*--*$-***@=:=&;%++$;*@ + +@@@@@X@@@X*@X+oooX<;",
" X$%=***>-=#==::$%=$$++++==o @+ o   @@@:@+Xo@@**%%",
"$$$;&;&$*Ooo@>::$$++++$$@==@@*@  XX@@@=@@@@@#=:,=%",
"%%%%;&*OOO@O@@@@$+ $$$$$@$***-*+**-:>*OX@o@O*-,,=%",
";%%&-$$o**@@@oX+@ $&&$X$$Xo*:**$*:,>:@OO@@O*=>,>;;",
"%;%;**&$o@@O@o@@+X$&*$X$=@@->-*@$$*>:>,>****;,,1;;",
";%;;&***o@*O@@#*++$+XXo$>>>*:*$@$*****:>=*****>;;;",
"<%;;;&*&@-=@@o@@$*$  $**-::==--*-**$$$$$+@oo$$%%%&",
"<%%&<;=*O==#@@%=$**o$:>@O--O@-:-&*oo$*$$XXXo+$&%&&",
"%%%%;&==&=%;;=#+@oo@->>>.OO>>O-*OO-O&O--oo$+$**$$O",
";;;;;%%%;%@%#;=%==*@**OOOOO>****>O--O-&-&$***&;&;-",
";111;&%=;%#@=:::=::-*OOOO-*>>>-*-1-O$$*&&*,;;<<11;",
"%;1;;%==:=%%:::%@***-***OO>>>>**O-O-$*&*-;;;=;,2;&",
"%%$%%&=%:==%=:=@@@@O-***OO>>>**-O&*******%%%%%,<%*",
"+++$=;;;;=@@@%===***O-O.OO>O-O>,----*&*$%*%%*%%=$+",
"%+%%;;;;<=@@@===*=-**OO.OOOOO*>,--;&&&=*%*%+@%#$@+",
"$$%$%$=;::==:;@+@=:=**OOO.OO->>:1&**=====%##%##+++",
"=%$$#*===:::::=#@@@@*$**OO$OO*:-:-::::==@%####:#*%",
"*%$$**==:===::::====***oOO-@o*=-*$@***#=@%=#::::=#",
"%$++@**=:==%#:::@=*:=>*-O*Oooo$*$ooo*==**==::::#:=",
"=*$@@*=*:=###=#:@*=****-O$@o o@X*@@$@#**==:##::#==",
"==*@@**@#@@@@=@@::*=*OXXoO*o@o@@*-oo @@@*:===:=#==",
";=*@@@#*@++@:::::::***OO$*-***=-***@@o@@@#=#=:::::",
"=*@@@#@@@@+@=:@@*@#=->>,>>>-*-:**@*OooO@#-=::::=:-",
"$$++@@=##@++@@@@#@*@@=,><2<::***XooOoooo#:::==##==",
"-O..O*@@@X @@::@@@ @@ @:,>@@::=*$$**$$$*=*==*+@##*",
"OO..oO@X@  @@@:@@ @@@@@::X O:@****-&&$*&;*%=@++*@$"
};
