/* XPM */
static char *out[] = {
/* columns rows colors chars-per-pixel */
"50 50 35 1 ",
"  c #161716",
". c #161719",
"X c #1C1D1D",
"o c #21211F",
"O c #1E1F21",
"+ c #1E2122",
"@ c #212121",
"# c #262729",
"$ c #292B2D",
"% c #2B2E31",
"& c #2D3134",
"* c #323335",
"= c #363837",
"- c #353739",
"; c #37393B",
": c #3A3B3D",
"> c #44494D",
", c #4C4D4F",
"< c #474C50",
"1 c #4B4F52",
"2 c #4D5255",
"3 c #4F5559",
"4 c #525455",
"5 c #51565A",
"6 c #555A5E",
"7 c #585B5E",
"8 c #565C61",
"9 c #595E62",
"0 c #5C6165",
"q c #5F6468",
"w c #606467",
"e c #61666A",
"r c #65696D",
"t c #676C70",
"y c #696E72",
/* pixels */
" #@X$OOO@@@@#@@@@#@X@@@X@O@@@#OO@@@@@+o@X@@+@$Xooo",
"@o $87834444444146446444114455154,,24444221247*X@o",
"#o *eq9q99888997wwwwe99ww8wwee9r066870wrre68we* oX",
"XXo*989q09899997986895399899997986335690095560=X@@",
"XoX$9w96865335339989985998888989q868600q458880-X@o",
"o#X$8w9299988888897895808598998w063668qq57658w&.@o",
"Xoo%90ee998885668998988988999w9e0667000e00658w;O@@",
"@oX%75669098657969968558858788890868880059638w:O@X",
"#@X$5883638866889985558981555888568q080565859e*X@o",
"ooo$80083388680058999889w8988988666r060800079e*XXo",
"X@X$5683833325882999988ww8855845525q916077769r=X@@",
"X@X$6666855336881585555993855855525q025353569r=X@o",
"ooX&90qr98569ryr8855585988w99w88688tr89577660r=X@@",
"o@X*90qq08658rtq9885888w88ew9w85889tr00555637w*XX@",
"ooX&9976985328952852521558e8588563500366336350*o@@",
"ooX*e008858315961899853558e9588981108>6q800569*X@o",
"@OO&w9889958998www99588667w998w569q00q09858970*X@@",
"@OO&99889888w98we998885828w9538980000098068860=o@@",
"@oO%9999889w9999988888535898833999990e09858320* X@",
"@@O&9ew985we9899rw889ww89985w9589099qee080q09r:XX@",
"@@O%90w9959w8898w9899e999958ew8809989q0850q00r:Xo@",
"@oO%889888885788882558535999988509656965333330& o@",
"X@O%888989889868988888555998889509666965066630&+@@",
"X@O%99889988e9599985852388958er509999998830680&XX@",
"XoO$558889888888858885585588899596565558682279-.@@",
"@oO$88888835522588889588889988w98566668q88389w-X@X",
"@@.&9qw9w9989889ewee9www9www99ww868999qrwq89we-X@o",
"@@@&eee9w9898888w99we9ee99w988999689990rw999we-Xo@",
"OOO&99989988858889888889989988888669880q8858we-XX@",
"OO.&w9889w99999w88888888w99998999568090q8988ee-o@@",
"@OO&9qq99w999999w999899w998w99ww0868000qqq89we-.@o",
"o@O&988899w989988898589988889899q838009088360e-Xo@",
"@@.%88588389889w9958955093553556896688q898800q:X@@",
"@@O&9989858888w938988880e6996868568wr89999800q-.oo",
"@@.-98888585288819q88909958658555539928q988qer:+Xo",
"@@O&98888552289818855668656658555659915055380q-X@o",
".@O&9qqqe9988etw99666689960q9e0989qyy985886990= @@",
"X@O-e9qqrww889te9955968088rr9r00009tt09888800q:XX@",
"@@@*9889988518982553555566r0898895199359333569=X@o",
"oo.*9989885312882er9999566r055556<<9w259006867=X@X",
"OOO%889q55659889e90q65866009999637000q06068680&+@@",
"@OO&9q998898e9eer9909866689666550000000776668q&+@X",
"X@O&9e995586989908559855669086330000080880067e&Xo@",
"@X.%9qe99888w89wq056eq9000qee867060qq0880q080r=X@@",
"@@.%9ee998w998w800660080000re968070qr00000q80r=X@X",
"@oO&99889588858566555326669008650665885623653q* o@",
"X@O%8888e59w86e8086865665609997606636663333369&X@o",
"X@O%889q95we98e80568569660q00q000000qqq3008770*XOo",
"@X@%,7747444444777754222244777745446574444445,-O@@",
"@o@o$#oo#@oo@o@#O@OOOO+++X@@@@@@@++@@@@@@#@@##@.@o"
};
