/* XPM */
static char *out[] = {
/* columns rows colors chars-per-pixel */
"50 50 253 2 ",
"   c #29181C",
".  c #301C1E",
"X  c #251E27",
"o  c #26242D",
"O  c #302226",
"+  c #382120",
"@  c #342629",
"#  c #3E272A",
"$  c #302B32",
"%  c #3C2D30",
"&  c #492C29",
"*  c #423233",
"=  c #46373A",
"-  c #503230",
";  c #5E3735",
":  c #563B39",
">  c #653D35",
",  c #6E423C",
"<  c #2F2F44",
"1  c #242648",
"2  c #2D3B45",
"3  c #2C3B69",
"4  c #3E3F63",
"5  c #483C43",
"6  c #38414D",
"7  c #324D5C",
"8  c #315A6C",
"9  c #3B5C6C",
"0  c #2E4073",
"q  c #344578",
"w  c #2F5F75",
"e  c #3E5E71",
"r  c #356678",
"t  c #3D697C",
"y  c #396E7F",
"u  c #4E434B",
"i  c #514243",
"p  c #5E4544",
"a  c #534A4E",
"s  c #454A54",
"d  c #5B4F52",
"f  c #40525F",
"g  c #4D525D",
"h  c #54535D",
"j  c #5F5658",
"k  c #6E4841",
"l  c #624B4C",
"z  c #7A4D42",
"x  c #76524B",
"c  c #775E5D",
"v  c #574661",
"b  c #544A6C",
"n  c #5E5C65",
"m  c #414D74",
"M  c #495978",
"N  c #545971",
"B  c #5A5F7A",
"V  c #6F5461",
"C  c #675E60",
"Z  c #49616C",
"A  c #436476",
"S  c #596578",
"D  c #5A697A",
"F  c #56727E",
"G  c #6B6366",
"H  c #7F6563",
"J  c #746C6D",
"K  c #656870",
"L  c #67737F",
"P  c #777073",
"I  c #7D7676",
"U  c #845247",
"Y  c #8C5A4D",
"T  c #935E50",
"R  c #8D6559",
"E  c #9A6352",
"W  c #A0695A",
"Q  c #AE715D",
"!  c #866D6B",
"~  c #89716C",
"^  c #8F7C77",
"/  c #82797B",
"(  c #A36D68",
")  c #AE7B6D",
"_  c #B37663",
"`  c #BB7A67",
"'  c #C17F68",
"]  c #A4817D",
"[  c #CA836A",
"{  c #CB876E",
"}  c #D48A70",
"|  c #CE917A",
" . c #DB9176",
".. c #E59678",
"X. c #E9997C",
"o. c #EA9C7E",
"O. c #304A85",
"+. c #325385",
"@. c #305F88",
"#. c #385E8F",
"$. c #335091",
"%. c #35589D",
"&. c #2E6D84",
"*. c #31718B",
"=. c #3A7D88",
"-. c #35609E",
";. c #37659C",
":. c #37699E",
">. c #396F9F",
",. c #2C7A95",
"<. c #3C7397",
"1. c #3B7B98",
"2. c #3A75A1",
"3. c #3B78A3",
"4. c #3D7DA2",
"5. c #456B80",
"6. c #51638D",
"7. c #487388",
"8. c #5A7483",
"9. c #407891",
"0. c #676A80",
"q. c #637B8C",
"w. c #787A84",
"e. c #717B88",
"r. c #3E9094",
"t. c #3A83A0",
"y. c #3F82A6",
"u. c #3F85A6",
"i. c #3D8BA4",
"p. c #49819A",
"a. c #7E828A",
"s. c #648595",
"d. c #508BA1",
"f. c #4092A1",
"g. c #4394A6",
"h. c #439BA4",
"j. c #4292AC",
"k. c #5593AD",
"l. c #4697B6",
"z. c #509EBA",
"x. c #659FB5",
"c. c #49A7AA",
"v. c #4BACAF",
"b. c #50B2B6",
"n. c #52BDB6",
"m. c #4CA4C1",
"M. c #5AA9C7",
"N. c #59ADCC",
"B. c #52B6C0",
"V. c #54BDC2",
"C. c #57B1D0",
"Z. c #5AB3D6",
"A. c #5AB5D6",
"S. c #6BA9C4",
"D. c #7EAFC4",
"F. c #72B8D1",
"G. c #56C4C0",
"H. c #57CAC4",
"J. c #5CD8C8",
"K. c #5EDDCD",
"L. c #898184",
"P. c #908889",
"I. c #9F8D8B",
"U. c #828894",
"Y. c #888C98",
"T. c #918F94",
"R. c #8E939E",
"E. c #999394",
"W. c #9D999B",
"Q. c #A09A98",
"!. c #B0A19E",
"~. c #939BA4",
"^. c #A29EA0",
"/. c #9DA3AA",
"(. c #A8A6A6",
"). c #ADA7A6",
"_. c #AAA8A9",
"`. c #AFACAB",
"'. c #BAACA9",
"]. c #B2B0AF",
"[. c #A3A9B2",
"{. c #ABAFB7",
"}. c #AEB3BC",
"|. c #B1B1B1",
" X c #B2B2B2",
".X c gray71",
"XX c #B9B3B1",
"oX c #B8B7B6",
"OX c #B9B8B7",
"+X c #B2B7BD",
"@X c #BFBBB9",
"#X c #C49385",
"$X c #DE9786",
"%X c #C59797",
"&X c #E39D82",
"*X c #ECA083",
"=X c #EDA588",
"-X c #F0AB8F",
";X c #F1AE93",
":X c #F5B197",
">X c #F5B59A",
",X c #C3C0BD",
"<X c #84B5C6",
"1X c #BABFC2",
"2X c #8BC5DA",
"3X c #A3C6D0",
"4X c #BACED7",
"5X c #97CEE2",
"6X c #A6D5E4",
"7X c #C7C4C2",
"8X c #C8C7C7",
"9X c #C3C5C9",
"0X c #CFCCCA",
"qX c #CACACC",
"wX c #CDD0D4",
"eX c #D2D2D2",
"rX c #D3D4D3",
"tX c #D7D7D4",
"yX c #D9D8D6",
"uX c #DADADA",
"iX c gainsboro",
"pX c #E0DEDB",
"aX c #E1E1DE",
"sX c #C0E2EE",
"dX c #DFE1E4",
"fX c #D6F0F7",
"gX c #E4E3E1",
"hX c #E6E5E2",
"jX c #E8E7E5",
"kX c #EAEAE7",
"lX c #EBECE9",
"zX c #EEEEEA",
"xX c #EFEFEA",
"cX c #EFF0EB",
"vX c #F0F1EC",
"bX c #F1F0ED",
"nX c #F2F1ED",
"mX c #F1F2ED",
"MX c #F3F2EE",
"NX c #F2F3EE",
"BX c #F4F3EF",
"VX c #F3F4EF",
"CX c #F5F4F0",
"ZX c #F4F5F0",
"AX c #F5F6F1",
"SX c #F6F5F2",
"DX c #F7F6F3",
"FX c #F7F7F3",
"GX c #F8F8F4",
"HX c #F9FAF4",
"JX c #FAFBF6",
"KX c gray99",
"LX c white",
/* pixels */
"zXzXxXxXxXxXxXxXxXcXcXcXcXvXvXmXmXmXNXNXVXVXNXvXcXvXvXmXmXNXNXNXNXNXNXmXmXmXmXmXmXmXmXNXNXNXNXNXNXNX",
"vXvXmXmXmXmXmXmXmXmXmXNXNXNXNXVXZXZXAXVXzXzXlXkXkXkXkXlXlXxXZXAXAXAXAXAXZXZXVXVXZXZXZXZXZXAXAXAXAXAX",
"VXVXVXVXVXVXVXVXVXZXZXZXZXZXAXNXkXkXlX9X0.B B B S S B B B U.aXlXkXlXlXlXkXzXAXFXFXFXFXGXGXGXGXGXGXGX",
"ZXZXZXZXZXZXZXZXZXZXZXZXAXvXjX1XL S B M O.O.O.@.=.*.O.O.O.+.S D D S B B 0.Y.kXGXGXGXGXGXGXGXGXGXGXGX",
"AXAXAXAXAXAXZXAXFXFXFXcXgX}.N 5.c.c.r.1.-.>.g.v.J.B.-.:.j.c.n.n.b.g.+.6.{.qXVXHXGXGXGXGXGXGXGXGXGXGX",
"FXFXFXFXFXFXFXzXuXuXiX+XD A #.;.3.j.G.n.h.v.J.K.J.B.:.4.H.J.K.V.u.2.;.#.M e.wXhXGXJXHXHXHXHXHXHXHXHX",
"FXFXFXFXFXFXGX8X0.N m 5.v.G.J.H.c.g.4.4.f.v.K.V.2.2.f.h.h.i.>.>.y.i.f.f.r.=.9 L qXaXAXHXHXHXHXHXHXHX",
"AXAXAXAXAXAXAXcXhX}.O.$.;.u.G.H.G.b.i.4.>.1.g.y.%.;.i.y.-.-.-.:.3.i.v.c.g.i.=.7.D Y.kXHXGXGXGXGXGXGX",
"AXAXFXFXFXGXHXkXqX~.3 0 $.-.>.3.y.u.y.y.u.y.4.3.:.;.%.-.;.4.c.n.K.K.J.B.:.$.3 M [.8XZXJXGXGXGXHXHXHX",
"AXFXFXFXGXgX1XR.q q $.%.:.t.v.G.K.J.V.m.i.z.K.H.f.4.>.>.t.g.B.V.V.b.g.u.>.:.:.#.0 B {.qXVXGXHXHXHXHX",
"FXFXFXFXGXqXe.B q O.%.;.y.j.b.B.V.z.-.u.K.K.J.v.+.@.g.f.2.:.-.-.>.2.>.2.t.t.t.<.O.m 0.R.lXHXHXHXHXHX",
"FXFXFXFXFXAXZX{.< 3 >.:.%.-.>.2.3.;.q *.G.b.=.e u s t =.h.d.B 6.4.i.h.f.3.:.%.O.1 N aXGXGXGXHXHXHXHX",
"AXAXAXAXFXpX'.I.c n r &.<.t.h.r.y 8 < 6 r 9 u x Q W p s r Z x l 0 +.1.t.4.<.m b V ! !.,XmXGXHXHXHXHX",
"ZXZXZXZXFX@X, , Y x p g 9.<.r 7 o O # - i x _ [ .. .' W p : & # X 1 3 0 0 4 k z Y U ; H hXHXHXHXHXHX",
"VXVXVXVXZXyX!.! . + : 5 3 4 u V ^ c . & Y Q ..o.=X=XX.} E z . * ~ ! l 5 1 < : -   = I.XXbXHXHXHXHXHX",
"VXVXVXVXVXCXAXtXQ.J O   X : ` { #X] v V ` { ..*X:X:X-X&X[ ( v V #X| [ W @ X   = P.].cXJXGXGXGXHXHXHX",
"BXBXBXBXBXBXMXBXAXuX).I . >  ...| #X%X%XX.X.X.*X:X>X>X-Xo.$X%X%X|  .X._ + = E.oXbXGXDXAXAXAXDXFXFXFX",
"BXBXBXBXBXMXMXMXMXBXFXXX% & U Q &X-X>X;Xo.X.X. .' { *X*XX.*X>X:X=X| T k + j gXGXSXSXSXSXSXSXSXDXDXDX",
"MXMXMXMXMXMXnXnXnXnXMXpXOXP.* > W ' -X;X-X=Xo...} } X.*X-X;X;X&XQ Y & l ).8XzXCXCXCXCXCXSXSXSXSXDXDX",
"MXMXMXMXMXnXnXnXnXnXnXMXSXpX].L.- - x W  .&X=X-X;X-X-X=X&X{ Y k & l ^.,XnXFXBXMXBXCXCXCXCXCXSXSXSXSX",
"nXnXnXnXnXnXbXbXbXnXMXkXpXXXC u o o $ = z Y W _ | { W E U k % @ X $ a I eXhXnXBXBXBXBXBXCXCXCXCXSXSX",
"nXnXnXnXnXnXbXbXMXkXyX].G G w.8.w &.d.d.q.K i i p p : d L q.d.p.w A e.P C / 0XpXMXZXBXBXBXBXCXCXCXCX",
"bXbXbXbXbXbXbXhXrX).j / eXiXdX}.f 8 *.t.z.D.4XrXiXyXwX3XS.l.1.&.7 L rXdXiXoXC J 7XuXxXMXBXBXBXBXCXCX",
"bXbXbXbXbXbXnX].= j ^.9XKXkX+XR.Z 9 e r *.u.N.2XfXsXF.z.,.&.e e 9 F [.9XKXkX|.P.= C pXBXBXBXBXBXCXCX",
"MXMXnXnXnXMXSX`.O d qXgXDXwXe.s.M.M.M.k.t r &.1.x.k.*.t A q.D.F.N.x.q.R.kXbXiX).@ a pXFXBXBXBXCXCXSX",
"MXMXnXnXmXaX,XE.u J 9XwXeX[.f 5.N.A.A.Z.N.k.5.e 7 f A F U./.sX6Xx.p.f K 9XeXwX`.a C ].qXzXBXCXCXCXSX",
"nXnXnXMXSX].% i P.^. X{.[.a.6 e M.A.A.A.A.Z.N.k.8 y M.z.7.7.k.d.7.e 2 g ~.[.}.`.E.I % d aXFXCXCXCXSX",
"nXnXnXtX`./ # > Q ) P./ n u X 6 j.m.Z.Z.Z.Z.A.m.,.t.C.Z.C.z.7.9.l.9.o @ h G L.] _ E & i Q.@XlXCXCXSX",
"bXbXnX).@ - Y Q .._ - p P j . 2 &.i.C.A.Z.Z.A.m.,.t.C.Z.A.A.Z.m.,.8 X % J G - ,  .} E z + a iXSXCXSX",
"bXbXMX(.+ >  . .[ T . C jX].@ < &.t.l.m.Z.Z.Z.z.r 9.N.A.A.N.l.j.,.8 X d gX,X% & _ { ..` + a uXAXCXSX",
"nXnXBX).O >  .' U ;   C jXXX@ $ 8 r *.,.j.z.Z.k.7 A M.N.l.i.,.&.w 7 X d gX7X% + k T  .` + a iXFXSXSX",
"MXqXL.~ T Q ..' U , & p / P h n w.8.9 w *.,.j.9.7 9 i.i.,.&.w A e.L h n / J - - z T  .} E R / Q.kXDX",
"VX`.O ; Q [ .. .[ W > &   a 1XeXdX9XY.q.9 8 8 F [.~.e 8 8 A a.~.uXiXwX^.@ . ; z ` { .. .` E + a pXFX",
"BXyX).^ : U  .....` , -   C bXLXLXGXjXqXY.R.}.qXSXjX1X[.Y./.iXlXKXLXLX8X% + ; U } ....' > l Q.@XxXFX",
"BXCXFXpXXXI.x k k ! XXP.O j yXzXKXKXLXdX~.Y.a.w.J P w.U.R.{.SXLXKXGXkX X@ i '.!.x k k c !.,XmXGXAXAX",
"CXCXCXSXGXgX@XoXoX0XBX].@ d qXiXgXgXgXuX9XT.$ a `.T.$ a |.qXdXgXgXaXuX_.@ d gXkX,XOXOX8XNXGXAXAXAXFX",
"CXCXCXCXCXSXFXFXFXDXSX].O u _.1XwXeXeXrXuX^.O j kX@X@ a 8XyXeXeXeXqX+XP.O d aXFXGXGXGXGXAXAXAXAXFXFX",
"CXCXCXCXCXCXCXCXCXCXAXOX5 5 h K T.T.U.R.{.a.. j jX@X@ 5 /./.Y.Y.R.a.n a * G gXDXAXAXAXAXAXAXFXFXFXFX",
"BXBXBXBXBXBXCXCXCXCXCXkXtX!.: x | ] C h g s = P kX7Xu 5 s g j H #X) ; C 7XpXMXSXAXAXAXAXFXFXFXFXFXFX",
"BXBXBXBXBXBXCXCXCXCXCXCXGX,Xl x [ { { R + j 0XhXCXxXaX`.% - ) { } _ p P jXFXCXZXAXAXAXAXFXFXFXFXFXFX",
"BXBXCXCXCXBXBXBXBXBXBXCXCXkXtX).k k E z . j iXkXjXjXlXXX@ & T T > H 7XpXMXSXSXAXAXFXFXFXFXFXFXFXFXFX",
"CXCXSXSXDXSXCXcXhXgXhXhXhXuX1XP.@ & Y z . u `.oXoXoXOXP.@ & Y z . i _.8XgXhXhXhXhXkXAXFXFXFXFXFXFXFX",
"CXCXSXbXgXgXgXrXOX.X.X.XOX(.P.G $ * x p . i (.|.|.|. XP.O # x l @ 5 / T. XoX.X.X.X,XaXgXgXkXAXFXFXFX",
"BXzXaXeXoX.X.X X|.|.|.^.L.K 2 7 A t 5.f X i (.|.|. X XP.O $ A 5.t 9 2 s I P.`. X]. X.X.X X,XiXjXZXFX",
"CXaX.X|.|.|.|.|.|.|. XL.O 6 x.<X5X2Xx.8.X u (.|.|.|. XP.O 2 k.S.5X2XD.s.o 5 ^. X].|.|.|.].|.|.7XvXGX",
"CXkXeX7X X].].|.|.|.|.E.C J E.W.W.L.h h j P `. X|.]. XW.C j h G E.W.Q.P.C J _.|.|.|.].].].OX0XuXVXFX",
"MXMXBXkXrXeXeX8X X|.|.|. XW.G C C C C I _.|.|.|.|.|.|.|.|.Q.G C C C C P _. X|.|.].OX0XeXeXiXNXAXAXAX",
"bXbXbXbXnXnXmXkXtXrXrXrXrXqX.X X X X X|.|.|.|.|.|.|.|.|.|.|. X X X X X@XeXrXrXrXrXpXmXZXZXZXVXVXZXZX",
"zXzXzXzXzXxXxXcXvXvXvXvXmXkXyXtXtXtXtXtXtXtXtXtXtXtXtXtXtXtXtXyXyXyXyXaXNXZXVXVXVXNXNXNXNXNXNXNXNXVX",
"lXzXzXzXzXzXzXzXzXzXxXxXxXcXcXcXvXvXvXvXvXvXvXvXvXvXvXvXmXmXmXNXNXNXNXNXNXmXmXmXmXvXvXvXvXvXmXmXmXmX"
};
