/* XPM */
static char *out[] = {
/* columns rows colors chars-per-pixel */
"50 50 255 2 ",
"   c #271117",
".  c #2A1412",
"X  c #201319",
"o  c #25191E",
"O  c #311918",
"+  c #371C1C",
"@  c #1C1A27",
"#  c #1E1D38",
"$  c #2B1E26",
"%  c #2D242A",
"&  c #242B2C",
"*  c #3A2323",
"=  c #32292F",
"-  c #202A37",
";  c #29243A",
":  c #352F38",
">  c #482629",
",  c #472C30",
"<  c #433437",
"1  c #413B3F",
"2  c #543231",
"3  c #603934",
"4  c #633F37",
"5  c #71443B",
"6  c #7C4A3C",
"7  c #1E1F42",
"8  c #1F2553",
"9  c #3C2D43",
"0  c #233542",
"q  c #2E3D49",
"w  c #383743",
"e  c #292E55",
"r  c #203F52",
"t  c #31345C",
"y  c #1E3A66",
"u  c #21316C",
"i  c #473F59",
"p  c #244E5F",
"a  c #284959",
"s  c #324452",
"d  c #204361",
"f  c #244C6C",
"g  c #295264",
"h  c #2C586B",
"j  c #225E72",
"k  c #2C517B",
"l  c #285978",
"z  c #396074",
"x  c #4B4042",
"c  c #424753",
"v  c #504D54",
"b  c #5B515F",
"n  c #5E585C",
"m  c #6F4B46",
"M  c #624C4A",
"N  c #684656",
"B  c #765450",
"V  c #4F5463",
"C  c #42586D",
"Z  c #495379",
"A  c #595C73",
"S  c #645F61",
"D  c #7D5D65",
"F  c #496072",
"G  c #49657B",
"H  c #5C7C79",
"J  c #6D6060",
"K  c #6D6569",
"L  c #6B6D75",
"P  c #686779",
"I  c #7A7476",
"U  c #865143",
"Y  c #885647",
"T  c #8F5847",
"R  c #9C5E4C",
"E  c #865C52",
"W  c #8D5E53",
"Q  c #9C664F",
"!  c #A76148",
"~  c #AB6D58",
"^  c #B7735F",
"/  c #8E6F73",
"(  c #867B7B",
")  c #937870",
"_  c #A57362",
"`  c #AE7D6B",
"'  c #BE7C63",
"]  c #87827E",
"[  c #B68777",
"{  c #CE8468",
"}  c #D28F75",
"|  c #C39075",
" . c #DB9275",
".. c #DA997F",
"X. c #E29474",
"o. c #E69A7A",
"O. c #EC9A7A",
"+. c #294184",
"@. c #2C4B8A",
"#. c #2A5A85",
"$. c #2F4F99",
"%. c #2C549D",
"&. c #355095",
"*. c #315C97",
"=. c #1E7896",
"-. c #306786",
";. c #3C6A83",
":. c #24708A",
">. c #39798F",
",. c #316698",
"<. c #2C52A3",
"1. c #2E5BA1",
"2. c #3062A2",
"3. c #3269A2",
"4. c #326FA0",
"5. c #3579A4",
"6. c #317EA6",
"7. c #437083",
"8. c #4B7B89",
"9. c #487D9F",
"0. c #627985",
"q. c #4966A0",
"w. c #4E6EA2",
"e. c #857D82",
"r. c #9C7C86",
"t. c #388492",
"y. c #3A8E97",
"u. c #3D86A0",
"i. c #3A83A4",
"p. c #3C89AB",
"a. c #3A8EA8",
"s. c #3C94A7",
"d. c #3A95B3",
"f. c #4F8F9F",
"g. c #7A8790",
"h. c #748D9E",
"j. c #4785AD",
"k. c #4391A2",
"l. c #4697AA",
"z. c #409BAA",
"x. c #5698B0",
"c. c #6A84A8",
"v. c #769CB1",
"b. c #40A4A4",
"n. c #4EA8AF",
"m. c #4DB1AE",
"M. c #48A2BF",
"N. c #4FADBF",
"B. c #48B9B4",
"V. c #5FACC1",
"C. c #52B8C7",
"Z. c #55ADD2",
"A. c #55C2C2",
"S. c #59CECC",
"D. c #59DAC9",
"F. c #5CDED6",
"G. c #7BD7CF",
"H. c #60E5D4",
"J. c #8B8586",
"K. c #998883",
"L. c #838495",
"P. c #8A8C93",
"I. c #939092",
"U. c #9C9595",
"Y. c #9A999F",
"T. c #BD9284",
"R. c #A39D9D",
"E. c #8399B0",
"W. c #81A8BF",
"Q. c #87B1BE",
"!. c #A6A0A0",
"~. c #A2A2A8",
"^. c #A9A8A9",
"/. c #AFADAD",
"(. c #B3A5A2",
"). c #ABB3B6",
"_. c #AFB0B8",
"`. c #B1B1B1",
"'. c #B2B2B2",
"]. c #B2B3B3",
"[. c #B4B0B0",
"{. c #B5B1B3",
"}. c #B5B4B4",
"|. c #B5B6B5",
" X c #B7B8B8",
".X c #BABABB",
"XX c #BFBDBC",
"oX c #C3938F",
"OX c #DF9E82",
"+X c #EDA080",
"@X c #EDA481",
"#X c #EEA889",
"$X c #F2A885",
"%X c #F3AF8F",
"&X c #F6B69A",
"*X c #8CB6C6",
"=X c #A6BDC9",
"-X c #8CCAC8",
";X c #9CC5D4",
":X c #BEC1C1",
">X c #B7C5CE",
",X c #BFCED5",
"<X c #BCD8E2",
"1X c #C4C2C1",
"2X c #C5C5C4",
"3X c #CBC8C9",
"4X c #C9CCCA",
"5X c #D0CECE",
"6X c #D2D2D3",
"7X c #D8D6D5",
"8X c #D9D9D7",
"9X c #DDDDDB",
"0X c #DFDFDD",
"qX c #D4E0DE",
"wX c #DFE0DF",
"eX c #E2E1DE",
"rX c #D4DAE2",
"tX c #C2E2ED",
"yX c #E3E4E2",
"uX c #E6E6E4",
"iX c #E7E8E6",
"pX c #EBEAE7",
"aX c #ECEDE8",
"sX c #EEEEE9",
"dX c #F0EFEB",
"fX c #EEF0EA",
"gX c #F1F0EC",
"hX c #F0F1EC",
"jX c #F2F1ED",
"kX c #F1F2ED",
"lX c #F3F2EE",
"zX c #F2F3EE",
"xX c #F4F0ED",
"cX c #F5F1EE",
"vX c #F4F3EF",
"bX c #F6F2EF",
"nX c #F3F4EF",
"mX c #EDEFF3",
"MX c #F6F3F0",
"NX c #F5F4F0",
"BX c #F4F5F0",
"VX c #F5F5F1",
"CX c #F6F5F1",
"ZX c #F6F6F1",
"AX c #F7F6F2",
"SX c #F6F7F2",
"DX c #F8F7F3",
"FX c #F8F8F4",
"GX c #F8F9F4",
"HX c #FAFBF5",
"JX c #F2F6F9",
"KX c #F7F6FA",
"LX c #F5F9F8",
"PX c #FCFCF9",
"IX c #FCFEFD",
/* pixels */
"aXaXaXsXsXsXsXsXfXfXhXrXw.c.rXiXkXfXuX>Xw.E.wX9X9X9X9X0X0XwXeXaXnXzXzXkXhXhXhXkXkXkXkXkXkXkXkXkXzXzX",
"fXfXfXhXhXhXhXhXkXkXnXrXq.*.9.W.yX,Xc.j.l.9.C Z C F F G G F C ^.iXiXiXhXBXnXnXnXBXBXBXBXBXBXBXBXBXBX",
"zXzXzXzXnXBXBXBXBXzXpX,Xq.5.A.N.G 7.f.m.D.N.#.*.y.b.A.A.V.j.@.@.Z Z A _.aXzXSXSXSXSXSXSXSXSXSXSXSXSX",
"nXBXBXBXBXnXaXaXnXqX0.G *.i.S.A.y.b.D.F.F.N.,.p.S.F.F.N.5.3.1.%.@.@.k Z A _.fXBXFXFXFXFXFXFXFXFXFXFX",
"BXBXBXZXSXuXg.g.-XG.A.m.z.a.6.i.z.B.H.A.5.5.a.z.n.d.5.2.%.3.j.i.i.u.i.k 7 t A :XHXFXFXFXFXFXFXGXGXGX",
"ZXZXZXSXSXzX8X>X8.t.S.D.S.B.a.5.4.t.b.>.y l k.u.,.1.%.%.1.2.3.#.d d d e 8 7 ; ~.ZXFXGXGXGXGXHXHXHXHX",
"ZXZXZXZXZXSXGXzX6X=XG h j -.4.5.i.>.g f +.$.2.1.<.<.<.3.p.a.a.u.>.-.@.@.+.u 8 i P 3XHXHXHXHXHXHXHXHX",
"BXBXBXBXZXZXnXwXg.0.8.y.m.B.C.M.5.u.m.l.1.<.%.$.$.<.<.1.3.i.z.b.b.z.p.4.*.$.+.u 8 _.PXGXGXGXGXGXGXGX",
"BXBXBXZXSXpXI.0.8.k.A.D.H.S.a.d.C.S.H.C.1.,.i.-.y +.$.$.&.*.4.i.z.z.z.k.i.3.&.u e _.PXGXGXGXGXGXGXGX",
"BXZXZXZXSXkX4X4XqX,X8.-.5.4.*.i.F.D.B.t.r l k.y.>.l y k 9.u.p.6.4.3.3.#.f y u 8 e _.PXGXGXHXHXHXHXHX",
"ZXZXZXZXSXSXHXpXP.0.7.-.&.Z A H n.f.g c M v s -.f.H n v a ;.l.s.i.3.%.@.+.+.+.8 ; /.PXGXGXHXHXHXHXHX",
"ZXZXZXSXSXSXFX0XV - q s i B [ ) v b / W 5 4 , w s J [ D ; y ,.#.f k &.+.u +.&.t = [.PXGXGXHXHXHXHXHX",
"ZXZXZXZXZXZXZXdX3XR.=   + 3 ~ _ _ ~ ^ T * + * * , 4 T U m i e e < B r.b 7 8 t L.XXyXHXGXGXHXHXHXHXHX",
"BXBXBXBXBXBXBXNXFX8X1 $ i N W ~ o.{ ! 5 . x K._ U R ^ ~ R Y m E _ R 5 < # # ; /.IXHXGXGXGXHXHXHXHXHX",
"nXnXnXnXnXnXnXvXCX7Xx $ 9 N ' } #XOX{ ~ N D T.| { } OX .{ ^ Q Y m 2 o @ @ L {.0XGXGXGXGXGXHXHXHXHXHX",
"vXvXvXvXvXvXvXzXvXpX XK.* 3 OX%X&X%XO...oXoXT...#X$X$X@Xo.{ R 5 > % # @ o !.PXFXDXFXFXFXGXGXGXGXGXGX",
"vXvXvXvXvXvXvXlXlXlXDX7X< 2 ` } @X+XO.+X#X%X&X&X&X%X$X+Xo.^ 6 3 9 ; 7 # ; ~.DXCXCXZXZXZXZXAXSXSXDXDX",
"lXlXlXlXlXlXlXlXlXjXlXuX^.K.4 U  .O.O.O.o.+X$X$X$X@Xo.' Y 4 * $ 7 7 7 P ^.7XCXNXNXNXNXCXCXCXCXAXAXAX",
"lXlXlXlXlXlXlXjXjXjXjXjXVXyX!.K.E R ' { o.O.O. .' ~ Y 3     X n Y.Y.~.6XFXNXvXNXNXNXNXNXNXCXCXCXAXAX",
"lXlXlXlXlXlXjXjXjXjXjXjXgXjXNXeXR.) 4 5 Y Y Y 6 3 1 q r r - o U.FXCXCXNXvXlXlXvXNXNXNXNXNXNXCXCXCXAX",
"jXjXjXjXjXjXjXgXgXgXgXgXgXgXdXgXFX3X= @ 0 a C C z 7.a.d.s.:.a L R.5XlXlXlXjXlXvXvXvXvXvXNXNXNXNXCXCX",
"jXjXjXjXjXjXgXgXgXgXgXgXgXgXgXeX^.g.s z W.V.l.u.7.7.;.;.;.z h 0 @ U.DXvXlXjXlXlXvXvXvXvXvXvXNXNXNXCX",
"gXgXgXgXgXgXgXdXdXdXdXdXdXdXCX3X: s E.*X;Xv.g 0 o % 1 n I e.P.L x I ^.7XvXjXjXlXlXlXlXvXvXvXvXNXNXNX",
"gXgXgXgXgXgXgXdXdXdXdXdXgXuX XI.s G =Xv.g p g s ; v P.:XLXIXPX9X_.K % R.NXjXjXlXlXlXlXvXvXvXvXNXNXNX",
"lXlXjXjXjXjXgXgXgXgXgXgXlX5X1 & a p p a r 7.;XW.7.0.g..XPXIXIXIXPXI.$ U.nXjXlXlXlXlXlXvXvXvXNXNXNXCX",
"lXlXlXjXjXjXgXgXgXgXgXgXlX5X< X X - s a p 8.;XQ.8.;.h 0.^.6XIXJXyXJ.O U.DXvXlXvXvXvXvXvXvXNXNXCXCXCX",
"lXjXjXjXjXgXgXgXgXgXgXgXlX5X<   X r f.9.g p g r - r -.p @ K 5X XI.J < ( XX0XvXvXvXvXvXvXvXNXNXCXCXCX",
"jXjXgXgXgXdXdXdXdXdXdXdXjX5X< X $ 0 g >.Z.j.f g z -.:.p @ 1 K J M B E 3 * !.VXvXvXvXvXvXvXNXNXCXCXCX",
"jXgXgXgXgXdXdXdXdXdXdXdXjX5X< o < : @ p Z.Z.Z.N.M.p.:.p % * , 5 W Q ~ 5 O R.VXvXvXvXvXvXvXNXNXCXCXCX",
"jXgXgXgXgXdXdXdXdXgXgXgXlX5X< O 2 ,   a V.Z.M.d.=.=.=.j q & X 3 ~ { ..Y + !.CXvXvXvXvXvXvXNXNXCXCXCX",
"jXjXjXgXgXgXgXgXgXgXgXgXlX8XI M 3 >   s z.d.=.=.=.:.j a : %   6 X.O.o.Y + !.ZXvXvXvXvXvXvXNXNXCXCXCX",
"jXjXjXgXgXgXgXgXgXgXgXgXgXpX5X(.5 >   0 :.=.=.:.l a 0 %   . O 6 { X.o.T + !.ZXvXvXvXvXvXvXNXNXVXCXCX",
"jXjXjXjXgXgXgXgXxXxXxXxXbX6Xx , 4 2 . & h j j a 0 V P.S o > 5 T ~ { ..Y + R.ZXvXnXnXnXNXBXVXVXVXVXZX",
"jXjXjXjXjXjXjXjXcXxXxXxXbX7XJ M m 3 . o : w c S P. XmXY.O 5 } X.X.X.} U O R.AXNXNXBXBXBXBXZXZXZXZXZX",
"lXlXlXlXlXlXlXlXbXcXcXcXbXxXpX3XJ x o : L Y.7XuXlXFXIXR.O 5 }  . .^ Y m M }.AXNXNXBXBXBXBXZXZXZXZXZX",
"vXvXvXvXvXvXvXvXbXbXbXbXbXbXMXcXpX.X= : P L._.6XIXIXIX^.< 3 Y Y E B M (.pXgXVXNXNXBXBXZXZXZXZXZXSXSX",
"NXNXNXNXNXNXNXvXvXvXvXvXvXvXvXMXAX6Xn < $ 1 L ~.mXLXIX0X/.( x , * I.uXdXCXCXVXVXBXBXBXZXZXZXZXSXSXSX",
"NXNXNXNXNXNXNXNXNXNXNXNXNXNXNXNXNXxXiX[.% X $ b !.3XKXKXvXiX7Xe.$ U.FXZXCXCXVXZXZXZXZXZXZXZXSXSXSXSX",
"vXvXvXvXvXvXvXvXvXNXNXNXNXNXNXNXNXNXFX1X=     $ = K 2X5X5X>X).L o I.DXCXCXVXVXZXZXZXZXZXSXSXSXSXSXFX",
"vXvXvXvXvXvXvXvXvXNXNXNXNXNXNXNXNXNXDX1X* + 2 *   , S K K n v x 1 !.AXNXNXNXVXZXZXZXZXSXSXSXSXSXSXFX",
"vXvXvXvXvXNXvXvXlXlXlXlXlXlXjXgXgXjXCXXX% + 2 > . 3 ` [ [ B + ( 7XuXlXvXNXNXVXZXZXZXZXZXZXSXSXSXSXSX",
"vXNXNXNXNXNXNXNXjXgXgXgXjXpX4X1X2XXXXXP.% * 2 > . > 5 T ~ 5 . K 1X2X2X0XlXvXvXvXnXVXZXZXZXZXZXSXSXSX",
"vXvXNXNXlXlXlXpX4X2X2X2X1XXX]./.^.J.c c C C c :     O 2 W 4 . n /.'.`..X2X2X2X2X2XyXBXnXNXZXZXSXSXSX",
"lXlXlXsX5X2X2X:X}.`.`.'.[.[.{.I.x v e.P.E.h.L v o X X 2 E 4 . n /.'.].`.`.`.`.'.'.XX2X2X3XuXZXZXSXSX",
"vXdX5X1X}.`.`.`.'.'.'.].'.`.{.J.% % x x x 1 : % o ; q c v w . n /.].].'.'.'.'.'.'.`.`.`.'.XX4XpXFXSX",
"vXsX1X}.'.'.'.'.'.'.'.].'.'.'.^.P.J.J.J.J.S o - h >.x.x.f.C @ n /.'.'.'.'.'.'.'.'.'.'.].`.}..XyXFXSX",
"lXjXiX0X:X|.|.|.'.'.`.'.`.].'.].}.}.}.|.}.( $ n >X<XtX;Xh.V $ S /.].'.'.'.'.'.'.'.].|.|. X7XiXkXZXZX",
"dXdXgXdXuXeXeX9XXX|.|.|.|.|.`.].].].].].'.!.J.I K J S v 1 n e.U.`.'.].].|.|.|.|. X6XyXyXuXhXBXBXBXBX",
"aXaXaXsXsXdXdXsXyXeXeXeXeX8XXX|.|.|.|.|.|.|. X~.] ( e.e.e.Y.|. X|.|. X5XyXyXyXyXyXsXnXzXzXzXzXzXzXzX",
"aXaXaXaXaXaXaXaXsXsXsXsXfXaXeX9X9X9X9X9X9X9X9X9XwXwXeXwXeX0X0X9X0X0XeXaXzXzXzXkXkXhXhXhXhXkXkXkXkXkX"
};
