/* XPM */
static char *out[] = {
/* columns rows colors chars-per-pixel */
"50 50 256 2 ",
"   c #22141A",
".  c #28171B",
"X  c #341E1D",
"o  c #2A1B20",
"O  c #271F30",
"+  c #2C2024",
"@  c #29262D",
"#  c #312226",
"$  c #3E2323",
"%  c #36282C",
"&  c #2E2933",
"*  c #27313A",
"=  c #3C343E",
"-  c #402426",
";  c #432829",
":  c #4D2D2A",
">  c #54312F",
",  c #412E34",
"<  c #463A3B",
"1  c #523835",
"2  c #5B3836",
"3  c #623F38",
"4  c #232340",
"5  c #252947",
"6  c #243846",
"7  c #273D48",
"8  c #373844",
"9  c #272F58",
"0  c #3A3A55",
"q  c #283964",
"w  c #483E43",
"e  c #47384F",
"r  c #5C3F46",
"t  c #2C4451",
"y  c #284C5D",
"u  c #364D5A",
"i  c #294760",
"p  c #2D4167",
"a  c #27596B",
"s  c #395564",
"d  c #345869",
"f  c #3D5A6A",
"g  c #2F4477",
"h  c #2E5E71",
"j  c #30547A",
"k  c #3F6174",
"l  c #366578",
"z  c #4F4144",
"x  c #4D474F",
"c  c #494055",
"v  c #584C53",
"b  c #5E575D",
"n  c #604E4C",
"m  c #6B4B4C",
"M  c #704840",
"N  c #7A5045",
"B  c #70544E",
"V  c #645D5F",
"C  c #7A5556",
"Z  c #4B4B60",
"A  c #4C5860",
"S  c #485275",
"D  c #645F73",
"F  c #426B7A",
"G  c #566274",
"H  c #596D7B",
"J  c #696163",
"K  c #6B6466",
"L  c #756360",
"P  c #7D6763",
"I  c #6B6873",
"U  c #756E71",
"Y  c #6F7379",
"T  c #7E7678",
"R  c #805348",
"E  c #8F5C4E",
"W  c #9A5F49",
"Q  c #855C58",
"!  c #976050",
"~  c #9E6758",
"^  c #A76B59",
"/  c #B4755F",
"(  c #83736A",
")  c #9D7067",
"_  c #876E73",
"`  c #847B7F",
"'  c #917D7A",
"]  c #BB7A63",
"[  c #C1816A",
"{  c #CB8468",
"}  c #CD876E",
"|  c #C28974",
" . c #D98E73",
".. c #DC9176",
"X. c #E29578",
"o. c #E8987A",
"O. c #324987",
"+. c #355685",
"@. c #31508D",
"#. c #345293",
"$. c #355B93",
"%. c #35569E",
"&. c #365B9F",
"*. c #365F9E",
"=. c #286C83",
"-. c #376982",
";. c #33728C",
":. c #356796",
">. c #3D619E",
",. c #2A7B96",
"<. c #3A7C90",
"1. c #39739D",
"2. c #3B7B9E",
"3. c #3866A0",
"4. c #386DA0",
"5. c #445F87",
"6. c #436F84",
"7. c #407986",
"8. c #4B7B91",
"9. c #6B6E83",
"0. c #6B6589",
"q. c #647C88",
"w. c #747785",
"e. c #737D84",
"r. c #4A6DA7",
"t. c #39838A",
"y. c #3F8199",
"u. c #3E8899",
"i. c #3F9199",
"p. c #3C81A2",
"a. c #3E8AA5",
"s. c #4B869C",
"d. c #528492",
"f. c #41969F",
"g. c #6D919D",
"h. c #528BAA",
"j. c #439CA5",
"k. c #4591AB",
"l. c #5598A3",
"z. c #4597B5",
"x. c #4A9BB9",
"c. c #6A98AB",
"v. c #6989B1",
"b. c #7F92B6",
"n. c #45A2A0",
"m. c #4BA7AF",
"M. c #4EAEB0",
"N. c #4DA1BD",
"B. c #4FB8B0",
"V. c #57BBBE",
"C. c #70A8BA",
"Z. c #70B7B5",
"A. c #54C3B7",
"S. c #57ABCC",
"D. c #58B1D1",
"F. c #59B5D6",
"G. c #59CAC3",
"H. c #5CD6C8",
"J. c #5DDCCB",
"K. c #64D0C2",
"L. c #5EE4CC",
"P. c #888180",
"I. c #888081",
"U. c #8C8687",
"Y. c #828189",
"T. c #918B8A",
"R. c #828A91",
"E. c #8B8E97",
"W. c #959395",
"Q. c #AF8384",
"!. c #A58496",
"~. c #A19B9B",
"^. c #949BA2",
"/. c #9FA5AF",
"(. c #86AAB8",
"). c #82B6B8",
"_. c #ADA7A6",
"`. c #A8A6A8",
"'. c #B4AEAD",
"]. c #A9ACB0",
"[. c #A9B1BD",
"{. c gray69",
"}. c #B1B1B1",
"|. c #B2B2B3",
" X c #B4B4B5",
".X c #B6B6B7",
"XX c #BAB8B7",
"oX c #BABABE",
"OX c #CA8E88",
"+X c #C89F8E",
"@X c #E69D81",
"#X c #EBA083",
"$X c #EDA487",
"%X c #EEA78A",
"&X c #F1AE91",
"*X c #F5B499",
"=X c #C0BBBA",
"-X c #C1BFBE",
";X c #8EB6C8",
":X c #AFB9CE",
">X c #9FC4D1",
",X c #B6C4D1",
"<X c #AFD3DF",
"1X c #C5C3C4",
"2X c #CBC8C7",
"3X c #CBCACE",
"4X c #CFCFCE",
"5X c #C2CAD5",
"6X c #C3D8D5",
"7X c #D3D3D4",
"8X c #D6D6D4",
"9X c #D9D9D8",
"0X c #DCDBD9",
"qX c #DEDDDC",
"wX c #E0DFDD",
"eX c #E1E1DF",
"rX c #E3E3E2",
"tX c #E5E6E2",
"yX c #E7E8E4",
"uX c #E9E9E7",
"iX c #ECEBE8",
"pX c #EEEFEA",
"aX c #EAEDEE",
"sX c #F0EFEC",
"dX c #EFF0EB",
"fX c #F1F0EC",
"gX c #F0F1EC",
"hX c #F2F1ED",
"jX c #F1F2ED",
"kX c #F0F1EF",
"lX c #F1F3EF",
"zX c #F3F2EE",
"xX c #F2F3EE",
"cX c #F3F3EF",
"vX c #F5F1EE",
"bX c #F4F3EF",
"nX c #F6F2EF",
"mX c #F3F4EF",
"MX c #E6F9F1",
"NX c #F7F3F0",
"BX c #F5F4F0",
"VX c #F4F5F0",
"CX c #F5F5F1",
"ZX c #F7F4F1",
"AX c #F7F5F1",
"SX c #F5F6F1",
"DX c #F4F7F1",
"FX c #F7F6F2",
"GX c #F6F7F2",
"HX c #F1F1F6",
"JX c #F8F4F1",
"KX c #F8F7F3",
"LX c #F8F8F4",
"PX c #F9FAF5",
"IX c #FAFBF6",
"UX c #FFFFFE",
/* pixels */
"pXpXpXpXpXpXpXpXpXpXdXdXdXdXgXgXjXjXlXlXlXlXjXdXdXdXgXgXjXjXlXlXlXlXlXjXjXjXjXjXjXjXzXxXxXxXxXxXxXxX",
"gXgXgXjXjXjXjXjXjXjXjXlXlXlXlXmXmXVXSXSXSXSXSXmXlXlXmXlXkXmXSXSXSXSXSXmXjXmXmXVXVXVXVXVXSXSXSXSXSXSX",
"mXmXmXVXVXVXVXVXVXVXVXVXVXVXSXDXGXVXiXiXiXiXuXuXuXuXiX,Xb.5XaXlXLXVXaX:Xb.9XLXGXLXLXLXLXLXLXLXLXLXLX",
"VXVXVXVXVXVXVXVXVXVXVXVXSXVXuXyXuX2X9.G H H H H G G G 8.k.h.v.[.uX,Xv.r.>.5XIXLXLXLXLXLXLXLXLXLXLXLX",
"SXSXSXSXSXSXSXVXVXSXGXlXuX7X9.S S S O.1.m.B.A.B.i.;.@.k.J.B.j.d.H l.G.a.>.:XtXBXPXPXPXLXLXLXLXLXLXLX",
"GXGXGXGXGXGXGXGXGXjXwXoX9.S +.$.$.$.*.3.4.x.G.H.H.m.4.z.H.J.L.A.i.M.K.k.:.5.q.6XMXtXqXkXPXPXPXPXPXPX",
"SXGXGXGXGXGXGXGXLX9XD 0 5 6 7.u.u.u.a.1.%.&.3.2.j.j.f.2.:.m.L.A.j.p.1.a.m.A.K.K.K.g.9.4XIXPXPXPXPXPX",
"VXVXSXSXSXSXSXmXeXoX0 4 5 9 q p i j :.3.>.&.%.%.*.1.i.l q -.f.u.1.2.a.m.A.G.V.d.H .XrXjXLXLXLXLXLXLX",
"SXSXSXGXGXGXLXtXI 0 9 q O.#.$.:.u.i.f.i.a.4.&.%.%.%.&.%.@.j h -.y.p.p.;.l d k /.1XuXUXPXLXLXPXPXPXPX",
"SXSXGXGXGXGXLXeXZ 9 O.&.3.1.k.j.n.j.a.1.*.%.%.#.O.#.3.*.&.N.J.V.a.x.V.G.H.B.n.F f ^.3XiXPXPXPXPXPXPX",
"SXGXGXGXGXGXLXeXZ 9 g +.;.<.u.a.a.p.1.4.4.$.O.g i l f.1.@.j.H.J.J.N.:.z.V.B.M.Z.).g.Y.7XPXPXPXPXPXPX",
"SXGXGXGXGXGXLXwXZ 4 9 q q p #.*.4.2.f.i.7.f 0 s i.i.<.f 0 k t.n.K.l.5.$.*.j k ].4XyXVXLXLXPXPXPXPXPX",
"SXSXSXSXSXSXGXwXz 4 O.@.O.O.#.$.;.<.u.l 5 v ~ ( 7.f 8 r N m v G 7.Y ) D S k l t 8  XIXLXLXPXPXPXPXPX",
"VXVXVXVXVXVXCXyXT.I O.q 9 9 0.D e 0 g p e C ^ Q = , ; : > E [ ) C ~ [ R , # & D w.3XPXLXLXPXPXPXPXPX",
"mXmXmXmXmXmXmXbXBX7Xc O 4 = Q ! ! C r m E ! ! E M C P z o 3 W / ..] ! m e O < 2XLXLXLXLXLXPXPXPXPXPX",
"mXmXmXmXmXmXcXbXbXrX~.I = O O , R ! ! ^ / } X. .] | +X_ e Q ] } #X ./ C c O < 2XPXLXLXLXLXLXPXPXPXPX",
"bXbXbXbXbXbXcXzXzXbXKX=Xz o 4 & % 2 E / X.@X$X$X$XX.| Q.!.OXo.$X*X&X#XR # V T.qXFXSXFXFXFXFXKXKXKXKX",
"bXbXbXbXbXbXzXzXzXzXCX=Xx O 4 5 , 2 N ^ X.#X%X&X*X*X*X&X%X#Xo.#X%X@X| M % XXKXCXCXCXCXCXCXCXFXFXFXFX",
"zXzXzXzXzXzXzXhXhXhXzX0X].E.0 5 5 & ; 2 R / ..@X$X%X$X#Xo.o.o.o.X.~ 3 ' ~.0XCXBXBXBXBXCXCXCXCXFXFXFX",
"zXzXzXzXzXzXhXhXhXhXhXzXbXpX|./.`.Y.# . . : M E / { X.o.X.{ / ~ R ' _.wXKXBXzXbXBXBXBXBXBXCXCXCXCXCX",
"hXhXhXhXhXhXhXfXfXfXfXfXfXfXzXzXGX-X% * y y y t 1 3 M M M 3 > P '.8XBXbXbXzXhXzXbXbXbXBXBXBXBXCXCXCX",
"hXhXhXhXhXhXfXfXfXfXfXfXfXfXhXwX~.Y u -.k.z.z.a.6.6.6.h y *   ` zXcXhXzXbXzXhXzXbXbXbXbXbXBXBXBXBXBX",
"fXfXfXfXfXfXfXsXsXsXsXsXsXfXfX2Xw & s f f f d s s -.a.C.>Xd.s G T =XzXbXbXzXhXzXzXzXzXbXbXbXbXBXBXBX",
"fXfXfXfXfXfXfXsXsXsXsXsXfXrX` K K Y.oX].R.H h t O @ 6 F c.;X<XR.& U.iXfXbXzXhXzXzXzXzXbXbXbXbXBXBXBX",
"zXzXzXzXhXhXhXhXhXhXhXhXhX9X< z 1XaXUXLXaX>XS.x.h.7.h t 6 F c.d.h A V -XzXzXzXzXbXbXbXbXbXbXBXBXCXCX",
"zXzXzXhXhXhXhXfXfXfXfXfXjX9X< v qXUXUXuX5X(.k.z.F.S.N.<.a i 7 7 6 @ o _.zXzXzXbXbXbXbXbXbXBXBXCXCXCX",
"hXhXhXhXhXfXfXfXfXfXfXpXuX4Xw z `.7XHX].x s =.a.D.F.F.S.N.k.s.f o . + _.zXzXzXbXbXbXbXbXbXBXBXCXCXCX",
"hXhXhXfXfXsXsXsXsXsXhX2XU n N B V Y E.J o 7 =.a.D.F.F.F.F.z.<.d + . + `.hXzXzXbXbXbXbXbXbXBXBXCXCXCX",
"hXfXfXfXfXsXsXsXsXsXzXXXz $ E ~ E N 3 , + t =.a.S.D.F.F.S.k @ & = % + _.zXzXzXbXbXbXbXbXbXBXBXCXCXCX",
"hXfXfXfXfXsXsXfXfXfXcXXXz : [ } ^ N X % 8 s =.,.,.k.S.D.S.f . $ 1 ; o `.zXbXbXbXbXbXbXbXbXBXBXCXCXCX",
"hXhXfXfXfXfXfXfXfXfXbXXXz : } o...~ X @ 8 u h =.;.,.p.z.N.s . $ 2 1 w '.zXbXbXbXbXbXbXbXbXBXBXCXCXCX",
"hXhXhXfXfXfXfXhXhXhXbX=Xz : } o...^ $ o o @ * t h =.;.,.,.t . $ 2 ' =XrXbXbXbXbXbXbXbXbXbXBXBXCXCXCX",
"hXhXhXhXhXhXhXvXvXvXNX=Xz : } ..] ~ N 2 . v Y.Y 8 t a h a * . ; 3 2 < XXnXbXbXBXBXBXVXVXVXCXSXSXSXSX",
"zXzXzXzXzXzXzXvXvXvXJX=Xz ; ]  .X.X.X.! X ` qX9X^.Y.V x 8 @ . ; M B J 1XNXBXBXBXBXVXVXVXVXSXSXSXSXSX",
"bXbXbXbXbXbXbXnXnXnXJX2XU n N W }  . .E . ` rXUXPXkXrX[.w.w . , n _.sXnXNXZXCXBXBXVXVXVXSXSXSXSXSXGX",
"BXBXBXBXBXBXbXNXnXnXnXfXuX9XT B R R N M w W.uXUXUXwX[.R.D =   T tXfXJXJXZXAXCXCXVXVXVXSXSXSXSXSXGXGX",
"BXBXBXBXBXBXBXBXBXBXBXBXZXBXpX-X< , V U.oXqXLXLXaX XI w + z J _.AXAXCXCXCXCXCXSXSXSXSXSXSXSXSXGXGXGX",
"BXBXBXBXBXBXBXBXBXBXBXBXBXBXGX2X< v 3XrXsXkXzX2XY.b + . # ~.zXbXCXCXCXCXCXCXCXSXSXSXSXSXSXGXGXGXGXGX",
"bXbXbXbXbXbXBXBXBXBXBXBXBXBXFX1X< = e.E.^.^.^.U + X $ X # ~.FXCXCXCXCXCXCXCXCXSXSXSXSXSXGXGXGXGXGXGX",
"bXbXbXbXbXbXbXBXBXBXBXBXBXBXFX0XU.V 8 x L L L n o - 2 ; # ~.FXCXCXCXCXBXBXBXBXCXSXSXSXGXGXGXGXGXGXLX",
"bXbXBXBXBXBXbXbXbXbXbXbXBXbXrX0XqX_.% 3 ] ] / R o - 2 ; # T.eXwXqXqXqXsXCXCXCXFXGXGXGXGXGXGXGXGXGXGX",
"BXBXBXCXCXFXCXzXwX9X9X9X9X8XoX}.|.P.# > E M > $ . % w w t A U U.{.|. X4X9X9X9X9X0XpXLXGXGXGXGXGXGXGX",
"BXBXBXBXeX7X8X4XXX}.}.}.}.}.}.}.}.I.# > E 3 X . . = G q.g.e.I K J U.}.}.}.}.}.}.|.2X8X8X0XzXGXGXGXGX",
"bXfXeX7X=X{.{.{.}.}.}.}.}.}.}.}.}.P.# , n z = & . % w v b b b w o J }.}.}.}.}.}.}.{.{.{. X4XqXxXGXGX",
"BXiX4X|.}.}.}.}.}.}.}.}.}.}.}.}.}.P.# t 8.8.8.F y * o < J K K K K T.}.}.}.}.}.}.}.}.}.}.}.}.1XdXLXLX",
"BXzXyXqX1X|.|.|.}.}.}.}.}.}.}.}.}.P.# u g.;X<X<X>Xe.# K {.|.|.|.}.}.}.}.}.}.}.}.}.|.|.|.XX8XtXVXGXGX",
"zXzXbXBXyXwXwX0X-X X X X X X}.}.}.~.T J x V U T T T T W.{.}.}.}.}.}.}.|. X X X X.X7XeXeXrXmXGXSXSXSX",
"fXfXfXfXhXhXjXgXtXeXeXeXeXqX-X X.X.XXX`.T.U.U.U.U.~..XXX.X.X.X.X.X.XXX8XeXeXeXrXrXdXVXVXVXmXmXVXVXVX",
"pXpXpXpXpXpXpXdXdXgXgXgXgXgXyXrXtXtXtXtXyXyXyXtXyXyXtXtXtXtXtXtXtXtXyXgXVXmXmXmXmXxXxXxXxXxXxXxXmXmX",
"iXiXpXpXiXpXpXpXpXpXpXpXpXpXdXdXdXgXgXgXgXgXgXdXdXgXgXgXgXjXjXjXjXxXxXxXjXjXjXjXgXgXgXgXgXjXjXjXjXjX"
};
