/* XPM */
static char *out[] = {
/* columns rows colors chars-per-pixel */
"50 50 256 2 ",
"   c #27191C",
".  c #261C2E",
"X  c #301E20",
"o  c #231E38",
"O  c #2B2228",
"+  c #362121",
"@  c #3E2524",
"#  c #32262B",
"$  c #382B2E",
"%  c #2C2930",
"&  c #2B253C",
"*  c #262E38",
"=  c #352F3A",
"-  c #28343E",
";  c #3B3032",
":  c #3F3336",
">  c #353239",
",  c #442A26",
"<  c #50312B",
"1  c #45383A",
"2  c #5B3831",
"3  c #644238",
"4  c #764B3E",
"5  c #242141",
"6  c #242247",
"7  c #25254B",
"8  c #3D3444",
"9  c #363944",
"0  c #393F49",
"q  c #252956",
"w  c #282D5A",
"e  c #243657",
"r  c #2C3468",
"t  c #303B64",
"y  c #313A74",
"u  c #443C42",
"i  c #483E40",
"p  c #30424F",
"a  c #2E4B5E",
"s  c #2E5466",
"d  c #2F576C",
"f  c #3F5263",
"g  c #394676",
"h  c #2D657C",
"j  c #326077",
"k  c #564141",
"l  c #504548",
"z  c #564C4E",
"x  c #5A4948",
"c  c #464853",
"v  c #414C55",
"b  c #4E4D55",
"n  c #545059",
"m  c #644642",
"M  c #66514F",
"N  c #7B5246",
"B  c #60595D",
"V  c #695858",
"C  c #7A5651",
"Z  c #755E59",
"A  c #434160",
"S  c #4B4C66",
"D  c #4F5266",
"F  c #4C5176",
"G  c #605E64",
"H  c #436578",
"J  c #576677",
"K  c #62616C",
"L  c #6D6369",
"P  c #676B78",
"I  c #6C6F79",
"U  c #726D70",
"Y  c #7D7271",
"T  c #787479",
"R  c #825446",
"E  c #855A4B",
"W  c #925F4E",
"Q  c #82655F",
"!  c #986451",
"~  c #9F6A5C",
"^  c #AB6F59",
"/  c #A8705E",
"(  c #AC745F",
")  c #896B69",
"_  c #8A686B",
"`  c #8C6E6F",
"'  c #867A78",
"]  c #877F7F",
"[  c #B97A64",
"{  c #C6846A",
"}  c #D0896D",
"|  c #D88F71",
" . c #DD9274",
".. c #E79978",
"X. c #334181",
"o. c #374A87",
"O. c #34468B",
"+. c #325081",
"@. c #35578E",
"#. c #325C8A",
"$. c #384D96",
"%. c #37569D",
"&. c #395A9E",
"*. c #385E9E",
"=. c #2F6780",
"-. c #336C84",
";. c #396E8F",
":. c #38629D",
">. c #38699C",
",. c #3A6E9F",
"<. c #287390",
"1. c #2E7A98",
"2. c #327693",
"3. c #3D7E92",
"4. c #3950A0",
"5. c #3B66A0",
"6. c #3E73A6",
"7. c #3D79A0",
"8. c #545D87",
"9. c #586483",
"0. c #566F83",
"q. c #427085",
"w. c #427194",
"e. c #477891",
"r. c #467C96",
"t. c #626480",
"y. c #646886",
"u. c #6D7386",
"i. c #777985",
"p. c #717C8B",
"a. c #417FA3",
"s. c #5D72AC",
"d. c #837E82",
"f. c #3D809F",
"g. c #3281A1",
"h. c #3687A7",
"j. c #3F8CA2",
"k. c #4C829C",
"l. c #7C8A99",
"z. c #4183A1",
"x. c #4287A3",
"c. c #428FA4",
"v. c #418BA8",
"b. c #4C8CA9",
"n. c #4293A1",
"m. c #4396A6",
"M. c #419AA3",
"N. c #439DA5",
"B. c #449FAB",
"V. c #5392AD",
"C. c #4091B0",
"Z. c #4799BC",
"A. c #4D9CBF",
"S. c #5398B7",
"D. c #788DB9",
"F. c #7D93B7",
"G. c #42A0A3",
"H. c #45A5AA",
"J. c #45B0AC",
"K. c #47B4AE",
"L. c #4AB7AD",
"P. c #49AAB0",
"I. c #4ABFB3",
"U. c #55BABB",
"Y. c #54C3BE",
"T. c #54CBBE",
"R. c #4C9FC3",
"E. c #4FA3C8",
"W. c #52A5C8",
"Q. c #54AACF",
"!. c #57AFD5",
"~. c #59B1D7",
"^. c #5AB0D8",
"/. c #59B2D9",
"(. c #5AB3D9",
"). c #5AB3DA",
"_. c #55CEC1",
"`. c #57D2C4",
"'. c #5AD9C8",
"]. c #59DFC9",
"[. c #5CE4CC",
"{. c #8A8484",
"}. c #8C8687",
"|. c #908A89",
" X c #918D8E",
".X c #9E8F8D",
"XX c #828392",
"oX c #898998",
"OX c #969191",
"+X c #999696",
"@X c #9F9A99",
"#X c #9295A0",
"$X c #979CA7",
"%X c #98A0AB",
"&X c #9AA3AF",
"*X c #A4A1A1",
"=X c #A5A5AB",
"-X c #ABA8AA",
";X c #AFADAC",
":X c #A6ABB5",
">X c #B0B0B1",
",X c #B1B1B1",
"<X c #B3B2B3",
"1X c #B5B5B4",
"2X c #B5B7BA",
"3X c #BAB9B9",
"4X c #BDBCBB",
"5X c #C1B7B6",
"6X c #94A2C5",
"7X c #A0ABC8",
"8X c #A5B1CB",
"9X c #BBBEC5",
"0X c #C2C0C0",
"qX c #C4C4C5",
"wX c #C3C6CD",
"eX c #CCCBC9",
"rX c #D0CFCD",
"tX c #D1D1D3",
"yX c #D6D5D3",
"uX c #D8D8D6",
"iX c #DCDBD9",
"pX c #DFDEDB",
"aX c #E2E1DF",
"sX c #DBDDE1",
"dX c #D6E2E7",
"fX c #E5E4E1",
"gX c #E7E7E3",
"hX c #E2E4E7",
"jX c #EAEAE7",
"kX c #E6E7E9",
"lX c #EDEDE9",
"zX c #EFEFEB",
"xX c #F1F0EC",
"cX c #F0F1EC",
"vX c #F2F1ED",
"bX c #F1F2ED",
"nX c #F2F2EE",
"mX c #F3F2EE",
"MX c #F2F3EE",
"NX c #F4F3EF",
"BX c #F3F4EF",
"VX c #E3EEF1",
"CX c #F5F4F0",
"ZX c #F4F5F0",
"AX c #F5F5F1",
"SX c #F6F5F1",
"DX c #F5F6F1",
"FX c #F7F6F2",
"GX c #F6F7F2",
"HX c #F2F5F6",
"JX c #F8F8F3",
"KX c #F8F9F4",
"LX c #F9F9F5",
"PX c #F9FBF5",
"IX c #FBFCF6",
"UX c #FEFEFE",
/* pixels */
"lXlXzXzXzXzXzXzXzXzXzXzXzXcXcXbXbXbXMXMXMXMXbXcXzXzXcXcXbXMXMXMXMXMXMXbXbXbXbXbXbXMXbXMXMXMXMXMXMXMX",
"cXcXbXbXbXbXbXbXbXbXbXMXMXMXMXBXBXZXZXDXGXGXDXjX#XoXaXlX7X6XhXGXDXDXGXDXZXBXBXBXZXZXZXZXZXDXDXDXDXDX",
"BXBXBXZXZXZXZXZXZXZXZXZXZXZXZXDXDXDXGXVX8X6X6XF.t w u.l.r.a.F.7XlXlX:X$XjXGXGXGXGXJXJXJXJXJXJXJXJXJX",
"ZXZXZXZXZXZXZXZXZXZXDXhX7X6XkXhX6XD.D.D.x.j.P.P.3.q.+.#.U.Y.j t t.y.o.8.sXKXGXGXJXJXJXJXJXJXJXJXJXJX",
"DXDXDXDXDXDXZXZXZXZXBXtXs.&.D.F.x.f.f.c.Y.`.[.'.H.M.j.m.'.].L.n.+.X.$.s.sXZXGXKXJXJXJXJXJXJXJXJXKXKX",
"GXGXGXGXGXGXGXGXGXkXXX8.$.&.7.M.T.`.J.K.].[.I.H.,.>.j.G.J.L.'.'.6.&.7.k.0.i.tXJXKXLXLXLXLXLXLXLXLXLX",
"GXGXGXGXGXGXGXGXJXaXD q O.:.m.K.].[.'._.I.K.H.n.*.%.:.,.n.G.K.J.>.5.c.m.#.g 8.XXaXIXLXLXLXLXLXLXLXLX",
"ZXDXDXDXDXDXGXDXcXuXF t 3.B._.`.L.L.'.`.G.M.T.T.B.c.>.>.m.J.T.`.N.N.Y.`.H.x.a A wXNXKXKXKXKXKXKXKXKX",
"DXDXGXGXGXZXgXeXp.9.o.>.U.].[.`.H.N.H.m.6.7.Y.[.].`.H.N._.].[.'.H.H._.[.].T.7.+.F i.kXKXKXKXLXLXLXLX",
"DXDXGXGXJXgXoXJ q.;.%.6.Y.'.J.N.m.j.>.5.x.n.N.J.`.`.P.H.'.].I.G.,.,.m.K._.`.B.2.e S kXPXKXKXLXLXLXLX",
"GXGXGXGXGXNXaX2Xf t @.,.c.C.5.*.>.5.%.:.n.M.,.:.6.6.5.,.B.P.M.x.*.*.f.v.a.6.5.@.r S wXsXMXKXLXLXLXLX",
"GXGXGXGXGXGXIXtXA e 3.x.5.&.*.,.j.j.*.:.n.m.:.*.x.c.,.>.z.x.5.&.*.*.&.:.x.j.,.*.O.o.u.oXaXLXLXLXLXLX",
"DXDXDXDXDXnXpX5XV S r.f.&.&.v.M.G.n.:.*.z.x.*.:.n.G.M.x.:.&.*.5.j.x.:.*.v.N.j.r.D L qXuXnXKXLXLXLXLX",
"ZXZXZXZXDXpX) N ~ ` 8.%.4.&.a.n.N.n.:.$.o.o.$.*.a.j.M.c.*.%.z.M.c.a.*.&.a.z.#.F _ ~ N Q yXPXLXLXLXLX",
"BXBXBXBXZXfX.XZ , # t X.$.4.o.@.f.a.*.O.w q y O.%.*.7.a.&.%.7.a.@.o.$.4.o.g w 7 O < Q |.aXPXLXLXLXLX",
"BXBXBXBXBXNXvXyX] B # & X.O.w q X.O.$.O.q 6 6 w $.4.4.4.4.$.o.X.q w O.$.w 6 o & n {.jXAXJXKXKXLXLXLX",
"NXNXNXNXNXNXNXmXzXaX|.K g t 7 6 7 q O.O.q 5 6 q y X.X.O.4.$.r 7 6 q y y 7 & B {.yXxXFXFXFXFXFXGXGXGX",
"NXNXNXNXNXNXmXmXmXNXCXeXz . 5 6 6 7 r r 7 6 6 6 7 7 7 q y y q 6 6 6 6 5   : 4XJXSXSXSXSXSXSXFXFXFXFX",
"mXmXmXmXmXmXvXvXvXvXmXpX@XY 8 o 5 6 6 6 6 6 6 6 6 6 6 6 6 6 6 6 6 5 o = U OXuXSXCXCXCXCXSXSXSXSXFXFX",
"mXmXmXmXmXmXvXvXvXvXvXvXmXlX;Xd.8 . . o 5 6 6 6 6 6 6 6 6 5 o . . 8 T -XjXSXNXNXCXCXCXCXCXCXSXSXSXSX",
"vXvXvXvXvXvXxXxXxXxXxXxXmXzX3X}.;       . o 5 6 6 6 6 5 o .       : d.1XlXCXmXmXNXNXNXNXCXCXCXCXSXSX",
"vXvXvXvXvXvXxXxXxXxXvXpX*X{.K n n b > 9 H q.w.w.w.w.w.w.q.H 0 > c n n G d.OXuXNXNXNXNXNXNXNXCXCXCXCX",
"xXxXxXxXxXxXzXzXzXzXvXeXz : =XwXwX2X0.j q.e.x.C.C.C.C.v.r.q.j H :XwXwX-Xu : 4XCXmXmXmXmXNXNXNXNXCXCX",
"xXxXxXxXxXxXzXzXxXfXOXU G T hXUXUXVXV.2.k.k.2.<.<.<.<.2.z.k.2.z.dXUXUXkXd.B U }.pXNXmXmXNXNXNXNXCXCX",
"mXmXmXvXvXvXvXvXmXiXl u =XyXHXsX#Xl.V.R.!.~.R.Z.Z.Z.Z.A.!.!.R.S.l.$XiXHXuX2Xz 1 eXSXNXNXNXNXCXCXSXSX",
"mXmXvXvXvXvXxXxXxXiXz z eXzX<XoXc a S.^././.^././././.~.~.~.(.W.f b XX>XkXaXB i eXNXNXNXNXNXCXCXSXSX",
"vXvXvXvXxXxXmXuX] U G P #X#Xb 0 d =.A.!.~.~.^.^.!.!.^.~.^.~.!.E.-.s 0 c oX#Xl $ B  XlXCXNXNXCXCXSXSX",
"vXvXxXxXzXzXlX0X1 @ Z ` T P # O p s 2.v.Q.~./.W.h.h.E.~./.Q.C.1.d p %   $ : m 4 + x aXzXmXNXCXCXSXSX",
"xXxXxXxXxXiX' M 3 4 [ [ C k X % d =.<.h.Q.~.~.E.1.1.R.~.~.Q.h.2.=.s *   , 2 ^ { 4 3 V Y uXSXCXCXSXSX",
"xXxXxXxXvXyXl < [ }  .[ 2 X   * h 1.Z.Q.!.~.~.W.1.1.R.~.~.~.Q.R.1.j -   X , ^  .| ( , 1 eXSXCXCXSXSX",
"vXvXxXxXmXyXl 2 }  .( R ,     * -.g.W.~.~.~.~.W.g.g.E.~.~.~./.Q.h.h -     + 4 ^ | { < 1 eXGXCXCXSXSX",
"vXvXxXxXaX4XM 4 } } R 2 +     9 V.Q.!.~.~.~.~.!.Q.Q.!.~.~.~.~.^.Q.b.p     X 2 R } } 3 m 5XfXnXCXSXSX",
"vXvXvXjXU k / } ..| ^ R ,     9 V.Q.~.(.~.~.~.~.~.~.~.~./.~.).^.Q.b.p     + 4 ^ | ..{ ( m L tXZXDXDX",
"mXmXmXlX}.V N !  .....[ <   O - s h r.b.A.E.!././././.!.E.A.b.k.h s - O   @ / ....| W N V ' iXDXDXDX",
"NXNXNXNXxXpX] Z ( [ [ ! , O c v 9 > % - s h b.S.S.S.S.b.=.d - % > 9 c c # + E [ [ ( Z Y yXMXDXDXDXDX",
"CXCXCXCXCXCXlXyX{.Y Y Z $ # P p.u.u.J G b b 0 0 9 9 0 0 c b B K u.u.p.P = + V Y Y .XfXlXZXDXDXDXGXGX",
"CXCXCXCXCXCXCXCXNXmXSXrXz % P l.%X:X9XqX0X<Xl $ L L ; : =XqXqX9X:X$Xl.I = : 0XGXBXZXGXDXDXDXDXDXGXGX",
"CXCXCXCXCXCXCXCXCXCXFXrXz # P $XjXUXUXUXUXjXz z pXfXB i iXUXUXUXUXhX&XI $ : 0XLXDXDXDXDXDXDXGXGXGXGX",
"NXNXNXNXNXNXCXCXCXCXSXaX+XT K I :X9XuXhXhXtXl z aXgXB 1 qXhXhXsX9X=XI G T }.uXGXDXDXDXDXGXGXGXGXGXGX",
"NXNXNXNXNXNXCXCXCXCXCXCXAXjXz + x V T i.U U }.-XlXzX;X}.T U i.i.V x # i iXSXCXAXDXDXDXDXGXGXGXGXGXGX",
"NXNXCXCXCXCXNXmXmXmXNXNXNXzX*X' E R Q V + 1 pXJXFXSXJXfXl X M Q R E ' @XgXSXCXAXDXDXGXGXGXGXGXGXGXGX",
"CXCXSXSXSXCXNXNXCXCXCXAXSXCXfX<Xk < ~ ! @ $ 1XuXyXyXuX0Xu + W ( 2 x ;XfXCXFXGXGXGXGXDXDXDXDXGXGXGXGX",
"CXCXCXCXCXAXAXxXpXuXuXuXuXyX4X X$ + N N + # |.,X>X,X,X+X; + 4 E @ : {.3XtXuXuXuXuXaXDXGXGXGXDXDXGXGX",
"NXNXCXCXiXrXrXeX2X,X<X1X<X,X<X X$ + N N + # |.,X>X,X<X+X; X 4 E @ : }.<X,X,X,X,X,X3XrXrXrXiXZXJXGXGX",
"NXvXpXtX4X>X>X>X,X,X<X<X>X*XU n 9 9 z l X # |.,X>X,X<X+X; X k z 9 9 n L @X;X>X,X,X,X>X>X>X3XtXiXbXJX",
"CXzXqX<X,X>X,X,X,X,X<X@XG z n J k.k.-.a O # |.,X,X,X,X+X: O a =.k.k.J D z B OX,X,X,X,X,X,X,X<X4XlXJX",
"mXvXgXpXqX1X1X1X,X,X<X Xu O u c f f p v U d.*X,X,X,X,X-X{.T v p f f c u # $ {.,X,X<X1X1X1X0XpXgXMXDX",
"xXxXvXvXgXfXfXpX0X2X2X;X+X X}.{.{.{.{. X;X1X,X,X,X,X>X,X<X;XOX{.{.{.{.{.|.OX-X2X1XqXfXgXgXjXZXZXZXZX",
"zXzXzXzXzXzXxXzXgXaXaXfXgXfXqX3X3X4X4X4X3X3X3X3X3X3X3X3X3X3X3X3X4X4X4XqXfXgXgXfXfXjXMXBXBXMXMXMXBXBX",
"lXlXlXlXlXlXlXzXzXzXzXzXzXzXjXfXgXgXgXgXgXgXgXgXgXgXgXgXgXgXgXgXgXgXgXlXMXMXMXMXbXbXcXcXcXbXbXbXbXbX"
};
