/* XPM */
static char *out[] = {
/* columns rows colors chars-per-pixel */
"50 50 255 2 ",
"   c #2A181C",
".  c #261E23",
"X  c #301C20",
"o  c #2C252A",
"O  c #332326",
"+  c #3C2220",
"@  c #262632",
"#  c #312A32",
"$  c #3F2C30",
"%  c #343033",
"&  c #3B3638",
"*  c #422724",
"=  c #4A2C29",
"-  c #57332E",
";  c #403137",
":  c #46353B",
">  c #44393B",
",  c #593836",
"<  c #613D37",
"1  c #6B4139",
"2  c #6F473F",
"3  c #302C43",
"4  c #2E3D49",
"5  c #383949",
"6  c #292E52",
"7  c #2A3A6B",
"8  c #453E42",
"9  c #4D3D40",
"0  c #304159",
"q  c #2C406D",
"w  c #334F61",
"e  c #344669",
"r  c #2D5768",
"t  c #39596B",
"y  c #3A4A7B",
"u  c #2F5D75",
"i  c #315672",
"p  c #3D517E",
"a  c #2D677D",
"s  c #326376",
"d  c #376175",
"f  c #3C6778",
"g  c #41424F",
"h  c #4E464E",
"j  c #514446",
"k  c #554A4C",
"l  c #464750",
"z  c #4D4D56",
"x  c #5E4F50",
"c  c #584759",
"v  c #59535C",
"b  c #644542",
"n  c #764C43",
"m  c #785147",
"M  c #6B5453",
"N  c #7D5853",
"B  c #4E5661",
"V  c #565D6A",
"C  c #4A557A",
"Z  c #645B64",
"A  c #446273",
"S  c #4F6979",
"D  c #5D6773",
"F  c #5D727F",
"G  c #646265",
"H  c #6B6265",
"J  c #766867",
"K  c #666E79",
"L  c #736D73",
"P  c #7B7376",
"I  c #845447",
"U  c #865D55",
"Y  c #966151",
"T  c #A0685A",
"R  c #8B6862",
"E  c #9B7367",
"W  c #827A7C",
"Q  c #917572",
"!  c #A87164",
"~  c #AD7B6F",
"^  c #B47560",
"/  c #BD7C64",
"(  c #C3826B",
")  c #CA8771",
"_  c #D48B70",
"`  c #D89074",
"'  c #D69379",
"]  c #E09477",
"[  c #E8987B",
"{  c #EA9D7F",
"}  c #334A85",
"|  c #2F5080",
" . c #385A8D",
".. c #345497",
"X. c #365A9B",
"o. c #2A6C84",
"O. c #396E83",
"+. c #2F7287",
"@. c #3B7A82",
"#. c #37609C",
"$. c #37669C",
"%. c #386A9D",
"&. c #2E7994",
"*. c #3A729F",
"=. c #397F99",
"-. c #3C799D",
";. c #376DA0",
":. c #3D7FA0",
">. c #3E7DAA",
",. c #467180",
"<. c #40768A",
"1. c #597D8D",
"2. c #616B8B",
"3. c #6F7884",
"4. c #67708A",
"5. c #857F81",
"6. c #95768D",
"7. c #3F8690",
"8. c #30839F",
"9. c #3C86A1",
"0. c #3F8AA2",
"q. c #408188",
"w. c #52888D",
"e. c #4D839A",
"r. c #408E9C",
"t. c #40969B",
"y. c #5A919D",
"u. c #798492",
"i. c #7E8C98",
"p. c #4083A5",
"a. c #408BAD",
"s. c #528BA6",
"d. c #4295A5",
"f. c #439FA2",
"g. c #4690AF",
"h. c #4C95B1",
"j. c #499FB2",
"k. c #519CB7",
"l. c #7C91A0",
"z. c #679AB1",
"x. c #47B0A9",
"c. c #4CA6B7",
"v. c #4DADB9",
"b. c #55A1BE",
"n. c #50B2BB",
"m. c #51BCBA",
"M. c #51B8BC",
"N. c #7AA5B6",
"B. c #55C2BF",
"V. c #4CA1C1",
"C. c #53A5C4",
"Z. c #53A9C7",
"A. c #54ADCF",
"S. c #58B0D1",
"D. c #5AB5D6",
"F. c #59B6D8",
"G. c #5BB6DA",
"H. c #5ACCC7",
"J. c #58D1C3",
"K. c #5DDBCA",
"L. c #60DFCF",
"P. c #60E5CF",
"I. c #888286",
"U. c #8E8788",
"Y. c #928D8E",
"T. c #878A97",
"R. c #888E9C",
"E. c #89949C",
"W. c #989293",
"Q. c #9A989A",
"!. c #AD9088",
"~. c #B6988D",
"^. c #A29E9E",
"/. c #929CA7",
"(. c #959FAB",
"). c #9EA0AB",
"_. c #A8A5A6",
"`. c #A8A8AC",
"'. c #ACABAC",
"]. c #B0ADAD",
"[. c #A7AAB2",
"{. c #A9ACB4",
"}. c #ACAEB4",
"|. c gray69",
" X c #B0B1B1",
".X c #B1B1B1",
"XX c #B4B3B3",
"oX c gray71",
"OX c #B1B4B9",
"+X c gray72",
"@X c #BCBDBC",
"#X c #BEBEBF",
"$X c #D18E80",
"%X c #DC9B83",
"&X c #C9A392",
"*X c #EAA287",
"=X c #EDA689",
"-X c #F0AA8E",
";X c #EDAD94",
":X c #F1B095",
">X c #F6B497",
",X c #F6B69D",
"<X c #83B5C7",
"1X c #AABBC3",
"2X c #B8BBC2",
"3X c #8AC6DB",
"4X c #ACCCDB",
"5X c #BBD7E4",
"6X c #B1DBEA",
"7X c #B3DDEA",
"8X c #C1C1C1",
"9X c #C3C5C7",
"0X c #C6C7C7",
"qX c #CACACA",
"wX c #CDCDCC",
"eX c #D2CFCF",
"rX c #D4D2D1",
"tX c #D4D5D5",
"yX c #DBD8D7",
"uX c #DCDBD9",
"iX c #DFDEDD",
"pX c #E4E1DE",
"aX c #E6E6E4",
"sX c #EAE9E6",
"dX c #ECECE8",
"fX c #EEEEE9",
"gX c #EEEDEA",
"hX c #EFEFEA",
"jX c #EFEEEE",
"kX c #F0F0EB",
"lX c #F1F0EC",
"zX c #F0F1EC",
"xX c #F2F1ED",
"cX c #F1F2ED",
"vX c #F2F3EE",
"bX c #F4F2EF",
"nX c #F4F3EF",
"mX c #F4F4EF",
"MX c #EDFBFE",
"NX c #F0F1F0",
"BX c #F6F3F0",
"VX c #F2F4F0",
"CX c #F5F4F0",
"ZX c #F4F5F0",
"AX c #F6F5F1",
"SX c #F4F6F1",
"DX c #F6F6F1",
"FX c #F6F7F2",
"GX c #F7F6F3",
"HX c #F8F7F3",
"JX c #F7F8F4",
"KX c #F8F9F5",
"LX c #F9FBF5",
"PX c #FAFCF8",
"IX c white",
/* pixels */
"fXfXhXhXhXhXhXhXhXkXkXkXkXzXzXcXcXcXvXvXvXvXcXkXkXkXzXzXcXcXvXvXvXvXvXcXcXcXcXcXcXcXcXvXvXvXvXvXvXvX",
"zXzXcXcXcXcXcXcXcXcXcXvXvXvXvXVXVXZXZXSXJXKXFXSXZXSXSXFXFXFXZXZXSXSXSXZXZXVXVXmXZXZXZXZXZXSXSXSXSXSX",
"mXmXmXmXmXmXmXVXVXZXZXZXZXZXZXSXKXKXLXVX9XOXOXOXOXOXOXOXOX9XSXLXLXLXLXLXKXKXFXFXFXFXFXJXJXJXJXJXJXJX",
"ZXZXZXZXZXZXZXZXZXZXZXZXZXZXKXhX+X[.{.).C 7 7 q i i q q 7 C ).[.[.[.{.{.[.2XzXJXJXJXJXJXJXJXJXJXJXJX",
"SXSXSXSXSXSXZXZXZXZXZXSXJXfXOX(.w.@.s u ..X.*.9.M.v.$.X.*.-.q.q.q.<.e p R.}.kXKXJXJXJXJXJXJXJXJXKXKX",
"FXFXFXFXFXFXFXFXJXKXKXdX[.T.y | g.c.B.M.9.0.m.J.P.H.;.%.n.J.P.L.v.g.#.#.R.}.cXPXLXLXLXLXLXLXLXLXLXLX",
"FXFXFXFXFXFXJXsX).R.R.E.y.t.c.j.9.9.h.j.f.x.L.K.c.g.p.0.M.M.j.g.:.:.:.-.a ,.i.`.lXLXLXLXLXLXLXLXLXLX",
"SXSXSXSXSXSXFXgX2X(.p | p.c.L.P.J.m.0.:.*.p.n.c.#.#.d.d.-.%.X.X.;.=.f.f.f.t.+.,.u.).fXLXKXKXKXKXKXKX",
"SXSXFXFXFXFXFXFXKXiXC q ..#.p.g.g.a.-.-.:.:.*.;.X.X.;.%.X.#.:.g.v.m.H.m.:.%.i S {.9XvXLXKXKXKXLXLXLX",
"SXFXFXFXFXSXcXiXT.2.} } ..$.p.d.M.m.M.c.:.p.n.n.r.-.#.#.:.d.B.J.P.L.m.j.%...} p 4.R.aXZXJXKXLXLXLXLX",
"FXFXFXFXJXaXT.4.y } ..#.:.d.B.J.L.H.a.a.M.H.P.H.-.%.9.9.*.*.>.>.>.>.*.*.:.9.0.-.} y 4.Q.gXLXLXLXLXLX",
"FXFXFXFXFXxXyX2Xe 7 X.#.$.;.>.>.>.*...;.J.K.x.r.0 e 7.t.r.p.#.X.:.0.r.0.*.;.$.#.7 C 9XiXSXKXLXLXLXLX",
"SXSXSXSXSXmXdXeXv 0 <.-.#.%.0.r.7.O.0 e r.7.w g N N g w 7.w.H Z  .$.r.d.0.:.X.} 5 Z yXlXJXKXLXLXLXLX",
"ZXZXZXZXSXpXQ U ! R l w =.0.r.@.0 3 ; : 5 h N T _ ) T N g g , , 3 6 |  . .p c n T ! U Q sXLXLXLXLXLX",
"mXmXmXmXZXpXQ M = = 2 x p p 0 5 9 : X * m Y _ ] { { ] ) Y n + X : 9 5 6 6 3 2 2 = = N U.sXLXLXLXLXLX",
"mXmXmXmXmXcXdXtXL k O X @ : U ! &X!.: : Y ^ ] { :X:X*X] ^ Y ; 9 ~.&X! U 3 @ X O k P iXcXJXJXKXKXKXKX",
"nXnXnXnXnXnXnXbXgXyXP x O - ) ] ( ~ 6.6.' [ [ { >X,X>X-X[ $X6.6.~ ( ] ( = O x 5.iXlXDXGXDXDXGXFXFXFX",
"nXnXnXnXnXbXbXbXbXbXlXeX> * ! ) *X-X:X;X{ [ [ [ %X%X-X-X{ { ;X:X;X*X( T + j uXbXAXAXAXAXAXAXAXGXGXGX",
"bXbXbXbXbXbXxXxXxXxXbXpXU.J , 1 / ' :X>X=X*X[ ] / / ] { *X=X>X:X` / < < J Y.sXCXCXCXCXCXAXAXAXAXGXGX",
"bXbXbXbXbXxXxXxXxXxXxXxXZXuX9 X < m ~ ) =X-X=X=X*X*X=X=X-X*X) ~ n < X k aXHXnXbXnXCXCXCXCXCXAXAXAXAX",
"xXxXxXxXxXxXlXlXlXlXxXaX].W.8 % 4 4 $ , T ^ ) ' =X=X' ) ^ Y - $ 4 0 v L ^.XXdXbXnXnXnXnXCXCXCXCXAXAX",
"xXxXxXxXxXxXlXlXlXlXmXyX8 o B S +.+.f A Z M < 1 I I < < M Z A f +.=.1X`.; k pXZXnXnXnXnXnXnXCXCXCXCX",
"lXlXlXlXlXlXhXhXlXpXQ.W 8 l R.l.A a 0.h.z.z.E.W.W.W.W.E.z.z.g.0.s ,.tXyX5.P U.^.sXnXbXbXnXnXnXnXCXCX",
"lXlXlXlXlXlXhXhXxXrX% . V 3.[./.B w r a 9.k.3X7XMXMX6X3Xh.9.d A R.[.jXJXtX'.# 8 iXnXbXbXnXnXnXnXCXCX",
"bXbXxXxXxXxXxXlXxXrX% . K u.R.l.s.s.s.e.u s =.h.3X3Xg.=.u d e.y./.[.uXaXiX+Xo > iXCXnXnXnXnXnXCXCXAX",
"bXbXxXxXxXxXxXiX5.G 5 g 3.3.V S Z.G.F.S.h.e.d t f f t A u./.5X4XS D `.8XtX+X# 8 uXxXnXnXnXnXCXCXCXAX",
"xXxXxXxXlXlXbXeX% . V F 3.K l t C.D.D.D.F.S.k.e.w t s.s.F 1.<XN.5 # B K [.[.K Z H 5.aXCXnXnXCXCXCXAX",
"xXxXlXlXhXhXxXrX> . z B z g @ 4 k.S.D.D.D.D.F.C.+.&.Z.S.k.s.,.t o   . % P I.Q U O j iXCXnXnXCXCXCXAX",
"lXlXlXlXhXhXxXrX> + m m $ O   # +.a.A.D.D.D.D.Z.=.8.Z.F.F.S.b.s.w 5 . X b N ( / * j pXCXnXnXCXCXCXAX",
"lXlXlXlXhXhXxXrX> + I Y I 1 X @ a 8.V.A.D.F.D.C.&.&.Z.D.D.D.A.V.&.u @ * ^ _ [ ) = j pXCXnXnXCXCXCXAX",
"xXlXlXlXlXlXxXuXH b m m 1 - X @ u +.&.9.C.A.D.b.t d C.D.A.V.8.&.o.r @ = ) [ ] / * j iXCXnXnXCXCXCXAX",
"xXxXlXlXlXlXxXlXaXqX9 + < ,   O B A a o.&.8.V.h.w t h.V.8.&.a r % $ 1 I _ ` Y I x P aXCXnXnXCXCXAXAX",
"xXxXxXxXxXxXlXxXbXiXP M m n x H }.[.K A s a o.O.F F O.o.a r @ O , n ) ] [ ) = k yXgXmXZXZXZXZXSXSXSX",
"bXbXbXbXbXbXbXbXbXxXhXrX9 j yXKXPXjXqXOXu.3.D 3.eXqX3.D D V h j 2 I ( _ _ ^ + j pXGXZXZXZXZXSXSXSXSX",
"nXnXnXnXnXnXbXbXbXbXBXpXI.W ].8XGXIXIXPXKXjXwX#X[./.5.I.`.[.).T.z 9 b 2 2 m J Y.sXAXZXZXSXSXSXSXSXSX",
"CXCXCXCXCXBXBXbXbXbXbXbXBXyXj j tXVXNXCXIXIXIXaXE.K # ; T./.u.3.V Z P W W W.sXAXZXZXZXZXSXSXSXSXSXFX",
"CXCXCXCXCXCXCXCXCXCXCXCXAXuX9 > 8XiXuXiXgXNXNXrXD h X o V D D B o k pXGXAXGXAXAXSXSXSXSXSXSXSXSXFXFX",
"CXCXCXCXCXCXCXCXCXCXCXCXAXsX^.Y.I.U.`.OX9X0XqX_.%   + = x x & l I.`.gXDXAXAXAXAXSXSXSXSXSXSXFXFXFXFX",
"nXnXnXnXnXnXCXCXCXCXCXCXCXCXJXiX9 o B D 3.3.3.D o + 2 n < M W.XXxXHXAXAXAXAXAXAXSXSXSXSXFXFXFXFXFXFX",
"nXnXnXnXnXnXCXCXCXCXCXCXCXCXGXuX9 * R E E R j : X + 1 1 X x sXKXAXAXAXAXCXCXCXZXSXSXSXSXFXFXFXFXFXFX",
"nXnXCXCXCXnXnXnXnXnXnXnXnXxXiX+X: = T / [ ( - +   . # 3 @ 5 P U.8XeXeXuXbXCXCXAXSXSXFXFXFXFXFXFXFXFX",
"CXCXAXAXAXCXnXhXtXwXwXwXwXqX+X_.I.J , 1 _ / *     @ w u u w 3 # j Z ^.+XqXwXwXwXwXyXvXSXSXSXFXFXFXFX",
"CXCXCXhXrXqXqX0XoX|.|.|.|.|. X.XoXW.# * Y Y +   X % S 1.l.l.u.L # ; Q..X|.|.|.|.|.oXqXqXqXtXcXSXFXFX",
"nXhXeX9XXX|.|.|..X.X.X.X.X.X.X|.`.U.% o z l . $ W W h 8 h k k v 5.W.'..X.X.X.X.X.X.X|.|.|.oX9XrXvXFX",
"nXfX9X+X.X|.|.|..X.X.X.X.X X.XQ.j g f <.h.1.@ ; ^.].W.Y.Y.Y.Y.W.].XX.X.X.X.X.X.X.X.X|.|.|..X+X0XvXJX",
"CXnXfXaX0X@X@X@X.X|.|.|.|. XXXW.: h OX1Xu.D & j ^.XXXXXXXXXXXXXX.X.X.X.X|.|.|.|.|.XX@X@X@XqXsXzXSXFX",
"bXbXnXbXfXgXgXsX0X@X@X@X#X@XXX'.^.U.Z k 8 k Y.^.]. X|.|.|.|.|.|.|.|.|.XX@X#X#X#X#XqXdXhXhXzXSXSXSXSX",
"lXlXlXlXlXzXzXzXfXdXdXdXdXsXqX8X8X#X|.].].XX8X8X8X8X8X8X8X8X8X8X8X8X8XwXdXhXhXhXhXzXmXmXmXmXmXmXZXZX",
"fXfXfXfXfXhXhXkXkXkXkXkXzXzXhXfXfXhXkXkXkXkXhXfXfXhXhXhXhXhXkXkXkXkXzXcXmXmXmXmXvXvXvXvXvXvXvXvXvXmX",
"dXgXgXgXgXfXfXfXfXfXhXhXhXhXkXkXkXzXzXzXzXzXkXkXkXkXzXzXzXzXcXcXcXcXvXvXcXcXcXcXcXzXzXzXzXzXcXcXcXcX"
};
