/* XPM */
static char *out[] = {
/* columns rows colors chars-per-pixel */
"50 50 255 2 ",
"   c #1D161F",
".  c #2B1413",
"X  c #26121B",
"o  c #331B1B",
"O  c #211E23",
"+  c #2E1F23",
"@  c #261D32",
"#  c #211A3F",
"$  c #2C232A",
"%  c #3A2320",
"&  c #36272C",
"*  c #2B2830",
"=  c #31293A",
"-  c #3B2E39",
";  c #30323A",
":  c #3C363B",
">  c #462923",
",  c #40252E",
"<  c #512A27",
"1  c #553228",
"2  c #4A3237",
"3  c #433B3C",
"4  c #4D3939",
"5  c #5C3530",
"6  c #613C35",
"7  c #6E4239",
"8  c #79493C",
"9  c #1C244F",
"0  c #1F3D4F",
"q  c #242642",
"w  c #223742",
"e  c #243245",
"r  c #333843",
"t  c #313B4B",
"y  c #3B3C4D",
"u  c #1F3A71",
"i  c #232C63",
"p  c #273365",
"a  c #203569",
"s  c #3B3B63",
"d  c #403E45",
"f  c #443349",
"g  c #523F58",
"h  c #2B4554",
"j  c #3A4351",
"k  c #384C5A",
"l  c #2A446E",
"z  c #265A6E",
"x  c #315469",
"c  c #24417C",
"v  c #225078",
"b  c #2D6379",
"n  c #3F6074",
"m  c #3F757D",
"M  c #4E4243",
"N  c #47434C",
"B  c #50474C",
"V  c #524D53",
"C  c #5A5153",
"Z  c #644643",
"A  c #704C46",
"S  c #7B534B",
"D  c #695157",
"F  c #675E5E",
"G  c #755851",
"H  c #7A635C",
"J  c #4E4962",
"K  c #425260",
"L  c #575461",
"P  c #5C5D69",
"I  c #4D6E78",
"U  c #5A6D74",
"Y  c #61646C",
"T  c #6B676D",
"R  c #776C6C",
"E  c #6B7679",
"W  c #79747A",
"Q  c #855445",
"!  c #955C4B",
"~  c #895852",
"^  c #885E54",
"/  c #966151",
"(  c #9E6957",
")  c #AE6E59",
"_  c #B6755C",
"`  c #8C7776",
"'  c #987177",
"]  c #AB776A",
"[  c #BF7B62",
"{  c #B77C68",
"}  c #BF8570",
"|  c #CB876B",
" . c #C48C7D",
".. c #C5957F",
"X. c #D29075",
"o. c #DD9274",
"O. c #DC987C",
"+. c #EC9A77",
"@. c #E39B7D",
"#. c #EA9E7C",
"$. c #29478C",
"%. c #324F8E",
"&. c #2C5C87",
"*. c #3F5785",
"=. c #2B549D",
"-. c #2B5A98",
";. c #26628A",
":. c #326985",
">. c #3E6E80",
",. c #2C718B",
"<. c #337984",
"1. c #276B9A",
"2. c #336395",
"3. c #377495",
"4. c #327E97",
"5. c #31769F",
"6. c #3050A2",
"7. c #3063A1",
"8. c #356DA4",
"9. c #337EA3",
"0. c #3A77A8",
"q. c #4B7689",
"w. c #5A6195",
"e. c #437F96",
"r. c #747987",
"t. c #616D94",
"y. c #647AA7",
"u. c #847C81",
"i. c #35838D",
"p. c #3F8F95",
"a. c #30849F",
"s. c #3D87A1",
"d. c #3981A6",
"f. c #378EAF",
"g. c #3A94A3",
"h. c #588299",
"j. c #519598",
"k. c #7A828E",
"l. c #638D9F",
"z. c #708D99",
"x. c #508CA4",
"c. c #4292AF",
"v. c #4399AE",
"b. c #4C97BE",
"n. c #679EB1",
"m. c #7194B2",
"M. c #44A0A8",
"N. c #59A5A6",
"B. c #49A0BC",
"V. c #46AABE",
"C. c #4DB6BB",
"Z. c #58A4C3",
"A. c #5FA7C4",
"S. c #55BDC1",
"D. c #57B6D2",
"F. c #5AC2C3",
"G. c #5BC9C4",
"H. c #5DD5CA",
"J. c #66DCDC",
"K. c #66E5D7",
"L. c #68D0E2",
"P. c #888284",
"I. c #8D8889",
"U. c #968C8D",
"Y. c #828D93",
"T. c #838896",
"R. c #8D9196",
"E. c #989294",
"W. c #9A9A9F",
"Q. c #858EA0",
"!. c #8799A2",
"~. c #9CA1A4",
"^. c #9EA4B4",
"/. c #9CACB3",
"(. c #AEA8A6",
"). c #AAA4A8",
"_. c #A9AAAA",
"`. c #B0ACAB",
"'. c #B8ADAC",
"]. c #A8AFB0",
"[. c #B4AFB5",
"{. c #AFB4B2",
"}. c #AFB7B7",
"|. c #B1B2B1",
" X c gray70",
".X c #B4B2B3",
"XX c #B7B5B5",
"oX c #B6B9B3",
"OX c #BDB9B7",
"+X c #B5B4B9",
"@X c #B8B7B8",
"#X c gray",
"$X c #CDAB9E",
"%X c #ECA484",
"&X c #EFAA8C",
"*X c #EEB595",
"=X c #F5B091",
"-X c #94B6C0",
";X c #AFBDC9",
":X c #B7B8C1",
">X c #BBBDC5",
",X c #99CAD2",
"<X c #B8CAD0",
"1X c #B9E4E6",
"2X c #C2C1C0",
"3X c #C6C4C1",
"4X c #C7C9C9",
"5X c #D0CDCB",
"6X c #C2DAD6",
"7X c gray82",
"8X c #D5D4D3",
"9X c #D9D7D5",
"0X c #DCDBDB",
"qX c #E2E2DF",
"wX c #D8DDE3",
"eX c #E5E5E1",
"rX c #E6E7E3",
"tX c #E8E8E4",
"yX c #EAEAE6",
"uX c #EBECE6",
"iX c #EDEBE8",
"pX c #EDEDE8",
"aX c #EEECE9",
"sX c #EFEEEA",
"dX c #EFEFEA",
"fX c #F0EFEC",
"gX c #F2EFEC",
"hX c #F1F0EC",
"jX c #F2F0ED",
"kX c #F2F1ED",
"lX c #F2F1EF",
"zX c #F2F3EE",
"xX c #F4F1EE",
"cX c #F4F2EF",
"vX c #F4F3EF",
"bX c #F3F1F0",
"nX c #F5F2F0",
"mX c #F5F3F0",
"MX c #F4F4F0",
"NX c #F6F4F1",
"BX c #F7F4F1",
"VX c #F6F5F1",
"CX c #F7F5F2",
"ZX c #F6F6F2",
"AX c #F7F7F3",
"SX c #F8F6F3",
"DX c #F8F7F3",
"FX c #F8F8F4",
"GX c #F9F9F5",
"HX c #F9F9F6",
"JX c #F9FAF6",
"KX c #FBFBF7",
"LX c #FBFCF7",
"PX c #FCFCF9",
"IX c #FDFEFD",
/* pixels */
"rXtXrXtXpXyXtXtXuXyXkXtXqX^.^.eXdXdXzXMXwX!.;XkXkXhXFXMXZXMXkXzXZXMXkXZXkXzXMXzXzXzXzXhXMXzXMXMXZXMX",
"yXtXtXdXpXpXpXuXpXuXzXzXeXy.w.m.;XMXrX/.n.e.h.z.k.T.T.T.T.T.T.Y.7XFXAXFXZXZXVXMXMXzXMXMXZXAXGXFXZXMX",
"hXhXzXMXkXhXzXhXdXzXMXMXyXy.7.b.n.!.z.e.g.F.v.v v b <.p.p.x.:.l t.Q.T.W.qXLXFXGXZXAXAXGXJXKXJXJXFXFX",
"yXdXkXkXzXzXVXzXzXVXdX].Q.2.5.L.G.<.i.S.H.K.D.;.d.F.H.K.F.b.0.=.$.u u l r.^.eXJXGXJXFXAXGXFXVXAXAXFX",
"dXdXMXkXkXhXkX}.~.6X1XN.i.a.a.v.M.M.C.K.H.V.c.9.v.S.C.B.0.-.7.0.0.0.9.3.l 9 r._.tXJXGXFXAXAXMXAXGXGX",
"kXuXMXMXMXMXdX}.!.z.j.H.K.G.C.a.4.4.g.S.v.v ;.c.c.9.1.=.6.=.7.0.:.b b &.a 9 # y 7XIXKXFXGXKXJXGXGXJX",
"dXMXdXkXzXAXzXAXdX}.!.j.p.p.s.9.9.5.3.:.v u v 0.8.=.=.=.7.0.5.5.:.z l u u p 9 q T.:XsXJXGXKXGXJXGXFX",
"ZXkXkXkXVXMXVXGXVX2X/.I z ,.4.c.c.a.4.<.,.-.=.=.=.6.=.=.7.9.f.v.M.M.s.8.7.%.c a 9 j 9XKXVXJXKXLXJXJX",
"AXMXAXMXAXAXVX4X].I b N.F.K.J.C.B.v.V.J.D.7.-.8.&.c $.6.6.=.8.d.g.M.M.v.d.8.7.%.i s 8XLXFXLXLXKXKXFX",
"ZXAXMXZXZXZXzX].Y.-X,XN.M.V.B.1.9.L.J.H.M.v ;.c.i.v l c %.8.5.5.9.d.d.d.3.:.v u 9 y 8XLXGXGXJXFXJXGX",
"ZXZXMXVXVXAXkXVXvX7X}.I v &.*.*.q.F.C.<.n j k >.e.j.m j K >.s.v.s.5.7.=.c a p i 9 y 8XJXGXKXJXKXJXJX",
"hXkXMXzXZXFXVXkXaXT e n n x L ' ` I I L D S Z - h I E ` D q x e.e.,.2.=.$.c $.%.q ; 7XJXGXLXLXJXKXJX",
"MXzXAXVXvXcXcXVXhX~.T = X , 6 { ] A G } ( 5 < > , & A ] ~ f s l p = J w.s 9 a l P P.eXJXGXJXKXKXJXJX",
"kXvXMXMXZXzXMXVXvXMXrXC X & 4 ^ ) X.| ( A . % Z Z 7 8 Q ~ ^ Z 2 Z Q / ' g # # r 4XKXGXJXKXKXKXHXKXKX",
"FXzXMXcXVXvXzXMXMXkXrXC X g D ( [ @.o._ ~ , D $X..) [ O.| ) ( ! ( ] Z + @ @ N W 0XKXFXGXJXKXKXHXKXPX",
"MXvXVXzXkXZXFXAXMXvXiXP.B + 1  .%X=X&X@. .' ' ] } @.#.#.+.+.[ / 7 , @ @   & OXAXGXGXJXFXGXHXAXJXKXLX",
"hXcXZXzXkXVXFXZXcXMXcXpX9XM > ..&X=X&X#.%X&X&X*X*X*X=X=X%X+.[ ~ 7 2 = @   * #XGXJXKXFXZXGXGXGXFXJXKX",
"MXkXVXMXfXsXMXMXVXZXhXhXeXR Z S ( O.#.#.+.+.%X=X=X=X&X#.o.} ! 5 , @ # # y P 7XJXGXGXZXJXKXAXGXJXLXJX",
"hXsXcXkXMXkXkXvXFXDXkXvXvXiX9XH S { | o.o.+.+.#.@.O.X.} Q % o X - J J L :XiXVXJXFXFXFXJXJXKXKXJXFXJX",
"VXMXzXcXfXsXkXVXVXfXhXvXkXMXsXqX5XH A ~ ( } | | _ ! A 4 = O   O E.eXeXrXkXMXVXFXGXAXZXFXFXGXJXJXGXJX",
"MXZXcXsXsXaXzXCXVXMXNXkXpXjXyXNXNXqX#X3 $ - : 3 : ; K h.>.x w O ).JXNXvXcXVXZXDXFXFXGXAXZXFXJXJXGXLX",
"vXhXkXhXpXcXVXNXkXcXmXfXsXfXcXCXjXtX4XK k >.q.h.h.h.n 0 r r = * W.tXaXZXZXMXMXcXMXAXAXMXkXFXKXKXGXJX",
"hXkXhXvXzXiXMXhXjXjXcXNXfXjXsXjX0XY K I z.<X~.t e e K E ~.7X).W P C #XSXcXVXDXcXVXZXZXAXAXGXGXJXZXGX",
"vXMXMXVXkXaXkXsXhXsXaXgXcXmXkXBX8X: N >X_.C N t t r r.wXlXIXNXqXW + `.VXfXcXcXVXZXVXZXFXAXAXJXJXGXJX",
"mXVXvXkXcXcXsXaXvXaXfXjXfXcXNXNX8X3 $ V k w x m.x.:.l.;XwXPXIXAXP.+ (.CXNXkXMXAXvXvXZXhXAXAXGXGXzXVX",
"VXVXMXcXcXMXaXcXMXfXcXvXBXmXjXCX9Xd w q.e.b l.1X,Xn.l.z.:XbX0X#XT & (.mXmXVXZXZXZXZXFXAXZXGXAXJXJXJX",
"kXcXhXcXMXDXhXkXcXsXfXsXfXjXaXjX9Xd 0 n.x.0 x l.q.h r ; Y W.k.F D A G R 5XDXMXcXvXVXVXFXVXGXFXFXJXGX",
"cXhXhXfXfXvXaXsXcXsXsXkXsXkXcXjX9XV w q.e.e.:.0 e ; *   ; V D G ^ / 1 + XXSXMXZXZXZXZXFXkXFXGXFXFXJX",
"ZXcXkXCXkXcXsXyXkXkXcXxXiXiXjXxXiX3X~.h z A.Z.s.s.x.<.z 0 $ 6 / _ } 7 % OXDXzXMXZXVXkXDXsXGXJXGXJXFX",
"kXkXcXfXmXDXxXfXfXsXjXsXiXsXgXiXkXcX4Xr h Z.D.D.V.f.a.,.h   8 } o.O.8 % OXGXVXAXZXDXVXZXzXZXFXJXJXGX",
"fXkXhXsXvXSXSXxXcXfXcXcXsXjXBXaXaXmX5X: h Z.Z.f.9.,.b x ; . Q @.@.O.8 % OXDXDXVXAXFXVXZXkXAXAXFXJXKX",
"MXcXvXkXkXcXMXaXjXfXkXmXsXfXfXsXnXSX8Xr w e.a.,.b x t * & < ! O.| ] 6 % @XDXcXVXAXJXGXZXvXFXGXFXKXJX",
"MXkXvXcXyXsXcXcXcXkXcXcXmXvXkXfXmXFX7X: O w 0 0 e * % > 7 ) | O./ 1 M L W E.9XAXDXGXAXVXZXAXGXKXKXKX",
"VXzXvXxXsXhXcXkXVXvXkXcXcXsXcXNXMXkX5X: $ B V V : X > 8 ) @.#.O.Q . V r.y * 2XGXDXAXAXZXMXGXGXJXJXGX",
"cXsXkXyXuXkXzXVXfXMXvXsXjXfXmXFXZXFX7X- - r.!.>X[.U.R 6 Q { [ { 7 . V r.d & 2XKXSXAXMXzXzXkXvXAXMXZX",
"vXfXhXkXhXsXNXZXVXVXcXkXZXAXVXZXsX_.P.: y P k.>X5X0X_.T C 6 5 5 % X P R.B & 2XJXAXFXFXFXZXZXJXAXFXFX",
"VXvXVXMXxXjXcXjXcXcXhXiXmXhXcXZX9Xd O y j j N V L T E k.Y B V F R u.W._.C & 3XKXAXAXAXAXJXGXJXGXGXGX",
"vXMXNXVXvXMXAXzXkXpXkXaXsXVXvXmX9Xd O y j j r * O   O = N Y W.7XiXPXtX5XF & 2XPXFXDXAXGXFXGXJXAXGXGX",
"ZXVXkXkXpXMXVXVXhXpXvXzXvXNXZXvX9X3 O ; ; r r d ;   B u.F : R.aXnXgX7X].C & 3XPXGXFXFXGXFXJXGXKXJXGX",
"cXvXhXfXhXkXvXVXkXvXMXkXMXNXVXDX9X: o 2 4 4 4 - $   I.GX(.O L ~.~.~.P.H 2 & 3XGXJXVXGXJXJXAXAXGXJXAX",
"VXVXkXvXfXkXVXzXhXcXvXcXMXzXsXyX5XF Z S S S 6 . X X W tX`.V d r V H ] } 6 % 2XKXzXZXAXGXGXGXAXZXGXFX",
"zXfXkXkXhXvXVXVXzXyXeXeXeXqXqX2XXX'.U.5 < 5 < . $ N W .X.X`.F . Z ] ! 8 > + [.dXrXyXAXGXAXMXMXAXFXAX",
"kXvXzXzXzXsXrXeXqX3X@X+X@X+X+X|. XXXI.+ o 5 > . V ).[.[.[.[.u.M 4 < o X O $ T U.(.OX0XrXyXyXzXkXMXMX",
"kXkXkXpXrX4XXX@XXX X X|. X|. X X_.U.T $ + - , X V _..X.X.X.X|._.F X X   w j * $ u. XXX@X@X#XqXyXzXVX",
"kXkXVX7X X|.|.|.|.|..X.X X{._.E.W = @ e e e q X V _.{.{.[..X{.].F . * 0 z b w O u..X X|.|. X X3XhXFX",
"uXpXhX9X2XXX|.|.|.|.{.{.{. XE.- $ y K q.q.>.k   V (..X[.[.[.{.].F O U -Xx.>.w O u..X|.|.|. X2X7XvXFX",
"tXtXpXdXkX8X3X2X2XXX|.|. X|.E.M M u.T.Q.k.U L : F `.{. X.X|.{.[.R 3 I.<XQ.Y N 3 I.+X#X3X3X5XpXVXzXMX",
"eXrXpXhXkXsXyXdXsX5X#X#X#X2X#X(.I.B 3 4 3 : F W.(.|.{.{.|.|.|.|._.~.R B V C U.XX#X4XtXkXuXdXMXMXhXdX",
"rXyXpXpXpXkXsXpXpXtXrXeXrXuXuX5X#XoXoXoXoXoXoX2X3X3X2X2X3X3X3X3X3X3X#X2X0XqXsXkXdXkXZXFXyXpXMXdXhXyX",
"eXeXyXeXrXyXuXuXtXtXyXrXyXsXuXtXuXuXyXyXpXeXrXeXyXuXyXtXyXhXpXpXpXtXuXuXkXyXdXkXzXhXuXdXeXhXhXuXdXdX"
};
