/* XPM */
static char *out[] = {
/* columns rows colors chars-per-pixel */
"50 50 255 2 ",
"   c #26161A",
".  c #29191C",
"X  c #301B1E",
"o  c #251D23",
"O  c #2C1F24",
"+  c #24202F",
"@  c #23262D",
"#  c #2E252D",
"$  c #382223",
"%  c #3A282F",
"&  c #2C2A33",
"*  c #3C2E36",
"=  c #2F313A",
"-  c #3A373F",
";  c #492C2A",
":  c #413236",
">  c #483134",
",  c #4A363A",
"<  c #543230",
"1  c #583733",
"2  c #623E3C",
"3  c #55413F",
"4  c #65433B",
"5  c #222341",
"6  c #2D3440",
"7  c #243248",
"8  c #293F4D",
"9  c #3A3F4A",
"0  c #262C50",
"q  c #263B58",
"w  c #333753",
"e  c #2A3563",
"r  c #2B3E73",
"t  c #473C42",
"y  c #4C3F45",
"u  c #413E5A",
"i  c #33424E",
"p  c #2B4D5E",
"a  c #3B4A56",
"s  c #2B4666",
"d  c #2F5265",
"f  c #3D5462",
"g  c #304D7C",
"h  c #2D5570",
"j  c #326072",
"k  c #33657D",
"l  c #4D4345",
"z  c #53484A",
"x  c #4B4B55",
"c  c #564F54",
"v  c #455059",
"b  c #5F5457",
"n  c #54545F",
"m  c #6F4640",
"M  c #604A4C",
"N  c #764B41",
"B  c #7D5146",
"V  c #694E51",
"C  c #735651",
"Z  c #464860",
"A  c #444A6D",
"S  c #565A62",
"D  c #515E72",
"F  c #655073",
"G  c #40616F",
"H  c #5D606B",
"J  c #42677B",
"K  c #5D727A",
"L  c #696163",
"P  c #6F6467",
"I  c #7E6362",
"U  c #70686A",
"Y  c #766A6B",
"T  c #636673",
"R  c #666C7D",
"E  c #766F72",
"W  c #72727B",
"Q  c #7C7679",
"!  c #87554A",
"~  c #87584B",
"^  c #915D4F",
"/  c #976253",
"(  c #A26652",
")  c #A16956",
"_  c #A86C58",
"`  c #B1725D",
"'  c #976D61",
"]  c #8A736D",
"[  c #817B7D",
"{  c #A77064",
"}  c #AE796D",
"|  c #B47763",
" . c #BA7B67",
".. c #B6816E",
"X. c #C2856A",
"o. c #CF876D",
"O. c #D48B72",
"+. c #DF9578",
"@. c #E69678",
"#. c #EB9A7C",
"$. c #2F4681",
"%. c #324B8C",
"&. c #315089",
"*. c #335888",
"=. c #325296",
"-. c #34559D",
";. c #36599D",
":. c #375E9E",
">. c #306F84",
",. c #2E758E",
"<. c #376C97",
"1. c #36649E",
"2. c #3A7B93",
"3. c #3A729C",
"4. c #396CA3",
"5. c #3B78A0",
"6. c #3C7DA1",
"7. c #475283",
"8. c #4E5D8C",
"9. c #426F81",
"0. c #467B8C",
"q. c #597C86",
"w. c #416B97",
"e. c #6F7588",
"r. c #787D85",
"t. c #427AAD",
"y. c #977486",
"u. c #3D8087",
"i. c #3D8891",
"p. c #3F8298",
"a. c #3B83A3",
"s. c #4F829A",
"d. c #418E9E",
"f. c #409092",
"g. c #509092",
"h. c #7D808E",
"j. c #6A8391",
"k. c #7C8692",
"l. c #74909B",
"z. c #4088A2",
"x. c #418EAF",
"c. c #518CA7",
"v. c #4193A3",
"b. c #429BA2",
"n. c #4799B6",
"m. c #7599A8",
"M. c #768BB8",
"N. c #4AA3A0",
"B. c #44A8A2",
"V. c #47A0A8",
"C. c #4EB6AE",
"Z. c #50AFB1",
"A. c #53B7B8",
"S. c #54BDBE",
"D. c #7FA4B1",
"F. c #52AACA",
"G. c #52B2C0",
"H. c #59AFD0",
"J. c #5AB5D6",
"K. c #6CA7C0",
"L. c #5CC6C2",
"P. c #59D1C5",
"I. c #5DD7CA",
"U. c #5DDFCA",
"Y. c #61E7CF",
"T. c #898385",
"R. c #908A8B",
"E. c #969091",
"W. c #9B9494",
"Q. c #99979C",
"!. c #9E9D9E",
"~. c #859CAE",
"^. c #A39FA3",
"/. c #93B7BB",
"(. c #A5A4A7",
"). c #AAA8A8",
"_. c gray67",
"`. c #B0ACAB",
"'. c #A8ACB4",
"]. c #AFB1B8",
"[. c #B1B0B1",
"{. c #B0B1B1",
"}. c #B1B1B1",
"|. c #B1B2B1",
" X c gray70",
".X c #B7B0B3",
"XX c #B4B4B4",
"oX c #B7B7B8",
"OX c #BBBCBF",
"+X c #DE9F86",
"@X c #C19E91",
"#X c #EB9E80",
"$X c #F0A88B",
"%X c #E7A790",
"&X c #F1AC90",
"*X c #F2B095",
"=X c #F4B399",
"-X c #9EAFC6",
";X c #AEBACB",
":X c #8AC0D3",
">X c #BCC0CA",
",X c #9BE6D8",
"<X c #C3C1C0",
"1X c #C7C6C4",
"2X c #C4C9CC",
"3X c #CDCECF",
"4X c #D0D0CF",
"5X c #C8D4D4",
"6X c #D3D3D2",
"7X c #D9D8D6",
"8X c #DBDBD9",
"9X c #DEDDDB",
"0X c #CEDFE4",
"qX c #E3E3E1",
"wX c #E7E5E2",
"eX c #E9E7E4",
"rX c #E9E9E7",
"tX c #E3E7EA",
"yX c #E4E7E8",
"uX c #EBEBE8",
"iX c #EDECE8",
"pX c #EEEEEA",
"aX c #EEEFEA",
"sX c #F0EFEB",
"dX c #EFF0EB",
"fX c #F1F0EC",
"gX c #F0F1EC",
"hX c #F2F1ED",
"jX c #F1F2ED",
"kX c #F2F3ED",
"lX c #F0F2EE",
"zX c #F1F3EF",
"xX c #F3F2EE",
"cX c #F2F3EE",
"vX c #F5F1EE",
"bX c #F4F3EF",
"nX c #F3F4EF",
"mX c #F6F3F0",
"MX c #F3F5F1",
"NX c #F4F4F0",
"BX c #F5F4F0",
"VX c #F4F5F0",
"CX c #F7F4F1",
"ZX c #F6F5F1",
"AX c #F5F6F1",
"SX c #F4F6F2",
"DX c #F5F7F3",
"FX c #F7F6F2",
"GX c #F6F7F2",
"HX c #F4F5F4",
"JX c #F8F7F3",
"KX c #F7F9F4",
"LX c #F9FAF5",
"PX c #FBFCF7",
"IX c #FEFFFE",
/* pixels */
"pXpXpXaXaXaXaXaXaXaXdXdXdXdXgXgXlXlXzXzXzXzXlXdXdXdXgXgXlXlXzXzXzXzXzXlXlXlXlXjXjXjXxXcXcXcXcXcXcXcX",
"gXgXgXjXjXjXlXlXlXlXlXzXzXzXzXnXnXMXMXMXSXSXMXzXlXzXzXnXMXVXMXSXSXSXMXMXMXMXnXMXVXVXVXVXAXAXAXAXAXAX",
"nXnXnXVXVXVXMXMXMXMXMXMXMXMXMXSXSXDXGXGXKXKXGXSXVXSXDXpX;X;XlXKXGXGXKXtX-X>XSXGXKXKXKXKXKXKXKXKXKXKX",
"VXVXVXVXVXVXVXMXMXMXMXMXMXMXMXnXnXdX'.h.h.k.k.k.h.h.h.j.s.c.~.;XaXuX-XM.:.M.MXKXKXKXKXKXKXKXKXKXKXKX",
"AXAXAXAXAXAXSXVXMXMXMXMXzXlXOXe.e.e.7.g z.N.N.N.i.>.g *.A.S.d.s.e.j.Z.n.:.M.dXVXKXKXKXKXKXKXKXKXKXKX",
"GXGXGXGXGXGXGXDXDXDXDXgX).R 8.$.$.$.=.:.t.n.I.Y.U.L.5.4.L.Y.I.C.u.f.I.L.4.8.R '.DXKXGXKXLXLXLXLXLXLX",
"AXGXGXGXGXGXGXGXGXGXoXe.Z 5 h p.a.a.a.6.:.;.t.x.Z.Z.v.z.z.V.U.P.B.b.x.x.z.v.N.L.,X/.h.].GXLXLXLXLXLX",
"VXVXAXAXAXAXAXAXbXpXh.5 5 0 q d k 3.3.4.:.;.-.-.1.3.d.d.s h V.b.5.3.6.v.S.P.U.Z.9.~.>X7XKXKXKXKXKXKX",
"AXAXAXGXGXGXGXGX].H u 0 r %.%.&.3.d.d.d.z.6.:.-.-.;.1.:.&.g d j 6.a.5.3.k j j j.oXqXPXPXKXKXLXLXLXLX",
"AXAXGXGXGXGXGXGXQ.0 r &.;.:.5.v.b.N.b.v.3.:.;.-.=.=.;.;.-.3.A.Z.5.a.G.S.L.C.f.0.D '.qXiXKXLXLXLXLXLX",
"AXGXGXGXGXGXFXFXQ.0 r *.3.p.d.b.b.v.5.1.:.;.=.&.r s 2.z.:.5.I.U.P.S.a.x.P.U.L.Z.g.q.T ^.VXLXLXLXLXLX",
"AXGXGXGXGXGXAXFXQ.0 0 e q s *.1.<.3.a.d.i.,.s w 9.i.f.p.s d d.C.U.L.w.;.4.<.j l.5X5X6XqXKXLXLXLXLXLX",
"AXAXAXAXAXAXZXZXE.+ e %.$.$.%.-.<.2.d.i.p 9 C I q.u.d 9 V V x G f.g.] I 7.*.9.G Z '.KXLXKXLXLXLXLXLX",
"VXVXVXVXVXVXVXZX).c A $.e 0 A 8.A w g g w y {  .M - : > 1 N } ' c b  .` 2 : & 9 n ].GXKXKXLXLXLXLXLX",
"nXnXnXnXnXnXNXbXpXqXh.5 5 5 V { ^ N y t B ~ ! ! m 2 4 3 $ ; ^ ` O.o._ ! , # X Q wXnXKXKXKXLXLXLXLXLX",
"nXnXnXnXnXnXbXbXbXbX!.l = 5 # % ! | / ^ ) ` o.O.` { @X@Xy , /  .#.+.` / F u O [ nXKXJXJXJXKXLXLXLXLX",
"bXbXbXbXbXbXbXxXxXxXuX7XY . + 5 % ; B ( o.@.#X#X#X+.X.} y.y.O.#X*X*X#X .; * b ^.xXFXFXFXFXFXJXJXJXJX",
"bXbXbXbXbXbXxXxXxXxXbXeXU o + 5 * > m ^ O.#X$X&X*X=X*X&X%X%X#.#X&X$X+X} $ L eXhXZXZXZXZXZXZXFXFXFXFX",
"xXxXxXxXxXxXxXhXhXhXxXuX(.e.A 5 5 5 % 1 ^ ` +.#X$X&X&X$X#X#.#.#.#.O.B C Y ^.xXBXBXBXBXZXZXZXZXFXFXFX",
"xXxXxXxXxXxXhXhXhXhXhXhXfXsXOXh.h.r.t . . $ ~ )  .o.@.#.#.+.o. .) ' ] ^.eXxXxXbXBXBXBXBXBXZXZXZXZXZX",
"hXhXhXhXhXhXhXfXfXfXfXfXfXfXhXhXhXrXY o = 8 a v M N / _ _ / N C Y R.qXBXbXxXhXxXbXbXbXBXBXBXBXZXZXZX",
"hXhXhXhXhXhXfXfXfXfXfXfXfXfXfXsXhXiXY o 8 d 9.9.G f f f 8 6 # [ uXxXhXxXbXxXhXxXbXbXbXbXbXBXBXBXBXBX",
"fXfXfXfXfXfXfXsXsXsXsXsXsXfXfXsX1XW.P c Q [ n x G J J 9.D.m.j K Q.`.eXbXbXxXhXxXxXxXxXbXbXbXbXBXBXBX",
"fXfXfXfXfXfXfXsXsXsXsXsXfXfXhXiXR.O T.2XzXHX3X;Xj.G p p r.Q./.k.# l 8XBXbXxXhXxXxXxXxXbXbXbXbXBXBXBX",
"xXxXxXxXhXhXhXhXhXhXhXhXhXhXhXpXR.O .XIXIXKXyX0X:XH.n.p.p v Q.Q $ l 7XbXxXxXxXxXbXbXbXbXbXbXBXBXZXZX",
"xXxXxXhXhXhXhXfXfXfXfXfXfXfXhXpXR.O Q.9XKXpX'.~.K.J.J.H.n.z.9.a o l 7XbXxXxXxXbXbXbXbXbXbXBXBXZXZXZX",
"hXhXhXhXhXfXfXfXfXfXfXfXfXhX<XT.I 2 L r.'.(.S v c.J.J.J.J.J.J.s.@ l 8XbXxXxXxXbXbXbXbXbXbXBXBXZXZXZX",
"hXhXhXfXfXsXsXsXsXsXsXsXsXxXE.X 4 / ~ C S v # @ s.J.J.J.J.F.x.k & z 8XNXxXxXxXbXbXbXbXbXbXBXBXZXZXZX",
"hXfXfXfXfXsXsXsXsXsXsXsXsXxXE.$ ~ o._ ~ > & p j n.J.J.J.J.c.8 H [.1XiXxXxXxXxXbXbXbXbXbXbXBXBXZXZXZX",
"hXfXfXfXfXsXsXfXfXfXfXfXfXbXE.$ / #.O.` ; @ j ,.a.x.F.J.J.c.@ Y iXZXxXbXbXbXbXbXbXbXbXbXbXBXBXZXZXZX",
"hXhXfXfXfXfXfXfXfXfXfXfXfXbXE.$ / @.#.o.< O i d k ,.a.x.F.c.@ U eXbXxXbXbXbXbXbXbXbXbXbXbXBXBXZXZXZX",
"hXhXhXfXfXfXfXhXhXhXhXfXiXuXE.$ N _ O.O.N < % & 9 d k >.2.j + P wXbXbXbXbXbXbXbXbXbXbXbXbXBXBXZXZXZX",
"hXhXhXhXhXhXhXvXvXvXvXeXR.c H T y ; ` @.O.| m < $ O = 6 6 & . P wXmXmXmXmXbXbXBXBXNXVXVXVXVXAXAXAXAX",
"xXxXxXxXxXxXxXvXvXvXmXwXP   x e.y X ) @.@.O./ B < * H W R n O L wXCXmXmXmXBXBXBXBXVXVXVXVXAXAXAXAXAX",
"bXbXbXbXbXbXbXmXmXmXmXwXP . c r.y . N ( ( ^ 2 3 W.<X3X2Xk.H # L 7XrXmXmXmXCXZXBXBXVXVXVXAXAXAXAXAXGX",
"BXBXBXBXBXBXmXmXmXmXmXwXP . L ^.L * : > > y Q R.(.'.Q.k.S a 9 9 z E qXFXCXZXZXVXVXVXVXAXAXAXAXAXGXGX",
"BXBXBXBXBXBXBXBXBXBXZXeXP . E >X4X7XoX!.W H n x - * * = 9 a a - . y 9XJXZXZXZXAXAXAXAXAXAXAXAXGXGXGX",
"BXBXBXBXBXBXBXBXBXBXZXeXP . Q 3XrXLXHX8XT 9 x c % . - i 9 9 9 = . l 9XJXZXZXZXAXAXAXAXAXAXGXGXGXGXGX",
"bXbXbXbXbXbXBXBXBXBXZXeXP . t P !.2X2X[.t t <XwXL o - 9 : : : % . y 9XJXZXZXZXAXAXAXAXAXGXGXGXGXGXGX",
"bXbXbXbXbXbXbXBXBXBXZXeXP . N ..] U S x - b 3XrXL   o $ m B B m , b 7XfXBXZXZXFXGXAXAXGXGXGXGXGXGXKX",
"bXbXBXBXBXZXBXBXsXeXrX9XL . 1 ~ _ } 1 % T.).XX}.L : O X 1 2 < C Q.).oX2XwXeXeXeXeXjXKXKXKXGXGXGXGXGX",
"BXBXBXFXxXeXqXqX6XoXQ.T.l # O X ; 1 3 b Q. X}.[._.E.t X < < X z (.XX|.|.oXoXoXoXoX6XwXwXwXdXKXGXGXGX",
"BXBXpXqX7XoXXXXX X).b o i d 6     O [ `.[.|.}.}. X!.t . * * o - E T._. X}.}.[.[.}. XXXXXXX3XqXdXGXGX",
"bXbX8XXX|.}.[.[.|.).c o d ,.h 9 # O [ {.}.[.|.|.|.!.t o 7 q q 7 + * Q E._.|.[.[.}.}.}.}.}.}.XX8XKXGX",
"bXbXwX3X1X|.[.[.}.).c o f 0.K.:XS o [ [.}.[.|.|.}.!.t + G 0.s.q.D x # y !. X}.}.}.[.[.[.[.<X3XeXKXKX",
"BXBXBXBXuX6X4X4X<X_.Q c n n r.^.E b E.}.}.}.}.|.}.(.U c n H W W W Y b U (.|.{.[.}.1X4X4X4XwXAXGXGXGX",
"xXxXxXbXbXbXbXnXwX6X6X3X!.T.Q U E.[.[.}.}.}.}.}.}.{.[.(.E L L L L E (.OX4X6X6X6X6XrXAXAXAXAXAXAXAXAX",
"fXfXfXfXfXfXgXgXjXjXjXjXcXnXrX7X7X7X7X7X7X7X7X7X7X7X7X7X7X7X7X7X7X7X7XqXcXnXnXVXVXnXnXnXnXnXnXVXVXVX",
"pXpXpXpXpXpXaXdXdXdXdXdXdXgXgXjXjXjXkXkXkXkXjXjXjXjXkXkXkXkXnXnXnXnXnXnXnXnXcXkXkXkXkXkXkXkXkXcXnXnX",
"iXiXiXiXiXiXpXpXpXpXaXaXaXaXaXaXdXdXdXdXdXdXdXdXdXdXdXdXgXgXgXgXgXjXjXjXjXjXjXjXgXgXgXgXgXjXjXjXjXjX"
};
