/* XPM */
static char *out[] = {
/* columns rows colors chars-per-pixel */
"50 50 256 2 ",
"   c #28191B",
".  c #321C1D",
"X  c #261B27",
"o  c #291D20",
"O  c #251B2F",
"+  c #2B2126",
"@  c #372221",
"#  c #3D2625",
"$  c #30262C",
"%  c #2A2936",
"&  c #27213B",
"*  c #322A31",
"=  c #372D32",
"-  c #3D3235",
";  c #30333C",
":  c #38353D",
">  c #3E383E",
",  c #452D2B",
"<  c #4E312B",
"1  c #573931",
"2  c #5C3C35",
"3  c #663E37",
"4  c #6C443B",
"5  c #242143",
"6  c #252345",
"7  c #242147",
"8  c #24234C",
"9  c #252955",
"0  c #292D51",
"q  c #292D5D",
"w  c #253352",
"e  c #2B3366",
"r  c #323B62",
"t  c #2C3772",
"y  c #323D72",
"u  c #313D7D",
"i  c #433E45",
"p  c #4A3D41",
"a  c #29414F",
"s  c #37404C",
"d  c #2E4855",
"f  c #3B4450",
"g  c #344B5B",
"h  c #31436B",
"j  c #2E5067",
"k  c #3B5261",
"l  c #30487D",
"z  c #3A5D72",
"x  c #34667F",
"c  c #3F6378",
"v  c #4D4449",
"b  c #54494A",
"n  c #4A4856",
"m  c #524E56",
"M  c #5D5458",
"N  c #634745",
"B  c #764C42",
"V  c #7B5246",
"C  c #645A5B",
"Z  c #735055",
"A  c #555763",
"S  c #5C5D6B",
"D  c #404D71",
"F  c #525B76",
"G  c #675F62",
"H  c #5D6270",
"J  c #6E676C",
"K  c #666C7C",
"L  c #776E71",
"P  c #7C7272",
"I  c #87594B",
"U  c #915F4D",
"Y  c #9C6756",
"T  c #AE735D",
"R  c #896064",
"E  c #8A6E6A",
"W  c #817879",
"Q  c #987778",
"!  c #BE7D62",
"~  c #BB816A",
"^  c #CE886B",
"/  c #D48E71",
"(  c #E99B7A",
")  c #374687",
"_  c #3B4F82",
"`  c #37478D",
"'  c #364B95",
"]  c #374E98",
"[  c #365790",
"{  c #39509F",
"}  c #38579D",
"|  c #38549F",
" . c #355B9A",
".. c #385B9E",
"X. c #385E9E",
"o. c #3F6B80",
"O. c #36708A",
"+. c #386291",
"@. c #346991",
"#. c #39639C",
"$. c #3A6B9D",
"%. c #2E7794",
"&. c #3C729F",
"*. c #307E9C",
"=. c #3D799F",
"-. c #3C7E9D",
";. c #3D67A0",
":. c #3D6FA2",
">. c #3F75A1",
",. c #515D95",
"<. c #49748F",
"1. c #577485",
"2. c #487B94",
"3. c #757886",
"4. c #7F7C84",
"5. c #747F8E",
"6. c #757B9A",
"7. c #536FA4",
"8. c #4977A5",
"9. c #5B78AC",
"0. c #3A81A1",
"q. c #3F84A2",
"w. c #3E88A4",
"e. c #3B8BAB",
"r. c #408493",
"t. c #5F8395",
"y. c #7F8189",
"u. c #4C84A2",
"i. c #408BA0",
"p. c #418FA3",
"a. c #4F8BAA",
"s. c #4293A3",
"d. c #429FA2",
"f. c #4399A4",
"g. c #429AA6",
"h. c #4697A8",
"j. c #5E92A8",
"k. c #498DB2",
"l. c #4192B2",
"z. c #4D9BBC",
"x. c #7B9DAC",
"c. c #7187B2",
"v. c #41A6A7",
"b. c #46A2AB",
"n. c #47AAAB",
"m. c #47B2AC",
"M. c #48B0AD",
"N. c #4DAAB6",
"B. c #4CB2B5",
"V. c #4EB7B6",
"C. c #4BBBB3",
"Z. c #50C0B9",
"A. c #52C4BC",
"S. c #52C9BD",
"D. c #52A2C1",
"F. c #51A6C9",
"G. c #54AACE",
"H. c #56ADD3",
"J. c #58AFD6",
"K. c #5AB1D7",
"L. c #59B1D8",
"P. c #59B2D8",
"I. c #6EAFC9",
"U. c #55CCC2",
"Y. c #57D6C5",
"T. c #5ADDC5",
"R. c #59DCC9",
"E. c #5BE2CB",
"W. c #5DE8CD",
"Q. c #8A8384",
"!. c #8E8A8F",
"~. c #838697",
"^. c #979394",
"/. c #999799",
"(. c #A88B87",
"). c #AE9694",
"_. c #A39E9E",
"`. c #8197A9",
"'. c #9298A5",
"]. c #9FA1AC",
"[. c #99AFBB",
"{. c #A8A3A3",
"}. c #ABA7A8",
"|. c #AEACAC",
" X c #B8A8A3",
".X c #B3AEAE",
"XX c #A7ACB4",
"oX c #ABB3BC",
"OX c gray69",
"+X c #B1B1B1",
"@X c #B2B2B2",
"#X c #B3B4B3",
"$X c #B4B0B6",
"%X c #B9B7B7",
"&X c #B1B3BC",
"*X c #BCBAB9",
"=X c gray74",
"-X c #BFBEBD",
";X c #C3B6B4",
":X c #95A7C9",
">X c #B2B8C2",
",X c #BDC5D4",
"<X c #BAD1DB",
"1X c #C2C1C0",
"2X c #C4C3C2",
"3X c #C4C5C3",
"4X c #C6C6C5",
"5X c #C8C8C6",
"6X c #CBC8C7",
"7X c #CDCAC8",
"8X c #D1CDCC",
"9X c #C4CAD1",
"0X c #CCD4DD",
"qX c #D3D2D1",
"wX c #D6D5D4",
"eX c #D1D4D9",
"rX c #D9D9D8",
"tX c #E0DFDD",
"yX c #D9DEE3",
"uX c #E2E3E4",
"iX c #E7E7E4",
"pX c #EBEBE7",
"aX c #E7E9EB",
"sX c #EDEDE9",
"dX c #EFEEEA",
"fX c #EFEFEA",
"gX c #EEEFED",
"hX c #F0EFEB",
"jX c #EFF0EB",
"kX c #F1F0EC",
"lX c #F0F1EC",
"zX c #F2F1EC",
"xX c #F1F2ED",
"cX c #F3F1EE",
"vX c #F2F3EE",
"bX c #F3F2EF",
"nX c #F5F3EF",
"mX c #F6F2EF",
"MX c #F3F4EF",
"NX c #EEF0F2",
"BX c #F3F5F0",
"VX c #F5F4F0",
"CX c #F4F5F0",
"ZX c #F6F5F1",
"AX c #F5F6F1",
"SX c #F6F7F2",
"DX c #F7F6F3",
"FX c #F7F7F3",
"GX c #F8F4F1",
"HX c #F7F8F3",
"JX c #F9F8F4",
"KX c #F9F9F5",
"LX c #FAFAF5",
"PX c #F8F9F9",
"IX c #FCFDF8",
"UX c #FEFDFD",
/* pixels */
"sXsXfXfXfXfXfXjXfXjXjXjXjXlXlXxXxXxXvXvXvXvXxXjXjXlXlXlXxXvXvXvXvXvXvXxXxXxXxXxXxXvXxXvXvXvXvXvXvXvX",
"lXlXxXxXxXxXxXxXxXxXxXvXvXvXvXMXMXBXBXAXSXSXAXvXiXiXlXMXpXaXvXSXAXAXAXSXBXMXMXMXCXCXCXCXCXAXAXAXAXAX",
"MXMXMXCXCXBXBXBXBXBXBXBXBXAXBXAXAXHXHXHXaXuXuXrX3.S &XrX`.c.,XaXSXLXpXtXxXSXSXSXSXHXHXHXHXHXHXHXHXHX",
"CXCXCXCXCXCXBXBXBXBXBXMXsXiXMXSXgXuXuXyXc.7.9.7.h w r D r.f.>.7.9XtX~.F eXHXSXSXHXHXHXHXHXHXHXHXHXHX",
"AXAXAXAXAXAXCXBXBXBXHXaX:X9.,X0X:X9.9.u.h.v.A.U.d.r.@.@.Z.Y.r.j D D ) ,.0XIXKXHXHXHXHXHXHXHXHXHXKXKX",
"SXSXSXSXSXSXSXSXSXAXuX,Xc.{ ;.8.p.b.g.v.Y.W.E.Y.b.s.f.d.U.R.T.U.&.' } 7.>XrXxXIXLXLXLXLXLXLXLXLXLXLX",
"SXSXSXSXSXSXSXSXSXgXK r ) | 0.b.S.E.Z.C.Y.Y.V.g.;.X.=.p.d.n.S.U.>.| -.i.z D ].qXjXLXLXLXLXLXLXLXLXLX",
"CXAXAXAXAXAXAXAXHXvXH 9 _ $.b.C.S.Y.E.T.m.v.M.n.=.#... .w.d.M.m.-.$.g.n.-.+.h n 8XIXLXKXKXKXKXKXKXKX",
"AXAXSXSXSXSXKXKXwX&XF h i.V.R.R.C.v.A.A.s.i.S.E.Z.N.q.&.b.C.Y.E.M.d.U.E.A.M.x h '.=XuXKXKXKXLXLXLXLX",
"AXAXSXSXSXvXqX=X5.j ' :.V.W.T.S.m.d.p.q.:.&.B.Y.W.W.V.v.Y.W.R.U.g.i.V.Y.W.W.b.+.r 0 &XLXKXKXLXLXLXLX",
"SXSXSXSXHXdXXX~.1.x [ ;.N.A.h.0.0.=.X.#.p.g.i.w.D.N.p.w.C.S.m.g.$.} q.b.N.N.l.&.r 6 >XIXLXKXLXLXLXLX",
"SXSXSXSXSXSXAXkX3.0 +.>.=.=...| ;.&...X.p.f.;.| $.:.X.} i.d.w.>...| $.=.>.>.#.] u y 6.}.iXLXLXLXLXLX",
"AXAXAXAXAXAXAXzX4.w r.p.$.| ;.-.p.h.$.X.p.f.$...p.f.q.>.=.>.X.| $.&.X...q.d.w.:.l y 6.].uXLXLXLXLXLX",
"CXCXCXCXCXhX;X).Q J <.:...} w.d.d.f.$.} :.>.....p.d.d.h.#.{ $.-.s.f.$. .w.d.w.<.J R (. XiXLXLXLXLXLX",
"MXMXMXMXCXuXE 3 B Z _ { { | ;.=.p.h.$.' y t ` | $.=.p.s.#.} 0.f.-.&.X.| ;.&._ r N V 4 Z 8XIXLXLXLXLX",
"MXMXMXMXnXdX1X XM X % e ) ] u y [ :...` 9 8 q t ' { ;.:.} { ;.$.l t ` ] u e 9 5 X o P ;XpXKXKXKXKXKX",
"nXnXnXnXnXnXnXbX6X_.b % y ` q 8 q t ` ` 9 5 5 9 ) ] ] ] { { u e 9 8 u ` q 5 & > !..XtXHXDXAXDXFXFXFX",
"nXnXnXnXnXnXbXbXVXVX8X}.A 6 6 6 6 8 u ` 9 6 7 8 q q q e ` ' e 7 7 6 9 q & + !.5XsXKXDXZXZXZXDXDXDXDX",
"bXbXbXbXbXbXzXzXzXzXZXrXP = & 5 7 8 q q 8 7 7 6 6 5 7 8 q e 9 7 7 6 5 & * - *XKXZXVXVXVXZXZXZXZXDXDX",
"bXbXbXbXbXbXzXzXzXzXzXsXrX-Xm O & 5 5 5 7 7 6 6 7 7 7 7 7 7 6 6 5 5 O : |.8XiXnXVXVXVXVXVXVXZXZXZXZX",
"zXzXzXzXzXzXkXkXkXkXbXtX^.G - + o X X O & 5 7 7 7 7 7 7 5 & O X X X o p 2XiXdXbXnXnXnXnXVXVXVXVXZXZX",
"zXzXzXzXzXzXkXkXkXkXpX6XG $ S J i + o o $ % 0 0 0 0 0 0 % % + o o + m J M b *XZXnXnXnXnXnXnXVXVXVXVX",
"kXkXkXkXkXkXhXhXhXiXW m H 3.9XeX].3.m g <.u.a.k.k.k.k.a.u.2.k s z o.`.].n $ {.tXdXbXbXbXnXnXnXnXVXVX",
"kXkXkXkXkXkXhXhXzXpXM = 4.oXaXUXNXyXj.x z c O.*.*.*.*.%.x z x O.x.oXyXaX].5.M M 8XVXbXbXnXnXnXnXVXVX",
"bXbXbXzXzXzXzXkXtX6XC i y.XXyXaX9X[.a.0.z.z.w.*.*.*.*.0.z.z.0.-.<XDXIXUXbXaXL - 2XZXnXnXnXnXVXVXZXZX",
"bXbXzXzXzXzXzXsXQ.> A K 3.~.'.'.t.O.z.H.K.L.H.G.H.H.G.G.K.H.e.-.<XDXUXUXUXUXW > 2XJXVXnXnXnXVXVXZXZX",
"zXzXzXzXkXkXkXpXP o , p M S > = > g u.F.J.K.P.J.F.F.H.K.K.H.w.%.x.[.0XNXUXUXW = _.7XuXnXnXnXVXVXZXZX",
"zXzXkXkXhXhXhXpXL @ B V < @ o + ; g x *.F.K.P.G.0.*.z.K.K.H.l.*.O.o.`.oX4X8XL # $ = }.nXnXnXVXVXZXZX",
"kXkXkXkXhXhXhXpXL @ V U B 3 @ % j O.*.e.G.P.P.G.*.%.z.P.K.L.J.D.z f A G b 2 I Y < o {.nXnXnXVXVXZXZX",
"kXkXkXkXhXhXkXpXL . V U I B # % j %.z.J.L.L.K.G.*.%.z.P.P.L.P.F.o.g % @ I T ^ / 2 o }.VXnXnXVXVXZXZX",
"zXzXkXkXkXkXkXsX}.P V 4 3 2 @ % z e.F.K.L.L.L.H.l.e.D.P.P.K.L.H.l.-.a # T ( ( / 2 o }.VXnXnXVXVXZXZX",
"zXzXkXkXkXkXzXzXbXiXM   # , . ; 2.K.K.K.K.K.K.K.J.J.J.K.L.K.K.J.D.k.g , Y ^ / / 2 o }.VXnXnXVXVXZXZX",
"zXzXzXzXzXzXcXcXcXpX{.P p     % k <.z.K.L.K.K.K.K.K.K.K.K.K.K.F.x g C Y T ! / / 2 o }.CXCXCXZXAXAXAX",
"bXbXbXbXbXbXcXcXcXcXGXrXJ o * * + o f c q.l.F.P.P.P.P.J.z.e.O.k % . Y ( ( ( ^ T < o {.CXCXCXAXAXAXAX",
"nXnXnXnXnXnXmXmXmXmXGXrXJ + > f n n : ; a d z c c c c c g a ; * o . I ! ! ! I N W ^.qXCXAXAXAXAXAXAX",
"VXVXVXVXVXnXnXmXmXmXnXpX4X}.M > S 5.K H A m *           * ; s s $   , 1 1 2 Q.%XiXHXAXCXAXAXAXAXSXSX",
"VXVXVXVXVXVXVXVXVXVXVXVXDXcXG $ A 5.5.5.5.5.H m $ o * ; s f f s $ + W {._._.tXLXSXAXAXAXAXAXAXAXSXSX",
"VXVXVXVXVXVXVXVXVXVXVXVXVXdXG = A 5.'.XX9XeXeX>Xp o : f : - ; = + = *XLXJXJXDXZXAXAXAXAXAXAXSXSXSXSX",
"nXnXnXnXnXnXVXVXVXVXVXVXVXbX6X}.L v $XaXIXUXyX$Xp o $ - N B , - _.=XiXDXZXZXZXZXAXAXAXAXSXSXSXSXSXSX",
"nXnXnXnXnXnXVXVXVXVXVXVXVXVXHXtXL + $XPXPXNXXX3.> $ o @ V U < - qXKXZXVXVXVXVXZXAXAXAXAXSXSXSXSXSXSX",
"nXnXVXVXVXVXnXbXbXnXnXnXnXnXVXwXJ o G 4.y.4.m m .X%XC . 2 4 # - 7XnXzXxXVXVXVXZXAXAXSXSXSXSXSXSXSXSX",
"VXVXZXZXZXZXVXnXbXzXzXcXxXzXrX}.C @ N I ~ ~ 1 - |.%XM + i i $ * /.3X1X6XsXVXnXvXMXMXAXAXAXSXSXSXSXSX",
"VXVXVXVXcXkXjXfXrX3X3X3X3X3X%X}./.Q.b 2 ~ / 3 o > i d j F S i > !.+XOX#X1X4X3X3X3X5XiXxXlXlXCXSXSXSX",
"nXnXzXkXqX-X-X-X%XOXOXOXOXOX+X@X#X|.b # I U <   + $ = : : i W _.|.+X+X+XOXOXOXOXOXOX*X-X=X1XuXMXAXSX",
"nXzXqX1X%XOXOXOX+X+X+X+X+X+X+X|.{./.H k A A = * W ^.^.^.^./.}.@X@X+X+X+X+X+X+X+X+X+XOXOXOX+X*X4XpXKX",
"VXbXqX=X#XOXOXOX+X+X+XOX+X@X@X/.C ; t.I.D.j.s = ^.+X#X#X@X@X+X+X+X+X+X+X+X+X+X+X+X+XOXOXOXOX%X1XpXHX",
"bXbXkXsXwX1X1X1X*XOXOXOXOX+X@X_.G p /.>X5.K n v /.OX+X+X+X+X+X+X+X+X+X+XOXOXOXOXOX+X=X2X1X3XtXjXCXAX",
"kXkXkXzXhXdXfXfXrX2X2X2X3X2X%X|.}._.J b v b Q.{.|.OXOXOXOXOXOXOXOXOXOX#X1X3X2X2X2X4XiXxXxXxXMXCXCXCX",
"dXdXdXdXdXfXfXjXfXsXsXsXsXsXwX4X4X4X-X*X*X=X2X5X5X4X4X4X5X5X5X5X5X5X4XqXpXjXjXjXfXfXxXvXvXvXvXvXMXMX",
"sXsXsXsXsXsXdXsXfXfXfXfXfXjXfXsXfXjXjXjXlXlXjXfXfXfXjXjXjXjXlXlXlXlXlXxXvXvXvXxXxXxXlXlXlXxXxXxXxXxX"
};
