/* XPM */
static char *out[] = {
/* columns rows colors chars-per-pixel */
"50 50 255 2 ",
"   c #26191F",
".  c #331D1E",
"X  c #2D2026",
"o  c #2A262A",
"O  c #382425",
"+  c #3A2C2F",
"@  c #262734",
"#  c #2F2B30",
"$  c #2F2F39",
"%  c #3E3134",
"&  c #37343E",
"*  c #412726",
"=  c #482B28",
"-  c #4E312F",
";  c #482F34",
":  c #423536",
">  c #40373D",
",  c #553B38",
"<  c #633B37",
"1  c #6B433E",
"2  c #3B3F48",
"3  c #2E3155",
"4  c #293E50",
"5  c #27325F",
"6  c #37385A",
"7  c #2A3F75",
"8  c #463C40",
"9  c #4A3F43",
"0  c #23405D",
"q  c #324856",
"w  c #374F5E",
"e  c #3A5462",
"r  c #3C5868",
"t  c #2B4875",
"y  c #2E467E",
"u  c #3A4672",
"i  c #345475",
"p  c #2F6579",
"a  c #316074",
"s  c #376A7F",
"d  c #514648",
"f  c #58494F",
"g  c #414352",
"h  c #504B51",
"j  c #5D4F53",
"k  c #51545E",
"l  c #634040",
"z  c #654A4B",
"x  c #714A42",
"c  c #7D4D42",
"v  c #78514B",
"b  c #635455",
"n  c #66595A",
"m  c #735250",
"M  c #7A5E5B",
"N  c #424A6A",
"B  c #445562",
"V  c #49526E",
"C  c #425E71",
"Z  c #5A5F79",
"A  c #615C61",
"S  c #725B77",
"D  c #476072",
"F  c #436B7E",
"G  c #566574",
"H  c #536C77",
"J  c #5D6F7C",
"K  c #6D6262",
"L  c #6D686C",
"P  c #78676A",
"I  c #626877",
"U  c #767071",
"Y  c #815449",
"T  c #895648",
"R  c #8F5B4C",
"E  c #815D5B",
"W  c #99675B",
"Q  c #A96D59",
"!  c #827779",
"~  c #827B7C",
"^  c #9A7E7B",
"/  c #B37561",
"(  c #B07867",
")  c #B97964",
"_  c #BC7C68",
"`  c #A47F79",
"'  c #C8846D",
"]  c #D2896E",
"[  c #C08470",
"{  c #D38C73",
"}  c #D99075",
"|  c #DF9478",
" . c #E69679",
".. c #EA997A",
"X. c #E99C7F",
"o. c #334E8F",
"O. c #345395",
"+. c #355B9C",
"@. c #355E9E",
"#. c #2C6E87",
"$. c #2A758E",
"%. c #357289",
"&. c #3E6B90",
"*. c #366498",
"=. c #2A7993",
"-. c #3B7A93",
";. c #3C7098",
":. c #3B759F",
">. c #307F9B",
",. c #3B7C9F",
"<. c #396CA1",
"1. c #3970A1",
"2. c #3B79A1",
"3. c #425B8F",
"4. c #4E7282",
"5. c #49778A",
"6. c #5A798B",
"7. c #4A7B93",
"8. c #6A7381",
"9. c #6E7D8C",
"0. c #727886",
"q. c #767E91",
"w. c #817C81",
"e. c #3687A5",
"r. c #3B81A1",
"t. c #3E85A4",
"y. c #43819A",
"u. c #4B869F",
"i. c #439197",
"p. c #678496",
"a. c #7C8391",
"s. c #5B8AA0",
"d. c #4191A2",
"f. c #4397A2",
"g. c #429CA2",
"h. c #4390AF",
"j. c #4593B2",
"k. c #4899B2",
"l. c #5796B0",
"z. c #5C9EB8",
"x. c #658AA1",
"c. c #48A9AA",
"v. c #4FACAF",
"b. c #4CA0B5",
"n. c #4DA7BA",
"m. c #4DB3B2",
"M. c #50B2BE",
"N. c #52B7BF",
"B. c #53BEBC",
"V. c #55C8BF",
"C. c #57A5C3",
"Z. c #53ACCB",
"A. c #59B5D6",
"S. c #5BB4D6",
"D. c #63ADC6",
"F. c #67B9D6",
"G. c #58CFC4",
"H. c #5CD5C7",
"J. c #5FDFCC",
"K. c #60E7CE",
"L. c #878487",
"P. c #808795",
"I. c #8B8D98",
"U. c #85909C",
"Y. c #979396",
"T. c #9D989B",
"R. c #AD8D84",
"E. c #A89896",
"W. c #A39E9E",
"Q. c #9098A2",
"!. c #999DA9",
"~. c #8FA3AC",
"^. c #A7A3A3",
"/. c #A4A5AC",
"(. c #ACABAB",
"). c #B4AEAD",
"_. c #A3A9B1",
"`. c #ACAFB5",
"'. c #B1B0B0",
"]. c #B1B1B1",
"[. c #B2B2B1",
"{. c #B2B2B2",
"}. c gray70",
"|. c #B7B0B0",
" X c #B8B6B6",
".X c #B9B9B9",
"XX c #BCBBBA",
"oX c #D59884",
"OX c #DF9E86",
"+X c #D8A298",
"@X c #EBA082",
"#X c #E6A68E",
"$X c #F0A98D",
"%X c #F1AD92",
"&X c #F5B295",
"*X c #F2B49A",
"=X c #92BBCC",
"-X c #B3B7C0",
";X c #B7BCC2",
":X c #BFBFC2",
">X c #A0CFDF",
",X c #AED4E3",
"<X c #B1DDEB",
"1X c #B4DEED",
"2X c #C8C3C2",
"3X c #C8C6C5",
"4X c #CCC9C6",
"5X c #CFCBC9",
"6X c #D1CFCE",
"7X c #D3D1CE",
"8X c #C7CCD0",
"9X c #D4D4D3",
"0X c #D5D6D7",
"qX c #D9D7D4",
"wX c #DADAD7",
"eX c gray85",
"rX c #DBDBD8",
"tX c #DBDDDA",
"yX c #DDDEDC",
"uX c #E0E0DD",
"iX c #CEE2EA",
"pX c #E1E2E0",
"aX c #E6E5E3",
"sX c #E9E8E6",
"dX c #ECEBE7",
"fX c #EEEDE9",
"gX c #EFEFEB",
"hX c #EFF0EB",
"jX c #F1F0EC",
"kX c #F0F1EC",
"lX c #F2F1ED",
"zX c #F1F2ED",
"xX c #F1F3EE",
"cX c #F3F2EE",
"vX c #F2F3EE",
"bX c #F4F3EF",
"nX c #F3F4EF",
"mX c #EDF0F0",
"MX c #F1F1F3",
"NX c #F6F2F0",
"BX c #F5F4F0",
"VX c #F4F5F1",
"CX c #F6F5F1",
"ZX c #F4F6F1",
"AX c #F5F6F1",
"SX c #F5F7F2",
"DX c #F7F7F2",
"FX c #F7F6F3",
"GX c #F8F4F1",
"HX c #F9F7F3",
"JX c #F7F8F3",
"KX c #F9F9F5",
"LX c #F9FAF6",
"PX c #FCFDFA",
"IX c #FEFFFF",
/* pixels */
"fXfXgXgXgXgXgXgXgXhXhXhXhXkXkXzXzXzXxXxXxXxXzXhXhXhXkXkXzXzXxXxXxXxXxXzXzXzXzXzXzXzXzXvXvXvXvXvXvXvX",
"kXkXzXzXzXzXzXzXzXzXzXxXxXxXxXnXnXVXVXZXZXZXVXxXzXxXxXnXnXVXVXVXZXZXZXVXVXnXnXnXVXVXVXVXVXAXAXAXAXAX",
"nXnXnXnXnXnXnXnXnXVXVXVXVXVXVXZXZXSXSXJXKXKXJXSXZXSXSXJXJXJXJXJXJXJXJXSXSXSXSXSXSXSXSXJXJXJXJXJXJXJX",
"VXVXVXVXVXVXVXVXVXVXVXVXVXVXVXZXJXJXKXVXpXyXtXtXrXtXtXyXyXpXVXLXLXLXLXLXLXKXJXSXJXJXJXJXJXJXJXJXJXJX",
"AXAXAXAXAXZXVXVXVXVXVXVXVXZXJXxXeX9X0X:XZ N N N V V N N N Z ;X0X0X0X0X0X0XeXzXKXJXJXJXJXJXJXJXJXKXKX",
"SXSXSXSXSXSXSXSXSXSXSXSXKXxXeX;XJ C r i o.o.O.*.d.d.+.o.O.3.C D D C N N Z 0.yXLXLXLXLXLXLXLXLXLXLXLX",
"SXSXSXSXSXSXSXSXKXLXLXkX6X`.V i b.m.c.f.;.1.k.m.J.G.1.*.k.m.G.H.B.n.*.3.!.:XhXPXLXLXLXLXLXLXLXLXLXLX",
"AXAXAXAXAXAXSXfX3X:X:X`.4.F :.2.:.r.M.N.g.c.J.J.G.M.2.2.B.G.V.N.t.1.<.*.i D _.8XjXPXLXKXKXKXKXKXKXKX",
"AXAXSXSXSXSXJXyXa.I u i b.B.J.J.B.c.r.:.t.f.V.B.1.*.d.g.d.t.*.*.2.t.f.g.g.i.p D !.:XdXLXKXKXKXLXLXLX",
"AXSXSXSXSXSXAXAXAX9X3.y O.<.n.N.M.n.t.,.:.:.r.,.+.+.,.,.@.+.<.:.t.j.m.m.d.y.%.F 8.P.uXLXKXKXLXLXLXLX",
"SXSXSXSXSXDXKXsX`.U.u 7 O.+.1.2.h.j.j.h.r.r.h.h.2.1.+.+.<.r.m.V.J.K.H.N.1.O.7 u I.`.dXPXLXKXLXLXLXLX",
"SXSXSXSXJXaX/.P.u 7 O.+.1.t.m.V.K.J.M.b.k.n.J.H.d.,.2.2.,.t.b.n.n.b.t.,.2.:.2.;.t u P./.aXLXLXLXLXLX",
"AXAXAXAXSXuX!.q.u 7 O.@.:.r.k.b.b.j.@.<.H.K.G.v.i t i.g.r.:.+.+.1.2.2.2.,.2.,.;.y u q.!.pXLXLXLXLXLX",
"VXVXVXVXVXVXJX6Xg 5 &.:.+.@.:.,.,.;.t i v.m.s e f f B p i.i.I Z ;.,.f.g.t.:.@.o.5 g 6XPXLXKXLXLXLXLX",
"nXnXnXnXVXuXE.^ W P B a -.t.f.i.a w > > w e f v ) ) v f e e z 1 6 7 *.:.1.&.V f E W ` E.pXLXLXLXLXLX",
"nXnXnXnXVX7Xm < 1 1 z j &.&.i q @ X O = l Y _ ]  . .] _ Y l * O X @ 3 5 5 6 x c x 1 < m 7XLXKXKXKXKX",
"bXbXbXbXBXsX2XE.: . = ; 3 6 z E R.^ + O T Q } X.$X$X@X| Q T * + ^ R.E z $ @ + = . % E.2XsXFXFXDXDXDX",
"bXbXbXbXbXbXVXdX2XW.8 X   ; ) { [ ` S S [ {  .X.&X*X&X$X} [ S S ` [ { _ -   X : T.2XdXJXAXCXCXFXFXFX",
"cXcXcXcXcXcXlXcXBXdX4XW.+ = _ | OXOX+X+XX.....X.$X%X*X%XX.X.+X+XOXOX| [ = + W.4XdXHXCXBXCXCXCXCXFXFX",
"cXcXcXcXcXlXlXlXlXlXCX7Xf ; 1 T { @X&X&X@X....| ) _ | X.X.@X&X&X@X{ T 1 - d 6XHXBXBXBXBXBXBXCXCXCXCX",
"lXlXlXlXlXlXjXjXjXjXjXdXqX).: * Y Q oX#X%X$X@XX.| | X.@X$X%X#XoXQ Y * : ).qXdXcXbXbXbXbXBXBXBXBXCXCX",
"lXlXlXlXlXlXjXjXjXjXjXdX9X|.f % $ % < c _ } OX#X%X%X#XOX} [ c l % # X > ).qXdXcXcXbXbXbXbXbXBXBXBXBX",
"jXjXjXjXjXjXgXgXgXjXbX6Xd 9 T.~.%.a q 8 z v Y R / ) R Y v z 8 4 a p e g % d 6XFXbXcXcXcXbXbXbXbXBXBX",
"jXjXjXjXjXjXgXgXjXaX2X^.h n 3X8X5.#.h.l.x.9.A b n n b A 9.x.l.h.$.s p.0.& : W.3XsXbXcXcXbXbXbXbXBXBX",
"cXcXlXlXlXlXlXjXcX4X8 > W.2XVXaXP.J s %.k.D.,XiXmXmXiX,XD.k.%.p w B !./.I h o 8 3XCXbXbXbXbXbXBXBXCX",
"cXcXlXlXlXlXjXjXcX2Xo # .XuXmXsX:X_.6.s p #.k.D.<X1XD.k.%.p s F F 4.Q.!.a.J   o 2XHXBXbXbXbXBXBXBXCX",
"lXlXlXlXjXjXjXjXBX3Xo o XXeX6X;X0.6.C.C.7.F p s u.u.s a J 9.=X>XF.C.6.J 9.8.$ $ L.).pXBXbXbXBXBXBXCX",
"lXlXjXjXgXgXjXuX^.L.g k }.;XI.8.2 q z.S.A.Z.y.F w w F 5.9.U.>X>Xl.7.e w 8.9.G k X + 3XCXbXbXBXBXBXCX",
"jXjXjXjXgXgXlX3X: O K ! Y.P.2 #   $ l.A.S.S.A.C.s s C.Z.u.7.7.7.7.4.2 & k G G k X # 3XCXbXbXBXBXBXCX",
"jXjXjXjXgXgXcX4X: = Q ( M j X   # q z.A.S.S.A.Z.>.>.Z.A.A.Z.u.y.h.y.$   # % z z O % 4XCXbXbXBXBXBXCX",
"lXjXjXjXjXjXcX4X: - ' | / R O o e %.C.S.A.S.A.Z.>.>.Z.S.S.A.A.Z.>.p @ . , 1 R T * % 4XCXbXbXBXBXBXCX",
"lXlXjXjXjXjXbX4X: = ' ....' = @ p =.e.j.Z.A.A.C.s p C.A.S.Z.j.e.=.p @ . l c R T * : 4XCXbXbXBXBXVXCX",
"lXlXlXlXlXlXNX5X8 = W ) | ' 1 ; & 4 p $.e.h.Z.z.r r z.Z.h.e.$.#.a w o . - < - , Y. XsXVXVXVXVXAXAXAX",
"cXcXcXcXcXcXNXsX:XE., < ]  .' Q < ; $ 4 p $.>.-.r r -.r.$.#.a D P.L.> * x x * 8 5XKXAXVXVXVXAXAXAXAX",
"bXbXbXbXbXbXNXNXHX5X: = '  . .] R x * # w r r H -X;XH r C G U._.yXsX6X|.f , ^.3XdXVXVXVXAXAXAXAXAXAX",
"BXBXBXBXBXbXbXNXGX6Xf - R W W R , 9 w.I.Q.Q.I.Y.-X;X/._.8XeXdXMXPXPXjX6Xj d 7XLXAXVXVXVXAXAXAXAXAXSX",
"BXBXBXBXBXBXBXBXBXfXqX Xb , , d A I a.U._.T.d 9 0.Q.pXFXIXIXPXPXPXuXK j }.qXgXCXAXAXAXAXAXAXAXAXSXSX",
"BXBXBXBXBXBXBXBXBXBXFXlXwX9XqX X8 & I 0.9.I o X A a.pXPXLXFXaXuXpX2X> % 5XKXCXCXAXAXAXAXAXAXSXSXSXSX",
"bXbXbXbXbXbXBXBXBXBXBXBXFXFXHXqXn 9 2 g h h O . X 8  XeX0X0X8X3X.X^.b n 9XFXCXCXAXAXAXAXSXSXSXSXSXSX",
"bXbXbXbXbXbXBXBXBXBXBXBXBXBXBXlXaX4XL j x x 1 , . + L.!.Q.Q.q.I > 9 :XaXlXBXBXVXAXAXAXAXSXSXSXSXSXSX",
"bXbXBXBXBXbXbXcXcXbXbXbXbXbXBXBXCXBXgX4X9 O x x . X 9 h n K K b O : 5XHXBXBXBXVXAXAXAXSXSXSXSXSXSXSX",
"BXBXCXCXCXBXbXbXBXBXVXVXCXcXaXpXpXwXXXT.& X ; ; .   = < [ | ] / * % .XaXbXDXDXDXSXSXAXAXAXAXSXSXSXSX",
"BXBXBXBXCXVXVXkXuXtXtXtXyXqXXX(.L.L $ @ 4 0 0 4 X     = ' } T x f n W.XXqXuXyXyXyXpXvXSXSXSXAXAXSXSX",
"bXbXBXjXyXwXrX9X.X{.{.{.}.}.{.Y.+ X k I p.s.7.F o     * Q / = + Y.'.].].{.{.{.{.{..X9XrXrXuXvXJXSXSX",
"bXgXrX6X X].].].].].].].'.].{.^.L A L L L L k k A j O X z z X + Y.}.].].].].].].].].].{.]. X7XtXkXJX",
"BXsX.X'.].].].].].].].].].].].].{.^.U K K K K U /.T.% @ F 5.w q A U ^.{.].].].].].].].].].].'..XsXJX",
"cXgXwX6X X].].[.].].].].].].].].].].{.{.{.{.{.[.{.T.% # 6.z.=X~.& + Y.{.].].].].].].].{.]. X6XrXhXAX",
"jXjXlXfXrXqXqX7X.X{.{.{.{.{.].].].].].].].].].].]./.~ L h h U ! U ~ ^.].{.{.{.{.{..X7XwXwXyXhXVXVXVX",
"fXfXfXfXgXhXkXfXyXrXrXrXrX9X.X}.}.}.}.}.}.}.}.}.}.}. X(.L.~ ~ L.(. X}..XqXyXtXtXtXuXhXnXnXnXvXvXvXnX",
"dXfXfXfXfXfXfXgXgXhXhXhXkXfXyXwXwXwXwXwXwXrXrXwXwXrXrXrXtXyXyXyXtXrXrXuXhXnXnXvXvXzXzXkXkXkXzXzXzXzX"
};
