/* XPM */
static char *out[] = {
/* columns rows colors chars-per-pixel */
"50 50 255 2 ",
"   c #201117",
".  c #261115",
"X  c #2E1413",
"o  c #20151D",
"O  c #26191F",
"+  c #301A1D",
"@  c #3E1E1B",
"#  c #1D1928",
"$  c #2B1E26",
"%  c #291C34",
"&  c #282428",
"*  c #322127",
"=  c #35292C",
"-  c #2D2532",
";  c #222B36",
":  c #2E2932",
">  c #3C2631",
",  c #322F38",
"<  c #32353E",
"1  c #3F393D",
"2  c #492726",
"3  c #542D27",
"4  c #412B36",
"5  c #4B3B3F",
"6  c #563433",
"7  c #5D3B36",
"8  c #60362E",
"9  c #673F3C",
"0  c #734433",
"q  c #1F1B40",
"w  c #1F2344",
"e  c #1D264B",
"r  c #1F3948",
"t  c #1C2354",
"y  c #1D3B50",
"u  c #2F2542",
"i  c #272A4D",
"p  c #293441",
"a  c #373944",
"s  c #2F3E50",
"d  c #2C3558",
"f  c #3D3E5E",
"g  c #1E3B7C",
"h  c #23326A",
"j  c #213E6F",
"k  c #433240",
"l  c #433F49",
"z  c #364046",
"x  c #2B485A",
"c  c #344E60",
"v  c #275164",
"b  c #3C566B",
"n  c #3E5E6C",
"m  c #254476",
"M  c #255474",
"N  c #2E5971",
"B  c #286477",
"V  c #2F697B",
"C  c #306179",
"Z  c #4F4147",
"A  c #45454F",
"S  c #49484B",
"D  c #564549",
"F  c #4E4E56",
"G  c #49475C",
"H  c #594E51",
"J  c #59545C",
"K  c #674642",
"L  c #744D40",
"P  c #74524F",
"I  c #695957",
"U  c #534C6A",
"Y  c #555A6B",
"T  c #5C606D",
"R  c #486A76",
"E  c #696268",
"W  c #706061",
"Q  c #7F6A64",
"!  c #71676A",
"~  c #746B6E",
"^  c #636F74",
"/  c #7A7475",
"(  c #81493F",
")  c #835146",
"_  c #8D5745",
"`  c #8C5E4E",
"'  c #945C49",
"]  c #855F5F",
"[  c #9E6451",
"{  c #9C6B5B",
"}  c #AC6D57",
"|  c #94736A",
" . c #837A7C",
".. c #8A7F7D",
"X. c #9D7B7E",
"o. c #B47761",
"O. c #C27C65",
"+. c #C0846C",
"@. c #CC856A",
"#. c #D68C6E",
"$. c #D99174",
"%. c #DD9578",
"&. c #E7987B",
"*. c #EC9D7A",
"=. c #28418A",
"-. c #304C91",
";. c #2A5490",
":. c #29589C",
">. c #385693",
",. c #2D6084",
"<. c #236F84",
"1. c #326A88",
"2. c #357182",
"3. c #367A8E",
"4. c #296194",
"5. c #2B7D9A",
"6. c #377394",
"7. c #2B53A0",
"8. c #2E50A2",
"9. c #3160A0",
"0. c #3469A6",
"q. c #3576A2",
"w. c #3370A6",
"e. c #377AA5",
"r. c #56638E",
"t. c #4E7389",
"y. c #616C84",
"u. c #777B80",
"i. c #72798C",
"p. c #7A7F92",
"a. c #5D7CA7",
"s. c #8E6E8A",
"d. c #378189",
"f. c #3E8F96",
"g. c #36829D",
"h. c #3984A6",
"j. c #398AA9",
"k. c #3F9EA1",
"l. c #3D98A5",
"z. c #3FA2A9",
"x. c #4B8095",
"c. c #418990",
"v. c #5F8A95",
"b. c #4E9599",
"n. c #708492",
"m. c #4E86A0",
"M. c #4092B0",
"N. c #4B91B6",
"B. c #429BB2",
"V. c #409EBA",
"C. c #5C9EB5",
"Z. c #6A8EA8",
"A. c #7B91B6",
"S. c #7C9BBC",
"D. c #48AAB5",
"F. c #6AACBE",
"G. c #61B7B7",
"H. c #4EAEC1",
"J. c #52BEC4",
"K. c #58B3D5",
"L. c #7BBCD4",
"P. c #53C6C0",
"I. c #5AC5C6",
"U. c #52CFC3",
"Y. c #58DECB",
"T. c #6ADED6",
"R. c #61E7D8",
"E. c #8D8684",
"W. c #82848B",
"Q. c #968D8B",
"!. c #8B8B90",
"~. c #869099",
"^. c #9F9998",
"/. c #A6A09F",
"(. c #B3A29C",
"). c #909AA5",
"_. c #9D9DA5",
"`. c #82A2AC",
"'. c #9AA3AB",
"]. c #90B1BB",
"[. c #A8A3A3",
"{. c #AAA6A5",
"}. c #ACA8A7",
"|. c #AEAAAB",
" X c #B2AFAE",
".X c #A8AAB2",
"XX c #A9AFBB",
"oX c #AEB5B3",
"OX c #B2B1B2",
"+X c #B1B3B3",
"@X c #B3B2B2",
"#X c #B4B5B6",
"$X c #B8B2B0",
"%X c #B7B8B7",
"&X c #B8B4BA",
"*X c #BEBCBB",
"=X c #BEBFBE",
"-X c #D89683",
";X c #E69E81",
":X c #D5AE9E",
">X c #E6A588",
",X c #F0A182",
"<X c #F5AB8C",
"1X c #ECAC96",
"2X c #F5B193",
"3X c #F4B495",
"4X c #92B8C7",
"5X c #BABBC0",
"6X c #B7BFC9",
"7X c #A6CBD2",
"8X c #BFCCD3",
"9X c #B3E6E0",
"0X c #B6E7F4",
"qX c #C1C1C1",
"wX c #C6C5C4",
"eX c #C1C6CC",
"rX c gray79",
"tX c #CECECD",
"yX c #D2D1D0",
"uX c #D4D4D3",
"iX c #D8D9D8",
"pX c #DDDDDD",
"aX c #E2E1DF",
"sX c #E5E5E1",
"dX c #E8E7E3",
"fX c #E9EAE5",
"gX c #EAEBE6",
"hX c #ECEAE7",
"jX c #E3ECEF",
"kX c #EEEDE8",
"lX c #EEEEE9",
"zX c #EDEFEA",
"xX c #F0F0EB",
"cX c #F1F0EC",
"vX c #F0F1EC",
"bX c #F3F1ED",
"nX c #F1F2ED",
"mX c #F2F3EE",
"MX c #F4F2EF",
"NX c #F4F3EF",
"BX c #F3F4EF",
"VX c #F6F3F0",
"CX c #F2F4F0",
"ZX c #F4F5F0",
"AX c #F6F4F0",
"SX c #F6F5F1",
"DX c #F6F6F1",
"FX c #F7F7F2",
"GX c #F7F6F3",
"HX c #F8F8F3",
"JX c #F8F9F4",
"KX c #F9F9F5",
"LX c #FAFBF5",
"PX c #F8F8FB",
"IX c #FDFEFD",
/* pixels */
"kXkXkXlXlXlXlXlXzXzXzXXXA.8XxXvXnXnXzX4XZ.8XvXzXlXlXzXxXxXvXnXmXmXmXnXnXvXvXvXnXnXnXnXnXnXnXnXnXmXmX",
"xXxXxXvXvXvXvXvXnXnXzXA.>.a.S.uXvX6XS.N.e.a.i.i.i.i.i.i.i.i.p.rXZXZXZXZXCXCXCXBXZXZXZXZXZXZXZXZXZXZX",
"mXmXmXmXBXBXZXCXZXZXvXS.:.j.C.Z.n.x.g.D.J.6.j M V d.f.f.m.,.j r.p.p.W.tXHXFXFXFXFXFXFXFXFXFXFXFXFXFX",
"BXZXZXZXZXDXFXDXnXoXn.r.:.H.T.l.<.z.U.Y.T.M.4.B.U.Y.R.J.N.w.7.=.g g j y.~.yXJXHXHXHXHXHXHXHXHXHXHXHX",
"ZXZXZXDXmX%X~.7X9XG.c.g.e.M.z.z.z.U.R.J.V.j.g.D.J.H.B.w.:.0.e.e.e.e.6.j e T ~.uXJXHXHXHXHXHXHXJXHXHX",
"DXDXDXFXmX%X~.v.c.P.R.Y.J.l.5.e.g.D.G.2.m 3.k.j.q.9.7.7.:.0.q.1.B C N d t q i XXLXKXJXJXJXJXJXKXKXKX",
"DXDXDXDXFXHXBX#X~.v.f.f.c.g.e.q.q.1.,.m j 4.e.9.8.8.7.0.e.q.6.,.M m j h h t e y._.iXKXKXKXKXKXKXKXKX",
"ZXZXZXZXDXHXDXwX_.t.N V 3.f.M.h.e.3.6.,.;.7.8.8.8.8.7.0.h.M.z.z.k.h.q.9.-.=.h t i .XKXJXJXJXJXJXJXJX",
"ZXZXZXDXmXeX'.y.N f.P.Y.R.P.H.V.B.P.T.j.:.0.0.;.g -.8.7.:.w.h.l.z.z.B.h.w.9.-.h i .XKXJXJXJXJXJXJXJX",
"ZXDXDXDXnX.Xi.`.4XF.k.D.H.e.4.H.R.Y.I.6.m 5.l.<.M m m >.w.w.q.e.h.h.g.6.1.M j t i .XKXJXJXKXKXKXKXKX",
"DXDXDXFXFXDXnXtX.Xt.M ;.>.>.r.C.U.k.2.c l n 2.f.b.n s b 2.f.B.h.w.9.;.m h h h w u }.KXJXJXKXKXKXKXKX",
"DXDXDXFXFXFXlXi.e c R b U Q X.^ R Y H P P 5 p b R / | Z w ,.h.3.6.4.;.=.=.-.-.e $ {.KXJXJXKXKXKXKXKX",
"ZXZXZXZXZXDXxX_.Y < O * 3 [ +.] K { +.( 3 2 2 > 4 ] o.P k f m d u U r.f t h m U E qXKXJXJXKXKXKXKXKX",
"BXBXBXBXBXBXBXvXaX!   * 4 L [ O.$.o.' 3 X k K 9 9 ( _ ` ` 9 k K ) { | Z q q u [.nXFXJXJXJXKXKXKXKXKX",
"BXBXBXBXBXBXBXBXfX! o k U ] } #.;X+.{ 9 4 X.:X+.} @.%.O.} [ ' { } 7 $ # % 1 J *XJXJXJXJXJXKXKXKXKXKX",
"BXBXBXBXBXBXNXNXhX!.Z > + { ;X<X2X,X-XX.s.X.o.$.*.*.,X&.%.o.' 8 @ % q # $ ^.kXNXHXHXHXHXHXJXKXJXKXKX",
"NXNXNXNXNXNXNXMXMXhXiXW X { >X<X<X,X*.>X1X1X2X3X3X2X<X,X&.} _ 9 4 u q # $ [.GXDXSXSXDXDXDXGXFXFXFXFX",
"NXNXNXNXNXNXMXMXMXNXhXE.5 L ' @.;X*.*.*.*.<X2X2X2X,X*.#.O.) 6 > % q q d U &XSXAXSXSXSXSXSXSXGXGXGXGX",
"MXMXMXMXMXMXMXbXbXbXcXsXuX .7 { +.#.$.&.*.*.*.&.%.#.+.0 @ + O k f f G .XaXkXNXAXAXAXAXAXSXSXSXSXGXGX",
"MXMXMXMXMXMXbXbXbXbXbXMXbXaXyX..9 ) ' o.@.@.@.} _ K 1 : # o O  .=XyXpXkXAXMXMXNXAXAXAXAXAXAXSXSXSXSX",
"bXbXbXbXbXbXbXcXcXcXcXcXcXMXbXyX$XI * = , 1 1 < < R x.1.v p $ 5 I }.pXkXNXMXMXNXNXNXNXNXAXAXAXAXSXSX",
"bXbXbXbXbXbXcXcXcXcXcXcXxXsXuX .1 a s n 2.x.m.m.x.b r p < T p.&XyX .F {.pXhXbXMXNXNXNXNXNXNXAXAXAXAX",
"cXcXcXcXcXcXcXxXxXxXxXcXdXE.1 $ o c t.].8X^ p p p v V n.'.tXjXPXPX.X/ J D  XMXMXMXMXMXNXNXNXNXAXAXAX",
"cXcXcXcXcXcXcXxXxXxXxXcXdX!     $ !.8Xu.S z a a s 3.C.7XjXCXLXIXIXcXpXE + /.MXMXMXMXMXNXNXNXNXAXAXAX",
"MXMXbXbXbXbXcXcXcXcXcXhXpX! O * 4 A F z s t.C.x.V B n n.)..X5XaXPXPXjX~ $ ^.dXxXNXNXNXNXNXNXAXAXSXSX",
"MXMXbXbXbXbXcXcXcXbXhXQ.D 1 , - & n c.2.V 4X0XL.B.5.B b G l l u.).).).T k Z J %XAXNXNXNXNXAXAXSXSXSX",
"bXbXbXbXcXcXcXcXcXcXdX!   : 1 $ # N g.M y t.Z.n x B <.v s < , , , A H I P 2 + ^.kXbXNXNXNXAXAXSXSXSX",
"bXbXcXcXcXxXxXxXxXcXdX~ o = 1 & # v <.d.x.v r x M <.<.v z z 1 $   > 7 { +.) 3 D W *XNXNXNXAXAXSXSXSX",
"bXcXcXcXcXxXxXxXxXcXdX~ X 7 P 7 2 , r x.K.N.g.M.V.g.<.v s a 1 &   X @ } &.@.o.8 + /.NXNXNXAXAXSXSXSX",
"bXcXcXcXcXxXxXxXxXxXaX! X 9 ' 0 8 @ # t.K.K.K.V.j.V v s z a a $   . X L o.#.%.0 + /.BXNXNXAXAXSXSXSX",
"bXbXcXcXcXcXcXcXhX/.W 7 3 L ` 8 @ X # t.K.V.j.5.<.v a = & & & O . . X 3 ( O.%.0 @ /.MXNXNXAXAXSXSXSX",
"bXbXbXcXcXcXcXbXdX! . 6 ) ( 0 2 . . # N j.5.<.v r ; - l J ! ~ k . @ 2 9 ) O.&.o.[ Q / wXAXAXAXSXSXSX",
"bXbXbXbXbXbXcXbXdX! X K ` 8 2 Q Q.Z o ; r y r A J  ._.%X8X=X|.H . 2 8 [ @.$.&.@.o.8 + [.SXSXDXDXDXDX",
"MXMXMXMXMXMXbXbXkX%XE.I 6 + + [.hX~ o 1 F ~ W._.&XaXIXIXIXyX|.H . + 2 } ;X*.%.' 8 Q ^.yXZXDXDXDXDXDX",
"NXNXNXNXNXNXMXMXMXVXbX$XE.E.Q.tXhX~ O J W.).XX5XrXhXIXIXPX6X~.A   . X 7 ) ) ) | Q.tXHXDXDXDXDXDXDXDX",
"AXAXAXAXAXBXNXNXMXMXMXVXAXAXAXAXhX~ o k F W..XeXiXnXIXiX5XW.Y ,     O I ....E.tXFXDXZXDXDXDXDXDXDXFX",
"AXAXAXAXAXAXAXNXNXNXNXNXVXVXAXGXkX~ X 5 E &XkXPXIXpX6Xu.F 1 : O     $ [.GXGXDXDXDXZXZXDXDXDXDXFXFXFX",
"AXAXAXAXAXAXAXAXAXAXAXAXAXAXbXrX(.] 6 W W.5XpXqX.X/ F :   $ - : & O $ {.KXGXSXDXDXDXDXDXDXDXDXFXFXFX",
"NXNXNXNXNXNXNXNXNXAXAXAXAXSXkX .3 _ o.{ Q  .W.F , O   $ - a z a < & $ ~ [.iXSXDXDXDXDXDXDXFXFXFXFXFX",
"NXNXNXNXNXNXNXNXNXAXAXAXAXSXhX~ X [ ;X&.%.] 5 * o D ! A , , , - * > > + * {.HXFXDXDXDXFXFXFXFXFXFXHX",
"NXNXNXNXNXAXNXNXNXNXNXNXMXfXuXE X ) O.#.%.) 2 5 H {.uXW.S =   X + > 4 % $ /  XpXFXFXDXFXFXFXFXFXFXFX",
"NXAXAXAXSXSXSXfXaXaXaXaXpXrX.XH . @ 3 [ +.9 + /  X@X@XOX}.~ Z * o ; r s f - * ^.sXvXFXFXFXFXFXFXFXFX",
"NXAXAXhXsXsXaXrX#X#X#X#X#X#X|.H . . X K ` 3 O / @X@X@XOXOX X{.F # b x.t.Y > O / %XuXsXsXsXvXFXFXFXFX",
"MXhXaXrX#X#X#X+X@X@XOXOX+X+X|.H   O * D P 2 O / OX+X+X@XOX$X|.H o J u.l o 4 Z E.oX+X&X#X%XuXdXnXFXFX",
"bXyX#X@X@X@X@X@X@X@X@XOXOX^.E.F ; x n n n , O / OX+X@X@X@X@X|.! 1 5 Z 5 5 ..}. X+XOX@X@X@X#X%XaXFXFX",
"nXiXqX%X@XOXOX@X@X@X+X+X|.J & n v.F.L.F.C.x O / OXOX@XOX@XOXOX|.}.}.{.{.{. X@X@X@XOX@XOX@X*XwXsXFXFX",
"MXcXkXuXqXqX=X%X@XOXOX@X|.E 1 !.eXeXeX~.^ S 1 ..OX@XOX@XOXOXOXOX@X+X+X@X@XOXOX@XOX%XqXqXwXaXnXZXDXDX",
"xXxXcXlXkXkXhXyX=X=X=X=X*X X^.! Z Z Z 5 5  .[.|.OXOXOXOXOXOXOXOX+X+X+X*X=XqX=X=XqXaXzXzXxXmXZXZXZXZX",
"kXkXkXlXlXlXlXgXfXgXgXfXfXyX*X X}.}.}.}.|.%X=X*X*X=X=X=X=X=X=X=X=X=XqXaXzXlXlXlXlXnXmXmXmXmXmXmXmXmX",
"gXkXkXkXkXkXkXkXlXlXlXzXzXgXfXfXfXfXfXgXgXfXfXfXfXfXfXfXfXfXgXgXgXgXkXvXmXnXnXnXvXvXvXvXvXnXnXnXnXnX"
};
