/* XPM */
static char *out[] = {
/* columns rows colors chars-per-pixel */
"50 50 255 2 ",
"   c #28171A",
".  c #281A1E",
"X  c #301B1E",
"o  c #3A201E",
"O  c #241C26",
"+  c #2B1F23",
"@  c #2F1F22",
"#  c #2B232A",
"$  c #372428",
"%  c #30282E",
"&  c #37292F",
"*  c #3D2D2D",
"=  c #24223E",
"-  c #2E2A38",
";  c #302F37",
":  c #3B3137",
">  c #452829",
",  c #4F2E2C",
"<  c #453035",
"1  c #45363B",
"2  c #523431",
"3  c #5A3634",
"4  c #5F3B37",
"5  c #67403A",
"6  c #6D453C",
"7  c #262A4A",
"8  c #2D3740",
"9  c #3E3740",
"0  c #353B46",
"q  c #35344C",
"w  c #3A3F48",
"e  c #24315A",
"r  c #273D5C",
"t  c #313954",
"y  c #2A3864",
"u  c #473B40",
"i  c #403C44",
"p  c #2D404C",
"a  c #284957",
"s  c #384351",
"d  c #344855",
"f  c #344C5E",
"g  c #324167",
"h  c #2F5265",
"j  c #3D5564",
"k  c #34576B",
"l  c #2D4A73",
"z  c #325F79",
"x  c #376875",
"c  c #4D4246",
"v  c #5E4243",
"b  c #5B4A4E",
"n  c #494C56",
"m  c #494659",
"M  c #564F52",
"N  c #42515B",
"B  c #5F5455",
"V  c #54545D",
"C  c #694A48",
"Z  c #784C42",
"A  c #7C5048",
"S  c #60595C",
"D  c #715550",
"F  c #735A5F",
"G  c #5B5E67",
"H  c #555674",
"J  c #446374",
"K  c #446878",
"L  c #486E7D",
"P  c #54637B",
"I  c #6A6163",
"U  c #6E6667",
"Y  c #766C6C",
"T  c #626375",
"R  c #636B72",
"E  c #727070",
"W  c #7A7170",
"Q  c #7A7578",
"!  c #727A7D",
"~  c #885447",
"^  c #8A584C",
"/  c #905E4E",
"(  c #876159",
")  c #976251",
"_  c #9E6453",
"`  c #A46A58",
"'  c #876764",
"]  c #9A6B64",
"[  c #996F6B",
"{  c #9E746B",
"}  c #807B7F",
"|  c #8C7C7F",
" . c #AB7060",
".. c #B77661",
"X. c #B67C68",
"o. c #C17E68",
"O. c #BA8877",
"+. c #CA856D",
"@. c #D58C71",
"#. c #DB9074",
"$. c #E29577",
"%. c #E5997B",
"&. c #EA9A7B",
"*. c #304782",
"=. c #344E89",
"-. c #355F8F",
";. c #365A95",
":. c #345399",
">. c #35589D",
",. c #365C9E",
"<. c #2A6F86",
"1. c #3A6A83",
"2. c #3A7982",
"3. c #31738E",
"4. c #37629F",
"5. c #38689C",
"6. c #396E9E",
"7. c #3A7994",
"8. c #3D77A3",
"9. c #3A7CA1",
"0. c #555A8A",
"q. c #497484",
"w. c #40758F",
"e. c #567D94",
"r. c #686F82",
"t. c #767A89",
"y. c #777D8D",
"u. c #4D6AA5",
"i. c #8A7190",
"p. c #3D838D",
"a. c #3E829E",
"s. c #3D859F",
"d. c #3F8C99",
"f. c #3E8AA3",
"g. c #3D8EAB",
"h. c #458992",
"j. c #479293",
"k. c #4284A9",
"l. c #408BAB",
"z. c #4391A3",
"x. c #4397A3",
"c. c #489BA1",
"v. c #4D91A9",
"b. c #5B98A3",
"n. c #4797B4",
"m. c #479BB5",
"M. c #6B92AB",
"N. c #779AA3",
"B. c #47A1A2",
"V. c #4DADA9",
"C. c #46A4B0",
"Z. c #53AFBD",
"A. c #4DB5B3",
"S. c #51BBB1",
"D. c #68A2BA",
"F. c #55C3BA",
"G. c #489FC0",
"H. c #4CA4C4",
"J. c #57AACA",
"K. c #56BAC3",
"L. c #57B2D2",
"P. c #5BB5D6",
"I. c #59CEC1",
"U. c #5DDBCA",
"Y. c #7BD3C6",
"T. c #61E5D1",
"R. c #84828B",
"E. c #8F898A",
"W. c #808893",
"Q. c #948F90",
"!. c #85959F",
"~. c #9C9392",
"^. c #BF8780",
"/. c #A19C9C",
"(. c #969EA7",
"). c #829ABE",
"_. c #8DACB5",
"`. c #A7A2A3",
"'. c #ADA8A6",
"]. c #A6A5A9",
"[. c #AAAAAD",
"{. c #B1ABAB",
"}. c #ACAEB3",
"|. c #ADB2BB",
" X c #B1B0B0",
".X c #B1B1B0",
"XX c #B1B1B1",
"oX c #B2B2B2",
"OX c #B3B2B4",
"+X c #B3B3B4",
"@X c #B9B5B3",
"#X c #B7B7B8",
"$X c #BBBBBE",
"%X c #D69881",
"&X c #EB9E81",
"*X c #C7A59A",
"=X c #EBA386",
"-X c #EDA990",
";X c #F1AD90",
":X c #F4B295",
">X c #C2BEBD",
",X c #94A6C6",
"<X c #9DAAC8",
"1X c #88B8C8",
"2X c #92CBDF",
"3X c #93DDD0",
"4X c #B6C0CF",
"5X c #BAC5D5",
"6X c #AEDBEA",
"7X c #C4C2C3",
"8X c #C5C5C7",
"9X c #CAC8C6",
"0X c #CCCCCB",
"qX c #D1CFCC",
"wX c #C3CBD0",
"eX c #C9D0D6",
"rX c #D2D1D0",
"tX c #D3D4D2",
"yX c #D5D5D3",
"uX c #D9D7D5",
"iX c #D4D7DE",
"pX c #DEDCD9",
"aX c #E2E2DF",
"sX c #DDDFE1",
"dX c #E5E5E2",
"fX c #E8E7E4",
"gX c #E8E8EB",
"hX c #ECEBE8",
"jX c #EEEDE9",
"kX c #EEEEEA",
"lX c #EFEFEB",
"zX c #EFF0EB",
"xX c #F1F0EC",
"cX c #F0F1EC",
"vX c #F2F1ED",
"bX c #F1F2ED",
"nX c #F2F3ED",
"mX c #F3F2EE",
"MX c #F2F3EF",
"NX c #F4F3EF",
"BX c #F3F4EF",
"VX c #F0F1F3",
"CX c #F5F4F0",
"ZX c #F4F5F0",
"AX c #F5F5F1",
"SX c #F7F5F1",
"DX c #F5F6F1",
"FX c #F7F6F2",
"GX c #F7F7F2",
"HX c #FAF7F4",
"JX c #F7F8F4",
"KX c #F9FAF5",
"LX c #FBFBF6",
"PX c #FDFEF8",
"IX c #FEFFFF",
/* pixels */
"kXkXkXlXlXlXlXlXlXlXzXzXzXzXcXcXbXbXnXnXnXnXbXzXzXzXcXcXbXbXnXnXnXnXnXbXbXbXbXbXbXbXmXnXnXnXnXnXnXnX",
"cXcXcXbXbXbXbXbXbXbXbXnXnXnXnXBXBXZXZXDXDXDXZXnXbXnXnXBXZXZXZXDXDXDXDXZXZXBXBXZXZXZXZXZXDXDXDXDXDXDX",
"BXBXBXZXZXZXZXZXZXZXZXZXZXZXZXDXDXDXDXDXDXDXZXBXMXBXcX5X,XiXGXJXJXJXBX4X<XsXJXGXJXJXJXJXJXJXJXJXJXJX",
"ZXZXZXZXZXZXZXZXZXZXZXZXZXBXzXzXlX7Xy.y.y.y.y.y.y.t.t.e.k.M.).5XkX4X).u.u.eXKXJXJXJXJXJXJXJXJXJXJXJX",
"DXDXDXDXDXDXDXZXZXZXDXZXzX0Xt.r.r.0.l 3.c.B.B.j.2.z *.x.I.C.s.e.r.b.Z.8.u.wXBXDXJXJXJXJXJXJXJXJXJXJX",
"GXGXGXGXGXGXGXGXGXZXBXsXy.H *.*.*.=.>.6.k.C.T.T.U.n.4.Z.T.U.I.V.p.S.T.l.;.P y.wXDXDXZXJXKXKXKXKXKXKX",
"DXGXGXGXGXGXGXGXJX0Xt.T 7 r w.a.a.a.a.6.:.4.k.m.A.B.f.k.l.F.T.F.B.z.l.f.f.c.V.Y.3XN.R.yXLXKXKXKXKXKX",
"ZXZXDXDXDXDXDXBXjX[.q = 7 e f h h z 6.5.,.>.:.,.5.a.x.z y p.V.z.6.9.s.V.I.U.I.j.q.(.$XfXKXJXJXJXJXJX",
"DXDXDXGXGXGXJXrXT m 7 e *.=.=.-.7.h.d.f.s.8.>.>.:.,.4.:.*.l h 1.a.9.8.1.x z K !.#XfXPXKXJXJXKXKXKXKX",
"DXDXGXGXGXGXGX8Xq e *.=.,.6.f.x.B.B.x.9.5.4.>.:.:.:.,.>.,.m.F.c.9.m.K.F.S.c.p.L P $XfXMXJXKXKXKXKXKX",
"DXGXGXGXGXGXGX7Xt e =.;.7.d.x.c.x.s.6.4.,.>.:.*.y z d.5.;.Z.T.U.I.n.9.K.U.I.F.B.h.L r.rXKXKXKXKXKXKX",
"DXGXGXGXGXGXGX7Xq 7 e y r l -.5.6.9.z.d.a.1.r k p.d.d.k t 2.B.F.U.v.;.5.6.z L _.wXeXtXjXJXKXKXKXKXKX",
"DXDXDXDXDXDXDX>X& 7 *.=.*.*.:.4.7.s.z.x r m ( E h.x s b A b N L j.! ' H =.1.x j H 8XPXKXJXKXKXKXKXKX",
"ZXZXZXZXZXZXAX9XB m =.*.e y 0.H t g =.g q C ..( 0 : < 2 4 _ o.' b ] +.A 1 % ; s H 8XLXJXJXKXKXKXKXKX",
"BXBXBXBXBXBXBXlXdX].q = = u [ ] A v 9 C ^ ^ ~ Z 5 v v * X Z _ X.@...) v & . 1 `.aXBXJXJXJXKXKXKXKXKX",
"BXBXBXBXBXBXMXNXAX$XB i - = $ 4  .` ^ ) ` ..@.o.` O.*XF & A ` +.%.o.` F m # 1  XBXJXJXJXJXJXKXKXKXKX",
"NXNXNXNXNXNXMXmXmXhXaX7Xu O = = > 5 ) ..#.%.&X&X%.@.X.| i.^.$.=X:X=X%XC $ u U >XmXFXFXFXFXFXGXGXGXGX",
"NXNXNXNXNXNXmXmXmXmXAXuXc O = - < 5 ~ ..%.&X-X;X:X:X;X-X-X&X&.=X;X=X%X5 * @XhXxXAXAXAXAXAXAXFXFXFXFX",
"mXmXmXmXmXmXmXvXvXvXmXsXR.H 7 = = & , Z ` ..%.=X;X;X-X=X&.&.&.&.%.` 6 D Q rXFXCXCXCXCXAXAXAXAXFXFXFX",
"mXmXmXmXmXmXvXvXvXvXvXxXkXqXR.t.t.V .     , ) ..+.#.&.&.&.@.+..._ ' W 7XlXmXmXNXCXCXCXCXCXAXAXAXAXAX",
"vXvXvXvXvXvXvXxXxXxXxXxXxXvXvXpX{.Y . # 8 p N M 6 ^ ` ` ` ~ Z D Y @XkXmXNXmXvXmXNXNXNXCXCXCXCXAXAXAX",
"vXvXvXvXvXvXxXxXxXxXxXxXmXpX{.Q.Q S i s a k q.J j j j d 8 ; % I /.qXCXNXNXmXvXmXNXNXNXNXNXCXCXCXCXCX",
"xXxXxXxXxXxXxXlXlXlXxXaX`.} M } gXsX#XW.J k a h K K L M._.q.h 8 # I ~.rXMXmXvXmXmXmXmXNXNXNXNXCXCXCX",
"xXxXxXxXxXxXxXlXlXlXvXyXu c [.tXKXIXIX6XP.J.n.a.1.k a R E._.1XR .   @ '.mXmXvXmXmXmXmXNXNXNXNXCXCXCX",
"mXmXmXmXvXvXvXvXvXvXNXuXu M dXIXIXgXwX1Xm.m.m.H.P.H.l.z p ! /.U % + + '.mXmXmXmXNXNXNXNXNXNXCXCXAXAX",
"mXmXmXvXvXvXvXxXvXqXQ.} i V }.4X$XQ.n N k z 3.g.L.P.L.G.g.w.J d ; % ; U ~.uXNXNXNXNXNXNXNXCXCXAXAXAX",
"vXvXvXvXvXxXxXxXlX'.& @ b S G V m i - 8 w f <.g.L.P.P.P.L.G.g.k O ; i # : >XAXNXNXNXNXNXNXCXCXAXAXAX",
"vXvXvXxXxXlXxXqXQ B 2 4 .. .v < . % w w w f <.g.L.P.P.P.L.f.<.a O ; i # : >XAXNXNXNXNXNXNXCXCXAXAXAX",
"vXxXxXxXxXlXxX#X& 2  .o.$.X., @ . % w w w f <.g.L.P.P.P.J.z 8 : , 6 D > < >XDXNXNXNXNXNXNXCXCXAXAXAX",
"vXxXxXxXxXlXcX$X& 5 #.$.o./ o   . % i w w s h 1.g.G.L.P.J.f   > 4 A / , < $XvXmXNXNXNXNXNXCXCXAXAXAX",
"vXvXxXxXxXlXhX@X* 5 @.@.~ 4 X     + % % % ; 0 h <.7.g.H.J.f   X $ 6 / 5 2 B } 8XxXNXNXNXNXCXCXAXAXAX",
"vXvXvXxXmXuXQ F ` o.$.#._ Z 3 > X c R.Q R S 9 8 8 h <.3.7.0 . @ $ 2 6 A Z o 1 {.lXNXNXNXNXCXCXAXAXAX",
"vXvXvXvXNXrXM 2 ) ..$.%.#...5 , X S OXwXaXsXqX].Q V w 8 ; # . W >XU o 6 A 2 b @XxXZXZXZXZXAXDXDXDXDX",
"mXmXmXmXmXhXrX`.c Z +.#.#. .> X . S }.iXIXIXIXgXwX$X{.W.T : . E.hX| $ * v '.yXhXCXZXZXZXZXDXDXDXDXDX",
"NXNXNXNXNXNXSXfX7X~.D C C 4 X   . m W.$XVXJXIXgX8X|.(.W.r.9 . E.vXuX>X>X8XhXGXAXCXZXZXZXDXDXDXDXDXGX",
"CXCXCXCXCXCXNXNXSXfX0X9X9X/.*     ; n R W.[.gXVXVXsX8XQ 9 # . E.SXHXHXHXHXSXAXAXZXZXZXDXDXDXDXDXGXGX",
"CXCXCXCXCXCXCXCXCXCXFXFXLX>X:   + # % % % c t.[.sXgXgX}.} c $ | uXhXAXAXAXAXAXDXDXDXDXDXDXDXDXGXGXGX",
"CXCXCXCXCXCXCXCXCXCXCXkXqX/.* # 9 w w ; # + + : n ! (.} I ( _ ~ C {.AXAXAXAXAXDXDXDXDXDXDXGXGXGXGXGX",
"NXNXNXNXNXNXCXCXCXAXJXpXM & & & & : w 0 0 9 1 & . : M { #.$.$.^ $ /.FXAXAXAXAXDXDXDXDXDXGXGXGXGXGXGX",
"NXNXNXNXNXNXNXCXAXfXqXoX9 @ < < $ + . & u U 7XQ.u < 3  .&.@.+.A $ Q.fXvXAXAXAXFXGXDXDXGXGXGXGXGXGXJX",
"NXNXCXCXAXAXCXvXfX'.u & q t t ; O $ u Y /.[.#X X].I $ / +.~ 3 > @ W #XuXdXdXdXdXfXnXJXJXJXGXGXGXGXGX",
"CXCXAXNXfXaXaXuX$X| @ + n P e.J # B ].{.oXoX X.XOXU @ 6 ) 2     @ Y XX+X#X#X#X#X#XyXaXaXdXBXJXGXGXGX",
"CXNXdXuX>XoX+XoXXXQ.B c @ : E S + B  XoXXXXXXXXXoXU @ 4 D 1 # + + W OXoXXXXXXXXXXXoX+XoX#XuXdXBXGXGX",
"NXvX9XoXXXXXXXXXXX X X/.B c c c c E  XXXXXXXXXoXoXU @ s J J J d 8 G E.`.XXXXXXXXXXXXXXXXXXXX7XzXJXGX",
"NXmXuX8X#X X X XXXXXXX X[.[.[.[.[.}.XXXXXXXXXXXX.XU # K D.1X2X1XN.N # }  XXXoXXX X X X X+X8XyXnXJXJX",
"CXCXNXkXyX0X0X8X+X XXX XXXXXXXXXXXXXXXXXXXXXXXXXoXR.B V G E.`.`./.W B Q. XXXXX XOX7X0X0XrXlXDXGXGXGX",
"mXmXmXNXmXmXmXhXtXqXrXrXrX9X@X XXXXXXXXXXXXXXX XXX.X[.R.I I I I U Q. X8XrXrXrXrXtXhXZXBXZXDXDXDXDXDX",
"xXxXxXxXxXxXcXcXbXbXbXbXbXhXuXtXtXtXtXtXtXtXtXtXtXtXtXyXyXyXyXyXyXyXyXhXBXBXBXBXZXBXBXBXBXBXBXZXZXZX",
"kXkXkXkXkXkXlXzXzXzXzXzXzXcXcXcXcXbXbXbXbXbXbXbXbXbXbXbXbXnXnXnXnXBXBXBXBXBXnXnXnXnXnXnXnXnXnXnXBXBX",
"hXhXjXjXjXjXkXkXkXkXlXlXlXlXlXlXzXzXzXzXzXzXzXzXzXzXzXzXcXcXcXcXcXbXbXbXbXbXbXbXcXcXcXcXcXbXbXbXbXbX"
};
