/* XPM */
static char *out[] = {
/* columns rows colors chars-per-pixel */
"50 50 253 2 ",
"   c #28191D",
".  c #291B1F",
"X  c #2B1F23",
"o  c #261D2C",
"O  c #251F35",
"+  c #2B2228",
"@  c #2E272D",
"#  c #362120",
"$  c #352526",
"%  c #3F2625",
"&  c #33272D",
"*  c #292B34",
"=  c #25213E",
"-  c #352D32",
";  c #2C313A",
":  c #383238",
">  c #492C29",
",  c #56352F",
"<  c #413435",
"1  c #41383F",
"2  c #673F34",
"3  c #68433C",
"4  c #72493E",
"5  c #242244",
"6  c #242247",
"7  c #25264B",
"8  c #333843",
"9  c #3B3E49",
"0  c #252752",
"q  c #262B56",
"w  c #293054",
"e  c #393D5D",
"r  c #2A3061",
"t  c #2A3565",
"y  c #2D366B",
"u  c #2F3C79",
"i  c #433C41",
"p  c #4B3D41",
"a  c #39444F",
"s  c #274155",
"d  c #374A55",
"f  c #314E5F",
"g  c #2E536A",
"h  c #30596E",
"j  c #2F447E",
"k  c #3F4E7A",
"l  c #385F74",
"z  c #35667B",
"x  c #4E4345",
"c  c #47434C",
"v  c #53494D",
"b  c #504E55",
"n  c #5A4F51",
"m  c #52545C",
"M  c #654843",
"N  c #7F5345",
"B  c #685854",
"V  c #635A5A",
"C  c #795957",
"Z  c #404569",
"A  c #42576A",
"S  c #595962",
"D  c #4E5F76",
"F  c #515372",
"G  c #605D67",
"H  c #426377",
"J  c #5C6176",
"K  c #706566",
"L  c #646672",
"P  c #746C70",
"I  c #797173",
"U  c #7C777A",
"Y  c #86584A",
"T  c #8D6051",
"R  c #9D6752",
"E  c #AC725C",
"W  c #B8795F",
"Q  c #836661",
"!  c #9F7364",
"~  c #8C7475",
"^  c #877D7E",
"/  c #C9886C",
"(  c #D58F70",
")  c #E69878",
"_  c #324283",
"`  c #364D8B",
"'  c #355688",
"]  c #374991",
"[  c #384D97",
"{  c #375A95",
"}  c #37529E",
"|  c #39579F",
" . c #385A9D",
".. c #395D9E",
"X. c #376E87",
"o. c #3D738C",
"O. c #396791",
"+. c #39619D",
"@. c #386A9D",
"#. c #2B7A96",
"$. c #3B7A94",
"%. c #3A709D",
"&. c #337E9B",
"*. c #3A66A0",
"=. c #3D6EA2",
"-. c #3E73A2",
";. c #3D77A0",
":. c #3F7CA4",
">. c #4C5687",
",. c #465C9F",
"<. c #476880",
"1. c #467F97",
"2. c #487993",
"3. c #637587",
"4. c #6F7786",
"5. c #717082",
"6. c #777C8D",
"7. c #797F8E",
"8. c #606D99",
"9. c #467FA3",
"0. c #5875A9",
"q. c #657DA8",
"w. c #3484A3",
"e. c #3988A8",
"r. c #408893",
"t. c #5B899D",
"y. c #4083A1",
"u. c #4387A3",
"i. c #408EA2",
"p. c #428AA5",
"a. c #5082A4",
"s. c #508DAD",
"d. c #4292A5",
"f. c #4295A5",
"g. c #409EA1",
"h. c #4399A5",
"j. c #449DA9",
"k. c #4993B1",
"l. c #599CBB",
"z. c #7B96A5",
"x. c #6880B3",
"c. c #768AB7",
"v. c #42A7A8",
"b. c #45A4AA",
"n. c #45ABA9",
"m. c #48AEAD",
"M. c #44B2AB",
"N. c #47B3AD",
"B. c #4EACBB",
"V. c #4AB2B4",
"C. c #49BAB0",
"Z. c #4FC0B9",
"A. c #55CABF",
"S. c #4B9EC1",
"D. c #4FA3C6",
"F. c #52A6CA",
"G. c #55AACF",
"H. c #53BBC0",
"J. c #57ADD3",
"K. c #58AFD6",
"L. c #59B0D7",
"P. c #5AB2D6",
"I. c #59B1D8",
"U. c #59B2D8",
"Y. c #5AB3DA",
"T. c #57D1C1",
"R. c #57D5C4",
"E. c #5AD9C7",
"W. c #5ADFC8",
"Q. c #5AE2CA",
"!. c #5CE6CD",
"~. c #868283",
"^. c #89878A",
"/. c #8F8889",
"(. c #948C8B",
"). c #808392",
"_. c #8F939E",
"`. c #919094",
"'. c #9E9696",
"]. c #A09D9E",
"[. c #8A9EB6",
"{. c #8397BA",
"}. c #8B95B8",
"|. c #98A7B1",
" X c #92ADBA",
".X c #A3A0A4",
"XX c #ABA5A5",
"oX c #ADAAAA",
"OX c #BBACA6",
"+X c #A9AEB7",
"@X c gray69",
"#X c #B1B1B1",
"$X c gray70",
"%X c #B6B6B7",
"&X c #B8B3B1",
"*X c #B1B3BC",
"=X c #BCBAB9",
"-X c #BDBDBC",
";X c #C0C0BE",
":X c #A4B3C9",
">X c #BABAC1",
",X c #B8BFC5",
"<X c #BAC3CD",
"1X c #C2C2C1",
"2X c #C8C7C5",
"3X c #CBCBCA",
"4X c #CFCECD",
"5X c #D3D0CF",
"6X c #C6CFD7",
"7X c #C7D5DF",
"8X c #D5D3D1",
"9X c gray84",
"0X c #DCDCDB",
"qX c #E1E0DD",
"wX c #D4DAE1",
"eX c #D3DFE5",
"rX c #DFE3E6",
"tX c #E5E4E1",
"yX c #E7E7E6",
"uX c #E9E9E5",
"iX c #ECEBE7",
"pX c #ECECE8",
"aX c #EDEDE8",
"sX c #EEEEEA",
"dX c #EEEFEA",
"fX c #F0EFEC",
"gX c #EFF1EC",
"hX c #F1F0ED",
"jX c #F2F1ED",
"kX c #F1F2ED",
"lX c #F3F2EE",
"zX c #F2F3EE",
"xX c #F5F3EF",
"cX c #F1F2F0",
"vX c #F2F3F0",
"bX c #F3F4F0",
"nX c #F3F5F0",
"mX c #F4F4F0",
"MX c #F5F4F0",
"NX c #F4F5F0",
"BX c #F7F4F1",
"VX c #F6F5F1",
"CX c #F4F6F1",
"ZX c #F5F6F1",
"AX c #F7F6F2",
"SX c #F6F7F2",
"DX c #F7F7F4",
"FX c #F4F5F6",
"GX c #F8F8F4",
"HX c #F9F9F5",
"JX c #F9FBF6",
"KX c #FBFCFB",
"LX c white",
/* pixels */
"sXsXdXdXdXdXdXdXdXdXdXdXdXgXgXkXkXkXzXzXzXzXkXdXdXgXgXgXkXkXzXzXzXzXzXkXkXkXkXkXkXzXkXzXzXzXzXzXzXzX",
"gXgXkXkXkXkXkXkXkXkXkXzXzXzXzXbXbXnXnXCXCXCXnXzXdXdXbXbXgXzXCXCXCXCXCXCXnXbXbXbXNXNXNXNXNXZXZXZXZXZX",
"bXbXbXNXNXnXnXnXnXnXnXnXnXnXnXCXCXSXSXSXcXgXgX0X6.7.qXeX{.:XrXbXGXGXgXsXCXSXSXSXSXGXGXGXGXGXGXGXGXGX",
"NXNXNXNXNXNXnXnXnXnXnXbXgXgXCXCXcXgXhXwXc.x.x.8.w w F <.u.u.0.}.yX9X6.6.gXGXSXSXGXGXGXGXGXGXGXGXGXGX",
"ZXZXZXZXZXZXNXnXnXnXSXwXc.[.rX7X{.c.c.s.d.j.H.V.r.o.' o.A.n.l Z J >._ 8.vXHXGXGXGXGXGXGXGXGXGXGXHXHX",
"SXSXSXSXSXSXSXSXSXCXdX<X,.| 0.a.d.f.i.v.E.Q.!.T.b.h.f.n.W.W.T.m.{ ] } q.rXbXJXJXHXHXHXHXHXHXHXHXHXHX",
"SXSXSXSXSXSXSXSXGXqX5.k [ ..y.b.R.R.M.C.E.E.C.f.*.@.u.h.n.Z.R.Z.+.+.y.y.D _.0XyXHXHXHXHXHXHXHXHXHXHX",
"NXZXZXZXZXZXZXSXHX9XZ r { =.b.C.E.W.Q.T.M.n.n.f.*. . .@.f.v.N.b.@.-.j.j.O.k e 5.kXJXHXHXHXHXHXHXHXHX",
"ZXZXSXSXSXSXHXdX8X*XZ g h.V.E.R.m.N.R.A.h.j.R.T.m.h.%.;.b.Z.E.T.j.n.R.E.m.$.w F 3XtXGXHXHXHXHXHXHXHX",
"ZXZXSXSXSXgX0X+XA k ` :.E.!.W.A.v.g.f.u.%.:.A.Q.!.E.n.m.W.!.W.A.h.b.A.W.!.H.O.' e 6.bXHXHXHXHXHXHXHX",
"SXSXSXSXGXqX`.3.X.O.} :.A.A.j.p.p.:...@.i.f.d.j.H.H.f.j.T.A.M.f.+.=.f.n.H.B.u.X.w 5.SXJXHXHXHXHXHXHX",
"SXSXSXSXSXZXjX%Xw t { -.u.:. . .@.*.} @.d.d.+. .=.=. .@.h.g.p.;.| ..;.y.;.*.| [ y J *X2XcXHXHXHXHXHX",
"ZXZXZXZXZXZXHX>X7 s r.y.{ | *.;.f.p. .@.f.d...*.d.d.;.%.9.-...| *.*. .+.p.p.%.+.j >.)..XpXHXHXHXHXHX",
"NXNXNXNXCXiX;X'.C G 2.-.} +.d.g.g.i. ...:.;.| *.f.g.g.u. . .*.;.f.u.+...d.f.y.2.G ~ &X2XlXHXHXHXHXHX",
"bXbXbXbXZX8XC 4 T K >.} }  .;.p.h.i.{ ] _ _ [ ..;.y.h.u. .*.i.f.y.=. .| -.O.j Z C Y 3 Q qXJXHXHXHXHX",
"bXbXbXbXNXtXXXP . o w u [ [ u ` ;.-.| _ 0 0 y _ [ | -.=.| ..-.%.j _ [ [ _ t 7 =   p (.OXsXHXHXHXHXHX",
"xXxXxXxXxXxXMX0X'.I - 7 ` _ 0 q u _ [ _ 0 6 6 r ] } } } } ] _ y 0 r ] ] q 5 O 1 ^ &XlXAXAXAXAXSXSXDX",
"xXxXxXxXxXxXlXxXZXuX&X^.e q 6 5 6 q ] _ 0 6 6 0 t y y u [ _ q 5 6 0 r r O v ].=XlXDXVXVXVXVXAXAXAXAX",
"lXlXlXlXlXlXjXjXjXlXSX2X< X = 6 6 0 y r 7 6 6 6 5 5 6 0 y r 7 6 6 5 5 = X I fXSXMXMXMXMXVXVXVXVXAXAX",
"lXlXlXlXlXlXjXjXjXjXlXtX=XoXc O = 5 6 6 6 6 6 6 6 6 6 6 6 5 5 6 6 = o c oX4XhXxXMXMXMXMXMXMXVXVXVXVX",
"jXjXjXjXjXjXhXhXhXhXhXhXjXiXV   o o o O = 5 6 6 6 6 6 5 5 = O o o o . < U @XsXlXxXxXxXxXMXMXMXMXVXVX",
"jXjXjXjXjXjXhXhXhXhXlX8XI P P b +     . o O 7 7 7 7 7 5 O o . . . - m m + P iXlXxXxXxXxXxXxXMXMXMXMX",
"hXhXhXhXhXhXfXfXfXfXaX=X- 1 _.z.l f 8 d o.2.9.9.9.9.9.1.2.H a 9 G ).,X<X5.L P (.yXxXlXlXxXxXxXxXMXMX",
"hXhXhXhXhXhXfXfXhXqXU G L ^.0XwX Xz.X.z H <.&.w.w.w.w.$.z H z 1.6XyXJXcX*XU . v tXxXlXlXxXxXxXxXMXMX",
"lXlXlXjXjXjXjXjXlX5Xi n 5XyXKXKXfX7X1.&.s.s.&.#.#.#.#.&.s.p.&.u.:X6XpXpX>X~.& V 0XiXxXxXxXxXMXMXVXVX",
"lXlXjXjXjXjXhXhXxX5Xp V hXLXLXKXKXeX1.w.G.L.F.F.F.F.F.G.U.K.G.S.1.t.|.+X`.6.L G n /.fXxXxXxXMXMXVXVX",
"jXjXjXjXhXhXhXiXqX=X< V hXLXDXrX,X X$.w.G.U.I.K.G.G.L.U.U.J.G.k.g a i c L G p < . K sXxXxXxXMXMXVXVX",
"jXjXhXhXfXfXjX-Xx < # V 9X0X,X[.2.o.#.e.G.U.I.D.&.w.F.I.I.S.w.X.f 8 +   $ , N 4 # K sXxXxXxXMXMXVXVX",
"hXhXhXhXfXfXjX&XX % Y Y M n P L d h l.G.K.P.I.S.#.#.D.P.I.D.e.#.X.g * X , 4 T N % K sXxXxXxXMXMXVXVX",
"hXhXhXhXfXfXlX&XX , / / R Y % * a l D.Y.U.P.I.S.#.#.D.U.I.K.J.S.#.h * # 4 Y R N # K sXxXxXxXMXMXVXVX",
"jXjXhXhXhXhXxX&XX , / ) ) W % ; o.e.G.I.L.L.I.D.w.e.F.I.I.I.I.F.e.l ; # , 3 N N B (.fXxXxXxXMXMXVXVX",
"jXjXhXhXhXhXxX&XX , / ) ( E > a k.D.K.I.L.P.U.L.J.J.L.I.L.I.I.P.K.a.8 . > >   n 0XhXxXxXxXxXMXMXVXVX",
"jXjXjXjXjXjXxX&XX , / ( W E Y B h X.F.Y.P.P.I.I.I.I.I.I.P.U.Y.G.s.H ;     < K /.uXVXNXNXNXNXVXZXZXZX",
"lXlXlXlXlXlXBX&XX > E ( ) ) ) E $ * H 1.k.S.K.Y.Y.Y.Y.J.S.p.2.l * X @ @ . K uXMXMXMXNXNXNXNXZXZXZXZX",
"xXxXxXxXxXxXBX5XU K 4 Y / / / R # . @ ; f h o.2.2.2.2.X.g s ; - 1 9 a 9 X K iXVXMXMXNXNXZXZXZXZXZXZX",
"MXMXMXMXMXxXxXxXxXtX.X^ M 2 2 , . + 9 9 ; @ X . . . . @ c b S J 4.L 9 c /.&XjXVXNXNXNXNXZXZXZXZXSXSX",
"MXMXMXMXMXMXMXMXMXBXGXqX`.~./.I $ + 9 a a 9 ; @ . X i m 4.6.6.7.7.J - v iXGXVXVXZXZXZXZXZXZXZXZXSXSX",
"MXMXMXMXMXMXMXMXMXMXMXVXAXAXGX2X< . : 8 a a a 8 . - ].<X<X*X.X_.7.J - x yXAXVXVXZXZXZXZXZXZXSXSXSXSX",
"xXxXxXxXxXxXMXMXMXMXMXMXMXMXVXtXXX(.1 + : : : -   : @XrXKXFXrX>XS G ^.oXhXVXVXVXZXZXZXZXSXSXSXSXSXSX",
"xXxXxXxXxXxXMXMXMXMXMXMXMXMXMXVXGXuXx # 3 3 $ . . & U +XFXLXLX4X< V 5XHXMXMXMXVXZXZXZXZXSXSXSXSXSXSX",
"xXxXMXMXMXMXxXlXlXlXxXxXxXxXxXxXVXqXp % 4 3 # v .X].S S `._._.U & V 4XSXMXMXMXVXZXZXSXSXSXSXSXSXSXSX",
"MXMXVXVXVXMXmXxXxXxXmXmXMXlX9X3X4X@X: + i i X n 2X1Xp > ! ! T M # v oX0XMXZXAXZXZXZXZXZXZXZXSXSXSXSX",
"MXMXMXMXxXxXzXpX8X4X4X4X4X3X%X@X@X`.: : S D f d b v $ , ( W 4 x P ^..X%X4X4X4X4X4XqXNXNXNXNXZXSXSXSX",
"xXxXMXiX3X2X2X1X#X@X@X@X@X@X#X#X#XoX`.I p 8 8 * X .   > R N % 1 .X$X#X#X@X@X@X@X@X=X2X2X2X9XZXSXSXSX",
"MXaX8X2X$X@X@X@X#X#X#X#X#X#X#X#X#X#X$XXX^.~.~.~.~.U - & b b a m '.oX@X#X#X#X#X#X#X#X@X@X@X%X3X9XzXGX",
"MXiX1X%X#X@X@X#X#X#X#X#X#X#X#X#X#X@X#X#X$X$X$X$X%X].1 8 t.l.l.t.c V '.$X#X#X#X#X#X#X@X@X@X#X%X2XgXSX",
"lXjXpXqX;X=X-X=X#X@X@X@X@X@X#X#X#X#X#X#X#X#X#X#X$X].x 9 3.[.<X+X1 v `.#X#X@X@X@X@X%X-X=X=X3XuXsXNXZX",
"hXhXjXhXiXiXpXtX1X-X-X-X;X;X$X@X@X@X@X@X@X@X@X@X#XoX].^ x x n K (.].oX$X-X-X-X-X-X5XaXaXaXgXNXNXNXNX",
"sXsXsXsXfXdXdXdXuXuXuXuXpXuX2X-X;X;X;X;X;X;X;X;X;X;X1X=XoXXXXXoX;X1X;X3XiXpXpXpXpXdXzXzXzXzXzXzXbXbX",
"pXaXaXaXaXaXsXsXdXdXdXdXdXdXaXiXpXaXaXaXaXaXaXpXpXaXaXaXdXdXdXdXsXsXsXdXzXzXzXzXkXkXgXgXgXkXkXkXkXkX"
};
