/* XPM */
static char *out[] = {
/* columns rows colors chars-per-pixel */
"50 50 238 2 ",
"   c None",
".  c #1D151B",
"X  c #1E1B1D",
"o  c #24151A",
"O  c #2B141B",
"+  c #261A1C",
"@  c #2D1B1C",
"#  c #291513",
"$  c #321818",
"%  c #291213",
"&  c #3F261F",
"*  c #2C201F",
"=  c #1C1924",
"-  c #1D1D3F",
";  c #241B23",
":  c #2C1B23",
">  c #261A29",
",  c #371E21",
"<  c #271E35",
"1  c #1E2A3C",
"2  c #2B242C",
"3  c #272226",
"4  c #372629",
"5  c #282638",
"6  c #342D36",
"7  c #382B36",
"8  c #2A333D",
"9  c #34333B",
"0  c #3B363A",
"q  c #472826",
"w  c #532B29",
"e  c #59332A",
"r  c #462A38",
"t  c #463739",
"y  c #523532",
"u  c #593934",
"i  c #64392C",
"p  c #653C35",
"a  c #451E18",
"s  c #6B433C",
"d  c #77463B",
"f  c #1D1E4A",
"g  c #201D44",
"h  c #1E2349",
"j  c #1D3949",
"k  c #1C2953",
"l  c #24244B",
"z  c #252C4B",
"x  c #262845",
"c  c #283846",
"v  c #333A45",
"b  c #393B48",
"n  c #212855",
"m  c #263756",
"M  c #302C44",
"N  c #1E356F",
"B  c #262D68",
"V  c #263768",
"C  c #263A72",
"Z  c #3B3A68",
"A  c #453B45",
"S  c #523A4D",
"D  c #3A414C",
"F  c #274856",
"G  c #374755",
"H  c #2A424F",
"J  c #1E4D76",
"K  c #2A5669",
"L  c #37586B",
"P  c #254577",
"I  c #295776",
"U  c #314B73",
"Y  c #2A637A",
"T  c #386A7C",
"R  c #3C606E",
"E  c #1A4153",
"W  c #4A4248",
"Q  c #564848",
"!  c #4A4955",
"~  c #574D54",
"^  c #565156",
"/  c #694946",
"(  c #754B45",
")  c #7C534B",
"_  c #665759",
"`  c #6D5150",
"'  c #4A5765",
"]  c #5A5763",
"[  c #4C4C67",
"{  c #695B62",
"}  c #426B7A",
"|  c #516F76",
" . c #696467",
".. c #7A6869",
"X. c #767377",
"o. c #6F6E72",
"O. c #844C3D",
"+. c #895748",
"@. c #975C4C",
"#. c #895956",
"$. c #946253",
"%. c #A2674E",
"&. c #A76B58",
"*. c #B9765B",
"=. c #B16E54",
"-. c #84787A",
";. c #997170",
":. c #AA7767",
">. c #B97A67",
",. c #C47D5F",
"<. c #C17B61",
"1. c #89817F",
"2. c #BC8271",
"3. c #C4846C",
"4. c #CD876A",
"5. c #C68A79",
"6. c #DB9474",
"7. c #D99577",
"8. c #D18D71",
"9. c #E49B7A",
"0. c #EB9C7A",
"q. c #E99977",
"w. c #E8966E",
"e. c #264587",
"r. c #2C5B8A",
"t. c #34538F",
"y. c #2B549D",
"u. c #2B5596",
"i. c #32569C",
"p. c #334B92",
"a. c #2B6586",
"s. c #356B87",
"d. c #297688",
"f. c #397488",
"g. c #276594",
"h. c #367999",
"j. c #33709D",
"k. c #2D52A4",
"l. c #3353A3",
"z. c #2D4EA9",
"x. c #2C66A3",
"c. c #3263A3",
"v. c #376CA6",
"b. c #357BA4",
"n. c #3777A5",
"m. c #2F74A4",
"M. c #46788B",
"N. c #46689D",
"B. c #45799B",
"V. c #527A8C",
"C. c #767A84",
"Z. c #696291",
"A. c #405FA4",
"S. c #476AA5",
"D. c #4176A0",
"F. c #475786",
"G. c #847D84",
"H. c #957180",
"J. c #2C829E",
"K. c #3B8697",
"L. c #37848A",
"P. c #3B84A4",
"I. c #3686A6",
"U. c #3C97A7",
"Y. c #3E92B5",
"T. c #3186A8",
"R. c #3FA1A7",
"E. c #49869C",
"W. c #459698",
"Q. c #4D8497",
"!. c #638D9E",
"~. c #758597",
"^. c #718A93",
"/. c #469AA9",
"(. c #5697AA",
"). c #4799B6",
"_. c #5292AA",
"`. c #45A3A7",
"'. c #46A6BA",
"]. c #4AB7B7",
"[. c #59B0BA",
"{. c #6DBAB6",
"}. c #57C2BE",
"|. c #4CCABC",
" X c #57A6C5",
".X c #52B7C6",
"XX c #4DAFD2",
"oX c #4D9CC0",
"OX c #4EC8C0",
"+X c #57C6C4",
"@X c #58D6CA",
"#X c #5DDED5",
"$X c #63D7DB",
"%X c #6ED6C9",
"&X c #5EE6D4",
"*X c #65E5D9",
"=X c #61E9CD",
"-X c #8A8586",
";X c #948988",
":X c #878B9C",
">X c #9B9E9A",
",X c #999496",
"<X c #908F94",
"1X c #A29C9E",
"2X c #A6A29E",
"3X c #9A9DA3",
"4X c #8F9BA4",
"5X c #A69FA1",
"6X c #9EA2A6",
"7X c #ABABAB",
"8X c #A8A7A7",
"9X c #B3ADAC",
"0X c #AEB3AF",
"qX c #B2B3AF",
"wX c #AEABB2",
"eX c #B5ADB4",
"rX c #AEB4B2",
"tX c #B3B3B3",
"yX c #B5B4B9",
"uX c #BBBBBB",
"iX c #B9B8B6",
"pX c #E99D81",
"aX c #EAA384",
"sX c #F3AB88",
"dX c #F6B192",
"fX c #EFB092",
"gX c #CCA191",
"hX c #B9BCC4",
"jX c #81B7C5",
"kX c #B7C7CF",
"lX c #A5DAE4",
"zX c #C7C7C8",
"xX c #D9D9DB",
"cX c #CDCFD4",
"vX c #E8E8EB",
"bX c #F9F8F9",
"nX c #F1F0F0",
"mX c #DDDCE9",
/* pixels */
"                          B.S.            S.N.                                                      ",
"                          N.l.S.B.    S.D.P.s.m l z z z z z z z                                     ",
"                          S.l.)./.K R B./..XU.J e.Y f.W.W.E.s.P C n l z                             ",
"                        V i.b.$X+Xd.L.}.@X*X.Xg.I.+X@X=X+X).n.y.e.C C V V l                         ",
"                F {.%XW.L.J.b.).`.`.R.&X&XR.).b.U.|.].).D.k.m.n.b.b.h.h.P f l                       ",
"                F Q.W.@X=X|..XI.h.h.U.|.`.J r./.U.J.x.k.z.z.v.n.s.Y T I m f f x                     ",
"                    F L.K.K.E.b.b.h.j.Y I N e.b.v.k.k.l.l.n.h.j.a.I P N C B h f z                   ",
"                    F K K f.h./.Y.I.h.f.j.u.y.y.l.l.k.y.v.b.U.`.R.R.I.n.i.u.e.C n l                 ",
"                  K Y `.|.&X#X.XoXY.].*X.Xx.i.v.r.C e.k.k.y.x.I.U.U.`./.I.m.c.t.B l                 ",
"                F M.(.`./.].'.g.T.$X#X@XR.I a.).K.I U P t.v.m.m.b.P.P.K.h.s.e.C n x                 ",
"                      L e.r.p.F.M.+X].T R G G F.L.E.T D ' s.K.U.I.n.l.p.C N B B l <                 ",
"                  x z L t.[ ] ;.-.| } [ ` ) s M F M.o.1.` 5 I P.h.f.g.y.e.e.p.p.x =                 ",
"                  5 5 ; ; q i <.>.( ) 2.&.w w r q r ( :.#.A Z C m M [ Z.Z n B P z ;                 ",
"                      : O 7 S #.=.8.4.%.d O , / / p p +.+.#./ A S +.&.;.S g g x                     ",
"                      @ > S { $.3.9.7.*.#.r { gXgX=.,.9.,.=.%.@.&.:.p : < < 3 3                     ",
"                      ; O : r gX9.dXsX7.gXH.;.:.3.q.pXaXw.q.<.@.p 4 < < > >                         ",
"                          * q 5.aXfXsX9.0.fXfXfXfXfXdXsX0.0.2.O.p S 7 < = >                         ",
"                          * & +.%.9.0.0.q.0.aXfXdXdXsX0.6.4.$.i r < g f l l                         ",
"                              4 i 3.8.6.9.q.0.0.9.7.8.5.+.a $ + 5 5 z z                             ",
"                                  q s +.%.4.4.4.*.@.( t 5 3 = + 6                                   ",
"                                      4 4 9 0 0 0 9 ' Q.f.K 8 X 4                                   ",
"                                      D F T M.E.E.Q.T H v b 6 3 A                                   ",
"                                  2 v } !.kX4XD M M ! o.6XxX8XC.^ 2                                 ",
"                                  + W kX0X^ W D c v ^.xXnXbXnXmX-.@                                 ",
"                                  o : ! ! v } (._.T ^.kXmXbXbXbX1.$                                 ",
"                                  o c V.B.r.!.lXlX(.(.!.hXbXmXhXo.* t                               ",
"                                  X m [.E.E K !.M.H 0 9 ] >XC. ._ ( u *                             ",
"                                  = c f.K.E.s.j 1 8 2 = c ^ ^ ) +.@.e #                             ",
"                                    c c K  X X).E.E.d.K E 3 p @.*.3.s #                             ",
"                                      X H  XXXXXXXT.J.d.F o d 4.6.9.O.#                             ",
"                                      o H  XXXT.J.d.Y K 8 # +.7.w.7.d $                             ",
"                                      X c J.T.d.Y K H 5 4 w @.9.4.:.s @                             ",
"                                      @ ; c m j 8 2 4 q d &.4.pX@.e u ^ ! 2                         ",
"                                      : 2 ! ~ ! 9 o q ( =.6.0.9.O.$ ^ C.A :                         ",
"                                      2 9 C.4XhXrX,X#.u +.3.*.>.d # ! ^.A :                         ",
"                                    7 7 b ' ~.hXcXxX7Xo.` u i u & + ] :X! :                         ",
"                                  3 3 b D G ! ! ^ o.X.~. .! ^ { ..-.>X7X^ O                         ",
"                                  ; 3 b G G v 5 > . > 6 G  .4XcXnXbXvXcX{ +                         ",
"                                  : ; 9 v 9 b A 6 o t ..^ 7 <XnXnXnXcX8X^ o                         ",
"                                  3 $ t u y r 7 2 o X.nX,X; ^ 8X6X6X1...y #                         ",
"                                -X_ / ) +.) p % . . ..xX2X~ W 9 ^ #.:.2.s @                         ",
"                            zXyX9X9X;Xu w e q % : W X.wXqX7X .# s :.@.d & * ^                       ",
"                  uXtXtXyXyXyXrXwXiX-X4 $ e q % Q 8XwXyXeXeX-.W y e * O + 3 ^ -X8XiXzX              ",
"        cXzXtXtXiXtXtXrXwXrXtXtX8X<Xo.> , A r % Q 7XtXtXtXrXrX8X_ o # X 8 G 1 2 G.tXiXtXyXuXzX      ",
"      uXiXtXtXrXrXtXtXtXtXqX8X,XX.5 - x z m 5 ; ^ 8XqXqXeXqXqXrX{ + 2 j I Y j 3 G.eXtXtXqXtXtXuX    ",
"      zXiXiXtXtXtXtXtXtXqXqX,X7 2 b L V.h.f.G = ~ 7XtXeXeXtXtX9X_ X | jX_.f.8 X -.qXtXtXtXtXuXuX    ",
"          uXyXiXyXyXtXtXtXqX,XW W G.<X:X~.| ^ b { 0XtXtXwXtXrXeXo.0 ;XkX:X .! t ;XtXiXyXyXuX        ",
"                  uXyXyXiXiXqX8X;X~ t S A t _ 1X7X0X0X0XqXtXtXtX0X2X..W 0 6 ..8XwXuX                ",
"                              tX0X>X>X>X>X>X8XtXtXyXqXtXtXtXtXqXqXqX6XG.                            ",
"                                                                                                    "
};
