/* XPM */
static char *out[] = {
/* columns rows colors chars-per-pixel */
"50 50 237 2 ",
"   c None",
".  c #1D151A",
"X  c #2B130F",
"o  c #290E14",
"O  c #251214",
"+  c #24141A",
"@  c #29131A",
"#  c #291819",
"$  c #331A1B",
"%  c #341A17",
"&  c #33221E",
"*  c #1A1825",
"=  c #1E1D3B",
"-  c #2B1D23",
";  c #251A28",
":  c #301C2E",
">  c #1C2327",
",  c #1D2B37",
"<  c #2C232B",
"1  c #2C2628",
"2  c #332324",
"3  c #362729",
"4  c #272637",
"5  c #393238",
"6  c #2D3039",
"7  c #42241B",
"8  c #452828",
"9  c #492B34",
"0  c #4D3233",
"q  c #423B3D",
"w  c #483738",
"e  c #5A3936",
"r  c #522F2D",
"t  c #633C36",
"y  c #65382E",
"u  c #5C4034",
"i  c #6C443A",
"p  c #76463A",
"a  c #221C46",
"s  c #1B2655",
"d  c #1B324E",
"f  c #242547",
"g  c #273948",
"h  c #373847",
"j  c #252A53",
"k  c #2A3659",
"l  c #363A57",
"z  c #382D49",
"x  c #1A3669",
"c  c #243966",
"v  c #28336F",
"b  c #443A44",
"n  c #523C50",
"m  c #1D4757",
"M  c #29434D",
"N  c #27485A",
"B  c #374656",
"V  c #25515F",
"C  c #3F505A",
"Z  c #1F4261",
"A  c #1C5473",
"S  c #2A4B63",
"D  c #264B66",
"F  c #2A5568",
"G  c #375669",
"H  c #275876",
"J  c #345876",
"K  c #2C4B75",
"L  c #386376",
"P  c #326777",
"I  c #4A4448",
"U  c #5C4D4D",
"Y  c #574A4E",
"T  c #494A56",
"R  c #574C54",
"E  c #49555C",
"W  c #5C545A",
"Q  c #595357",
"!  c #5C514F",
"~  c #664947",
"^  c #734845",
"/  c #79554B",
"(  c #655859",
")  c #745454",
"_  c #654B57",
"`  c #6C615D",
"'  c #435A69",
"]  c #585666",
"[  c #4A546D",
"{  c #675E62",
"}  c #7B5D6C",
"|  c #496E77",
" . c #696466",
".. c #77656A",
"X. c #686A76",
"o. c #777578",
"O. c #687378",
"+. c #8A5545",
"@. c #855649",
"#. c #8B5B4C",
"$. c #885748",
"%. c #965B4A",
"&. c #865C58",
"*. c #824840",
"=. c #9B624B",
"-. c #956459",
";. c #A96D58",
":. c #B26F54",
">. c #857B7C",
",. c #887B7C",
"<. c #93736F",
"1. c #A77464",
"2. c #B77764",
"3. c #A8756B",
"4. c #A25D4E",
"5. c #C27F5D",
"6. c #84807C",
"7. c #B78674",
"8. c #A1867D",
"9. c #CB8267",
"0. c #D28769",
"q. c #D28F77",
"w. c #DD9276",
"e. c #D89779",
"r. c #CC9077",
"t. c #EA9B7A",
"y. c #E69877",
"u. c #EDA37E",
"i. c #2E3D80",
"p. c #2A4587",
"a. c #2B5785",
"s. c #2A4D95",
"d. c #354D99",
"f. c #2D5B9C",
"g. c #2B5499",
"h. c #355499",
"j. c #354080",
"k. c #1E7997",
"l. c #1D6D88",
"z. c #396A85",
"x. c #287289",
"c. c #3A758B",
"v. c #2D699C",
"b. c #35679B",
"n. c #237694",
"m. c #397D98",
"M. c #2F6988",
"N. c #2C52A2",
"B. c #2D5BA3",
"V. c #3257A2",
"C. c #3267A4",
"Z. c #337BA4",
"A. c #3A76A5",
"S. c #2F74A7",
"D. c #487889",
"F. c #4D7495",
"G. c #637A82",
"H. c #4A74A5",
"J. c #6078A6",
"K. c #485283",
"L. c #847C83",
"P. c #9C7C86",
"I. c #3B8B98",
"U. c #358693",
"Y. c #3FA49F",
"T. c #3D84A3",
"R. c #3989A7",
"E. c #3C97A8",
"W. c #3B95B4",
"Q. c #3B8BB0",
"!. c #3EA2A7",
"~. c #488E9B",
"^. c #778B9C",
"/. c #4588AA",
"(. c #4497A8",
"). c #5293AD",
"_. c #769CB1",
"`. c #46A9A6",
"'. c #47A5B9",
"]. c #49B7B4",
"[. c #59B6BF",
"{. c #54ABB0",
"}. c #74ABB7",
"|. c #55C3B9",
" X c #74C0BF",
".X c #56A9C9",
"XX c #51B7C5",
"oX c #54B2D4",
"OX c #4AAAC5",
"+X c #7EABC4",
"@X c #57C8C9",
"#X c #58D9C9",
"$X c #5DDED6",
"%X c #57C7D1",
"&X c #64D3D1",
"*X c #62E6D4",
"=X c #5BE2D4",
"-X c #8B8486",
";X c #8C898C",
":X c #878B95",
">X c #9A9899",
",X c #938E93",
"<X c #AF928D",
"1X c #A1A39F",
"2X c #8A9AA9",
"3X c #A49FA4",
"4X c #ACACAB",
"5X c #A7A6A7",
"6X c #B3B2AF",
"7X c #B3B3B3",
"8X c #BABABB",
"9X c #B7B9B8",
"0X c #AFB0B4",
"qX c #87B1BE",
"wX c #CE978A",
"eX c #E69E81",
"rX c #EEA687",
"tX c #F2A584",
"yX c #F3AC89",
"uX c #F6B69A",
"iX c #F3B190",
"pX c #94BACC",
"aX c #B8BAC0",
"sX c #9AC4D4",
"dX c #B8C4C8",
"fX c #A0C7D5",
"gX c #BCD8E2",
"hX c #C6C5C6",
"jX c #CECCD5",
"kX c #D7D6D9",
"lX c #CDD1D4",
"zX c #DDDEE0",
"xX c #E5E5E7",
"cX c #EDEFF3",
"vX c #FCFDFD",
"bX c #F4F6F7",
"nX c #C2E2ED",
/* pixels */
"                        F.J.            H.J.                                                        ",
"                        H.h.H.).    F.H.(.F.D k k B S D S N k X.                                    ",
"                        h.v.%X'.F L ).].#X'.a.M.I.Y.|.[..X/.s.v v k l                               ",
"                    ' F h.R.&X%XI.Y.#X#X$XOXv.R.#X$X$XXXH.C.B.f.s.p.J K l                           ",
"            E L  X&X|.|.E.Q.Z.R.E.].$XXXZ.Z.R.(.'.W.S.C.f.C.Q.A.A.R.~.H s z l                       ",
"                P c. X#X#X[.E.A.v.U.`.m.x H (./.v.B.N.N.f.v.b.a.D m x s a a f [                     ",
"                    L H A P v.S.R.c.A D p.g.B.B.h.N.N.C.R.R.R.I.m.M.a.p.p.x s j l                   ",
"                E V ~.I.`.|.XX'.Z.R.`.(.B.N.V.d.d.N.N.V.v.T.W.`.!.E.Q.C.f.s.i.v f                   ",
"            E ' D.~.@X#X*X%XW.W.oX%X*XXXf.b.T.b.x p.s.d.h.f.v.I.E.(.(.~.T.b.s.v j                   ",
"                  }.P P H.A.g.R.=X#X].m.k H (.I.x.H c H m./.Q.Z.S.C.v.M.D x v s j                   ",
"                T G D.z.d.K.X.O.{.~.F C R T B z.~.G.Q Q N z.(.E./.C.N.s.p.v p.j 4                   ",
"                h f g B T ) 3.<.T Q <.-.p t 0 z B ` 7...4 S b.a.H j.d.i.x p.d.k <                   ",
"                  ] < @ $ y 1.1.;.;.2.#.8 % 8 3 9 t %.+.^ n k z 9 ) P._ a s k [                     ",
"                    3 : n _ -.;.e.0.4.p @ w 8.1.+.4.;.;.%.$.~ &.1.%.^ b = = :                       ",
"                    3 - z _ 2.q.rXeX0.;._ } <Xr.5.w.eXw.5.:.=.$.^ 0 ; ; = b                         ",
"                      I : y eXiXuXiXu.wX<XwXr.wXrXtXtXtXtX5.4.^ 8 : = * ; (                         ",
"                        3 r 7.r.rXtXt.eXrXyXuXuXuXiXu.u.y.2.*.t z 4 a = 4 {                         ",
"                          i u $.w.t.t.t.y.u.tXtXtXtXe.9.+.u 8 < = f f l                             ",
"                              ) @.;.5.5.y.t.y.w.9.;.$.y o + + 5 T                                   ",
"                                  ^ t t @.$.$./ e q g m g 4 + Y                                     ",
"                                    1 > g N G ' L c.R.W.E.x.N C                                     ",
"                                  E g G }.}.).~.D.L z.| z.L F g ; R                                 ",
"                                < l 2XpXsX_.D , . < B Q o.L.:XX.I W                                 ",
"                              E M | pXqXF V F M 4 E ,XdXbXvXvXkX0X .< !                             ",
"                            3 > N Z D m m | sX+XF.G.^.8XvXvXvXvXvX,X- Y                             ",
"                            2 O . , B B V D.sXqXF.z.C ~.4XjXvXbXxX-X$ _                             ",
"                            3 O . M ).~.S S F M , k P V * X.jX9X,X .0 _                             ",
"                            < + 1 , S c..X/.S S L M.n.m . q } ` ~ ) #.t 2 (                         ",
"                            3 # w 5 * N .XoXoXOX'.Q.x.F < 2 r i #.;.;.t $ R                         ",
"                            1 $ 0 9 + B .XoXOXQ.k.n.n.H B 1 O u :.5.e.$.$ !                         ",
"                            q 0 y 9 @ M '.W.k.k.k.l.A V 5 1 O p w.eXt.+.$                           ",
"                              ..t 9 O g x.k.k.l.H S g 1 # X % *.9.y.y.+.$ !                         ",
"                            3 8 i 0 o 4 F A H N g ] :XW + 8 p %.:.9.y.+.% !                         ",
"                            u 0 / e X # 6 M B  .;X9XcX3X% p q.y.w.w.e.p % Q                         ",
"                                w 3 + 5 O.3XkXxXbXbXvX3X# p r.w.w.2.#.i 8                           ",
"                                    < 5  .:X0XlXvXvXvX5Xw e @.$.@.i r )                             ",
"                                    5 3 - b X.5XcXbXvXzX0X,.w 0 & !                                 ",
"                                        < ; - W 5XhXbXbXbXxXkX-X- Y                                 ",
"                                        2 o o # 3  .hXjXjXdX0X..- !                                 ",
"                                        2 % 9 8 O 9  . .{ ] E q 1 W                                 ",
"                                        2 $ e 8 X y 7.7.7./ 2 R                                     ",
"                            8X9X9X6X4Xo.1 2 e 8 X 8 i +.;.p # ( 7X9X8XjX                            ",
"                hX9X9X9X8XaX9X6X5X-XI C G G T 5 O @ % r #.t # ( 6X7X7X7X8X8X9X9X8X                  ",
"        hX8X8X8X7X6X6X6X7X7X7X,XI R L.:X2X^.O.T + + . r &.u X ( 4X0X0X6X7X7X0X7X7X9X8X8X8X          ",
"    hX8X7X7X7X7X6X7X0X6X0X7X7XL.1 1 I I I q 5 1 ; 4 g B E 5 X ( 6X7X7X7X7X7X7X6X7X7X7X7X7X8X8X      ",
"    8X7X7X7X7X7X0X7X6X7X7X7X7X5X;X-X-X-X-X{ . , F D.).).).' > W 4X0X6X7X7X7X7X7X7X7X7X7X7X7X8X      ",
"        8X7X9X7X7X7X7X7X7X7X7X7X7X9X7X7X9X>.2 W dXgXnXfX^.] < W 4X7X7X0X7X7X7X7X7X7X7X7X9XlX        ",
"                8X7X9X7X7X7X6X7X0X6X7X6X6X5X-Xo. .`  .U 5 Q -X>X6X7X7X7X7X7X7X7X7XhX                ",
"                          hX8X7X7X7X9X7X7X9X9X1X6.>.>.>.L.>X7X7X7X7X9XhX                            ",
"                                                                                                    "
};
