/* XPM */
static char *out[] = {
/* columns rows colors chars-per-pixel */
"50 50 236 2 ",
"   c None",
".  c #1E161C",
"X  c #2B150F",
"o  c #250F17",
"O  c #231214",
"+  c #2C1515",
"@  c #23141B",
"#  c #2C151A",
"$  c #25191C",
"%  c #2B1A1C",
"&  c #321B1C",
"*  c #371A18",
"=  c #1C1A27",
"-  c #261A23",
";  c #2B1B23",
":  c #251C2B",
">  c #271826",
",  c #331E22",
"<  c #271D37",
"1  c #301C30",
"2  c #1E2833",
"3  c #2C2225",
"4  c #2A232B",
"5  c #252629",
"6  c #332325",
"7  c #34242B",
"8  c #38292B",
"9  c #2A2735",
"0  c #322C34",
"q  c #3C2C33",
"w  c #332E3A",
"e  c #3A2735",
"r  c #2E3239",
"t  c #34323B",
"y  c #3D363A",
"u  c #35231F",
"i  c #461F1D",
"p  c #482827",
"a  c #572D26",
"s  c #59322C",
"d  c #452C37",
"f  c #45383B",
"g  c #583936",
"h  c #4E322C",
"j  c #653C36",
"k  c #67382E",
"l  c #4E261C",
"z  c #66443B",
"x  c #76493B",
"c  c #75452E",
"v  c #1E1C48",
"b  c #241F41",
"n  c #1D274A",
"m  c #1E2556",
"M  c #1B394F",
"N  c #252648",
"B  c #2A3542",
"V  c #253948",
"C  c #343C44",
"Z  c #383A46",
"A  c #272954",
"S  c #273957",
"D  c #363651",
"F  c #1E3A75",
"G  c #1B396A",
"H  c #25346C",
"J  c #2D3A6A",
"K  c #493D42",
"L  c #463748",
"P  c #563E50",
"I  c #29424B",
"U  c #3B4148",
"Y  c #234659",
"T  c #364958",
"R  c #2C525F",
"E  c #1B4E6F",
"W  c #294A66",
"Q  c #2B5168",
"!  c #37596B",
"~  c #264376",
"^  c #285676",
"/  c #335778",
"(  c #354971",
")  c #296578",
"_  c #356879",
"`  c #336974",
"'  c #1F4D5E",
"]  c #494448",
"[  c #55484A",
"{  c #4A4A55",
"}  c #574E54",
"|  c #57545A",
" . c #555356",
".. c #674447",
"X. c #75534C",
"o. c #73524F",
"O. c #465A68",
"+. c #5A5B69",
"@. c #504E6F",
"#. c #476875",
"$. c #546A73",
"%. c #696467",
"&. c #736769",
"*. c #6B6B73",
"=. c #787579",
"-. c #747270",
";. c #814A3F",
":. c #864D45",
">. c #875647",
",. c #945D4A",
"<. c #875C57",
"1. c #915D52",
"2. c #9A6958",
"3. c #8B6254",
"4. c #A46954",
"5. c #B06C57",
"6. c #B6765A",
"7. c #A2644B",
"8. c #82797A",
"9. c #987A7C",
"0. c #906C69",
"q. c #AA7567",
"w. c #B67965",
"e. c #895F66",
"r. c #C27E5D",
"t. c #C47C67",
"y. c #BD8565",
"u. c #BE8573",
"i. c #C98469",
"p. c #D48B6A",
"a. c #C68572",
"s. c #D78C72",
"d. c #DC9477",
"f. c #D1926E",
"g. c #EC9D7B",
"h. c #E69879",
"j. c #EDA17F",
"k. c #263D82",
"l. c #28438C",
"z. c #2A5799",
"x. c #32599A",
"c. c #2F508D",
"v. c #2A6986",
"b. c #336787",
"n. c #277185",
"m. c #377587",
"M. c #2B6198",
"N. c #297D9A",
"B. c #357799",
"V. c #366F92",
"C. c #2C52A2",
"Z. c #3154A3",
"A. c #346CA4",
"S. c #3467A6",
"D. c #357CA4",
"F. c #3776A5",
"G. c #2E72A3",
"H. c #1E6A83",
"J. c #4A598A",
"K. c #48748C",
"L. c #457A95",
"P. c #496B90",
"I. c #737486",
"U. c #476CA4",
"Y. c #417CA7",
"T. c #897588",
"R. c #AC7E85",
"E. c #38848C",
"W. c #398899",
"Q. c #36939B",
"!. c #3886A6",
"~. c #3C94AB",
"^. c #3C92B4",
"/. c #3EA3A5",
"(. c #3DA6B1",
"). c #478597",
"_. c #469699",
"`. c #538A96",
"'. c #7B818A",
"]. c #6A8796",
"[. c #429BAA",
"{. c #4599B7",
"}. c #498EA7",
"|. c #6296AE",
" X c #42A1A8",
".X c #49ABB8",
"XX c #59A4B1",
"oX c #51C8BA",
"OX c #56B9C5",
"+X c #56B5D6",
"@X c #4FB2C4",
"#X c #70B3CF",
"$X c #55C8C4",
"%X c #56D9CA",
"&X c #6ADDD8",
"*X c #5BE1CC",
"=X c #63E6D7",
"-X c #858487",
";X c #858A92",
":X c #8A939C",
">X c #9A9695",
",X c #94928F",
"<X c #A29D9D",
"1X c #959AA4",
"2X c #8F9CA8",
"3X c #A09DA0",
"4X c #97AAB3",
"5X c #ADABAB",
"6X c #AAA7A7",
"7X c #B1AEAD",
"8X c #A8ACB5",
"9X c #B3B3B3",
"0X c #BABABA",
"qX c #B6B5BB",
"wX c #B0B3AF",
"eX c #E79C81",
"rX c #F09E84",
"tX c #E8A486",
"yX c #F3A88A",
"uX c #F4B293",
"iX c #ECAC96",
"pX c #D7A291",
"aX c #BABCC2",
"sX c #8AB5CA",
"dX c #BBC7CF",
"fX c #A0DBE4",
"gX c #C2C2C3",
"hX c #C4C9CD",
"jX c #D8DADD",
"kX c #D3D1D2",
"lX c #DADDE2",
"zX c #DEE6E9",
"xX c #E7E8EB",
"cX c #FDFDFD",
"vX c #F7F8F9",
"bX c #EFEFEF",
/* pixels */
"                        U.              P.                                                          ",
"                      U.x.S.U.      A.!.Y.c.m A N A N n m n V                                       ",
"                      U.x.}.XXL.Q m.W..XOXB.~ ^ ` E._._.}.b.~ J A m N                               ",
"                    S b.x.OX&X~.) /.oX*X=X^.z.{.$X*X=XoX{.S.z.l.k.F H H n                           ",
"            I |.fX/.E.E.D.^. X~.(.%X=X$X.X!.W..X@X@X{.G.C.S.F.F.D.D.L.G n N                         ",
"            I #._.oX*X*X$X~.!.F.W..X.Xb.E B. X!.F.S.C.C.z.M.B.V.) / / S v v N                       ",
"                Y _ W.Q.E.W.F.F.B.v.v.~ G M.F.x.C.C.C.S.D.B.B.b.^ W G H F m b A                     ",
"                  Q ^ _ m.W.^.^.D.N.V.b.z.C.z.C.C.C.Z.S.!.~.[.[.[.!.G.x.C.k.H A N                   ",
"              ! ! _.oX*X=X$X@X^.^.$X&X}.z.S.A.c.k.C.C.C.C.G.!.~././.[.!.A.S.c.H N                   ",
"            Y b.[._./.XX@XF.z.@X=X%X$XV.E W.[.n.~ ~ ~ x.A.G.B.B.!.!.!.V.b.^ F m N                   ",
"                  ! Q c.x.J.J.XX%XQ.#.! D ! m.E._.! T O.m.W.{.!.F.x.x.k.F H H b <                   ",
"              V n R #./ @.e.9.*.$.O.} o.X.K B ! $.-.q.] 2 b.W.B.V.x.c.k.k.l.c.N >                   ",
"                9 2 - 7 a 2.a.<...q.u.x a p p e d <.q.o.L J J S A @.I.J m H J D >                   ",
"                  7 @ 4 q x 7.t.d.6.,.a o t ....j :.>.,.<...L ..>.2.0.P b b N                       ",
"                  3 > L +.e.5.s.g.y.2.z d u.pXi.5.t.s.r.5.7.,.4.q.g > : < < >                       ",
"                    > > , 2.eXiXuXrXh.,XT.T.y.s.g.j.rXeXd.6.,.k i < < > >                           ",
"                      6 * 2.tXyXyXj.g.tXiXiXuXuXuXuXyXyXh.6.;.z d N < > >                           ",
"                      6 u z 1.t.rXg.h.g.g.yXuXuXuXyXh.f.i.x h d < < N N N                           ",
"                          p p 2.a.s.s.g.g.g.g.g.h.p.y.c * # > 1 N N N                               ",
"                              g a ;.,.6.a.i.i.4.;.z y 0 : > $ 8                                     ",
"                                  d 6 8 t y y y t #.L.b.Q B 4 y K                                   ",
"                              8 3 r I ! _ ).}.`.`.! C B B +.I.qXkX=.y                               ",
"                          8 % O . R K.4XdX*.B r B ' _ ].4XkXbXvXvX5XI.] 7                           ",
"                          6 O . 3 ;XhX'.{ U U B S L.XXfXzXbXvXcXcXbXjX%.;                           ",
"                          e - 6 q ]  .U U K.|.)._ ) ! ].2X8XaXxXvXvXxX-.3                           ",
"                        ; 0 t 9 9 ` )._ b.sXfX#X{.E.) ! { L Z -.1X2X:X+.f 0 -                       ",
"                      ; . r y 4 = ^ W.E S K.`.#.Y ) n.Q C r r w Z L  .o.o.p &                       ",
"                      ; $ 8 y 3 . ' n.E.L.Q M E ^ H.H.Q I U y 4 O 8 g 4.a.:.s h 6                   ",
"                      ; $ g o.g p 0 M ).+X{.!.^.(.!.v.Q U Z Z 4 @ # i 4.h.i.q.j %                   ",
"                      , + c 1.x s i = K.+X+X+X{.!.) R T C C Z 4 o o X X.6.s.d.c &                   ",
"                    * p h x 1.s u + = K.@X^.!.E.H.Q Z e 3 ; 4 > o o + s :.w.d.c *                   ",
"                  6 & g :.x x i X O = / !.!.H.E M 9 9 L | *.-.f o * a j :.t.h.6.2.z 6               ",
"                  3 % z 3.s p 8   3 . 9 M M V T | T.>X0XdXaX5X} # p k 7.y.d.h.p.6.g &               ",
"                    6 g g i %     w - y } -.-X>X0XxXcXcXcXkX5X} @ * p 5.eXg.d.,.s h                 ",
"                        & 6       q > | '.2X8XdXhXxXcXcXvXaX:X{ o O X g >.>.>.z                     ",
"                                  7 # f { '.8XhXjXbXcXjXaX;X+.t . O + + X + &                       ",
"                                  u + f *.qXbXvXcXlXdXI.} y 0 - O O #                               ",
"                                  z g %.T.0XlXdX8X=.{ 0 . - 5 9 5 @ ;                               ",
"                              g a >.q.0.e.8.-X| 0 - @ ; 9 Z Z C Z : ; 8                             ",
"                              f * 2.j.j.d.3.f 6 @ - : t t r w 7 , 8 p , ;                           ",
"                              K & :.w.s.d.>.p g } &.  %.[ 8 O % , e d 1 > 0                         ",
"                          aX5X} O i a 4.i.j X 8.7X5XwX7X5X&.] 6 . 2 S T D 0 6  .                    ",
"              0X9X9X9X9XqX9X5X} O o X z 1.h $ =.wX9X9X7X9X5X6X{ = O.`.$.+.B % -.wX0X                ",
"      gX9X9X9X9X9X9X9X9X9X9X7X} O # , P X.p $ =.wX9X9X9X9X9X6X} @ | I.L @ d ] '.9X9X0X9X0XgX        ",
"  0X9X9X9X9X9X9X9X9X9X9X9X>X-X{ 2 T ! #.O.0 # =.9X9X7X9X9X9X5X&.f f ] f f u.4X5XwX9X9X9X9X9X0X      ",
"  gX0X0X9X9X9XwX9X9X9XwX5X .5 O.].#X#X#XXXT $ =.9X9X9X9X9X9X7X5X6X6X6X6X6XwX8XwX9X9X9X9X9X0X0X      ",
"      gX9X0X0X9X7X9XwX9X5X%.U ,XhXhXdX:X$.] f -X7X9X7X9X9X7X7X9X9X9X9X9X9X9X9X9X9X0X9X9X9X          ",
"              gX0X9X0X9XwX6X<X&.[ ] ] K K 8.6X7X9X9X9X9X9X9X9X9X9X9X9X9X9X0X9X9X9X                  ",
"                            9X<X,X,X>X,X>X5X9X9X9X9X9X9X9X9X9X9X9X9X9X                              ",
"                                                                                                    "
};
