/* XPM */
static char *out[] = {
/* columns rows colors chars-per-pixel */
"50 50 248 2 ",
"   c #37170D",
".  c #2E251B",
"X  c #17142C",
"o  c #070739",
"O  c #28102F",
"+  c #372F2D",
"@  c #491C02",
"#  c #551D03",
"$  c #4D1B13",
"%  c #6F0F00",
"&  c #7B1B03",
"*  c #492606",
"=  c #542401",
"-  c #5C2501",
";  c #552C03",
":  c #5D2D03",
">  c #55290A",
",  c #5B2C0B",
"<  c #483304",
"1  c #5D3304",
"2  c #583906",
"3  c #55330B",
"4  c #5D330C",
"5  c #492A12",
"6  c #572B16",
"7  c #4B3317",
"8  c #5C3512",
"9  c #573619",
"0  c #632401",
"q  c #622D04",
"w  c #6B2C01",
"e  c #68270A",
"r  c #632E09",
"t  c #762A07",
"y  c #643205",
"u  c #6B3404",
"i  c #623B01",
"p  c #6A3904",
"a  c #64330A",
"s  c #6A350C",
"d  c #65390C",
"f  c #6B390D",
"g  c #743202",
"h  c #753708",
"j  c #733B0C",
"k  c #672A15",
"l  c #7A2D17",
"z  c #633413",
"x  c #6C3512",
"c  c #643A12",
"v  c #6D3B12",
"b  c #68391B",
"n  c #713D13",
"m  c #74371A",
"M  c #542D2A",
"N  c #4A3628",
"B  c #5A3823",
"V  c #4C3C36",
"C  c #583C35",
"Z  c #6D3627",
"A  c #2C491B",
"S  c #5A4311",
"D  c #664409",
"F  c #79410E",
"G  c #6C4418",
"H  c #724216",
"J  c #57422B",
"K  c #524538",
"L  c #634425",
"P  c #6F4B30",
"I  c #766B3E",
"U  c #040446",
"Y  c #091359",
"T  c #2B194B",
"R  c #132C4D",
"E  c #2A2F50",
"W  c #041767",
"Q  c #181A6F",
"!  c #011B78",
"~  c #182877",
"^  c #133070",
"/  c #31336A",
"(  c #4B374B",
")  c #35464C",
"_  c #2C586A",
"`  c #274C77",
"'  c #364479",
"]  c #48444A",
"[  c #54524E",
"{  c #484458",
"}  c #6A514B",
"|  c #785A43",
" . c #5B644B",
".. c #776750",
"X. c #46576A",
"o. c #484877",
"O. c #525873",
"+. c #655B6E",
"@. c #566A74",
"#. c #656768",
"$. c #737172",
"%. c #90040B",
"&. c #A80402",
"*. c #B80202",
"=. c #B6140E",
"-. c #873605",
";. c #843E3E",
":. c #B2382B",
">. c #C60403",
",. c #D90405",
"<. c #CE0815",
"1. c #EA0204",
"2. c #F30101",
"3. c #F50305",
"4. c #F60D12",
"5. c #CD3319",
"6. c #C30F28",
"7. c #C92B30",
"8. c #914E2F",
"9. c #8E673B",
"0. c #D5482C",
"q. c #815B4A",
"w. c #B14952",
"e. c #8B6C51",
"r. c #A77652",
"t. c #857665",
"y. c #90746C",
"u. c #CB4D4A",
"i. c #DC6A50",
"p. c #679264",
"a. c #95883A",
"s. c #91834C",
"d. c #B39658",
"f. c #928C71",
"g. c #AD8772",
"h. c #BC9976",
"j. c #BBA96A",
"k. c #DDA95E",
"l. c #C39178",
"z. c #CEB069",
"x. c #D9BB73",
"c. c #E7B676",
"v. c #DECF71",
"b. c #F2CC6E",
"n. c #F9D578",
"m. c #001E86",
"M. c #022985",
"N. c #073688",
"B. c #113589",
"V. c #042C97",
"C. c #033799",
"Z. c #173896",
"A. c #273A8D",
"S. c #002BA6",
"D. c #0134A4",
"F. c #013BA3",
"G. c #0235AC",
"H. c #003CAC",
"J. c #0A39A8",
"K. c #1739AA",
"L. c #122FB9",
"P. c #0535B6",
"I. c #023BB3",
"U. c #023BBC",
"Y. c #2D3BB6",
"T. c #134595",
"R. c #254788",
"E. c #295397",
"W. c #305092",
"Q. c #37569B",
"!. c #0143AC",
"~. c #0448AA",
"^. c #1644A7",
"/. c #0244B2",
"(. c #0744BA",
"). c #1A4BB5",
"_. c #2C55AE",
"`. c #3762AB",
"'. c #455992",
"]. c #5A6C8C",
"[. c #486798",
"{. c #717390",
"}. c #456EAF",
"|. c #647EB0",
" X c #0E31C5",
".X c #063DC4",
"XX c #0144C7",
"oX c #1148C7",
"OX c #0347D3",
"+X c #2351C0",
"@X c #5F68CF",
"#X c #947A87",
"$X c #7C8397",
"%X c #7589C4",
"&X c #8D938F",
"*X c #B2918C",
"=X c #8FB18E",
"-X c #B2A889",
";X c #A8A69C",
":X c #B8A79B",
">X c #8E94B0",
",X c #B19CB1",
"<X c #9CA7B0",
"1X c #A5A7A6",
"2X c #A6B5A8",
"3X c #B9B6A9",
"4X c #B2ACB0",
"5X c #BAB8B8",
"6X c #CE9589",
"7X c #CFAD8B",
"8X c #C2B9AC",
"9X c #C8B4B0",
"0X c #B6CBB8",
"qX c #F2CB8B",
"wX c #FCD584",
"eX c #ECDA99",
"rX c #FBD893",
"tX c #FEE484",
"yX c #FFE891",
"uX c #D6C8A5",
"iX c #C8C3BA",
"pX c #EBD0A4",
"aX c #B3AFC0",
"sX c #BBBAC5",
"dX c #C7B9C5",
"fX c #BCCCC9",
"gX c #BFCAD4",
"hX c #B3DBE3",
"jX c #C9C8C9",
"kX c #D5C8C3",
"lX c #D8D5C7",
"zX c #CAD0D5",
"xX c #D6D8D9",
"cX c #E4DBD6",
"vX c #E8E8D9",
"bX c #D8DAE5",
"nX c #DFDEEB",
"mX c #D2E5EE",
"MX c #DAE8EB",
"NX c #E8E8E7",
"BX c #F9E9E8",
"VX c #F0F7EA",
"CX c #F8F7E8",
"ZX c #ECECF1",
"AX c #E9F8FA",
"SX c #FAF7F8",
"DX c #F4FDFE",
"FX c #FDFDFE",
/* pixels */
"a y : q q r r q e 1 y e u 4 6 w r w u 2 b g h 2 t ; X.V p w n D y y a d 1 ; y b n h s y a 4 r q r r ",
"d a a y y r r u k p d e q 3 6 w 1 y q e m u p H S R.).+ y J r M C M 6 0 0 q q s r r w q : r a u y r ",
"d f f d a r s s m f 4 k u a 4 g 2 u u r m m b S / $X` _ O Q ` `.E.E.E.E.'.{ 6 @ 7 4 - q q a s s r y ",
"d d d a a a r s s d d b v p a z Z w p 8 x -.L + ].b.].^ o M.D.C.C.C.T.C.C._.}.[.M 6 q u q a x x r q ",
"4 a 4 y a a a r y d a b v y : M w q a H p 5 E Q.b.n.&XQ Y (.C.^.D.F.^.C.V.V.^ ` N 6 a u q q r r r q ",
"d i 1 4 d s a a y a a 8 z y 3 ] . b 0 = [ [._.T.{.y.].N.I.XXH..X.XS.m.W Y + 5 - 9 4 y w a : , q d a ",
"4 i i a 4 a a a 4 a r 8 x y J W.N.. : O._.C.B.+XXXY.J.!./.C.oXH.N.W o O 6 x h u 4 a y y a 4 a u x f ",
"2 4 4 d a y a a a x u s z y N W.!.! ~ W.V.~.`.R.@.R.E.K.P.F. X!.~.C.A.' V 7 , b s u q y 1 8 a y d s ",
"d i a d s f d a s 4 9 1 p p 9 ] (.! E.C.L.E.].ZXDX0XR.J.(..XC.U.I.H.F.F.~.E.] - w v q y b s w c a 1 ",
"f d d d d d d s q a 8 a y u 8 N ^ ^ ^.P.H.Q.SXSXFXDX|.S.P..X.XP.P.U..XU.I.C.E.[.C - F 8 8 j j 4 a a ",
"D f f d 1 : a s d a 1 y y c H z E [.D..XC.>XFXvXjXCX%XP.!.~.U.J./.H.G.H.J.D.!.^.[.z w 9 q g d 8 d c ",
"c f d y a y a a z y q f c , d w E R.I..XZ.bXSX0Xp.VX@XL.G.P.(.H./.!.H.U.XXU.C.M._.#.5 , s q : f s a ",
"f a d d s f x d 1 s u s 4 4 s h ( >X`.V.W.nXSXzXA xX+.&X{.L.(.~.I.F.V.V.G.U.J.B.M.}.+.- x z z y : 1 ",
"d y y s n v v s s s s : a v a v @ 8X|.N.|.AXFXDX@.d.v.j.tXf.S.(.(.C.~ Y Y M.G.I.M.~.{.; s 9 c y y , ",
"y y y f v n v s s a b z v a @ J a q.;X_ 4XpXpXuX7XtX7XaXc.j.oXS.U.P.I.~ U U ! P.^.V.`.K a d c : a a ",
"y y d d v f v s h : L c u w B 8X .#.$.N b.b.b.rXv.6X5Xj.n.:XV.G.^.H./.E.(   X ^ G.V.`.X.: g c : : 1 ",
"y ; 8 a q j : b # } mXxX| $ jXAX&XK 7 r.wXb.n.n.x.v.rXwXeX#.Y V.P.(.P.V.[.4 -.z + Q T.[.< s c w q a ",
"q 1 8 1 u y 8 5 J &XMXVX0X4XFXlXL c y P qXrXwXb.c.z.d.k.e.o Y M.U.G.(.I.).+., Z : V R o., s 1 h s s ",
"q : ; 1 : d @ f.MX1XkXCXbXDX9XJ Z k f y ; P 6Xr.O.M.].#.U U ! G.J./.!.D.C.' 9 p H w d   - h , Z s a ",
"- : 4 d d d 5 ;XAXjX3XBXZXsXC z w F p G @ 9.c.n.n.' 6XqXE.T o J.D.(.H.Z.T.^ 7 h ; g t P z g h b q r ",
"u a 4 1 a @ ..;XNXSXdXNXZX,X$.* : ; 2 8 9.qXqXb.wXO.X.b.=X` $ R (.OXL.Q U R . L } > e = b 0 0 4 a r ",
"s a a a H 8 3XSX9XSXZX0X2X1X9X..L q.7X9.d.yXn.rXuXR.m.r.yXf.k @ E ! Q / {.X.1XdXsXdXP ; 4 n n c s x ",
"f a c f q = } xXvXsXzX2X&X1X;Xd.tXwXl.8 z.n.b.wX{.C.U.U h.qXf.6 . { X jXFX2XjXMXvXAX4X@ B r w 1 s d ",
"s : a f u @ t.jXzXnX;X&XiXZXy.r.d.9.* G v.wXyXh.S.~.^ U R z.yXs.P kXfXxXSX4XBXFXCXMX1X= k q e k r : ",
": f y y d > P -XjXxX#.#.9Xg.9 5 , ; k M k.wX-XL.(.Z.W R V./ a.a.5XSX8XzXFX4X5X9X0X4X3XK > q s z r a ",
": v p a v 8 * 9 9 J 5 6 * > x j : y w 6 @.[.R.P.^.+ / R T.( % } MX5XxX&XSXfXNXFXFXZXCXP @ h 0 c s x ",
"a v f y u c z 4 y q q n r w h t y 1 w 8 /.P.C.XX^.. 3 < / D - 9 xXxX4X#.&XjXlXxXzXzXy.5 j u - G v v ",
"y a f u y q d c y f - - z z # , r ; i 1 _.G.Y Z.).^ Q V 7 g m A 8XkX1XiX>XNXMXbXzXcXJ > j q s a v v ",
"f y y f u q y : z , 4 > > , 4 8 , ; G w o.F.+ T U._ E / V w t 3 9 7 ..$.3XxXjXzXzXy.9 4 - u H c n n ",
"f f u y q s f s x r x r a u a : 1 , k w ( OXE 6 J.Z.2 y 9 J t t c = 3 7 C lXZXZX*X5 , d v 1 d a s c ",
"y f H f a a y - : s s 0 w - y s p 1 e - + oXN.; L.F.X.l & 2 m b y F v , : L | ..9 1 f q a ; y q d d ",
"p p d d v x d f a d d : x r b r e 2 1 1 N / !.> T oXR.7 Z 2 z D a a : u u = a = c : q u = z r w a y ",
"p s s d u d s d s s s s s r r r s - 2 m r ^ OXE ; G.G.X.2 k m 4 d : c 4 1 D a d a 4 1 1 : q y a y 1 ",
"f j f s f s s f s r a s s s s s : m 2 = j ) OX~ * ^ oX/ B m p p d d a d 1 d 1 d d d y y d d s s s f ",
"n j f p s s s f u r r s n x s s G k D c s ( (.J.C E V.^.{ @ 1 2 d f a d a a 1 d d d d s s c f f H n ",
"f j f f f s s s s s s s s s y r = m 1 < e.{.N.! { @.F.H.Q.t.f.K : G y f 1 d a a d s s s f f f f n n ",
"a u d u f f s f s s r s s s s r v e w | SX$X'.o.@.1XM.(.K.] jX1X= 4 y p q x a 1 y y a s s s s s f n ",
"y y u f f v f f s q r r s s s s s u n J 4XFXZXBXxX*XX W U [ ZX#X9 1 D y s v f y a s y a s u u r s a ",
"q y a f f v f n y r r s s s r s 2 2 @ } xX<XbXlX1XnXcX9XgXZXkXbXq.9 D y z b s p s y r u a u u r q r ",
"y y y u s s f n s s s s s r q q D e.;XiX3X5XbXjX$.zX8XBXDXmX3XDXy.9 G y x k s p s s s u r r u r q w ",
"r a y y s s s s l 1 H u f v d G 8.:.6XlXxX1X2Xt.% dXhXNXVXkXjX1X#.# 2 2 x m n i a r r r s e r s u x ",
"q y y u s x s s m k r s x 8 k =.2.4.1.<.6XAXaX<X$ %.u.7.;.&X,XdXzX2XI f 0 l s s u r r s s u s h s s ",
"y y q r s s s x a 8 t l z & <.3.,.>.2.2.&.9XxX{.q.>.2.<.*XSXDXDXAXVX6X9.J a 4 3 s r s s s h s x s s ",
"y q r r x s s s 2 g u 2 t *.1.2.,.,.>.>.*.r.zX*X[ ,.>.:.cXDXSXAX6X7.,.>.8.< m t s a s s x k s s s e ",
"a r y r r x r s d w a < l 7.<.&.>.&.5.7.w.e.$.) K u.&.w.bXfXVX6X1.,.4.1.3.& 1 - s a a s s s s s u x ",
"a r r a s r r r e * z k q.g.l.l.7Xl.h.e... .5 * 5 | w.#XmXxX0X6.3.,.1.1.3.&.@ Z r q r s s s s s x x ",
"y q a s x r r r k k 4 , m K  .e. .| 9 8 6 8 4 h v 8 K f.nXmX;X&.,.,.,.,.1.3.%.@ q r a s s x s x j s ",
"q r r r s s r r 0 q q w s e 0 - e - : p t c G G G c G 7 | dX:X:.=.*.*.,.>.*.=.* a a s s v s s s r r ",
"; : : 4 a , r q - r r r k s r r r : r r r : s s f v d : : b e.:Xz.g.i.0.5.u.| D d d s a s s a q r r ",
"; ; : y r r , r - q r r x s r r q r : r q r r z s : : y f a 5 B e.t.-Xg.s.t.[ 6 y a s s s s y q r r "
};
