/* XPM */
static char *out[] = {
/* columns rows colors chars-per-pixel */
"50 50 238 2 ",
"   c #00363D",
".  c #342D25",
"X  c #5D050B",
"o  c #7A0103",
"O  c #6E1013",
"+  c #652925",
"@  c #782E2E",
"#  c #662A35",
"$  c #5B4C3A",
"%  c #002444",
"&  c #091A72",
"*  c #132C76",
"=  c #2B3A74",
"-  c #683C44",
";  c #155378",
":  c #344B70",
">  c #704F50",
",  c #516B5A",
"<  c #726D5B",
"1  c #57596D",
"2  c #576363",
"3  c #4C7474",
"4  c #6B7176",
"5  c #727576",
"6  c #8A0506",
"7  c #970409",
"8  c #821600",
"9  c #A60406",
"0  c #B40804",
"q  c #AF1200",
"w  c #AE1C27",
"e  c #962F2E",
"r  c #A32622",
"t  c #C90408",
"y  c #D80207",
"u  c #DA0713",
"i  c #CB1B1E",
"p  c #E90408",
"a  c #F70704",
"s  c #FE040B",
"d  c #FF100A",
"f  c #E50611",
"g  c #FE0916",
"h  c #CD2F30",
"j  c #C23A44",
"k  c #9E524E",
"l  c #8E5A55",
"z  c #917551",
"x  c #9B6566",
"c  c #A9716C",
"v  c #B57979",
"b  c #C05E5D",
"n  c #778578",
"m  c #F0C038",
"M  c #B28C53",
"N  c #88897B",
"B  c #96887D",
"V  c #A89A77",
"C  c #CF984F",
"Z  c #FF914A",
"A  c #C6B456",
"S  c #F0AC53",
"D  c #CF867B",
"F  c #DCB867",
"G  c #D1B178",
"H  c #F7B869",
"J  c #EEB771",
"K  c #F8CC54",
"L  c #FBC969",
"P  c #EDD365",
"I  c #FED667",
"U  c #FEC978",
"Y  c #FBD278",
"T  c #F7E478",
"R  c #041A96",
"E  c #281B94",
"W  c #042689",
"Q  c #0C3492",
"!  c #2D2A8F",
"~  c #283F86",
"^  c #031AA5",
"/  c #0C16AF",
"(  c #0226A7",
")  c #0536A6",
"_  c #0127B8",
"`  c #0239B6",
"'  c #1C4588",
"]  c #0B4995",
"[  c #2D4B8E",
"{  c #3D699D",
"}  c #0147AC",
"|  c #0954AF",
" . c #0347B7",
".. c #154BB5",
"X. c #2959BA",
"o. c #3B59B1",
"O. c #1F61AB",
"+. c #2563AA",
"@. c #3168B8",
"#. c #58788F",
"$. c #486D9A",
"%. c #586B94",
"&. c #6C7498",
"*. c #505BA9",
"=. c #536EAF",
"-. c #5D79A5",
";. c #4671B8",
":. c #6A6FAC",
">. c #063AC8",
",. c #0236D4",
"<. c #0647C8",
"1. c #035CC4",
"2. c #0054CA",
"3. c #0848D9",
"4. c #0457D8",
"5. c #1355D2",
"6. c #295EDA",
"7. c #0868D3",
"8. c #346FCD",
"9. c #024BE6",
"0. c #0556E6",
"q. c #015DEE",
"w. c #1157E6",
"e. c #024AFA",
"r. c #144AFA",
"t. c #0658F8",
"y. c #025CFE",
"u. c #1458FD",
"i. c #2357FD",
"p. c #0465E7",
"a. c #026CEB",
"s. c #1860E8",
"d. c #0272EC",
"f. c #0263F5",
"g. c #0A65F3",
"h. c #016AF4",
"j. c #0164FE",
"k. c #0B63FF",
"l. c #016AFE",
"z. c #0A6AFF",
"x. c #1262FF",
"c. c #156BFE",
"v. c #0373FA",
"b. c #7F74C3",
"n. c #867A85",
"m. c #897693",
"M. c #7B8888",
"N. c #768496",
"B. c #7E9590",
"V. c #5D81BF",
"C. c #788EA5",
"Z. c #748EBD",
"A. c #7DA7A3",
"S. c #6C99D6",
"D. c #4180E7",
"F. c #858888",
"G. c #95888B",
"H. c #8E908F",
"J. c #869697",
"K. c #9B9C9B",
"L. c #A9948D",
"P. c #AC9796",
"I. c #90A69A",
"U. c #A6A894",
"Y. c #9499A6",
"T. c #8A97B0",
"R. c #8FAEA8",
"E. c #98A6A8",
"W. c #A7A8A8",
"Q. c #ACADAD",
"!. c #B9A9AA",
"~. c #A7B7B5",
"^. c #B8B9B8",
"/. c #C9908C",
"(. c #D6B28F",
"). c #F5BF91",
"_. c #CFB5B2",
"`. c #B6C1BE",
"'. c #DEC394",
"]. c #F8CA8A",
"[. c #FEC897",
"{. c #C4C4B9",
"}. c #D2CDB6",
"|. c #E5C3BA",
" X c #8E9AC9",
".X c #94A5C2",
"XX c #ABB4CB",
"oX c #B4B9C7",
"OX c #93B4E2",
"+X c #CABAD0",
"@X c #B6C7C5",
"#X c #A5C7D6",
"$X c #B6DDD8",
"%X c #B3CBEE",
"&X c #C6C5C8",
"*X c #D8CAC9",
"=X c #C8D5C8",
"-X c #CFCFD0",
";X c #D3CCD3",
":X c #C7D4D5",
">X c #D7D7D7",
",X c #EBD1D5",
"<X c #EBDCDA",
"1X c #CBE5D6",
"2X c #DAE5D8",
"3X c #EDF5CE",
"4X c #E6E7D7",
"5X c #FCF9DB",
"6X c #D2CBE4",
"7X c #CAD5E3",
"8X c #D8DCEA",
"9X c #E8DBE2",
"0X c #DBE4E5",
"qX c #DEF6F9",
"wX c #E3E4E5",
"eX c #E4E9E7",
"rX c #EBECEC",
"tX c #F9E6E8",
"yX c #EAF7EA",
"uX c #FDFBE5",
"iX c #F5F5EA",
"pX c #F4FCEC",
"aX c #FDFEEC",
"sX c #E6EAF8",
"dX c #F8EDF6",
"fX c #FEEDFE",
"gX c #ECFDF4",
"hX c #E7F7F8",
"jX c #EDF3FB",
"kX c #ECFEFE",
"lX c #F4F4F4",
"zX c #FDF5F5",
"xX c #F5FCF4",
"cX c #FDFDF4",
"vX c #F3F5FD",
"bX c #FDF5FD",
"nX c #F4FEFE",
"mX c #FEFEFF",
/* pixels */
"mXmXmXmXmXmXmXmXmXmXmXmXmXmXmXmXkXuXmXkXzXbXcXmXbXaXnXcXnXbXcXmXcXcXmXmXmXmXmXnXcXcXcXcXcXmXbXmXmXmX",
"mXmXmXmXmXmXmXmXmXmXmXmXmXmXmXmXmXbXbXyXmX5XqXmXaXdXnXmXbXmXmXmXnXnXnXmXmXmXmXbXbXmXmXnXmXmXxXxXmXmX",
"mXmXmXmXmXmXmXmXmXmXmXmXmXmXmXmXcXcXmXcXbXmXvX XS.mXmXzXbXnXcXlXnXmXbXmXxXcXcXmXmXmXaXzXbXmXbXzXmXmX",
"mXmXmXmXmXmXmXmXmXmXmXmXmXmXmXmXnXmXeX$.R.aXXX) | A.5XcXpXcXxXmX5XuXcXxXmXnXnXmXpXmXmXbXmXmXmXnXmXmX",
"mXmXmXmXmXmXmXmXmXmXmXmXmXmXmXmXbXgX*X>.e.*. .2 *.2.&.b.$.[ o.;.8.6.8.;.=. XXX7XzXcXaXuXcXcXcXxXmXmX",
"mXmXmXmXmXmXmXmXmXmXmXmXmXmXmXmXbXnXW.f.t.& [ Z D y.` & ( ,.g.j.j.l.f.y.t.9.w.w.X.S.%XsXmXbXmXaXmXmX",
"mXmXmXmXmXmXmXmXmXmXmXmXmXmXmXmXyXaXR.W ] Q , m H O.j.Q ` k.a.l.f.f.l.l.v.v.l.h.j.e.3.X..X2XmXbXmXmX",
"mXmXmXmXmXmXmXmXmXmXmXmXmXmXmXmXmXlX:.) 5.} i.4.< %.y.} q.j.i.h.f.f.y.y.y.y.q.9.o.Z.#X4XcXmXmXnXmXmX",
"mXmXmXmXmXmXmXmXmXmXmXcXmXmXjXmXbX-.`  .1.@.+.z. .0.l.l.t.x.l.j.j.9. .Q R ~ N.7XrXaXcXcXmXaXmXmXmXmX",
"mXmXmXmXmXmXmXmXmXlXmXmXzXcXcXmXY.2.2.-.<X5X4XV.q.h.f.j.z.l.f.y.l.l.j.t. .@.XXcX5XfXvXmXmXbXpXnXmXmX",
"mXmXmXmXmXmXmXmXcXmXmXbXdXmXcX4X..t.{ uXbXnXnX+X4.d.j.y.l.d.a.k.y.a.h.j.j.y.w.X..XnXcXvXmXcXmXaXmXmX",
"mXmXmXmXmXmXmXmXpXnXmXmXmXmXzX:Xw...@XcXvXnXkX#Xe.v.v.j.y.l.l.p.h.a.j.y.z.f.y.f.<.;.:XmXcXnXcXfXmXmX",
"mXmXmXmXmXmXmXmXbXmXvXmXmXgXnXT.e.; aXzXmX5XaX@.r.q.j.l.g.y.x.t.q.y.q.q.k.a.p.l.j.g...I.nXcXbXbXmXmX",
"mXmXmXmXmXmXmXmXbXmXcXcXmXnXvX$.t.  >XmXgXxX_.&.B #.5.y.a.p.z.j.x.u.<.) ,.e.j.y.j.l.q.<.C.fXmXgXmXmX",
"mXmXmXmXmXmXmXmXnXmXmXmX{.5 ~.XX#., ~.cX3X(.H L I K &.w.l.f.j.v.f.l.p.} W W ` 9.0.l.l.f.3.Z.nXmXmXmX",
"mXmXmXmXmXmXmXmXmXnXbXbXdX< . $ C ).C U G U ].F ).I N 4.l.g.i.t.j.f.l.f.` ( ( Q _ >.0.z.a.2. XuXmXmX",
"mXmXmXmXmXmXmXmXmXmXmXmXmXmXmXmXP.A P ].L L Y U U P : x.z.y.h.d.j.p.p.l.l.* E W R R / ^ 0.l.>.{.mXxX",
"mXmXmXmXmXmXmXmXmXmXmXmXmXmXmXmXnX_.U.C H U U J S $ e.4.p. .3.t.f.l.k.y.l. .I.rX=X:X X%.; ) >.@.lXmX",
"mXmXmXmXmXmXmXmXmXmXmXmXmXmXmXmXxXbXdX2X_.z $ : Q * = % & W / ( 5.a.f.j.d.j.;.zXaXnXbXmXuX;XOX; ^.lX",
"mXmXmXmXmXmXmXmXmXmXmXmXmXmXmXmXuXnXnX3X'.F ].(.w.{ F ! = B.$.E ^ 9.a.c.f.l.>.6XnXnXnXlXcXzXbXmXeXbX",
"mXmXmXmXmXmXmXmXmXmXmXmXmXmXmXmXbXnXnX'.L I L K N e.V A ^ ! &X0X:.& ,.y.j.v.3.C.bXzXcXnXnXnXiXbXmXmX",
"mXmXmXmXmXmXmXmXmXmXmXmXmXmXmXmXbXmX|.G U J [.L 4 t.[ K m.R W 1XnX}.~ R u.j.z.$.cXmXmXcXmXcXcXnXlXlX",
"mXmXmXmXmXmXmXmXmXmXmXmXmXmXmXmXaXcX(.S I H [.S ..c.( M J _ / : vXaXpXJ.W u.a.| 3XmXiXaXcXmXmXvXmXmX",
"mXmXmXmXmXmXmXmXmXmXmXmXmXmXmXmXvXG C F ].T F 1 j.d.W z T = / R _.mXkXzX_.W l.4.>XbXcXcXbXnXuXaXlXmX",
"mXmXmXmXmXmXmXmXmXxXbXmXxXmXrX^.7X^.H.M U S 2 f.v.e.: M C $ &.& m.vXnXaXuX8X[ ` wXlXmXmXmXmXmXmXmXmX",
"mXmXmXmXmXmXmXmXbXcXmXrXmXmXK.4 {.dX7X+.8.X.k.k.t.w.R.-X+X+X>XT.F.nXnXmXcXvX%X~ rXxXmXmXmXmXmXmXmXmX",
"mXmXmXmXmXmXmXmXcXmXmXbXmXK.5 H.U.P._.| y.t.z.l.f.r.3 1XnX>XF.oXcXvXnXmXzXmXmX-XlXbXmXmXmXmXmXmXmXmX",
"mXmXmXmXmXmXmXmXmXxXmXeX^.8XnXmXjX0XU.' x.X.8.c.7.u.=.!.U.H.4 n.iXnXnXmXmXzXaXiXmXmXmXmXmXmXmXmXmXmX",
"mXmXmXmXmXmXmXmXmXmXrXwXmXvXvXnXjXgXyX;.e.D.sXs.z.] XX<XwX8X:XM.^.mXnXlXmXmXmXmXmXmXmXxXmXmXmXmXmXmX",
"mXmXmXmXmXmXmXmXmXlX&XnXlXjXmXjXnXyXyXT.y.a.4XOX>.#XvXlXnXnXcXbX&X;XmXiXmXnXrXnXmXmXmXbXmXmXmXmXmXmX",
"mXmXmXmXmXmXmXmXmX`.wXvXnXmXvXvXjXfX_..X5.z.%X@X.X2XsXjXnXnXiXcXvXeXcXmXmXnXmXmXmXmXmXmXmXmXmXmXmXmX",
"mXmXmXmXmXmXmXmXmXQ.>XnXvXvXnXlXgXbXG.XX5.a.+.,XvXH.lXcXvXiXnXjXnXeX>XmXbXxXzXcXmXmXmXmXmXmXxXmXmXmX",
"mXmXmXmXmXmXmXmXmXeX~.nXvXnXnXkXzXkXH.{.[ v.5.>XI.Q.nXhXjXbXmXkXtXnX~.kXbXmXzXcXnXmXmXmXmXmXmXmXmXmX",
"mXmXmXmXmXmXmXmXzXbXtX^.`.=XwXtXxXXXF.@X;.z.4.:.G.:XjXbXbXnXqXhXmXeXE.lXmXzXmXmXmXmXmXmXmXmXmXmXmXmX",
"mXmXmXmXmXmXmXmXkXyXbXbXrX>XeXyX-XF.&XcX&.' ~ N.c 8XnXnXvXnXmXcXjXQ.>XbXmXpXnXmXmXmXmXmXmXmXmXmXmXmX",
"mXmXmXmXmXmXmXmXcXnXnXkXmXbXbXnXmXgXW.*X>XtX;XN kXY.E.J.@X6X_.~.oXrXbXcXmXmXmXnXmXmXmXmXmXmXmXmXmXmX",
"mXmXmXmXmXmXmXmXbXmXnXnXbXbXnXnXnX<X~.kXbXlX@XF.R.eX&X7XsXoX8X$X0XlXmXmXpXmXlXbXmXmXmXmXmXmXmXmXmXmX",
"mXmXmXmXmXmXmXmXnXnXmXbXcXmXmX:X:X+XW.XXY.G.c # > >XnXnXlXmXdXP.x zXpXnXnXbXmXcXmXmXmXmXmXmXmXmXmXmX",
"mXmXmXmXmXmXmXmXmXnXxXxXtX/.e r v }.cXbX<Xv 6 6 - 9X:X^.!.c @ o o v cXnXnXbXmXcXmXmXmXmXmXmXmXmXmXmX",
"mXmXmXmXmXmXmXmXbXmXzX/.w f a d g 0 z wX9Xn.n =XkX>XL.- X 6 9 0 9 e tXnXmXbXbXmXmXmXmXmXmXmXmXmXmXmX",
"mXmXmXmXmXmXmXmXkXmXb 0 p d a f g p 0 q t y i h B W.!.Q.F.+ 7 7 0 6 (.mXnXnXmXcXmXmXmXmXmXmXmXmXmXmX",
"mXmXmXmXmXmXmXmXaX/.u s d a d d 0 q y s g g f 0 6 + G.U.K.!.+ 9 7 O |.nXnXmXmXzXmXmXmXmXmXmXmXmXmXmX",
"mXmXmXmXmXmXmXmXpX|.j t u p y y q s g a p 0 8 6 0 7 + U.W.W.> O @ ,XcXlXnXlXmXmXmXmXmXmXmXmXmXmXmXmX",
"mXmXmXmXmXmXmXmXbXmXkX0X`.=X*XN y f g f 9 6 9 7 o 9 X , K.G.F.P.cXlXxXmXmXbXmXmXmXmXmXmXmXmXmXmXmXmX",
"mXmXmXmXmXmXmXmXgXmXbXfXmXmXmXmX(.D b k k l l x c v !._.;XeXgXmXmXnXmXzXmXmXxXnXmXmXmXmXmXmXmXmXmXmX",
"mXmXmXmXmXmXmXmXmXmXcXxXmXlXiXbXmXcXvXmXzXmXmXnXmXkXlXdXnXgXmXzXvXbXzXmXbXmXmXmXmXmXmXmXmXmXmXmXmXmX",
"mXmXmXmXmXmXmXmXkXmXgXkXbXmXnXnXmXnXnXnXnXxXbXbXnXgXvXmXqXmXbXmXmXlXmXmXlXmXzXmXmXmXmXmXmXmXmXmXmXmX",
"mXmXmXmXmXmXmXmXbXbXmXnXmXmXnXbXmXmXbXbXmXnXmXcXmXmXzXbXmXmXmXmXpXmXlXnXmXnXmXcXmXmXmXmXmXmXmXmXmXmX",
"mXmXmXmXmXmXmXmXmXmXmXmXmXmXmXmXmXmXmXmXmXmXmXmXmXmXmXmXmXmXmXmXmXmXmXmXmXmXmXmXmXmXmXmXmXmXmXmXmXmX",
"mXmXmXmXmXmXmXmXmXmXmXmXmXmXmXmXmXmXmXmXmXmXmXmXmXmXmXmXmXmXmXmXmXmXmXmXmXmXmXmXmXmXmXmXmXmXmXmXmXmX"
};
