/* XPM */
static char *out[] = {
/* columns rows colors chars-per-pixel */
"50 50 105 2 ",
"   c #00031E",
".  c #000522",
"X  c #000B26",
"o  c #010C2B",
"O  c #080F2C",
"+  c #05112D",
"@  c #08152E",
"#  c #061233",
"$  c #0A1533",
"%  c #0D1935",
"&  c #0C1639",
"*  c #0F1B3A",
"=  c #101B37",
"-  c #121D3B",
";  c #15223D",
":  c #19243F",
">  c #141F40",
",  c #162342",
"<  c #1A2644",
"1  c #1D2A45",
"2  c #162248",
"3  c #1B264A",
"4  c #1D2A4A",
"5  c #1F2B51",
"6  c #212B47",
"7  c #222D4B",
"8  c #203047",
"9  c #24324D",
"0  c #29344E",
"q  c #24394E",
"w  c #28384F",
"e  c #232E52",
"r  c #253352",
"t  c #2A3554",
"y  c #263957",
"u  c #2C3A55",
"i  c #27355A",
"p  c #2B365A",
"a  c #2D3B5B",
"s  c #303C57",
"d  c #323D5C",
"f  c #2E3D61",
"g  c #323E62",
"h  c #2F405C",
"j  c #33425D",
"k  c #39435F",
"l  c #36495E",
"z  c #354363",
"x  c #394564",
"c  c #374863",
"v  c #3B4A65",
"b  c #354469",
"n  c #39466A",
"m  c #3C4A6B",
"M  c #3F506C",
"N  c #334470",
"B  c #3D4C71",
"V  c #3E4B78",
"C  c #404A67",
"Z  c #414D6C",
"A  c #415066",
"S  c #43526E",
"D  c #424E72",
"F  c #445273",
"G  c #495574",
"H  c #4C5975",
"J  c #455479",
"K  c #49567A",
"L  c #4D5A7C",
"P  c #525E7D",
"I  c #53617E",
"U  c #4F5E81",
"Y  c #525E83",
"T  c #556283",
"R  c #5A6584",
"E  c #5D6886",
"W  c #556589",
"Q  c #5B6689",
"!  c #5C6A8B",
"~  c #5C6B92",
"^  c #606B87",
"/  c #626E8A",
"(  c #626E92",
")  c #647294",
"_  c #6A7394",
"`  c #6C7A97",
"'  c #627298",
"]  c #69769A",
"[  c #6C7A9D",
"{  c #727E9E",
"}  c #6B7AA1",
"|  c #717EA2",
" . c #7483A6",
".. c #7887A6",
"X. c #7686AA",
"o. c #7985AA",
"O. c #7B89AE",
"+. c #7D8BB1",
"@. c #7F8DBA",
"#. c #818FB4",
"$. c #8493BA",
"%. c #8698BC",
"&. c #8B98C2",
"*. c #929FCB",
"=. c #ACBBE2",
/* pixels */
"6   6 R _ _ D n m y B a r # . = C Q ^ Y 6 . D #.$.' J g = o z K p > # - + X & 3 & * + # o o , , 4 > ",
". x _ d g D P Y W J L K D r = d p p t s e > D Y n g L F > x  .[ o.K g P = @ | o.} #./ < # $ g B Y B ",
"- C 0 g b n g d f y y z n t $ x Z m m x 0 = x d n d p p 3 J J g Y a d H 6 = K K Y g ! F # b &.*.@.} ",
"d s F e g e p n z n n n n d - 7 d j c s 6 O d t p d d d 7 K B B B d d u : - n K J J D r > Y J V V N ",
"3 G k g e V p g n z m z g p 6 = 9 r h u 1 % C c z t z f > ! Y b a f r d e - K f e g J t # K B N b g ",
"& > Q x n g 5 g z 4 a f d t d 6 F M M S k 1 v c m v F m 2 D b f g z 4 % : - p g U g d < 4 P f p n g ",
"> 6 p D p V C n x f a a p t 0 - c y 4 u 0 $ 7 e m a , 3 e J y x u z C X O = < Z g g g & 7 T z g p p ",
"O 6 g g D D n b z J b d t t - . c M J I d $ x ( ) T F p # x S c u s k = . < G d n 7 0 7 4 L z z d d ",
"& d e D B N M B z f n M z x < t P n D G z 4 K B F M ~ W 2 , C v Z Z 6 s 6 = Z C 1 u d @ 0 v 4 u s u ",
"6 g n D b m n b n h z z g Z t d Y n g p d < S f b z p a e # $ t d & O g k O t & o X @ X : v S 9 j t ",
"; r z n n B b b n f b f n Z 6 x m b C g d < m z J F b g g e - $ O x d < 0 O - / / S 8 + 1 t u : 8 @ ",
", < a m J b f z b a b N D x = c D i d g s e Z t ' z a p 7 Y R o < L k t $ 6 C Z A c k + ; u h F l ; ",
"4 8 9 n W B F b b a g g m n ; s T p g g 0 < G t 7 z n d g z p e > ^ t C 0 + j j F r 7 o o n W S S 6 ",
"u j r a K M L b p g a y z m : % ! b L C 0 - H t m l a u x x d p < t 7 t u $ : 7 < y f a e # , , :   ",
"s v l j m b n y f x z z c c : X G m x d w 9 S 9 t j l l v Z x g & & Z t < % + y } O.' } O.J n P j 4 ",
"1 0 k A F M n m m Z z S v j 0 9 t D s 0 % u M m v j h h u u g z 6 g x j j < a ..K n b i b m m m j 7 ",
"= ; 6 < < i r 4 w : 9 s 1 $ < t , - r < = @ < k S S K Z y d v s $ = : : 6 o Q K g J b 5 g n g n g r ",
": s x S D t 7 t s h %   u R ! J J u Z G C = t I I R ~ Y F m v s = x P C C 7 } K b n g z J n d m C t ",
"H R Z x D m Z G G l < : H l g C x g j s d 0 g t r 4 3 > > > 2 2 , t 0 * 3 > U n g f f m D b a z d e ",
"6 s d u d x x c k s ; % a t g 4 i u u u 6 . 6 r a g b B D g r r 4 4 , 1 7 . p J f g g b g b g p s e ",
"X . 3 t r 4 % - @ t d d g g D K J a j v d o Z { L Y W ! ( P Z D T K F L S * r G b c c h f b m u d t ",
"= = Z K K J ; # ^ { ] L L ( | o.! F L F ^ s Z j d d a g p f g x a a u u a 9 n L x c z c z c x z p e ",
"o t L g h m 9 d P > e K  .+.} ' ~ x z r v t m x g g n D C g g d a M S l 1 1 u S x j h c n c c c Z d ",
"O m Y D L x - u F D *.O.B b J f b g a v s d u z m z B D g g D g m h 9 1 + + 1 v x c z h c c j c g 6 ",
"& g K n g v 9 4 m m D b f b B f B K z v s C $ o y F v c y z y J J I v h 8 w + . r h M M S m l t t e ",
"3 D K p f n 1 < n a i B B b m g D x t v s t 6 G ` / I G m < J M F v j h k 0 $ ' ' W U U ! ! I F C d ",
"7 D G d v v ; * x a D b b F b y b b z Z x s = 6 d 0 d S u l S c a j C k S z 4 ' z n n m j r u z x j ",
"7 d C g v l ; $ n d p K F y n n f h d 9 s s 6 - ; % 1 @ ; : 6 u $ : t t t u T g b L ! T b r u c d u ",
"w 6 j h y j 8 @ d p n p r F m a b f j j k s s F G Z 7 j F K ! F Y S k s > O ^ g a g b f z c v v d d ",
"0 1 v j q v w O > t D [ ) J K n b a j c C 0 6 C s a j ! a a g x x t k C p O g p B B m z c m v h u u ",
"t : j c l l 9 + F D T F f z z f J n j j k k t x v 6 c d m m n d g d d s g > g C p n D m z j l v a s ",
"s ; 1 j l u ; = K a r n m n m x n z d j k 0 - 9 ; S m y d g n n g C C C d & p g d p s g j a a j u u ",
"9 = H v m C Z , x c u 9 r y r c l S m h v 8 0 % 1 S u l g f n f B z v c j = 9 S j k v c l j j a x g ",
"o 1 Z d p g z < < l v v m j u t l a h u u @ ; ; s v a z z g b b b a d d j @ . 6 u s u y 9 6 9 t 7 6 ",
"3 u n m J g d t . 1 < 1 4 < t r u * 5 y j 8 8 6 H n g n b B f n B B Z S l % % v _ ) E L S m m v g d ",
"e z D a n B z < < x j d d p z d 7 , z h h w w 6 ! J b n g B g n y m L W F , u m a h h z j z z z p d ",
"t # j c x 7 0 0 s u u y t r r u h r n y 8 y 8 - L W b N b z D b B b a b z * K v z b m m x z a i g g ",
"0 + v j d j l = v u j h j c x Z h 1 a h c M u q F ' b N N b L B B h b m S , I u f h b z b z b h g g ",
"9 . 9 v Z j s @ = 1 y h a r y r 4 , y l j u : , J X.J V N N L B b b x z z $ c m z b n z c v m m n g ",
"+ $ u A m m C ; c R ! ) W ! O.o.` W L S M h % X W %.W V J m D B b b m b x $ ; z M M S m v m M m n C ",
"6 t L g p G D 6 ! O.#.+.=.@.~ | ~ m n m M c u X z z f ~ J b f g B B g m 4 = . @ 3 y 9 ; q y 1 h t p ",
"x e g p g p > D z p n N n g N f g f z h M v t X 3 B B K p g D D U D g d t @ % x x M L v + 1 c H K K ",
"p & e e g t & F n g n g g B V g p b z y v j 6 $ h n f b B B B B f B n t x - 6 C j a M H % l m j C g ",
"p e C e D Z & g g C g B B n g g n z z z c u : ; M z i g B g f n a b g < s < t d a a a v : a a P L C ",
"C > G C x x 4 d D z z m p d g g x t f x j h 1 = l m a a p b f n B z a z s = t x x x s j , 9 r T K n ",
"6 & D k d g 3 g D m a z d p d F x y z c h v 9 % c j a x D W B N n x v Z 0 @ s d z u k l 8 j d e g p ",
"0 3 R C t z r i x F z h n z r D F v v c c A 8 ; c y c J L L n m m F x u : X d x Z d A A : s n s d d ",
"d 7 D d d n p m m g n M z n D g n c c M L F @ ; H h v z z a g z z m d c c X 7 j A j l A ; 0 u g j l ",
"s t k D C C 7 t k k C v v l d v x m M M S u % + m v K U L B x b n z d s t = s j l l j s ; 6 H c j j ",
"s 3 : 0 p d = & : 6 0 0 0 6 1 < 1 q q 1 < % + * 1 1 u b b f i i u 9 t 7 6 $ j v l l l s = : S k v m "
};
